<?xml version="1.0" encoding="utf-8"?>
<!-- Generator: Adobe Illustrator 16.0.0, SVG Export Plug-In . SVG Version: 6.00 Build 0)  -->
<!DOCTYPE svg PUBLIC "-//W3C//DTD SVG 1.1//EN" "http://www.w3.org/Graphics/SVG/1.1/DTD/svg11.dtd">
<svg version="1.1" id="Layer_1" xmlns="http://www.w3.org/2000/svg" xmlns:xlink="http://www.w3.org/1999/xlink" x="0px" y="0px"
	 width="513.482px" height="81.617px" viewBox="0 0 513.482 81.617" enable-background="new 0 0 513.482 81.617"
	 xml:space="preserve">
<g>
	<g>
		<path fill="#3C4042" d="M121.205-438.134h-8.176v8.506h-5.449v-28.903c4.541,0,9.084-0.041,13.625-0.041
			C135.326-458.573,135.367-438.134,121.205-438.134 M113.029-443.13h8.176c6.978,0,6.937-10.239,0-10.239h-8.176V-443.13z"/>
		<path fill="#3C4042" d="M163.898-443.915c-0.082,7.475-4.665,14.945-14.822,14.945c-10.158,0-14.865-7.307-14.865-14.904
			s4.873-15.236,14.865-15.236C159.026-459.11,163.981-451.471,163.898-443.915 M139.58-443.791
			c0.123,4.748,2.684,9.826,9.496,9.826c6.813,0,9.373-5.119,9.455-9.868c0.082-4.872-2.642-10.322-9.455-10.322
			C142.263-454.155,139.455-448.664,139.58-443.791"/>
		<polygon fill="#3C4042" points="197.839,-429.628 193.216,-429.628 189.623,-438.712 186.569,-447.837 183.554,-438.629 
			180.044,-429.628 175.419,-429.628 164.808,-458.532 170.919,-458.532 177.732,-437.68 184.751,-458.532 188.302,-458.532 
			195.528,-437.68 202.134,-458.532 208.245,-458.532 		"/>
		<polygon fill="#3C4042" points="233.144,-429.628 211.506,-429.628 211.506,-458.532 233.144,-458.532 233.144,-453.247 
			216.916,-453.247 216.916,-446.6 232.566,-446.6 232.566,-441.52 216.916,-441.52 216.916,-434.997 233.144,-434.997 		"/>
		<path fill="#3C4042" d="M262.996-429.628h-6.482l-8.422-9.662h-5.244v9.662h-5.451v-28.944c4.584,0,9.168,0.041,13.75,0.041
			c6.813,0.041,10.407,4.583,10.407,9.579c0,3.964-1.818,7.97-7.311,9.084l8.754,9.868V-429.628z M242.847-453.453v9.249h8.299
			c3.469,0,4.956-2.312,4.956-4.625s-1.527-4.624-4.956-4.624H242.847z"/>
		<rect x="265.886" y="-458.532" fill="#3C4042" width="2.189" height="28.902"/>
		<polygon fill="#3C4042" points="275.425,-458.532 294.873,-434.625 294.873,-458.532 297.06,-458.532 297.06,-429.629 
			296.193,-429.629 276.705,-453.495 276.705,-429.629 274.474,-429.629 274.474,-458.532 		"/>
		<polygon fill="#3C4042" points="305.732,-444.782 322.373,-444.782 322.373,-442.676 305.732,-442.676 305.732,-429.588 
			303.501,-429.588 303.501,-458.532 322.949,-458.532 322.949,-456.303 305.732,-456.303 		"/>
		<polygon fill="#3C4042" points="330.093,-458.532 330.093,-431.734 346.363,-431.734 346.363,-429.629 327.865,-429.629 
			327.865,-458.532 		"/>
		<path fill="#3C4042" d="M371.013-458.532v17.961c0,15.112-22.133,15.154-22.133,0v-17.961h2.189v17.961
			c0,12.429,17.754,12.388,17.754,0v-17.961H371.013z"/>
		<polygon fill="#3C4042" points="379.271,-445.195 396.201,-445.195 396.201,-443.172 379.271,-443.172 379.271,-431.776 
			397.521,-431.776 397.521,-429.629 377.083,-429.629 377.083,-458.532 397.027,-458.532 397.027,-456.426 379.271,-456.426 		"/>
		<polygon fill="#3C4042" points="404.292,-458.532 423.74,-434.625 423.74,-458.532 425.929,-458.532 425.929,-429.629 
			425.062,-429.629 405.572,-453.495 405.572,-429.629 403.343,-429.629 403.343,-458.532 		"/>
		<path fill="#3C4042" d="M456.238-433.633c-2.891,2.891-6.73,4.335-10.529,4.335c-9.746,0-14.824-6.813-14.865-14.616
			c-0.082-7.722,4.955-14.947,14.865-14.947c3.799,0,7.639,1.445,10.529,4.334l-1.529,1.322c-2.477-2.477-5.738-3.675-9-3.675
			c-8.424,0-12.76,5.946-12.719,12.883c0.084,6.771,4.377,12.636,12.719,12.636c3.262,0,6.564-1.24,9.041-3.676L456.238-433.633z"/>
		<polygon fill="#3C4042" points="463.626,-445.195 480.556,-445.195 480.556,-443.172 463.626,-443.172 463.626,-431.776 
			481.876,-431.776 481.876,-429.629 461.439,-429.629 461.439,-458.532 481.382,-458.532 481.382,-456.426 463.626,-456.426 		"/>
		<path fill="#3C4042" d="M509.873-429.628h-2.932l-9.992-10.942h-7.887v10.942h-2.23v-28.903h12.719
			c6.275,0,9.455,4.502,9.496,9.002c0.041,4.707-3.055,8.836-9.373,8.836L509.873-429.628z M489.062-442.676h10.24
			c5.037,0,7.268-2.85,7.309-6.896c0.041-3.385-2.271-6.895-7.061-6.895h-10.488V-442.676z"/>
		<path fill="#166354" d="M51.479-441.119c0-14.772,5.755-27.557,14.136-33.771c-1.73-1.283-3.572-2.285-5.5-2.967
			c-11.263,3.982-19.636,18.914-19.636,36.737s8.373,32.754,19.636,36.737c1.928-0.681,3.77-1.684,5.5-2.966
			C57.234-413.561,51.479-426.346,51.479-441.119"/>
	</g>
	<g>
		<defs>
			<path id="SVGID_1_" d="M60.115-477.857c1.928,0.683,3.77,1.685,5.499,2.968c8.383,6.213,16.527,16.519,16.137,33.771
				c-0.399,17.577-7.754,27.557-16.137,33.771c-1.729,1.284-3.571,2.285-5.499,2.966c1.926,0.683,3.934,1.053,6,1.053
				c1.889,0,3.728-0.311,5.5-0.881c11.515-3.712,20.136-18.822,20.136-36.908c0-18.087-8.621-33.195-20.136-36.907
				c-1.772-0.57-3.611-0.882-5.5-0.882C64.048-478.908,62.041-478.537,60.115-477.857"/>
		</defs>
		<clipPath id="SVGID_2_">
			<use xlink:href="#SVGID_1_"  overflow="visible"/>
		</clipPath>
		
			<linearGradient id="SVGID_3_" gradientUnits="userSpaceOnUse" x1="-129.8101" y1="-72.5449" x2="-128.8101" y2="-72.5449" gradientTransform="matrix(44.1982 -44.1982 -44.1982 -44.1982 2580.6819 -9358.5322)">
			<stop  offset="0" style="stop-color:#128A76"/>
			<stop  offset="0.22" style="stop-color:#148D77"/>
			<stop  offset="0.4027" style="stop-color:#19987A"/>
			<stop  offset="0.5722" style="stop-color:#21A97F"/>
			<stop  offset="0.7336" style="stop-color:#2DC186"/>
			<stop  offset="0.8878" style="stop-color:#3CE08F"/>
			<stop  offset="1" style="stop-color:#4AFC97"/>
		</linearGradient>
		<polygon clip-path="url(#SVGID_2_)" fill="url(#SVGID_3_)" points="22.326,-441.119 75.933,-494.725 129.54,-441.119 
			75.933,-387.512 		"/>
	</g>
	<g>
		<path fill="#177261" d="M68.945-408.904c-0.107-0.024-0.216-0.063-0.324-0.092c-1.024-0.673-10.06-6.016-13.526-8.294
			c-2.986-1.961-5.974-3.92-8.96-5.88c-0.205-0.134-0.41-0.269-0.615-0.402l-1.246-0.818c-2.065-1.355-4.131-2.708-6.194-4.067
			c-0.407-0.269-0.781-0.556-1.127-0.856c-1.896-1.657-2.849-3.792-2.942-6.323c-0.016-0.396-0.011-0.801,0.016-1.216
			c0.18-2.779,0.368-5.558,0.558-8.336c0.178-2.589,0.355-5.177,0.53-7.767c0.099-1.466,0.201-2.932,0.303-4.396
			c0.255-3.668,0.511-7.336,0.732-11.006c0.003-0.059,0.01-0.113,0.014-0.17c0.252-3.469,1.761-6.026,4.724-7.691
			c-0.126,0.002-0.252,0.01-0.378,0.018c-3.008,1.429-6.013,2.859-9.022,4.281c-1.04,0.491-1.922,1.078-2.659,1.758
			c-1.766,1.625-2.688,3.789-2.852,6.504c-0.004,0.07-0.009,0.14-0.013,0.209c-0.096,1.563-0.203,3.127-0.308,4.69
			c-0.165,2.458-0.329,4.917-0.499,7.375c-0.072,1.043-0.145,2.086-0.216,3.129c-0.136,2.031-0.276,4.06-0.415,6.091
			c-0.229,3.338-0.456,6.674-0.672,10.012c-0.064,0.992-0.006,1.928,0.17,2.808c0.328,1.639,1.078,3.079,2.285,4.289
			c0.285,0.287,0.596,0.56,0.933,0.82c0.213,0.165,0.433,0.326,0.666,0.479c2.765,1.821,5.533,3.635,8.301,5.45
			c2.854,1.871,5.701,3.749,8.554,5.621c0.211,0.138,0.421,0.277,0.631,0.415c3.015,1.979,6.031,3.96,9.039,5.95
			c0.336,0.221,0.673,0.44,1.008,0.663c1.818,1.203,3.67,1.728,5.55,1.637c0.154-0.007,0.309-0.021,0.462-0.037
			c0.512-0.243,1.022-0.485,1.533-0.728c2.039-0.969,4.078-1.938,6.118-2.905c0.148-0.071,0.298-0.142,0.446-0.212
			c0.119-0.058,0.232-0.118,0.35-0.178c0.023-0.011,0.045-0.022,0.068-0.033c0.378-0.193,0.74-0.395,1.084-0.607
			c0.115-0.073,0.227-0.147,0.339-0.222c-0.156,0.074-0.312,0.147-0.468,0.222C70.258-408.708,69.599-408.759,68.945-408.904"/>
	</g>
	<g>
		<defs>
			<path id="SVGID_4_" d="M72.03-409.512c-0.167,0.166-0.336,0.326-0.502,0.474c0.268-0.127,0.541-0.406,0.818-0.726
				C72.241-409.68,72.137-409.595,72.03-409.512 M73.807-411.36c0.001,0,0.002-0.001,0.002-0.003
				C73.809-411.362,73.808-411.361,73.807-411.36 M40.273-476.09c-0.125,0.004-0.252,0.013-0.378,0.021
				c-2.989,1.466-5.976,2.934-8.968,4.393c-1.034,0.504-1.908,1.102-2.637,1.789c2.462-0.563,4.881,0.022,7.02,1.336
				c0.112,0.07,0.223,0.141,0.335,0.209c2.759,1.699,5.504,3.42,8.242,5.153c4.424,2.798,8.831,5.625,13.232,8.462
				c1.794,1.156,3.589,2.312,5.383,3.469c3.498,2.252,5.257,5.313,4.934,9.715c-0.726,9.912-1.277,19.843-1.663,29.774
				c-0.008,0.197-0.023,0.386-0.039,0.576c-0.015,0.195-0.034,0.386-0.056,0.574c-0.013,0.114-0.027,0.227-0.043,0.34
				c-0.288,2.001-1.001,3.662-2.129,5.041c-0.748,0.365-1.497,0.729-2.245,1.094c0.154-0.009,0.307-0.023,0.462-0.042
				c0.316-0.036,0.633-0.079,0.95-0.15c0.771-0.174,1.546-0.447,2.324-0.824c1.635-0.792,3.172-1.781,4.805-2.577
				c0.258-0.126,0.425-0.438,0.682-0.565l0.099-0.048c0.28-0.141,0.607-0.388,0.945-0.688c-0.089,0.042-0.177,0.067-0.264,0.071
				c0.115-0.073,0.225-0.149,0.335-0.226c0.15-0.102,0.292-0.21,0.431-0.319c0.711-0.704,1.401-1.52,1.771-1.963
				c-0.006,0.018,0.016,0.097,0.009,0.112c1.384-1.703,2.178-3.776,2.281-6.445c0.388-9.932,0.949-19.838,1.676-29.751
				c0.279-3.812-0.994-6.594-3.614-8.74c-0.404-0.332-0.84-0.649-1.308-0.951c-3.276-2.109-6.551-4.219-9.83-6.326
				c-4.147-2.665-8.305-5.312-12.484-7.928c-1.623-1.016-3.247-2.033-4.878-3.037c-1.59-0.979-3.334-1.551-5.137-1.551
				C40.435-476.092,40.354-476.092,40.273-476.09"/>
		</defs>
		<clipPath id="SVGID_5_">
			<use xlink:href="#SVGID_4_"  overflow="visible"/>
		</clipPath>
		
			<linearGradient id="SVGID_6_" gradientUnits="userSpaceOnUse" x1="-132.7534" y1="-73.8486" x2="-131.7544" y2="-73.8486" gradientTransform="matrix(136.0045 90.1534 90.1534 -136.0045 24657.7363 1412.6494)">
			<stop  offset="0" style="stop-color:#4AFC97"/>
			<stop  offset="0.3212" style="stop-color:#49FA96"/>
			<stop  offset="0.495" style="stop-color:#45F294"/>
			<stop  offset="0.6334" style="stop-color:#3EE490"/>
			<stop  offset="0.7533" style="stop-color:#35D18A"/>
			<stop  offset="0.8611" style="stop-color:#28B883"/>
			<stop  offset="0.9588" style="stop-color:#19997A"/>
			<stop  offset="1" style="stop-color:#128A76"/>
		</linearGradient>
		<polygon clip-path="url(#SVGID_5_)" fill="url(#SVGID_6_)" points="43.479,-499.006 111.179,-454.129 62.857,-381.231 
			-4.844,-426.107 		"/>
	</g>
	<g>
		<path fill="#1F8975" d="M69.263-411.106c-0.109,0.022-0.224,0.031-0.333,0.051c-1.211-0.19-11.647-1.325-15.745-1.968
			c-3.529-0.554-7.059-1.104-10.588-1.656c-0.242-0.038-0.484-0.076-0.727-0.113c-0.491-0.077-0.981-0.153-1.473-0.23
			c-2.44-0.381-4.881-0.761-7.32-1.146c-0.482-0.076-0.941-0.184-1.381-0.314c-2.412-0.727-4.16-2.278-5.291-4.544
			c-0.177-0.354-0.34-0.726-0.487-1.113c-0.984-2.606-1.96-5.214-2.935-7.823c-0.908-2.431-1.814-4.862-2.724-7.292
			c-0.516-1.376-1.027-2.753-1.54-4.13c-1.282-3.446-2.564-6.892-3.878-10.326c-0.021-0.054-0.037-0.106-0.057-0.159
			c-1.203-3.265-0.886-6.216,1.125-8.955c-0.112,0.053-0.226,0.111-0.338,0.17c-2.147,2.543-4.294,5.088-6.448,7.625
			c-0.745,0.877-1.305,1.776-1.695,2.699c-0.938,2.209-0.884,4.561,0.089,7.102c0.023,0.066,0.048,0.131,0.073,0.195
			c0.56,1.465,1.106,2.933,1.657,4.399c0.865,2.308,1.73,4.612,2.59,6.922c0.366,0.979,0.73,1.96,1.097,2.94
			c0.714,1.904,1.425,3.812,2.136,5.718c1.17,3.134,2.341,6.267,3.523,9.396c0.351,0.93,0.791,1.758,1.313,2.486
			c0.976,1.358,2.254,2.359,3.853,2.963c0.378,0.144,0.774,0.264,1.188,0.361c0.261,0.062,0.528,0.118,0.804,0.162
			c3.271,0.517,6.541,1.025,9.812,1.536c3.371,0.526,6.74,1.06,10.11,1.588c0.25,0.039,0.499,0.079,0.746,0.118
			c3.564,0.558,7.129,1.115,10.689,1.686c0.397,0.063,0.795,0.124,1.192,0.188c2.152,0.345,4.056,0.058,5.73-0.802
			c0.137-0.07,0.271-0.146,0.405-0.225c0.365-0.432,0.73-0.863,1.096-1.295c1.457-1.726,2.914-3.45,4.372-5.173
			c0.107-0.125,0.213-0.251,0.319-0.377c0.086-0.102,0.164-0.204,0.246-0.306c0.016-0.02,0.031-0.04,0.048-0.06
			c0.264-0.331,0.512-0.664,0.735-1.001c0.076-0.113,0.146-0.228,0.218-0.341c-0.112,0.132-0.224,0.263-0.335,0.395
			C70.54-411.469,69.918-411.245,69.263-411.106"/>
	</g>
	<g>
		<defs>
			<path id="SVGID_7_" d="M71.377-412.717c-0.084,0.221-0.172,0.436-0.263,0.638c0.19-0.227,0.325-0.593,0.445-0.997
				C71.5-412.957,71.439-412.836,71.377-412.717 M72.231-415.134c0.001-0.001,0.001-0.002,0.001-0.004
				C72.232-415.136,72.232-415.135,72.231-415.134 M14.963-460.242c-0.114,0.056-0.227,0.114-0.337,0.176
				c-2.117,2.569-4.231,5.142-6.355,7.704c-0.732,0.885-1.283,1.792-1.662,2.719c2.011-1.529,4.455-1.996,6.946-1.682
				c0.13,0.018,0.261,0.035,0.391,0.052c3.215,0.407,6.426,0.843,9.635,1.289c5.185,0.722,10.365,1.478,15.546,2.243
				c2.11,0.312,4.223,0.625,6.336,0.938c4.113,0.606,6.979,2.668,8.504,6.81c3.432,9.327,7.03,18.6,10.779,27.805
				c0.074,0.182,0.138,0.361,0.202,0.541c0.067,0.183,0.128,0.364,0.187,0.545c0.035,0.109,0.07,0.219,0.102,0.328
				c0.563,1.94,0.601,3.748,0.143,5.47c-0.53,0.643-1.062,1.283-1.593,1.923c0.137-0.07,0.27-0.148,0.402-0.228
				c0.273-0.164,0.544-0.333,0.804-0.529c0.632-0.477,1.224-1.047,1.775-1.711c1.163-1.396,2.154-2.933,3.313-4.331
				c0.184-0.221,0.206-0.572,0.387-0.797c0.023-0.026,0.046-0.056,0.07-0.084c0.197-0.244,0.394-0.604,0.577-1.018
				c-0.063,0.076-0.134,0.136-0.212,0.175c0.075-0.114,0.144-0.229,0.213-0.344c0.095-0.155,0.18-0.312,0.262-0.469
				c0.355-0.934,0.646-1.963,0.801-2.519c0.001,0.019,0.053,0.08,0.054,0.098c0.559-2.122,0.424-4.338-0.583-6.811
				c-3.749-9.206-7.328-18.46-10.759-27.789c-1.319-3.587-3.628-5.595-6.901-6.468c-0.506-0.135-1.031-0.244-1.583-0.325
				c-3.854-0.569-7.709-1.14-11.564-1.704c-4.878-0.714-9.758-1.409-14.644-2.064c-1.898-0.256-3.798-0.513-5.698-0.752
				c-0.485-0.062-0.97-0.094-1.447-0.094C17.623-461.145,16.233-460.862,14.963-460.242"/>
		</defs>
		<clipPath id="SVGID_8_">
			<use xlink:href="#SVGID_7_"  overflow="visible"/>
		</clipPath>
		
			<linearGradient id="SVGID_9_" gradientUnits="userSpaceOnUse" x1="-132.2705" y1="-73.6338" x2="-131.2694" y2="-73.6338" gradientTransform="matrix(161.0946 25.9494 25.9494 -161.0946 23131.8105 -8882.3848)">
			<stop  offset="0" style="stop-color:#4AFC97"/>
			<stop  offset="0.3212" style="stop-color:#49FA96"/>
			<stop  offset="0.495" style="stop-color:#45F294"/>
			<stop  offset="0.6334" style="stop-color:#3EE490"/>
			<stop  offset="0.7533" style="stop-color:#35D18A"/>
			<stop  offset="0.8611" style="stop-color:#28B883"/>
			<stop  offset="0.9588" style="stop-color:#19997A"/>
			<stop  offset="1" style="stop-color:#128A76"/>
		</linearGradient>
		<polygon clip-path="url(#SVGID_8_)" fill="url(#SVGID_9_)" points="8.283,-471.536 81.86,-459.684 71.117,-392.991 
			-2.46,-404.842 		"/>
	</g>
</g>
<g>
	<path fill="#166354" d="M49.979,40.357c0-14.772,5.755-27.557,14.136-33.771c-1.73-1.283-3.572-2.285-5.5-2.967
		C47.352,7.603,38.979,22.534,38.979,40.357s8.373,32.754,19.636,36.737c1.928-0.681,3.77-1.684,5.5-2.966
		C55.734,67.915,49.979,55.13,49.979,40.357"/>
	<g>
		<path fill="#FFFFFF" d="M119.705,43.342h-8.176v8.506h-5.449V22.944c4.541,0,9.084-0.041,13.625-0.041
			C133.826,22.903,133.867,43.342,119.705,43.342 M111.529,38.346h8.176c6.978,0,6.937-10.239,0-10.239h-8.176V38.346z"/>
		<path fill="#FFFFFF" d="M162.398,37.562c-0.082,7.475-4.665,14.945-14.822,14.945c-10.158,0-14.865-7.307-14.865-14.904
			s4.873-15.236,14.865-15.236C157.526,22.366,162.481,30.005,162.398,37.562 M138.08,37.686c0.123,4.748,2.684,9.826,9.496,9.826
			c6.813,0,9.373-5.119,9.455-9.868c0.082-4.872-2.642-10.322-9.455-10.322C140.763,27.321,137.955,32.812,138.08,37.686"/>
		<polygon fill="#FFFFFF" points="196.339,51.848 191.716,51.848 188.123,42.764 185.069,33.639 182.054,42.847 178.544,51.848 
			173.919,51.848 163.308,22.944 169.419,22.944 176.232,43.796 183.251,22.944 186.802,22.944 194.028,43.796 200.634,22.944 
			206.745,22.944 		"/>
		<polygon fill="#FFFFFF" points="231.644,51.848 210.006,51.848 210.006,22.944 231.644,22.944 231.644,28.229 215.416,28.229 
			215.416,34.876 231.066,34.876 231.066,39.956 215.416,39.956 215.416,46.479 231.644,46.479 		"/>
		<path fill="#FFFFFF" d="M261.496,51.848h-6.482l-8.422-9.662h-5.244v9.662h-5.451V22.903c4.584,0,9.168,0.041,13.75,0.041
			c6.813,0.041,10.407,4.583,10.407,9.579c0,3.964-1.818,7.97-7.311,9.084l8.754,9.868V51.848z M241.347,28.023v9.249h8.299
			c3.469,0,4.956-2.312,4.956-4.625s-1.527-4.624-4.956-4.624H241.347z"/>
		<rect x="264.386" y="22.944" fill="#FFFFFF" width="2.189" height="28.902"/>
		<polygon fill="#FFFFFF" points="273.925,22.944 293.373,46.852 293.373,22.944 295.56,22.944 295.56,51.847 294.693,51.847 
			275.205,27.981 275.205,51.847 272.974,51.847 272.974,22.944 		"/>
		<polygon fill="#FFFFFF" points="304.232,36.694 320.873,36.694 320.873,38.8 304.232,38.8 304.232,51.888 302.001,51.888 
			302.001,22.944 321.449,22.944 321.449,25.173 304.232,25.173 		"/>
		<polygon fill="#FFFFFF" points="328.593,22.944 328.593,49.742 344.863,49.742 344.863,51.847 326.365,51.847 326.365,22.944 		
			"/>
		<path fill="#FFFFFF" d="M369.513,22.944v17.961c0,15.112-22.133,15.154-22.133,0V22.944h2.189v17.961
			c0,12.429,17.754,12.388,17.754,0V22.944H369.513z"/>
		<polygon fill="#FFFFFF" points="377.771,36.281 394.701,36.281 394.701,38.304 377.771,38.304 377.771,49.7 396.021,49.7 
			396.021,51.847 375.583,51.847 375.583,22.944 395.527,22.944 395.527,25.05 377.771,25.05 		"/>
		<polygon fill="#FFFFFF" points="402.792,22.944 422.24,46.852 422.24,22.944 424.429,22.944 424.429,51.847 423.562,51.847 
			404.072,27.981 404.072,51.847 401.843,51.847 401.843,22.944 		"/>
		<path fill="#FFFFFF" d="M454.738,47.843c-2.891,2.891-6.73,4.335-10.529,4.335c-9.746,0-14.824-6.813-14.865-14.616
			c-0.082-7.722,4.955-14.947,14.865-14.947c3.799,0,7.639,1.445,10.529,4.334l-1.529,1.322c-2.477-2.477-5.738-3.675-9-3.675
			c-8.424,0-12.76,5.946-12.719,12.883c0.084,6.771,4.377,12.636,12.719,12.636c3.262,0,6.564-1.24,9.041-3.676L454.738,47.843z"/>
		<polygon fill="#FFFFFF" points="462.126,36.281 479.056,36.281 479.056,38.304 462.126,38.304 462.126,49.7 480.376,49.7 
			480.376,51.847 459.939,51.847 459.939,22.944 479.882,22.944 479.882,25.05 462.126,25.05 		"/>
		<path fill="#FFFFFF" d="M508.373,51.848h-2.932l-9.992-10.942h-7.887v10.942h-2.23V22.944h12.719c6.275,0,9.455,4.502,9.496,9.002
			c0.041,4.707-3.055,8.836-9.373,8.836L508.373,51.848z M487.562,38.8h10.24c5.037,0,7.268-2.85,7.309-6.896
			c0.041-3.385-2.271-6.895-7.061-6.895h-10.488V38.8z"/>
	</g>
	<g>
		<defs>
			<path id="SVGID_10_" d="M58.615,3.619c1.928,0.683,3.77,1.685,5.499,2.968C72.497,12.8,80.641,23.105,80.25,40.357
				c-0.399,17.577-7.754,27.557-16.137,33.771c-1.729,1.284-3.571,2.285-5.499,2.966c1.926,0.683,3.934,1.053,6,1.053
				c1.889,0,3.728-0.311,5.5-0.881C81.629,73.554,90.25,58.443,90.25,40.357c0-18.087-8.621-33.195-20.136-36.907
				c-1.772-0.57-3.611-0.882-5.5-0.882C62.548,2.568,60.541,2.939,58.615,3.619"/>
		</defs>
		<clipPath id="SVGID_11_">
			<use xlink:href="#SVGID_10_"  overflow="visible"/>
		</clipPath>
		
			<linearGradient id="SVGID_12_" gradientUnits="userSpaceOnUse" x1="-135.2739" y1="-77.9746" x2="-134.2739" y2="-77.9746" gradientTransform="matrix(44.1982 -44.1982 -44.1982 -44.1982 2580.6819 -9358.5322)">
			<stop  offset="0" style="stop-color:#128A76"/>
			<stop  offset="0.22" style="stop-color:#148D77"/>
			<stop  offset="0.4027" style="stop-color:#19987A"/>
			<stop  offset="0.5722" style="stop-color:#21A97F"/>
			<stop  offset="0.7336" style="stop-color:#2DC186"/>
			<stop  offset="0.8878" style="stop-color:#3CE08F"/>
			<stop  offset="1" style="stop-color:#4AFC97"/>
		</linearGradient>
		<polygon clip-path="url(#SVGID_11_)" fill="url(#SVGID_12_)" points="20.826,40.357 74.433,-13.249 128.04,40.357 74.433,93.964 
					"/>
	</g>
	<g>
		<path fill="#177261" d="M67.445,72.572c-0.107-0.024-0.216-0.063-0.324-0.092c-1.024-0.673-10.06-6.016-13.526-8.294
			c-2.986-1.961-5.974-3.92-8.96-5.88c-0.205-0.134-0.41-0.269-0.615-0.402l-1.246-0.818c-2.065-1.355-4.131-2.708-6.194-4.067
			c-0.407-0.269-0.781-0.556-1.127-0.856c-1.896-1.657-2.849-3.792-2.942-6.323c-0.016-0.396-0.011-0.801,0.016-1.216
			c0.18-2.779,0.368-5.558,0.558-8.336c0.178-2.589,0.355-5.177,0.53-7.767c0.099-1.466,0.201-2.932,0.303-4.396
			c0.255-3.668,0.511-7.336,0.732-11.006c0.003-0.059,0.01-0.113,0.014-0.17c0.252-3.469,1.761-6.026,4.724-7.691
			c-0.126,0.002-0.252,0.01-0.378,0.018C36,6.703,32.995,8.134,29.985,9.556c-1.04,0.491-1.922,1.078-2.659,1.758
			c-1.766,1.625-2.688,3.789-2.852,6.504c-0.004,0.07-0.009,0.14-0.013,0.209c-0.096,1.563-0.203,3.127-0.308,4.69
			c-0.165,2.458-0.329,4.917-0.499,7.375c-0.072,1.043-0.145,2.086-0.216,3.129c-0.136,2.031-0.276,4.06-0.415,6.091
			c-0.229,3.338-0.456,6.674-0.672,10.012c-0.064,0.992-0.006,1.928,0.17,2.808c0.328,1.639,1.078,3.079,2.285,4.289
			c0.285,0.287,0.596,0.56,0.933,0.82c0.213,0.165,0.433,0.326,0.666,0.479c2.765,1.821,5.533,3.635,8.301,5.45
			c2.854,1.871,5.701,3.749,8.554,5.621c0.211,0.138,0.421,0.277,0.631,0.415c3.015,1.979,6.031,3.96,9.039,5.95
			c0.336,0.221,0.673,0.44,1.008,0.663c1.818,1.203,3.67,1.728,5.55,1.637c0.154-0.007,0.309-0.021,0.462-0.037
			c0.512-0.243,1.022-0.485,1.533-0.728c2.039-0.969,4.078-1.938,6.118-2.905c0.148-0.071,0.298-0.142,0.446-0.212
			c0.119-0.058,0.232-0.118,0.35-0.178c0.023-0.011,0.045-0.022,0.068-0.033c0.378-0.193,0.74-0.395,1.084-0.607
			c0.115-0.073,0.227-0.147,0.339-0.222c-0.156,0.074-0.312,0.147-0.468,0.222C68.758,72.769,68.099,72.717,67.445,72.572"/>
	</g>
	<g>
		<defs>
			<path id="SVGID_13_" d="M70.53,71.964c-0.167,0.166-0.336,0.326-0.502,0.474c0.268-0.127,0.541-0.406,0.818-0.726
				C70.741,71.796,70.637,71.881,70.53,71.964 M72.307,70.116c0.001,0,0.002-0.001,0.002-0.003
				C72.309,70.114,72.308,70.115,72.307,70.116 M38.773,5.386c-0.125,0.004-0.252,0.013-0.378,0.021
				c-2.989,1.466-5.976,2.934-8.968,4.393c-1.034,0.504-1.908,1.102-2.637,1.789c2.462-0.563,4.881,0.022,7.02,1.336
				c0.112,0.07,0.223,0.141,0.335,0.209c2.759,1.699,5.504,3.42,8.242,5.153c4.424,2.798,8.831,5.625,13.232,8.462
				c1.794,1.156,3.589,2.312,5.383,3.469c3.498,2.252,5.257,5.313,4.934,9.715c-0.726,9.912-1.277,19.843-1.663,29.774
				c-0.008,0.197-0.023,0.386-0.039,0.576c-0.015,0.195-0.034,0.386-0.056,0.574c-0.013,0.114-0.027,0.227-0.043,0.34
				c-0.288,2.001-1.001,3.662-2.129,5.041c-0.748,0.365-1.497,0.729-2.245,1.094c0.154-0.009,0.307-0.023,0.462-0.042
				c0.316-0.036,0.633-0.079,0.95-0.15c0.771-0.174,1.546-0.447,2.324-0.824c1.635-0.792,3.172-1.781,4.805-2.577
				c0.258-0.126,0.425-0.438,0.682-0.565l0.099-0.048c0.28-0.141,0.607-0.388,0.945-0.688c-0.089,0.042-0.177,0.067-0.264,0.071
				c0.115-0.073,0.225-0.149,0.335-0.226c0.15-0.102,0.292-0.21,0.431-0.319c0.711-0.704,1.401-1.52,1.771-1.963
				c-0.006,0.018,0.016,0.097,0.009,0.112c1.384-1.703,2.178-3.776,2.281-6.445c0.388-9.932,0.949-19.838,1.676-29.751
				c0.279-3.812-0.994-6.594-3.614-8.74c-0.404-0.332-0.84-0.649-1.308-0.951c-3.276-2.109-6.551-4.219-9.83-6.326
				c-4.147-2.665-8.305-5.312-12.484-7.928c-1.623-1.016-3.247-2.033-4.878-3.037c-1.59-0.979-3.334-1.551-5.137-1.551
				C38.935,5.384,38.854,5.384,38.773,5.386"/>
		</defs>
		<clipPath id="SVGID_14_">
			<use xlink:href="#SVGID_13_"  overflow="visible"/>
		</clipPath>
		
			<linearGradient id="SVGID_15_" gradientUnits="userSpaceOnUse" x1="-131.1313" y1="-76.3125" x2="-130.1313" y2="-76.3125" gradientTransform="matrix(136.0045 90.1534 90.1534 -136.0045 24657.7363 1412.6494)">
			<stop  offset="0" style="stop-color:#4AFC97"/>
			<stop  offset="0.3212" style="stop-color:#49FA96"/>
			<stop  offset="0.495" style="stop-color:#45F294"/>
			<stop  offset="0.6334" style="stop-color:#3EE490"/>
			<stop  offset="0.7533" style="stop-color:#35D18A"/>
			<stop  offset="0.8611" style="stop-color:#28B883"/>
			<stop  offset="0.9588" style="stop-color:#19997A"/>
			<stop  offset="1" style="stop-color:#128A76"/>
		</linearGradient>
		<polygon clip-path="url(#SVGID_14_)" fill="url(#SVGID_15_)" points="41.979,-17.53 109.679,27.347 61.357,100.245 -6.344,55.369 
					"/>
	</g>
	<g>
		<path fill="#1F8975" d="M67.763,70.37c-0.109,0.022-0.224,0.031-0.333,0.051c-1.211-0.19-11.647-1.325-15.745-1.968
			c-3.529-0.554-7.059-1.104-10.588-1.656c-0.242-0.038-0.484-0.076-0.727-0.113c-0.491-0.077-0.981-0.153-1.473-0.23
			c-2.44-0.381-4.881-0.761-7.32-1.146c-0.482-0.076-0.941-0.184-1.381-0.314c-2.412-0.727-4.16-2.278-5.291-4.544
			c-0.177-0.354-0.34-0.726-0.487-1.113c-0.984-2.606-1.96-5.214-2.935-7.823c-0.908-2.431-1.814-4.862-2.724-7.292
			c-0.516-1.376-1.027-2.753-1.54-4.13c-1.282-3.446-2.564-6.892-3.878-10.326c-0.021-0.054-0.037-0.106-0.057-0.159
			c-1.203-3.265-0.886-6.216,1.125-8.955c-0.112,0.053-0.226,0.111-0.338,0.17c-2.147,2.543-4.294,5.088-6.448,7.625
			c-0.745,0.877-1.305,1.776-1.695,2.699c-0.938,2.209-0.884,4.561,0.089,7.102c0.023,0.066,0.048,0.131,0.073,0.195
			c0.56,1.465,1.106,2.933,1.657,4.399c0.865,2.308,1.73,4.612,2.59,6.922c0.366,0.979,0.73,1.96,1.097,2.94
			c0.714,1.904,1.425,3.812,2.136,5.718c1.17,3.134,2.341,6.267,3.523,9.396c0.351,0.93,0.791,1.758,1.313,2.486
			c0.976,1.358,2.254,2.359,3.853,2.963c0.378,0.144,0.774,0.264,1.188,0.361c0.261,0.062,0.528,0.118,0.804,0.162
			c3.271,0.517,6.541,1.025,9.812,1.536c3.371,0.526,6.74,1.06,10.11,1.588c0.25,0.039,0.499,0.079,0.746,0.118
			c3.564,0.558,7.129,1.115,10.689,1.686c0.397,0.063,0.795,0.124,1.192,0.188c2.152,0.345,4.056,0.058,5.73-0.802
			c0.137-0.07,0.271-0.146,0.405-0.225c0.365-0.432,0.73-0.863,1.096-1.295c1.457-1.726,2.914-3.45,4.372-5.173
			c0.107-0.125,0.213-0.251,0.319-0.377c0.086-0.102,0.164-0.204,0.246-0.306c0.016-0.02,0.031-0.04,0.048-0.06
			c0.264-0.331,0.512-0.664,0.735-1.001c0.076-0.113,0.146-0.228,0.218-0.341c-0.112,0.132-0.224,0.263-0.335,0.395
			C69.04,70.007,68.418,70.231,67.763,70.37"/>
	</g>
	<g>
		<defs>
			<path id="SVGID_16_" d="M69.877,68.759c-0.084,0.221-0.172,0.436-0.263,0.638c0.19-0.227,0.325-0.593,0.445-0.997
				C70,68.52,69.939,68.64,69.877,68.759 M70.731,66.342c0.001-0.001,0.001-0.002,0.001-0.004
				C70.732,66.34,70.732,66.341,70.731,66.342 M13.463,21.234c-0.114,0.056-0.227,0.114-0.337,0.176
				c-2.117,2.569-4.231,5.142-6.355,7.704c-0.732,0.885-1.283,1.792-1.662,2.719c2.011-1.529,4.455-1.996,6.946-1.682
				c0.13,0.018,0.261,0.035,0.391,0.052c3.215,0.407,6.426,0.843,9.635,1.289c5.185,0.722,10.365,1.478,15.546,2.243
				c2.11,0.312,4.223,0.625,6.336,0.938c4.113,0.606,6.979,2.668,8.504,6.81c3.432,9.327,7.03,18.6,10.779,27.805
				c0.074,0.182,0.138,0.361,0.202,0.541c0.067,0.183,0.128,0.364,0.187,0.545c0.035,0.109,0.07,0.219,0.102,0.328
				c0.563,1.94,0.601,3.748,0.143,5.47c-0.53,0.643-1.062,1.283-1.593,1.923c0.137-0.07,0.27-0.148,0.402-0.228
				c0.273-0.164,0.544-0.333,0.804-0.529c0.632-0.477,1.224-1.047,1.775-1.711c1.163-1.396,2.154-2.933,3.313-4.331
				c0.184-0.221,0.206-0.572,0.387-0.797c0.023-0.026,0.046-0.056,0.07-0.084c0.197-0.244,0.394-0.604,0.577-1.018
				c-0.063,0.076-0.134,0.136-0.212,0.175c0.075-0.114,0.144-0.229,0.213-0.344c0.095-0.155,0.18-0.312,0.262-0.469
				c0.355-0.934,0.646-1.963,0.801-2.519c0.001,0.019,0.053,0.08,0.054,0.098c0.559-2.122,0.424-4.338-0.583-6.811
				c-3.749-9.206-7.328-18.46-10.759-27.789c-1.319-3.587-3.628-5.595-6.901-6.468c-0.506-0.135-1.031-0.244-1.583-0.325
				c-3.854-0.569-7.709-1.14-11.564-1.704c-4.878-0.714-9.758-1.409-14.644-2.064C22.799,20.921,20.9,20.664,19,20.425
				c-0.485-0.062-0.97-0.094-1.447-0.094C16.123,20.331,14.733,20.614,13.463,21.234"/>
		</defs>
		<clipPath id="SVGID_17_">
			<use xlink:href="#SVGID_16_"  overflow="visible"/>
		</clipPath>
		
			<linearGradient id="SVGID_18_" gradientUnits="userSpaceOnUse" x1="-131.8096" y1="-76.5479" x2="-130.8096" y2="-76.5479" gradientTransform="matrix(161.0946 25.9494 25.9494 -161.0946 23131.8105 -8882.3848)">
			<stop  offset="0" style="stop-color:#4AFC97"/>
			<stop  offset="0.3212" style="stop-color:#49FA96"/>
			<stop  offset="0.495" style="stop-color:#45F294"/>
			<stop  offset="0.6334" style="stop-color:#3EE490"/>
			<stop  offset="0.7533" style="stop-color:#35D18A"/>
			<stop  offset="0.8611" style="stop-color:#28B883"/>
			<stop  offset="0.9588" style="stop-color:#19997A"/>
			<stop  offset="1" style="stop-color:#128A76"/>
		</linearGradient>
		<polygon clip-path="url(#SVGID_17_)" fill="url(#SVGID_18_)" points="6.783,9.94 80.36,21.792 69.617,88.485 -3.96,76.634 		"/>
	</g>
</g>
<g>
	<g>
		<g>
			<path fill="#FFFFFF" d="M74.017-216.06h-8.176v8.506h-5.449v-28.903c4.541,0,9.084-0.041,13.625-0.041
				C88.138-236.498,88.179-216.06,74.017-216.06 M65.841-221.056h8.176c6.978,0,6.937-10.239,0-10.239h-8.176V-221.056z"/>
			<path fill="#FFFFFF" d="M116.71-221.84c-0.082,7.475-4.665,14.945-14.822,14.945c-10.158,0-14.865-7.307-14.865-14.904
				s4.873-15.236,14.865-15.236C111.838-237.035,116.793-229.396,116.71-221.84 M92.392-221.716
				c0.123,4.748,2.684,9.826,9.496,9.826c6.813,0,9.373-5.119,9.455-9.868c0.082-4.872-2.642-10.322-9.455-10.322
				C95.075-232.08,92.267-226.589,92.392-221.716"/>
			<polygon fill="#FFFFFF" points="150.651,-207.554 146.028,-207.554 142.435,-216.638 139.381,-225.763 136.366,-216.555 
				132.856,-207.554 128.231,-207.554 117.62,-236.457 123.731,-236.457 130.544,-215.605 137.563,-236.457 141.114,-236.457 
				148.34,-215.605 154.946,-236.457 161.057,-236.457 			"/>
			<polygon fill="#FFFFFF" points="185.956,-207.554 164.318,-207.554 164.318,-236.457 185.956,-236.457 185.956,-231.172 
				169.728,-231.172 169.728,-224.525 185.378,-224.525 185.378,-219.445 169.728,-219.445 169.728,-212.922 185.956,-212.922 			
				"/>
			<path fill="#FFFFFF" d="M215.808-207.554h-6.482l-8.422-9.662h-5.244v9.662h-5.451v-28.944c4.584,0,9.168,0.041,13.75,0.041
				c6.812,0.041,10.406,4.583,10.406,9.579c0,3.964-1.817,7.97-7.31,9.084l8.753,9.868V-207.554z M195.659-231.378v9.249h8.299
				c3.469,0,4.955-2.312,4.955-4.625s-1.527-4.624-4.955-4.624H195.659z"/>
		</g>
		<g>
			<rect x="218.698" y="-236.457" fill="#FFFFFF" width="2.189" height="28.902"/>
			<polygon fill="#FFFFFF" points="228.237,-236.457 247.685,-212.55 247.685,-236.457 249.872,-236.457 249.872,-207.555 
				249.005,-207.555 229.517,-231.42 229.517,-207.555 227.286,-207.555 227.286,-236.457 			"/>
			<polygon fill="#FFFFFF" points="258.544,-222.707 275.185,-222.707 275.185,-220.602 258.544,-220.602 258.544,-207.514 
				256.313,-207.514 256.313,-236.457 275.761,-236.457 275.761,-234.229 258.544,-234.229 			"/>
			<polygon fill="#FFFFFF" points="282.906,-236.457 282.906,-209.659 299.175,-209.659 299.175,-207.555 280.677,-207.555 
				280.677,-236.457 			"/>
			<path fill="#FFFFFF" d="M323.826-236.457v17.961c0,15.112-22.133,15.154-22.133,0v-17.961h2.189v17.961
				c0,12.429,17.754,12.388,17.754,0v-17.961H323.826z"/>
			<polygon fill="#FFFFFF" points="332.083,-223.12 349.013,-223.12 349.013,-221.098 332.083,-221.098 332.083,-209.701 
				350.333,-209.701 350.333,-207.555 329.894,-207.555 329.894,-236.457 349.839,-236.457 349.839,-234.352 332.083,-234.352 			
				"/>
			<polygon fill="#FFFFFF" points="357.105,-236.457 376.552,-212.55 376.552,-236.457 378.742,-236.457 378.742,-207.555 
				377.875,-207.555 358.384,-231.42 358.384,-207.555 356.156,-207.555 356.156,-236.457 			"/>
			<path fill="#FFFFFF" d="M409.05-211.559c-2.891,2.891-6.73,4.335-10.529,4.335c-9.746,0-14.824-6.813-14.865-14.616
				c-0.082-7.722,4.955-14.947,14.865-14.947c3.799,0,7.639,1.445,10.529,4.334l-1.529,1.322c-2.477-2.477-5.738-3.675-9-3.675
				c-8.424,0-12.76,5.946-12.719,12.883c0.084,6.771,4.377,12.636,12.719,12.636c3.262,0,6.564-1.24,9.041-3.676L409.05-211.559z"/>
			<polygon fill="#FFFFFF" points="416.439,-223.12 433.369,-223.12 433.369,-221.098 416.439,-221.098 416.439,-209.701 
				434.689,-209.701 434.689,-207.555 414.251,-207.555 414.251,-236.457 434.195,-236.457 434.195,-234.352 416.439,-234.352 			
				"/>
			<path fill="#FFFFFF" d="M462.685-207.554h-2.932l-9.992-10.942h-7.887v10.942h-2.23v-28.903h12.719
				c6.275,0,9.455,4.502,9.496,9.002c0.041,4.707-3.055,8.836-9.373,8.836L462.685-207.554z M441.875-220.602h10.24
				c5.037,0,7.268-2.85,7.309-6.896c0.041-3.385-2.271-6.895-7.061-6.895h-10.488V-220.602z"/>
		</g>
	</g>
	<g>
		<path fill="#166354" d="M263.838-299.044c0-14.772,5.755-27.557,14.136-33.771c-1.73-1.283-3.572-2.285-5.5-2.967
			c-11.263,3.982-19.636,18.914-19.636,36.737s8.373,32.754,19.636,36.737c1.928-0.681,3.77-1.684,5.5-2.966
			C269.593-271.486,263.838-284.271,263.838-299.044"/>
		<g>
			<defs>
				<path id="SVGID_19_" d="M272.474-335.782c1.928,0.683,3.77,1.685,5.498,2.968c8.383,6.213,16.527,16.519,16.137,33.771
					c-0.398,17.577-7.754,27.557-16.137,33.771c-1.729,1.284-3.57,2.285-5.498,2.966c1.926,0.683,3.934,1.053,6,1.053
					c1.889,0,3.727-0.311,5.5-0.881c11.514-3.712,20.135-18.822,20.135-36.908c0-18.087-8.621-33.195-20.135-36.907
					c-1.773-0.57-3.611-0.882-5.5-0.882C276.408-336.833,274.4-336.462,272.474-335.782"/>
			</defs>
			<clipPath id="SVGID_20_">
				<use xlink:href="#SVGID_19_"  overflow="visible"/>
			</clipPath>
			
				<linearGradient id="SVGID_21_" gradientUnits="userSpaceOnUse" x1="-129.0151" y1="-76.5547" x2="-128.0151" y2="-76.5547" gradientTransform="matrix(44.1982 -44.1982 -44.1982 -44.1982 2580.6819 -9358.5322)">
				<stop  offset="0" style="stop-color:#128A76"/>
				<stop  offset="0.22" style="stop-color:#148D77"/>
				<stop  offset="0.4027" style="stop-color:#19987A"/>
				<stop  offset="0.5722" style="stop-color:#21A97F"/>
				<stop  offset="0.7336" style="stop-color:#2DC186"/>
				<stop  offset="0.8878" style="stop-color:#3CE08F"/>
				<stop  offset="1" style="stop-color:#4AFC97"/>
			</linearGradient>
			<polygon clip-path="url(#SVGID_20_)" fill="url(#SVGID_21_)" points="234.685,-299.044 288.292,-352.65 341.898,-299.044 
				288.292,-245.438 			"/>
		</g>
		<g>
			<path fill="#177261" d="M281.304-266.829c-0.107-0.024-0.217-0.063-0.324-0.092c-1.025-0.673-10.061-6.016-13.527-8.294
				c-2.986-1.961-5.974-3.92-8.96-5.88c-0.205-0.134-0.41-0.269-0.615-0.402l-1.246-0.818c-2.065-1.355-4.131-2.708-6.194-4.067
				c-0.407-0.269-0.781-0.556-1.127-0.856c-1.896-1.657-2.849-3.792-2.942-6.323c-0.016-0.396-0.011-0.801,0.016-1.216
				c0.18-2.779,0.368-5.558,0.558-8.336c0.178-2.589,0.355-5.177,0.53-7.767c0.099-1.466,0.201-2.932,0.303-4.396
				c0.255-3.668,0.511-7.336,0.732-11.006c0.003-0.059,0.01-0.113,0.014-0.17c0.252-3.469,1.761-6.026,4.724-7.691
				c-0.126,0.002-0.252,0.01-0.378,0.018c-3.008,1.429-6.013,2.859-9.022,4.281c-1.04,0.491-1.922,1.078-2.659,1.758
				c-1.766,1.625-2.688,3.789-2.852,6.504c-0.004,0.07-0.009,0.14-0.013,0.209c-0.096,1.563-0.203,3.127-0.308,4.69
				c-0.165,2.458-0.329,4.917-0.499,7.375c-0.072,1.043-0.145,2.086-0.216,3.129c-0.136,2.031-0.276,4.06-0.415,6.091
				c-0.229,3.338-0.456,6.674-0.672,10.012c-0.064,0.992-0.006,1.928,0.17,2.808c0.328,1.639,1.078,3.079,2.285,4.289
				c0.285,0.287,0.596,0.56,0.933,0.82c0.213,0.165,0.433,0.326,0.666,0.479c2.765,1.821,5.533,3.635,8.301,5.45
				c2.854,1.871,5.701,3.749,8.554,5.621c0.211,0.138,0.421,0.277,0.631,0.415c3.015,1.979,6.031,3.96,9.039,5.95
				c0.336,0.221,0.673,0.44,1.008,0.663c1.818,1.203,3.669,1.728,5.55,1.637c0.154-0.007,0.309-0.021,0.461-0.037
				c0.512-0.243,1.023-0.485,1.533-0.728c2.039-0.969,4.078-1.938,6.119-2.905c0.148-0.071,0.297-0.142,0.445-0.212
				c0.119-0.058,0.232-0.118,0.35-0.178c0.023-0.011,0.045-0.022,0.068-0.033c0.379-0.193,0.74-0.395,1.084-0.607
				c0.115-0.073,0.227-0.147,0.34-0.222c-0.156,0.074-0.312,0.147-0.469,0.222C282.617-266.633,281.958-266.685,281.304-266.829"/>
		</g>
		<g>
			<defs>
				<path id="SVGID_22_" d="M284.388-267.438c-0.166,0.166-0.336,0.326-0.502,0.474c0.268-0.127,0.541-0.406,0.818-0.726
					C284.599-267.605,284.496-267.521,284.388-267.438 M286.166-269.285c0.002,0,0.002-0.001,0.002-0.003
					C286.167-269.287,286.167-269.286,286.166-269.285 M252.632-334.016c-0.125,0.004-0.252,0.013-0.378,0.021
					c-2.989,1.466-5.976,2.934-8.968,4.393c-1.034,0.504-1.908,1.102-2.637,1.789c2.462-0.563,4.881,0.022,7.02,1.336
					c0.112,0.07,0.223,0.141,0.335,0.209c2.759,1.699,5.504,3.42,8.242,5.153c4.424,2.798,8.831,5.625,13.232,8.462
					c1.795,1.156,3.59,2.312,5.383,3.469c3.498,2.252,5.258,5.313,4.934,9.715c-0.725,9.912-1.277,19.843-1.662,29.774
					c-0.008,0.197-0.023,0.386-0.039,0.576c-0.016,0.195-0.035,0.386-0.057,0.574c-0.012,0.114-0.027,0.227-0.043,0.34
					c-0.287,2.001-1,3.662-2.129,5.041c-0.748,0.365-1.496,0.729-2.244,1.094c0.154-0.009,0.307-0.023,0.461-0.042
					c0.316-0.036,0.633-0.079,0.951-0.15c0.771-0.174,1.545-0.447,2.324-0.824c1.635-0.792,3.172-1.781,4.805-2.577
					c0.258-0.126,0.424-0.438,0.682-0.565l0.098-0.048c0.281-0.141,0.607-0.388,0.945-0.688c-0.088,0.042-0.176,0.067-0.264,0.071
					c0.115-0.073,0.225-0.149,0.336-0.226c0.15-0.102,0.291-0.21,0.43-0.319c0.711-0.704,1.402-1.52,1.771-1.963
					c-0.006,0.018,0.016,0.097,0.008,0.112c1.385-1.703,2.178-3.776,2.281-6.445c0.389-9.932,0.949-19.838,1.676-29.751
					c0.279-3.812-0.994-6.594-3.613-8.74c-0.404-0.332-0.84-0.649-1.309-0.951c-3.275-2.109-6.551-4.219-9.83-6.326
					c-4.146-2.665-8.304-5.312-12.484-7.928c-1.623-1.016-3.247-2.033-4.878-3.037c-1.59-0.979-3.334-1.551-5.137-1.551
					C252.794-334.018,252.713-334.018,252.632-334.016"/>
			</defs>
			<clipPath id="SVGID_23_">
				<use xlink:href="#SVGID_22_"  overflow="visible"/>
			</clipPath>
			
				<linearGradient id="SVGID_24_" gradientUnits="userSpaceOnUse" x1="-131.1875" y1="-73.8555" x2="-130.1885" y2="-73.8555" gradientTransform="matrix(136.0045 90.1534 90.1534 -136.0045 24657.7363 1412.6494)">
				<stop  offset="0" style="stop-color:#4AFC97"/>
				<stop  offset="0.3212" style="stop-color:#49FA96"/>
				<stop  offset="0.495" style="stop-color:#45F294"/>
				<stop  offset="0.6334" style="stop-color:#3EE490"/>
				<stop  offset="0.7533" style="stop-color:#35D18A"/>
				<stop  offset="0.8611" style="stop-color:#28B883"/>
				<stop  offset="0.9588" style="stop-color:#19997A"/>
				<stop  offset="1" style="stop-color:#128A76"/>
			</linearGradient>
			<polygon clip-path="url(#SVGID_23_)" fill="url(#SVGID_24_)" points="255.838,-356.932 323.539,-312.055 275.216,-239.156 
				207.515,-284.032 			"/>
		</g>
		<g>
			<path fill="#1F8975" d="M281.623-269.031c-0.109,0.022-0.225,0.031-0.334,0.051c-1.211-0.19-11.646-1.325-15.745-1.968
				c-3.529-0.554-7.059-1.104-10.588-1.656c-0.242-0.038-0.484-0.076-0.727-0.113c-0.491-0.077-0.981-0.153-1.473-0.23
				c-2.44-0.381-4.881-0.761-7.32-1.146c-0.482-0.076-0.941-0.184-1.381-0.314c-2.412-0.727-4.16-2.278-5.291-4.544
				c-0.177-0.354-0.34-0.726-0.487-1.113c-0.984-2.606-1.96-5.214-2.935-7.823c-0.908-2.431-1.814-4.862-2.724-7.292
				c-0.516-1.376-1.027-2.753-1.54-4.13c-1.282-3.446-2.564-6.892-3.878-10.326c-0.021-0.054-0.037-0.106-0.057-0.159
				c-1.203-3.265-0.886-6.216,1.125-8.955c-0.112,0.053-0.226,0.111-0.338,0.17c-2.147,2.543-4.294,5.088-6.448,7.625
				c-0.745,0.877-1.305,1.776-1.695,2.699c-0.938,2.209-0.884,4.561,0.089,7.102c0.023,0.066,0.048,0.131,0.073,0.195
				c0.56,1.465,1.106,2.933,1.657,4.399c0.865,2.308,1.73,4.612,2.59,6.922c0.366,0.979,0.73,1.96,1.097,2.94
				c0.714,1.904,1.425,3.812,2.136,5.718c1.17,3.134,2.341,6.267,3.523,9.396c0.351,0.93,0.791,1.758,1.313,2.486
				c0.976,1.358,2.254,2.359,3.853,2.963c0.378,0.144,0.774,0.264,1.188,0.361c0.261,0.062,0.528,0.118,0.804,0.162
				c3.271,0.517,6.541,1.025,9.812,1.536c3.371,0.526,6.74,1.06,10.11,1.588c0.25,0.039,0.499,0.079,0.746,0.118
				c3.564,0.558,7.129,1.115,10.689,1.686c0.398,0.063,0.795,0.124,1.193,0.188c2.152,0.345,4.055,0.058,5.73-0.802
				c0.137-0.07,0.271-0.146,0.404-0.225c0.365-0.432,0.73-0.863,1.096-1.295c1.457-1.726,2.914-3.45,4.373-5.173
				c0.107-0.125,0.213-0.251,0.318-0.377c0.086-0.102,0.164-0.204,0.246-0.306c0.016-0.02,0.031-0.04,0.049-0.06
				c0.264-0.331,0.512-0.664,0.734-1.001c0.076-0.113,0.146-0.228,0.219-0.341c-0.113,0.132-0.225,0.263-0.336,0.395
				C282.898-269.395,282.277-269.17,281.623-269.031"/>
		</g>
		<g>
			<defs>
				<path id="SVGID_25_" d="M283.736-270.643c-0.084,0.221-0.172,0.436-0.262,0.638c0.189-0.227,0.324-0.593,0.445-0.997
					C283.859-270.882,283.798-270.762,283.736-270.643 M284.589-273.06c0.002-0.001,0.002-0.002,0.002-0.004
					C284.591-273.062,284.591-273.061,284.589-273.06 M227.322-318.167c-0.114,0.056-0.227,0.114-0.337,0.176
					c-2.117,2.569-4.231,5.142-6.355,7.704c-0.732,0.885-1.283,1.792-1.662,2.719c2.011-1.529,4.455-1.996,6.946-1.682
					c0.13,0.018,0.261,0.035,0.391,0.052c3.215,0.407,6.426,0.843,9.635,1.289c5.185,0.722,10.365,1.478,15.546,2.243
					c2.11,0.312,4.223,0.625,6.336,0.938c4.113,0.606,6.979,2.668,8.504,6.81c3.432,9.327,7.03,18.6,10.78,27.805
					c0.074,0.182,0.137,0.361,0.201,0.541c0.068,0.183,0.129,0.364,0.188,0.545c0.035,0.109,0.07,0.219,0.102,0.328
					c0.562,1.94,0.6,3.748,0.143,5.47c-0.531,0.643-1.062,1.283-1.594,1.923c0.137-0.07,0.27-0.148,0.402-0.228
					c0.273-0.164,0.545-0.333,0.805-0.529c0.631-0.477,1.223-1.047,1.775-1.711c1.162-1.396,2.154-2.933,3.312-4.331
					c0.184-0.221,0.207-0.572,0.387-0.797c0.023-0.026,0.047-0.056,0.07-0.084c0.197-0.244,0.395-0.604,0.578-1.018
					c-0.064,0.076-0.135,0.136-0.213,0.175c0.076-0.114,0.145-0.229,0.213-0.344c0.096-0.155,0.18-0.312,0.262-0.469
					c0.355-0.934,0.646-1.963,0.801-2.519c0.002,0.019,0.053,0.08,0.055,0.098c0.559-2.122,0.424-4.338-0.584-6.811
					c-3.748-9.206-7.328-18.46-10.758-27.789c-1.32-3.587-3.629-5.595-6.902-6.468c-0.506-0.135-1.031-0.244-1.583-0.325
					c-3.854-0.569-7.709-1.14-11.564-1.704c-4.878-0.714-9.758-1.409-14.644-2.064c-1.898-0.256-3.798-0.513-5.698-0.752
					c-0.485-0.062-0.97-0.094-1.447-0.094C229.981-319.07,228.592-318.787,227.322-318.167"/>
			</defs>
			<clipPath id="SVGID_26_">
				<use xlink:href="#SVGID_25_"  overflow="visible"/>
			</clipPath>
			
				<linearGradient id="SVGID_27_" gradientUnits="userSpaceOnUse" x1="-130.8472" y1="-74.2861" x2="-129.8461" y2="-74.2861" gradientTransform="matrix(161.0946 25.9494 25.9494 -161.0946 23131.8105 -8882.3848)">
				<stop  offset="0" style="stop-color:#4AFC97"/>
				<stop  offset="0.3212" style="stop-color:#49FA96"/>
				<stop  offset="0.495" style="stop-color:#45F294"/>
				<stop  offset="0.6334" style="stop-color:#3EE490"/>
				<stop  offset="0.7533" style="stop-color:#35D18A"/>
				<stop  offset="0.8611" style="stop-color:#28B883"/>
				<stop  offset="0.9588" style="stop-color:#19997A"/>
				<stop  offset="1" style="stop-color:#128A76"/>
			</linearGradient>
			<polygon clip-path="url(#SVGID_26_)" fill="url(#SVGID_27_)" points="220.642,-329.461 294.218,-317.609 283.476,-250.916 
				209.898,-262.768 			"/>
		</g>
	</g>
</g>
<g>
	<path fill="#166354" d="M265.914-82.444c0-14.772,5.756-27.557,14.137-33.771c-1.73-1.283-3.572-2.285-5.5-2.967
		c-11.263,3.982-19.636,18.914-19.636,36.737s8.373,32.754,19.636,36.737c1.928-0.681,3.77-1.684,5.5-2.966
		C271.669-54.887,265.914-67.672,265.914-82.444"/>
	<g>
		<defs>
			<path id="SVGID_28_" d="M274.55-119.183c1.926-0.68,3.934-1.051,6-1.051c1.889,0,3.727,0.312,5.5,0.882
				c11.514,3.712,20.135,18.82,20.135,36.907c0,18.086-8.621,33.196-20.135,36.908c-1.773,0.57-3.611,0.881-5.5,0.881
				c-2.066,0-4.074-0.37-6-1.053c1.928-0.681,3.77-1.682,5.498-2.966c8.383-6.214,15.738-16.193,16.137-33.771
				c0.391-17.252-7.754-27.558-16.137-33.771C278.32-117.498,276.478-118.5,274.55-119.183"/>
		</defs>
		<clipPath id="SVGID_29_">
			<use xlink:href="#SVGID_28_"  overflow="visible"/>
		</clipPath>
		
			<linearGradient id="SVGID_30_" gradientUnits="userSpaceOnUse" x1="-131.4419" y1="-79.0283" x2="-130.4419" y2="-79.0283" gradientTransform="matrix(44.1982 -44.1982 -44.1982 -44.1982 2580.6819 -9358.5322)">
			<stop  offset="0" style="stop-color:#128A76"/>
			<stop  offset="0.22" style="stop-color:#148D77"/>
			<stop  offset="0.4027" style="stop-color:#19987A"/>
			<stop  offset="0.5722" style="stop-color:#21A97F"/>
			<stop  offset="0.7336" style="stop-color:#2DC186"/>
			<stop  offset="0.8878" style="stop-color:#3CE08F"/>
			<stop  offset="1" style="stop-color:#4AFC97"/>
		</linearGradient>
		<polygon clip-path="url(#SVGID_29_)" fill="url(#SVGID_30_)" points="236.761,-82.444 290.369,-136.051 343.974,-82.444 
			290.369,-28.838 		"/>
	</g>
	<g>
		<path fill="#177261" d="M283.38-50.229c-0.107-0.024-0.217-0.063-0.324-0.092c-1.025-0.673-10.061-6.016-13.527-8.294
			c-2.986-1.961-5.973-3.92-8.959-5.88c-0.205-0.134-0.41-0.269-0.615-0.402l-1.246-0.818c-2.065-1.355-4.131-2.708-6.194-4.067
			c-0.407-0.269-0.781-0.556-1.127-0.856c-1.896-1.657-2.849-3.792-2.942-6.323c-0.016-0.396-0.011-0.801,0.016-1.216
			c0.18-2.779,0.368-5.558,0.558-8.336c0.178-2.589,0.355-5.177,0.53-7.767c0.099-1.466,0.201-2.932,0.303-4.396
			c0.255-3.668,0.511-7.336,0.732-11.006c0.003-0.059,0.01-0.113,0.014-0.17c0.252-3.469,1.761-6.026,4.724-7.691
			c-0.126,0.002-0.252,0.01-0.378,0.018c-3.008,1.429-6.013,2.859-9.022,4.281c-1.04,0.491-1.922,1.078-2.659,1.758
			c-1.766,1.625-2.688,3.789-2.852,6.504c-0.004,0.07-0.009,0.14-0.013,0.209c-0.096,1.563-0.203,3.127-0.308,4.69
			c-0.165,2.458-0.329,4.917-0.499,7.375c-0.072,1.043-0.145,2.086-0.216,3.129c-0.136,2.031-0.276,4.06-0.415,6.091
			c-0.229,3.338-0.456,6.674-0.672,10.012c-0.064,0.992-0.006,1.928,0.17,2.808c0.328,1.639,1.078,3.079,2.285,4.289
			c0.285,0.287,0.596,0.56,0.933,0.82c0.213,0.165,0.433,0.326,0.666,0.479c2.765,1.821,5.533,3.635,8.301,5.45
			c2.854,1.871,5.701,3.749,8.554,5.621c0.211,0.138,0.421,0.277,0.631,0.415c3.015,1.979,6.031,3.96,9.039,5.95
			c0.336,0.221,0.674,0.44,1.008,0.663c1.818,1.203,3.67,1.728,5.551,1.637c0.154-0.007,0.309-0.021,0.461-0.037
			c0.512-0.243,1.023-0.485,1.533-0.728c2.039-0.969,4.078-1.938,6.119-2.905c0.148-0.071,0.297-0.142,0.445-0.212
			c0.119-0.058,0.232-0.118,0.35-0.178c0.023-0.011,0.045-0.022,0.068-0.033c0.379-0.193,0.74-0.395,1.084-0.607
			c0.115-0.073,0.227-0.147,0.34-0.222c-0.156,0.074-0.312,0.147-0.469,0.222C284.693-50.033,284.035-50.085,283.38-50.229"/>
	</g>
	<g>
		<defs>
			<path id="SVGID_31_" d="M286.464-50.838c-0.166,0.166-0.336,0.326-0.502,0.474c0.268-0.127,0.541-0.406,0.818-0.726
				C286.675-51.006,286.572-50.921,286.464-50.838 M288.242-52.686c0.002,0,0.002-0.001,0.002-0.003
				C288.244-52.688,288.244-52.687,288.242-52.686 M254.708-117.416c-0.125,0.004-0.252,0.013-0.378,0.021
				c-2.989,1.466-5.976,2.934-8.968,4.393c-1.034,0.504-1.908,1.102-2.637,1.789c2.462-0.563,4.881,0.022,7.02,1.336
				c0.112,0.07,0.223,0.141,0.335,0.209c2.759,1.699,5.504,3.42,8.242,5.153c4.424,2.798,8.832,5.625,13.232,8.462
				c1.795,1.156,3.59,2.312,5.383,3.469c3.498,2.252,5.258,5.313,4.934,9.715c-0.725,9.912-1.277,19.843-1.662,29.774
				c-0.008,0.197-0.023,0.386-0.039,0.576c-0.016,0.195-0.035,0.386-0.057,0.574c-0.012,0.114-0.027,0.227-0.043,0.34
				c-0.287,2.001-1,3.662-2.129,5.041c-0.748,0.365-1.496,0.729-2.244,1.094c0.154-0.009,0.307-0.023,0.461-0.042
				c0.316-0.036,0.633-0.079,0.951-0.15c0.771-0.174,1.545-0.447,2.324-0.824c1.635-0.792,3.172-1.781,4.805-2.577
				c0.258-0.126,0.424-0.438,0.682-0.565l0.098-0.048c0.281-0.141,0.607-0.388,0.945-0.688c-0.088,0.042-0.176,0.067-0.264,0.071
				c0.115-0.073,0.225-0.149,0.336-0.226c0.15-0.102,0.291-0.21,0.43-0.319c0.711-0.704,1.402-1.52,1.771-1.963
				c-0.006,0.018,0.016,0.097,0.008,0.112c1.385-1.703,2.178-3.776,2.281-6.445c0.389-9.932,0.949-19.838,1.676-29.751
				c0.279-3.812-0.994-6.594-3.613-8.74c-0.404-0.332-0.84-0.649-1.309-0.951c-3.275-2.109-6.551-4.219-9.83-6.326
				c-4.146-2.665-8.305-5.312-12.484-7.928c-1.623-1.016-3.247-2.033-4.878-3.037c-1.59-0.979-3.334-1.551-5.137-1.551
				C254.87-117.418,254.789-117.418,254.708-117.416"/>
		</defs>
		<clipPath id="SVGID_32_">
			<use xlink:href="#SVGID_31_"  overflow="visible"/>
		</clipPath>
		
			<linearGradient id="SVGID_33_" gradientUnits="userSpaceOnUse" x1="-130.4434" y1="-74.9551" x2="-129.4443" y2="-74.9551" gradientTransform="matrix(136.0045 90.1534 90.1534 -136.0045 24657.7363 1412.6494)">
			<stop  offset="0" style="stop-color:#4AFC97"/>
			<stop  offset="0.3212" style="stop-color:#49FA96"/>
			<stop  offset="0.495" style="stop-color:#45F294"/>
			<stop  offset="0.6334" style="stop-color:#3EE490"/>
			<stop  offset="0.7533" style="stop-color:#35D18A"/>
			<stop  offset="0.8611" style="stop-color:#28B883"/>
			<stop  offset="0.9588" style="stop-color:#19997A"/>
			<stop  offset="1" style="stop-color:#128A76"/>
		</linearGradient>
		<polygon clip-path="url(#SVGID_32_)" fill="url(#SVGID_33_)" points="257.914,-140.332 325.615,-95.455 277.292,-22.557 
			209.591,-67.433 		"/>
	</g>
	<g>
		<path fill="#1F8975" d="M283.699-52.432c-0.109,0.022-0.225,0.031-0.334,0.051c-1.211-0.19-11.646-1.325-15.744-1.968
			c-3.53-0.554-7.059-1.104-10.588-1.656c-0.242-0.038-0.484-0.076-0.727-0.113c-0.491-0.077-0.981-0.153-1.473-0.23
			c-2.44-0.381-4.881-0.761-7.32-1.146c-0.482-0.076-0.941-0.184-1.381-0.314c-2.412-0.727-4.16-2.278-5.291-4.544
			c-0.177-0.354-0.34-0.726-0.487-1.113c-0.984-2.606-1.96-5.214-2.935-7.823c-0.908-2.431-1.814-4.862-2.724-7.292
			c-0.516-1.376-1.027-2.753-1.54-4.13c-1.282-3.446-2.564-6.892-3.878-10.326c-0.021-0.054-0.037-0.106-0.057-0.159
			c-1.203-3.265-0.886-6.216,1.125-8.955c-0.112,0.053-0.226,0.111-0.338,0.17c-2.147,2.543-4.294,5.088-6.448,7.625
			c-0.745,0.877-1.305,1.776-1.695,2.699c-0.938,2.209-0.884,4.561,0.089,7.102c0.023,0.066,0.048,0.131,0.073,0.195
			c0.56,1.465,1.106,2.933,1.657,4.399c0.865,2.308,1.73,4.612,2.59,6.922c0.366,0.979,0.73,1.96,1.097,2.94
			c0.714,1.904,1.425,3.812,2.136,5.718c1.17,3.134,2.341,6.267,3.523,9.396c0.351,0.93,0.791,1.758,1.313,2.486
			c0.976,1.358,2.254,2.359,3.853,2.963c0.378,0.144,0.774,0.264,1.188,0.361c0.261,0.062,0.528,0.118,0.804,0.162
			c3.271,0.517,6.541,1.025,9.812,1.536c3.371,0.526,6.74,1.06,10.11,1.588c0.25,0.039,0.499,0.079,0.746,0.118
			c3.564,0.558,7.128,1.115,10.689,1.686c0.398,0.063,0.795,0.124,1.193,0.188c2.152,0.345,4.055,0.058,5.73-0.802
			c0.137-0.07,0.271-0.146,0.404-0.225c0.365-0.432,0.73-0.863,1.096-1.295c1.457-1.726,2.914-3.45,4.373-5.173
			c0.107-0.125,0.213-0.251,0.318-0.377c0.086-0.102,0.164-0.204,0.246-0.306c0.016-0.02,0.031-0.04,0.049-0.06
			c0.264-0.331,0.512-0.664,0.734-1.001c0.076-0.113,0.146-0.228,0.219-0.341c-0.113,0.132-0.225,0.263-0.336,0.395
			C284.974-52.795,284.353-52.57,283.699-52.432"/>
	</g>
	<g>
		<defs>
			<path id="SVGID_34_" d="M285.812-54.043c-0.084,0.221-0.172,0.436-0.262,0.638c0.189-0.227,0.324-0.593,0.445-0.997
				C285.935-54.282,285.875-54.162,285.812-54.043 M286.666-56.46c0.002-0.001,0.002-0.002,0.002-0.004
				C286.667-56.462,286.667-56.461,286.666-56.46 M229.398-101.567c-0.114,0.056-0.227,0.114-0.337,0.176
				c-2.117,2.569-4.231,5.142-6.355,7.704c-0.732,0.885-1.283,1.792-1.662,2.719c2.011-1.529,4.455-1.996,6.946-1.682
				c0.13,0.018,0.261,0.035,0.391,0.052c3.215,0.407,6.426,0.843,9.635,1.289c5.185,0.722,10.365,1.478,15.546,2.243
				c2.11,0.312,4.223,0.625,6.336,0.938c4.113,0.606,6.979,2.668,8.504,6.81c3.432,9.327,7.029,18.6,10.779,27.805
				c0.074,0.182,0.137,0.361,0.201,0.541c0.068,0.183,0.129,0.364,0.188,0.545c0.035,0.109,0.07,0.219,0.102,0.328
				c0.562,1.94,0.6,3.748,0.143,5.47c-0.531,0.643-1.062,1.283-1.594,1.923c0.137-0.07,0.27-0.148,0.402-0.228
				c0.273-0.164,0.545-0.333,0.805-0.529c0.631-0.477,1.223-1.047,1.775-1.711c1.162-1.396,2.154-2.933,3.312-4.331
				c0.184-0.221,0.207-0.572,0.387-0.797c0.023-0.026,0.047-0.056,0.07-0.084c0.197-0.244,0.395-0.604,0.578-1.018
				c-0.064,0.076-0.135,0.136-0.213,0.175c0.076-0.114,0.145-0.229,0.213-0.344c0.096-0.155,0.18-0.312,0.262-0.469
				c0.355-0.934,0.646-1.963,0.801-2.519c0.002,0.019,0.053,0.08,0.055,0.098c0.559-2.122,0.424-4.338-0.584-6.811
				c-3.748-9.206-7.328-18.46-10.758-27.789c-1.32-3.587-3.629-5.595-6.902-6.468c-0.506-0.135-1.031-0.244-1.582-0.325
				c-3.855-0.569-7.709-1.14-11.565-1.704c-4.878-0.714-9.758-1.409-14.644-2.064c-1.898-0.256-3.798-0.513-5.698-0.752
				c-0.485-0.062-0.97-0.094-1.447-0.094C232.058-102.471,230.668-102.188,229.398-101.567"/>
		</defs>
		<clipPath id="SVGID_35_">
			<use xlink:href="#SVGID_34_"  overflow="visible"/>
		</clipPath>
		
			<linearGradient id="SVGID_36_" gradientUnits="userSpaceOnUse" x1="-130.6235" y1="-75.5947" x2="-129.6225" y2="-75.5947" gradientTransform="matrix(161.0946 25.9494 25.9494 -161.0946 23131.8105 -8882.3848)">
			<stop  offset="0" style="stop-color:#4AFC97"/>
			<stop  offset="0.3212" style="stop-color:#49FA96"/>
			<stop  offset="0.495" style="stop-color:#45F294"/>
			<stop  offset="0.6334" style="stop-color:#3EE490"/>
			<stop  offset="0.7533" style="stop-color:#35D18A"/>
			<stop  offset="0.8611" style="stop-color:#28B883"/>
			<stop  offset="0.9588" style="stop-color:#19997A"/>
			<stop  offset="1" style="stop-color:#128A76"/>
		</linearGradient>
		<polygon clip-path="url(#SVGID_35_)" fill="url(#SVGID_36_)" points="222.718,-112.861 296.294,-101.01 285.552,-34.316 
			211.975,-46.168 		"/>
	</g>
</g>
</svg>
