<?xml version="1.0" encoding="utf-8"?>
<!-- Generator: Adobe Illustrator 16.0.0, SVG Export Plug-In . SVG Version: 6.00 Build 0)  -->
<!DOCTYPE svg PUBLIC "-//W3C//DTD SVG 1.1//EN" "http://www.w3.org/Graphics/SVG/1.1/DTD/svg11.dtd">
<svg version="1.1" id="Layer_1" xmlns="http://www.w3.org/2000/svg" xmlns:xlink="http://www.w3.org/1999/xlink" x="0px" y="0px"
	 width="102.735px" height="100.269px" viewBox="0 0 102.735 100.269" enable-background="new 0 0 102.735 100.269"
	 xml:space="preserve">
<g>
	<path fill="#166354" d="M53.667,49.684c0-14.772,5.756-27.557,14.137-33.771c-1.73-1.283-3.572-2.285-5.5-2.967
		C51.04,16.929,42.667,31.86,42.667,49.684s8.373,32.754,19.636,36.737c1.928-0.681,3.77-1.684,5.5-2.966
		C59.422,77.241,53.667,64.456,53.667,49.684"/>
	<g>
		<defs>
			<path id="SVGID_19_" d="M62.303,12.945c1.926-0.68,3.934-1.051,6-1.051c1.889,0,3.727,0.312,5.5,0.882
				c11.514,3.712,20.135,18.82,20.135,36.907c0,18.086-8.621,33.196-20.135,36.908c-1.773,0.57-3.611,0.881-5.5,0.881
				c-2.066,0-4.074-0.37-6-1.053c1.928-0.681,3.77-1.682,5.498-2.966c8.383-6.214,15.738-16.193,16.137-33.771
				c0.391-17.252-7.754-27.558-16.137-33.771C66.073,14.63,64.231,13.628,62.303,12.945"/>
		</defs>
		<clipPath id="SVGID_2_">
			<use xlink:href="#SVGID_19_"  overflow="visible"/>
		</clipPath>
		
			<linearGradient id="SVGID_3_" gradientUnits="userSpaceOnUse" x1="-343.689" y1="53.0996" x2="-342.689" y2="53.0996" gradientTransform="matrix(44.1982 -44.1982 -44.1982 -44.1982 17589.1895 -12767.5264)">
			<stop  offset="0" style="stop-color:#128A76"/>
			<stop  offset="0.22" style="stop-color:#148D77"/>
			<stop  offset="0.4027" style="stop-color:#19987A"/>
			<stop  offset="0.5722" style="stop-color:#21A97F"/>
			<stop  offset="0.7336" style="stop-color:#2DC186"/>
			<stop  offset="0.8878" style="stop-color:#3CE08F"/>
			<stop  offset="1" style="stop-color:#4AFC97"/>
		</linearGradient>
		<polygon clip-path="url(#SVGID_2_)" fill="url(#SVGID_3_)" points="24.514,49.684 78.122,-3.923 131.727,49.684 78.122,103.29 		
			"/>
	</g>
	<g>
		<path fill="#177261" d="M71.133,81.898c-0.107-0.024-0.217-0.063-0.324-0.092c-1.025-0.673-10.061-6.016-13.527-8.294
			c-2.986-1.961-5.973-3.92-8.959-5.88c-0.205-0.134-0.41-0.269-0.615-0.402l-1.246-0.818c-2.065-1.355-4.131-2.708-6.194-4.067
			c-0.407-0.269-0.781-0.556-1.127-0.856c-1.896-1.657-2.849-3.792-2.942-6.323c-0.016-0.396-0.011-0.801,0.016-1.216
			c0.18-2.779,0.368-5.558,0.558-8.336c0.178-2.589,0.355-5.177,0.53-7.767c0.099-1.466,0.201-2.932,0.303-4.396
			c0.255-3.668,0.511-7.336,0.732-11.006c0.003-0.059,0.01-0.113,0.014-0.17c0.252-3.469,1.761-6.026,4.724-7.691
			c-0.126,0.002-0.252,0.01-0.378,0.018c-3.008,1.429-6.013,2.859-9.022,4.281c-1.04,0.491-1.922,1.078-2.659,1.758
			c-1.766,1.625-2.688,3.789-2.852,6.504c-0.004,0.07-0.009,0.14-0.013,0.209c-0.096,1.563-0.203,3.127-0.308,4.69
			c-0.165,2.458-0.329,4.917-0.499,7.375c-0.072,1.043-0.145,2.086-0.216,3.129c-0.136,2.031-0.276,4.06-0.415,6.091
			c-0.229,3.338-0.456,6.674-0.672,10.012c-0.064,0.992-0.006,1.928,0.17,2.808c0.328,1.639,1.078,3.079,2.285,4.289
			c0.285,0.287,0.596,0.56,0.933,0.82c0.213,0.165,0.433,0.326,0.666,0.479c2.765,1.821,5.533,3.635,8.301,5.45
			c2.854,1.871,5.701,3.749,8.554,5.621c0.211,0.138,0.421,0.277,0.631,0.415c3.015,1.979,6.031,3.96,9.039,5.95
			c0.336,0.221,0.674,0.44,1.008,0.663c1.818,1.203,3.67,1.728,5.551,1.637c0.154-0.007,0.309-0.021,0.461-0.037
			c0.512-0.243,1.023-0.485,1.533-0.728c2.039-0.969,4.078-1.938,6.119-2.905c0.148-0.071,0.297-0.142,0.445-0.212
			c0.119-0.058,0.232-0.118,0.35-0.178c0.023-0.011,0.045-0.022,0.068-0.033c0.379-0.193,0.74-0.395,1.084-0.607
			c0.115-0.073,0.227-0.147,0.34-0.222c-0.156,0.074-0.312,0.147-0.469,0.222C72.446,82.095,71.788,82.043,71.133,81.898"/>
	</g>
	<g>
		<defs>
			<path id="SVGID_22_" d="M74.217,81.29c-0.166,0.166-0.336,0.326-0.502,0.474c0.268-0.127,0.541-0.406,0.818-0.726
				C74.428,81.122,74.325,81.207,74.217,81.29 M75.995,79.442c0.002,0,0.002-0.001,0.002-0.003
				C75.997,79.44,75.997,79.441,75.995,79.442 M42.461,14.712c-0.125,0.004-0.252,0.013-0.378,0.021
				c-2.989,1.466-5.976,2.934-8.968,4.393c-1.034,0.504-1.908,1.102-2.637,1.789c2.462-0.563,4.881,0.022,7.02,1.336
				c0.112,0.07,0.223,0.141,0.335,0.209c2.759,1.699,5.504,3.42,8.242,5.153c4.424,2.798,8.832,5.625,13.232,8.462
				c1.795,1.156,3.59,2.312,5.383,3.469c3.498,2.252,5.258,5.313,4.934,9.715c-0.725,9.912-1.277,19.843-1.662,29.774
				c-0.008,0.197-0.023,0.386-0.039,0.576c-0.016,0.195-0.035,0.386-0.057,0.574c-0.012,0.114-0.027,0.227-0.043,0.34
				c-0.287,2.001-1,3.662-2.129,5.041c-0.748,0.365-1.496,0.729-2.244,1.094c0.154-0.009,0.307-0.023,0.461-0.042
				c0.316-0.036,0.633-0.079,0.951-0.15c0.771-0.174,1.545-0.447,2.324-0.824c1.635-0.792,3.172-1.781,4.805-2.577
				c0.258-0.126,0.424-0.438,0.682-0.565l0.098-0.048c0.281-0.141,0.607-0.388,0.945-0.688c-0.088,0.042-0.176,0.067-0.264,0.071
				c0.115-0.073,0.225-0.149,0.336-0.226c0.15-0.102,0.291-0.21,0.43-0.319c0.711-0.704,1.402-1.52,1.771-1.963
				c-0.006,0.018,0.016,0.097,0.008,0.112c1.385-1.703,2.178-3.776,2.281-6.445c0.389-9.932,0.949-19.838,1.676-29.751
				c0.279-3.812-0.994-6.594-3.613-8.74c-0.404-0.332-0.84-0.649-1.309-0.951c-3.275-2.109-6.551-4.219-9.83-6.326
				c-4.146-2.665-8.305-5.312-12.484-7.928c-1.623-1.016-3.247-2.033-4.878-3.037c-1.59-0.979-3.334-1.551-5.137-1.551
				C42.623,14.71,42.542,14.71,42.461,14.712"/>
		</defs>
		<clipPath id="SVGID_5_">
			<use xlink:href="#SVGID_22_"  overflow="visible"/>
		</clipPath>
		
			<linearGradient id="SVGID_6_" gradientUnits="userSpaceOnUse" x1="-342.6904" y1="57.1729" x2="-341.6914" y2="57.1729" gradientTransform="matrix(136.0045 90.1534 90.1534 -136.0045 41400.2656 38649.5664)">
			<stop  offset="0" style="stop-color:#4AFC97"/>
			<stop  offset="0.3212" style="stop-color:#49FA96"/>
			<stop  offset="0.495" style="stop-color:#45F294"/>
			<stop  offset="0.6334" style="stop-color:#3EE490"/>
			<stop  offset="0.7533" style="stop-color:#35D18A"/>
			<stop  offset="0.8611" style="stop-color:#28B883"/>
			<stop  offset="0.9588" style="stop-color:#19997A"/>
			<stop  offset="1" style="stop-color:#128A76"/>
		</linearGradient>
		<polygon clip-path="url(#SVGID_5_)" fill="url(#SVGID_6_)" points="45.667,-8.204 113.368,36.673 65.045,109.571 -2.656,64.695 		
			"/>
	</g>
	<g>
		<path fill="#1F8975" d="M71.452,79.696c-0.109,0.022-0.225,0.031-0.334,0.051c-1.211-0.19-11.646-1.325-15.744-1.968
			c-3.53-0.554-7.059-1.104-10.588-1.656c-0.242-0.038-0.484-0.076-0.727-0.113c-0.491-0.077-0.981-0.153-1.473-0.23
			c-2.44-0.381-4.881-0.761-7.32-1.146c-0.482-0.076-0.941-0.184-1.381-0.314c-2.412-0.727-4.16-2.278-5.291-4.544
			c-0.177-0.354-0.34-0.726-0.487-1.113c-0.984-2.606-1.96-5.214-2.935-7.823c-0.908-2.431-1.814-4.862-2.724-7.292
			c-0.516-1.376-1.027-2.753-1.54-4.13c-1.282-3.446-2.564-6.892-3.878-10.326c-0.021-0.054-0.037-0.106-0.057-0.159
			c-1.203-3.265-0.886-6.216,1.125-8.955c-0.112,0.053-0.226,0.111-0.338,0.17c-2.147,2.543-4.294,5.088-6.448,7.625
			c-0.745,0.877-1.305,1.776-1.695,2.699c-0.938,2.209-0.884,4.561,0.089,7.102c0.023,0.066,0.048,0.131,0.073,0.195
			c0.56,1.465,1.106,2.933,1.657,4.399c0.865,2.308,1.73,4.612,2.59,6.922c0.366,0.979,0.73,1.96,1.097,2.94
			c0.714,1.904,1.425,3.812,2.136,5.718c1.17,3.134,2.341,6.267,3.523,9.396c0.351,0.93,0.791,1.758,1.313,2.486
			c0.976,1.358,2.254,2.359,3.853,2.963c0.378,0.144,0.774,0.264,1.188,0.361c0.261,0.062,0.528,0.118,0.804,0.162
			c3.271,0.517,6.541,1.025,9.812,1.536c3.371,0.526,6.74,1.06,10.11,1.588c0.25,0.039,0.499,0.079,0.746,0.118
			c3.564,0.558,7.128,1.115,10.689,1.686c0.398,0.063,0.795,0.124,1.193,0.188c2.152,0.345,4.055,0.058,5.73-0.802
			c0.137-0.07,0.271-0.146,0.404-0.225c0.365-0.432,0.73-0.863,1.096-1.295c1.457-1.726,2.914-3.45,4.373-5.173
			c0.107-0.125,0.213-0.251,0.318-0.377c0.086-0.102,0.164-0.204,0.246-0.306c0.016-0.02,0.031-0.04,0.049-0.06
			c0.264-0.331,0.512-0.664,0.734-1.001c0.076-0.113,0.146-0.228,0.219-0.341c-0.113,0.132-0.225,0.263-0.336,0.395
			C72.727,79.333,72.106,79.558,71.452,79.696"/>
	</g>
	<g>
		<defs>
			<path id="SVGID_25_" d="M73.565,78.085c-0.084,0.221-0.172,0.436-0.262,0.638c0.189-0.227,0.324-0.593,0.445-0.997
				C73.688,77.846,73.627,77.966,73.565,78.085 M74.418,75.668c0.002-0.001,0.002-0.002,0.002-0.004
				C74.42,75.666,74.42,75.667,74.418,75.668 M17.151,30.561c-0.114,0.056-0.227,0.114-0.337,0.176
				c-2.117,2.569-4.231,5.142-6.355,7.704c-0.732,0.885-1.283,1.792-1.662,2.719c2.011-1.529,4.455-1.996,6.946-1.682
				c0.13,0.018,0.261,0.035,0.391,0.052c3.215,0.407,6.426,0.843,9.635,1.289c5.185,0.722,10.365,1.478,15.546,2.243
				c2.11,0.312,4.223,0.625,6.336,0.938c4.113,0.606,6.979,2.668,8.504,6.81c3.432,9.327,7.029,18.6,10.779,27.805
				c0.074,0.182,0.137,0.361,0.201,0.541c0.068,0.183,0.129,0.364,0.188,0.545c0.035,0.109,0.07,0.219,0.102,0.328
				c0.562,1.94,0.6,3.748,0.143,5.47c-0.531,0.643-1.062,1.283-1.594,1.923c0.137-0.07,0.27-0.148,0.402-0.228
				c0.273-0.164,0.545-0.333,0.805-0.529c0.631-0.477,1.223-1.047,1.775-1.711c1.162-1.396,2.154-2.933,3.312-4.331
				c0.184-0.221,0.207-0.572,0.387-0.797c0.023-0.026,0.047-0.056,0.07-0.084c0.197-0.244,0.395-0.604,0.578-1.018
				c-0.064,0.076-0.135,0.136-0.213,0.175c0.076-0.114,0.145-0.229,0.213-0.344c0.096-0.155,0.18-0.312,0.262-0.469
				c0.355-0.934,0.646-1.963,0.801-2.519c0.002,0.019,0.053,0.08,0.055,0.098c0.559-2.122,0.424-4.338-0.584-6.811
				c-3.748-9.206-7.328-18.46-10.758-27.789c-1.32-3.587-3.629-5.595-6.902-6.468c-0.506-0.135-1.031-0.244-1.582-0.325
				c-3.855-0.569-7.709-1.14-11.565-1.704c-4.878-0.714-9.758-1.409-14.644-2.064c-1.898-0.256-3.798-0.513-5.698-0.752
				c-0.485-0.062-0.97-0.094-1.447-0.094C19.811,29.657,18.421,29.94,17.151,30.561"/>
		</defs>
		<clipPath id="SVGID_8_">
			<use xlink:href="#SVGID_25_"  overflow="visible"/>
		</clipPath>
		
			<linearGradient id="SVGID_9_" gradientUnits="userSpaceOnUse" x1="-342.8706" y1="56.5332" x2="-341.8695" y2="56.5332" gradientTransform="matrix(161.0946 25.9494 25.9494 -161.0946 53682.7734 18042.5234)">
			<stop  offset="0" style="stop-color:#4AFC97"/>
			<stop  offset="0.3212" style="stop-color:#49FA96"/>
			<stop  offset="0.495" style="stop-color:#45F294"/>
			<stop  offset="0.6334" style="stop-color:#3EE490"/>
			<stop  offset="0.7533" style="stop-color:#35D18A"/>
			<stop  offset="0.8611" style="stop-color:#28B883"/>
			<stop  offset="0.9588" style="stop-color:#19997A"/>
			<stop  offset="1" style="stop-color:#128A76"/>
		</linearGradient>
		<polygon clip-path="url(#SVGID_8_)" fill="url(#SVGID_9_)" points="10.471,19.267 84.047,31.118 73.305,97.812 -0.272,85.96 		"/>
	</g>
</g>
</svg>
