<svg version="1.1" xmlns="http://www.w3.org/2000/svg" x="0" y="0" width="85.1" height="76.5" viewBox="0 0 85.1 76.5" enable-background="new 0 0 85.141 76.479" xml:space="preserve"><path fill="#FFFFFF" d="M63.2 3.9c-1.6-0.5-3.3-0.8-5.1-0.8 -1.9 0-3.7 0.3-5.5 1 0.9 0.3 1.8 0.7 2.6 1.2 -0.8-0.5-1.7-0.8-2.6-1.2 -3.2 1.1-6.1 3.2-8.6 6 -0.1 0-0.1-0.1-0.2-0.1 -1.5-0.9-3-1.9-4.5-2.8 -1.4-0.9-3-1.4-4.6-1.4 0.1 0 0.1-0.1 0.2-0.1 -0.1 0-0.2 0-0.3 0 -0.1 0-0.1 0.1-0.2 0.1 -0.1 0-0.2 0-0.3 0 -2.7 1.3-5.5 2.7-8.3 4 -1 0.5-1.8 1-2.4 1.6 0.1 0 0.2 0 0.3-0.1 -1.5 1.5-2.3 3.4-2.4 5.8 0 0.1 0 0.1 0 0.2 -0.1 0.9-0.1 1.9-0.2 2.8 -1.6-0.2-3.2-0.4-4.8-0.6 -0.4-0.1-0.9-0.1-1.3-0.1 -1.1 0-2.1 0.2-3 0.5 0.1-0.1 0.1-0.2 0.2-0.2 -0.1 0-0.2 0.1-0.3 0.2 -0.1 0.1-0.1 0.2-0.2 0.2 -0.1 0.1-0.2 0.1-0.4 0.2 -0.1 0.1-0.2 0.1-0.3 0.2 -1.9 2.4-3.9 4.7-5.8 7.1 -0.7 0.8-1.2 1.6-1.5 2.5 0.2-0.2 0.5-0.3 0.7-0.5 -0.8 2-0.7 4.1 0.1 6.4 0 0.1 0 0.1 0.1 0.2 0.5 1.3 1 2.7 1.5 4 0.8 2.1 1.6 4.2 2.4 6.4 0.3 0.9 0.7 1.8 1 2.7 0.7 1.8 1.3 3.5 2 5.3 1.1 2.9 2.2 5.8 3.2 8.6 0.3 0.9 0.7 1.6 1.2 2.3 0.9 1.3 2.1 2.2 3.5 2.7 0.3 0.1 0.7 0.2 1.1 0.3 0.2 0.1 0.5 0.1 0.7 0.1 3 0.5 6 0.9 9 1.4 3.1 0.5 6.2 1 9.3 1.5 0.2 0 0.5 0.1 0.7 0.1 3.3 0.5 6.6 1 9.8 1.6 0.4 0.1 0.7 0.1 1.1 0.2 2 0.3 3.7 0.1 5.3-0.7 0 0 0.1 0 0.1-0.1 0.6 0.1 1.2 0.1 1.8 0.1 1.7 0 3.4-0.3 5.1-0.8C73.8 68.4 81.7 54.5 81.7 37.8 81.7 21.2 73.8 7.3 63.2 3.9zM38.7 18.2c-0.6 1.3-1.2 2.8-1.7 4.2 -0.7-0.1-1.4-0.2-2.1-0.3 -1.6-0.2-3.3-0.5-4.9-0.7 0.2-2.8 0.4-5.6 0.6-8.3 2.4 1.5 4.8 3 7.1 4.5C38 17.7 38.4 17.9 38.7 18.2zM28.6 41.8c0.2-2.6 0.3-5.1 0.5-7.7 0.1-1 0.1-1.9 0.2-2.9 1.3 0.2 2.7 0.4 4 0.6 0.5 0.1 1.1 0.2 1.6 0.2 -0.2 1.9-0.3 3.9-0.3 5.9 0 5.2 0.8 10.1 2.1 14.5 -1.5-1-2.9-1.9-4.4-2.9 -0.4-0.2-0.7-0.5-1-0.8 -1.7-1.5-2.6-3.5-2.7-5.8C28.6 42.5 28.6 42.1 28.6 41.8zM47 38.9c3.2 8.6 6.5 17.1 9.9 25.6 0.1 0.2 0.1 0.3 0.2 0.5 0 0 0 0.1 0 0.1 -0.2 0-0.4 0-0.6-0.1 -1.7-1-3.6-2.2-5.3-3.2 -4-6.2-6.5-14.6-6.5-23.9 0-0.9 0-1.7 0.1-2.6C45.7 36.2 46.4 37.4 47 38.9zM59.4 37.4c-0.2 2.4-0.3 4.7-0.5 7.1 -1.9-4.9-3.7-9.7-5.5-14.6 -0.7-1.8-1.6-3.2-2.8-4.2 1.4 0.9 2.9 1.9 4.3 2.8C58 30.6 59.7 33.4 59.4 37.4zM47 23.9c-0.1 0-0.2 0-0.3-0.1 0.1-0.2 0.1-0.4 0.2-0.5 0.7 0.4 1.3 0.8 2 1.3C48.2 24.4 47.6 24.1 47 23.9zM27.8 60.8c-0.4-0.1-0.9-0.2-1.3-0.3 -2.2-0.7-3.8-2.1-4.9-4.2 -0.2-0.3-0.3-0.7-0.4-1 -0.9-2.4-1.8-4.8-2.7-7.2 -0.8-2.2-1.7-4.5-2.5-6.7 -0.5-1.3-0.9-2.5-1.4-3.8 -1.1-3-2.2-6-3.4-9 2.6 0.3 5.2 0.7 7.8 1 0.4 0.1 0.9 0.1 1.3 0.2 0 0.5-0.1 0.9-0.1 1.4 -0.1 1.9-0.3 3.7-0.4 5.6 -0.2 3.1-0.4 6.1-0.6 9.2 -0.1 0.9 0 1.8 0.2 2.6 0.3 1.5 1 2.8 2.1 3.9 0.3 0.3 0.5 0.5 0.9 0.8 0.2 0.2 0.4 0.3 0.6 0.4 2.5 1.7 5.1 3.3 7.6 5 1.6 1.1 3.2 2.1 4.8 3.2 -0.3-0.1-0.6-0.1-1-0.2C32.2 61.5 30 61.1 27.8 60.8zM67.4 58.1c0.4-8.8 0.9-17.5 1.5-26.2 0.3-3.5-0.9-6.1-3.3-8 -0.4-0.3-0.8-0.6-1.2-0.9 -3-1.9-6-3.9-9-5.8 -1.5-0.9-2.9-1.9-4.4-2.8 1.9-3.1 4.2-5.7 6.8-7.6 7.7 5.7 15.2 15.2 14.8 31.1C72.3 46.4 70.3 53 67.4 58.1z"/></svg>