<svg xmlns="http://www.w3.org/2000/svg" xmlns:xlink="http://www.w3.org/1999/xlink" width="102.735" height="100.269" viewBox="0 0 102.735 100.269"><path fill="#166354" d="M53.667 49.684c0-14.772 5.756-27.557 14.137-33.77-1.73-1.284-3.572-2.286-5.5-2.968C51.04 16.93 42.667 31.86 42.667 49.684S51.04 82.438 62.303 86.42c1.928-.68 3.77-1.683 5.5-2.965-8.38-6.214-14.136-19-14.136-33.77"/><defs><path id="a" d="M62.303 12.945c1.926-.68 3.934-1.05 6-1.05 1.89 0 3.727.31 5.5.88 11.514 3.713 20.135 18.82 20.135 36.908 0 18.086-8.62 33.196-20.135 36.908-1.773.57-3.61.882-5.5.882-2.066 0-4.074-.37-6-1.053 1.928-.682 3.77-1.683 5.498-2.967 8.384-6.214 15.74-16.193 16.138-33.77.39-17.253-7.754-27.56-16.137-33.772-1.727-1.28-3.57-2.282-5.497-2.965"/></defs><clipPath id="b"><use xlink:href="#a" overflow="visible"/></clipPath><linearGradient id="c" gradientUnits="userSpaceOnUse" x1="-343.689" y1="53.1" x2="-342.689" y2="53.1" gradientTransform="scale(62.5057) rotate(-45 -105.865 -441.812)"><stop offset="0" stop-color="#128A76"/><stop offset=".22" stop-color="#148D77"/><stop offset=".403" stop-color="#19987A"/><stop offset=".572" stop-color="#21A97F"/><stop offset=".734" stop-color="#2DC186"/><stop offset=".888" stop-color="#3CE08F"/><stop offset="1" stop-color="#4AFC97"/></linearGradient><path clip-path="url(#b)" fill="url(#c)" d="M24.514 49.684L78.122-3.923l53.605 53.607-53.605 53.606"/><path fill="#177261" d="M71.133 81.898c-.107-.024-.217-.063-.324-.092-1.026-.673-10.062-6.016-13.528-8.294l-8.96-5.88c-.204-.134-.41-.27-.614-.402l-1.246-.818c-2.065-1.355-4.13-2.708-6.194-4.067-.407-.27-.78-.556-1.127-.856-1.895-1.658-2.848-3.793-2.94-6.324-.017-.396-.012-.8.015-1.216.18-2.78.368-5.558.558-8.336.178-2.59.355-5.177.53-7.767.1-1.466.2-2.932.303-4.396.255-3.667.51-7.335.732-11.005.003-.06.01-.113.014-.17.252-3.47 1.76-6.026 4.724-7.69-.126 0-.252.01-.378.017-3.008 1.43-6.013 2.86-9.022 4.28-1.04.492-1.922 1.08-2.66 1.76-1.765 1.624-2.687 3.788-2.85 6.503l-.014.21c-.096 1.562-.203 3.126-.308 4.69-.165 2.457-.33 4.916-.5 7.374-.07 1.042-.144 2.085-.215 3.128-.137 2.03-.277 4.06-.416 6.09-.23 3.34-.456 6.675-.672 10.013-.064.993-.006 1.93.17 2.81.328 1.638 1.078 3.078 2.285 4.288.285.287.596.56.933.82.213.165.433.326.666.48 2.765 1.82 5.533 3.634 8.3 5.45 2.855 1.87 5.702 3.748 8.555 5.62.212.138.422.277.632.415 3.015 1.98 6.03 3.96 9.04 5.95.335.22.673.44 1.007.663 1.817 1.203 3.67 1.728 5.55 1.637.154-.007.31-.02.46-.037l1.534-.728c2.04-.97 4.078-1.938 6.12-2.905l.444-.212c.12-.057.232-.117.35-.177.023-.01.045-.022.068-.033.38-.193.74-.395 1.084-.607.115-.073.227-.147.34-.222l-.47.223c-.664.012-1.322-.04-1.977-.185"/><g><defs><path id="d" d="M74.217 81.29c-.166.166-.336.326-.502.474.268-.127.54-.406.818-.726-.105.084-.208.17-.316.252m1.778-1.848c.002 0 .002 0 .002-.003l-.002.002M42.46 14.712c-.124.004-.25.013-.377.02-2.99 1.467-5.976 2.935-8.968 4.394-1.034.504-1.908 1.102-2.637 1.79 2.462-.564 4.88.02 7.02 1.335.112.07.223.142.335.21 2.76 1.7 5.504 3.42 8.242 5.153 4.424 2.798 8.832 5.625 13.232 8.462 1.795 1.156 3.59 2.312 5.383 3.47 3.498 2.25 5.258 5.312 4.934 9.714-.725 9.91-1.277 19.842-1.662 29.773-.008.197-.023.386-.04.576-.015.194-.034.385-.056.573-.012.114-.027.227-.043.34-.287 2-1 3.662-2.13 5.04-.747.366-1.495.73-2.243 1.095.154-.01.307-.023.46-.042.317-.036.634-.08.952-.15.77-.174 1.545-.447 2.324-.824 1.635-.792 3.172-1.78 4.805-2.577.26-.126.425-.438.683-.565l.098-.048c.282-.14.608-.388.946-.688-.088.042-.176.067-.264.07.115-.072.225-.148.336-.225.15-.103.29-.21.43-.32.71-.704 1.402-1.52 1.77-1.963-.005.018.017.097.01.112 1.384-1.704 2.177-3.777 2.28-6.446.39-9.932.95-19.838 1.676-29.75.28-3.813-.994-6.595-3.613-8.74-.403-.333-.84-.65-1.308-.952-3.275-2.11-6.55-4.22-9.83-6.326-4.146-2.665-8.305-5.312-12.484-7.928-1.623-1.016-3.247-2.033-4.878-3.037-1.59-.978-3.334-1.55-5.137-1.55-.08 0-.16 0-.242.002"/></defs><clipPath id="e"><use xlink:href="#d" overflow="visible"/></clipPath><linearGradient id="f" gradientUnits="userSpaceOnUse" x1="-342.69" y1="57.173" x2="-341.691" y2="57.173" gradientTransform="scale(163.1713) rotate(33.54 -266.16 539.424)"><stop offset="0" stop-color="#4AFC97"/><stop offset=".321" stop-color="#49FA96"/><stop offset=".495" stop-color="#45F294"/><stop offset=".633" stop-color="#3EE490"/><stop offset=".753" stop-color="#35D18A"/><stop offset=".861" stop-color="#28B883"/><stop offset=".959" stop-color="#19997A"/><stop offset="1" stop-color="#128A76"/></linearGradient><path clip-path="url(#e)" fill="url(#f)" d="M45.667-8.204l67.7 44.877-48.322 72.898-67.7-44.875"/></g><g><path fill="#1F8975" d="M71.452 79.696c-.11.022-.225.03-.334.05-1.21-.19-11.646-1.324-15.744-1.967-3.53-.555-7.06-1.105-10.588-1.657l-.727-.113-1.474-.23c-2.44-.38-4.88-.76-7.32-1.146-.482-.076-.94-.184-1.38-.314-2.413-.727-4.16-2.278-5.292-4.544-.177-.354-.34-.726-.487-1.113-.984-2.606-1.96-5.214-2.935-7.823-.908-2.43-1.814-4.862-2.724-7.292-.516-1.376-1.027-2.753-1.54-4.13-1.282-3.446-2.564-6.892-3.878-10.326l-.057-.16c-1.203-3.264-.886-6.215 1.125-8.954-.112.053-.226.11-.338.17-2.147 2.543-4.294 5.088-6.448 7.625-.745.877-1.305 1.776-1.695 2.7-.938 2.208-.884 4.56.09 7.1.022.067.047.132.072.196.56 1.464 1.105 2.932 1.656 4.398.865 2.308 1.73 4.612 2.59 6.922.366.98.73 1.96 1.097 2.94.714 1.904 1.425 3.812 2.136 5.718 1.17 3.134 2.34 6.267 3.522 9.396.35.93.79 1.758 1.313 2.486.976 1.358 2.254 2.36 3.853 2.963.378.144.774.264 1.188.36.26.063.528.12.804.163 3.27.517 6.54 1.025 9.812 1.536 3.37.526 6.74 1.06 10.11 1.588l.746.118c3.564.558 7.128 1.115 10.69 1.686.397.063.794.124 1.192.188 2.152.345 4.055.058 5.73-.802.137-.07.27-.146.404-.225l1.096-1.295c1.457-1.726 2.914-3.45 4.373-5.173.107-.125.213-.25.318-.377.087-.102.165-.204.247-.306.016-.02.03-.04.05-.06.263-.33.51-.664.733-1 .076-.114.146-.23.22-.342-.114.132-.226.263-.337.395-.596.286-1.217.51-1.87.65"/></g><g><defs><path id="g" d="M73.565 78.085c-.084.22-.172.436-.262.638.19-.227.324-.593.445-.997-.06.12-.12.24-.183.36m.853-2.418c.002 0 .002-.002.002-.004 0 .002 0 .003-.002.004M17.15 30.56c-.113.057-.226.115-.336.177-2.117 2.57-4.23 5.142-6.355 7.704-.733.886-1.284 1.793-1.663 2.72 2.01-1.53 4.455-1.996 6.946-1.682l.39.052c3.216.407 6.427.843 9.636 1.29 5.184.72 10.364 1.477 15.545 2.242L47.65 44c4.114.606 6.98 2.668 8.505 6.81 3.432 9.327 7.03 18.6 10.78 27.805.073.182.136.36.2.54.068.184.13.365.188.546.035.11.07.22.102.33.562 1.94.6 3.747.143 5.47-.53.642-1.062 1.282-1.594 1.922.137-.07.27-.148.402-.228.273-.164.545-.333.805-.53.632-.476 1.224-1.046 1.776-1.71 1.162-1.396 2.154-2.933 3.312-4.33.184-.222.207-.573.387-.798.023-.026.047-.056.07-.084.197-.244.395-.604.578-1.018-.064.076-.135.136-.213.175.076-.115.145-.23.213-.345.096-.155.18-.312.262-.47.355-.933.646-1.962.8-2.518.003.02.054.08.056.098.56-2.122.425-4.338-.583-6.81-3.748-9.207-7.328-18.46-10.758-27.79-1.32-3.587-3.63-5.595-6.903-6.468-.506-.135-1.03-.244-1.582-.325-3.855-.57-7.71-1.14-11.565-1.704-4.878-.714-9.758-1.41-14.644-2.064-1.898-.256-3.798-.513-5.698-.752-.485-.062-.97-.094-1.447-.094-1.43 0-2.82.282-4.09.903"/></defs><clipPath id="h"><use xlink:href="#g" overflow="visible"/></clipPath><linearGradient id="i" gradientUnits="userSpaceOnUse" x1="-342.871" y1="56.533" x2="-341.87" y2="56.533" gradientTransform="scale(163.1712) rotate(9.15 -526.374 2110.87)"><stop offset="0" stop-color="#4AFC97"/><stop offset=".321" stop-color="#49FA96"/><stop offset=".495" stop-color="#45F294"/><stop offset=".633" stop-color="#3EE490"/><stop offset=".753" stop-color="#35D18A"/><stop offset=".861" stop-color="#28B883"/><stop offset=".959" stop-color="#19997A"/><stop offset="1" stop-color="#128A76"/></linearGradient><path clip-path="url(#h)" fill="url(#i)" d="M10.47 19.267l73.577 11.85-10.742 66.695L-.272 85.96"/></g></svg>