<svg xmlns="http://www.w3.org/2000/svg" width="85.1" height="76.5">
  <path fill="#FFF" d="M63.2 3.9c-1.6-.5-3.3-.8-5.1-.8-1.9 0-3.7.3-5.5 1 .9.3 1.8.7 2.6 1.2-.8-.5-1.7-.8-2.6-1.2-3.2 1.1-6.1 3.2-8.6 6-.1 0-.1-.1-.2-.1-1.5-.9-3-1.9-4.5-2.8-1.4-.9-3-1.4-4.6-1.4.1 0 .1-.1.2-.1h-.3c-.1 0-.1.1-.2.1h-.3c-2.7 1.3-5.5 2.7-8.3 4-1 .5-1.8 1-2.4 1.6.1 0 .2 0 .3-.1-1.5 1.5-2.3 3.4-2.4 5.8v.2c-.1.9-.1 1.9-.2 2.8l-4.8-.6c-.4-.1-.9-.1-1.3-.1-1.1 0-2.1.2-3 .5.1-.1.1-.2.2-.2-.1 0-.2.1-.3.2-.1.1-.1.2-.2.2-.1.1-.2.1-.4.2-.1.1-.2.1-.3.2-1.9 2.4-3.9 4.7-5.8 7.1-.7.8-1.2 1.6-1.5 2.5.2-.2.5-.3.7-.5-.8 2-.7 4.1.1 6.4 0 .1 0 .1.1.2.5 1.3 1 2.7 1.5 4 .8 2.1 1.6 4.2 2.4 6.4.3.9.7 1.8 1 2.7.7 1.8 1.3 3.5 2 5.3 1.1 2.9 2.2 5.8 3.2 8.6.3.9.7 1.6 1.2 2.3.9 1.3 2.1 2.2 3.5 2.7.3.1.7.2 1.1.3.2.1.5.1.7.1 3 .5 6 .9 9 1.4l9.3 1.5c.2 0 .5.1.7.1 3.3.5 6.6 1 9.8 1.6.4.1.7.1 1.1.2 2 .3 3.7.1 5.3-.7 0 0 .1 0 .1-.1.6.1 1.2.1 1.8.1 1.7 0 3.4-.3 5.1-.8 10.4-3.5 18.3-17.4 18.3-34.1 0-16.6-7.9-30.5-18.5-33.9zM38.7 18.2c-.6 1.3-1.2 2.8-1.7 4.2l-2.1-.3c-1.6-.2-3.3-.5-4.9-.7.2-2.8.4-5.6.6-8.3 2.4 1.5 4.8 3 7.1 4.5.3.1.7.3 1 .6zM28.6 41.8c.2-2.6.3-5.1.5-7.7.1-1 .1-1.9.2-2.9 1.3.2 2.7.4 4 .6.5.1 1.1.2 1.6.2-.2 1.9-.3 3.9-.3 5.9 0 5.2.8 10.1 2.1 14.5-1.5-1-2.9-1.9-4.4-2.9-.4-.2-.7-.5-1-.8-1.7-1.5-2.6-3.5-2.7-5.8v-1.1zM47 38.9c3.2 8.6 6.5 17.1 9.9 25.6.1.2.1.3.2.5v.1c-.2 0-.4 0-.6-.1-1.7-1-3.6-2.2-5.3-3.2-4-6.2-6.5-14.6-6.5-23.9 0-.9 0-1.7.1-2.6.9.9 1.6 2.1 2.2 3.6zm12.4-1.5c-.2 2.4-.3 4.7-.5 7.1-1.9-4.9-3.7-9.7-5.5-14.6-.7-1.8-1.6-3.2-2.8-4.2 1.4.9 2.9 1.9 4.3 2.8 3.1 2.1 4.8 4.9 4.5 8.9zM47 23.9c-.1 0-.2 0-.3-.1.1-.2.1-.4.2-.5.7.4 1.3.8 2 1.3-.7-.2-1.3-.5-1.9-.7zM27.8 60.8c-.4-.1-.9-.2-1.3-.3-2.2-.7-3.8-2.1-4.9-4.2-.2-.3-.3-.7-.4-1l-2.7-7.2c-.8-2.2-1.7-4.5-2.5-6.7-.5-1.3-.9-2.5-1.4-3.8-1.1-3-2.2-6-3.4-9 2.6.3 5.2.7 7.8 1 .4.1.9.1 1.3.2 0 .5-.1.9-.1 1.4-.1 1.9-.3 3.7-.4 5.6-.2 3.1-.4 6.1-.6 9.2-.1.9 0 1.8.2 2.6.3 1.5 1 2.8 2.1 3.9.3.3.5.5.9.8.2.2.4.3.6.4 2.5 1.7 5.1 3.3 7.6 5 1.6 1.1 3.2 2.1 4.8 3.2-.3-.1-.6-.1-1-.2-2.2-.2-4.4-.6-6.6-.9zm39.6-2.7c.4-8.8.9-17.5 1.5-26.2.3-3.5-.9-6.1-3.3-8l-1.2-.9c-3-1.9-6-3.9-9-5.8-1.5-.9-2.9-1.9-4.4-2.8 1.9-3.1 4.2-5.7 6.8-7.6C65.5 12.5 73 22 72.6 37.9c-.3 8.5-2.3 15.1-5.2 20.2z"/>
</svg>
