<?xml version="1.0" encoding="utf-8"?>
<!-- Generated by IcoMoon.io -->
<!DOCTYPE svg PUBLIC "-//W3C//DTD SVG 1.1//EN" "http://www.w3.org/Graphics/SVG/1.1/DTD/svg11.dtd">
<svg version="1.1" xmlns="http://www.w3.org/2000/svg" xmlns:xlink="http://www.w3.org/1999/xlink" width="32" height="32" viewBox="0 0 32 32">
<path fill="rgb(228, 230, 232)" d="M27.211 12.736c-0.8-0.508-1.514-1.016-2.268-1.524-0.131-0.088-0.355-0.092-0.485 0-0.558 0.395-1.133 0.539-1.808 0.382-0.219-0.051-0.421 0.034-0.543 0.221-1.502 2.297-3.005 4.595-4.508 6.892-0.087 0.132-0.093 0.353-0 0.484 0.843 1.194 0.382 2.756-1.043 3.191-1.399 0.427-2.656-0.918-2.458-2.267 0.032-0.216-0.017-0.425-0.221-0.542-0.988-0.568-1.977-1.136-2.965-1.705-0.198-0.114-0.415-0.067-0.582 0.075-0.658 0.562-1.498 0.671-2.281 0.296-0.203-0.097-0.386-0.082-0.555 0.075-0.85 0.789-1.724 1.577-2.524 2.366 0-0.086 0-0.172 0-0.258 0-0.225 0-0.449 0-0.674 0-0.008-0.009-0.014 0.001-0.024 0.7-0.65 1.386-1.3 2.085-1.95 0.116-0.108 0.173-0.314 0.117-0.467-0.46-1.259 0.208-2.629 1.599-2.808 1.353-0.174 2.314 1.064 2.177 2.322-0.018 0.162 0.103 0.337 0.237 0.414 1.013 0.583 2.025 1.165 3.038 1.748 0.135 0.078 0.352 0.101 0.484 0 0.549-0.42 1.105-0.592 1.799-0.466 0.223 0.040 0.415-0.027 0.542-0.221 1.513-2.314 3.025-4.627 4.538-6.941 0.090-0.137 0.088-0.347 0-0.484-0.773-1.203-0.292-2.698 1.097-3.122 1.466-0.448 2.676 0.994 2.438 2.366-0.039 0.226 0.032 0.412 0.225 0.542 0.619 0.417 1.223 0.835 1.863 1.252-0 0.275-0 0.55-0 0.825z"></path>
<path fill="rgb(2, 185, 149)" d="M23.106 27.067c-2.401 0-4.802 0-7.203 0-2.368 0-4.736 0-7.104 0-1.3 0-3.828 0.467-3.828-1.528 0-1.189 0-2.378 0-3.567 0.96-0.92 1.967-1.841 2.959-2.761 0.967 0.348 1.936 0.224 2.782-0.356 0.812 0.467 1.62 0.934 2.433 1.401-0.038 1.832 1.492 3.52 3.467 3.095 2.013-0.433 2.977-2.657 1.973-4.399 1.388-2.123 2.776-4.246 4.164-6.369 0.685 0.090 1.349-0.034 1.95-0.384 0.836 0.563 1.712 1.125 2.512 1.688 0 3.886 0 7.772 0 11.658-0.16 2.033-2.718 1.521-4.105 1.521z"></path>
<path fill="rgb(2, 185, 149)" d="M4.971 7.651c0-0.41 0-0.82 0-1.23 0-1.077 0.858-1.594 1.807-1.594 4.291 0 8.582 0 12.873 0 1.834 0 3.668 0 5.501 0 0.916 0 1.74 0.237 2.024 1.264 0.103 0.372 0.034 0.868 0.034 1.244 0 1.139 0 2.277 0 3.416-0.32-0.248-0.744-0.496-1.111-0.743 0.123-1.876-1.338-3.5-3.336-3.244-2.092 0.268-3.050 2.579-2.15 4.334-1.405 2.148-2.81 4.297-4.215 6.445-0.702-0.064-1.355 0.073-1.955 0.46-0.84-0.483-1.68-0.966-2.519-1.449 0.036-1.725-1.417-3.088-3.155-3.014-1.903 0.081-3.050 2.022-2.604 3.749-0.405 0.376-0.875 0.753-1.195 1.129 0-1.448 0-2.897 0-4.345 0-2.141 0-4.282 0-6.423z"></path>
<path fill="rgb(7, 155, 126)" d="M5.931 7.171c0-0.41 0-0.82 0-1.23 0-0.459 0.156-0.815 0.408-1.073-0.759 0.138-1.368 0.646-1.368 1.553 0 0.41 0 0.82 0 1.23 0 2.141 0 4.282 0 6.423 0 1.448 0 2.897 0 4.345 0.26-0.305 0.618-0.611 0.96-0.916 0-1.303 0-2.606 0-3.909 0-2.141 0-4.282 0-6.422z"></path>
<path fill="rgb(201, 202, 203)" d="M13.878 19.093c-0.988-0.568-1.977-1.136-2.965-1.705-0.198-0.114-0.415-0.067-0.582 0.075-0.658 0.562-1.498 0.671-2.281 0.296-0.203-0.097-0.386-0.082-0.555 0.075-0.85 0.789-1.724 1.577-2.524 2.366 0 0.074 0 0.148 0 0.222 0 0.086 0 0.172 0 0.258 0.8-0.789 1.674-1.577 2.524-2.366 0.169-0.157 0.352-0.172 0.555-0.075 0.783 0.375 1.623 0.266 2.281-0.296 0.167-0.142 0.383-0.189 0.582-0.075 0.988 0.568 1.977 1.136 2.965 1.705 0.108 0.062 0.171 0.151 0.203 0.252 0.003-0.063 0.008-0.126 0.017-0.19 0.032-0.216-0.017-0.425-0.22-0.542z"></path>
<path fill="rgb(201, 202, 203)" d="M16.557 21.902c-1.216 0.371-2.324-0.596-2.463-1.741-0.163 1.334 1.080 2.643 2.463 2.221 1.033-0.315 1.556-1.222 1.446-2.152-0.089 0.747-0.593 1.412-1.446 1.672z"></path>
<path fill="rgb(201, 202, 203)" d="M24.458 10.732c-0.558 0.395-1.133 0.539-1.808 0.382-0.219-0.051-0.421 0.034-0.543 0.221-1.502 2.297-3.005 4.595-4.508 6.892-0.086 0.132-0.093 0.351-0.001 0.483 0-0.001 0.001-0.002 0.001-0.003 1.502-2.297 3.005-4.595 4.508-6.892 0.122-0.187 0.324-0.272 0.543-0.221 0.675 0.158 1.25 0.013 1.808-0.382 0.13-0.092 0.354-0.088 0.485 0 0.754 0.508 1.468 1.016 2.268 1.524 0-0.16 0-0.32 0-0.48-0.8-0.508-1.514-1.016-2.268-1.524-0.131-0.088-0.355-0.092-0.485 0z"></path>
<path fill="rgb(201, 202, 203)" d="M17.599 19.671c0.232 0.329 0.362 0.686 0.404 1.039 0.060-0.501-0.065-1.040-0.404-1.519-0-0.001-0.001-0.001-0.001-0.002-0.085 0.133-0.092 0.351 0.001 0.482z"></path>
<path fill="rgb(7, 155, 126)" d="M19.385 18.153c1.209-1.848 2.417-3.697 3.626-5.545-0.087-0.004-0.174-0.012-0.261-0.024-1.388 2.123-2.776 4.246-4.164 6.369 0.598 1.038 0.497 2.248-0.109 3.147 1.252-0.845 1.714-2.551 0.909-3.947z"></path>
<path fill="rgb(7, 155, 126)" d="M23.906 26.267c-2.401 0-4.802 0-7.203 0-2.368 0-4.736 0-7.104 0-1.3 0-3.828 0.467-3.828-1.528 0-1.175 0-2.349 0-3.524-0.269 0.252-0.537 0.505-0.8 0.758 0 1.189 0 2.378 0 3.567 0 1.995 2.528 1.528 3.828 1.528 2.368 0 4.736 0 7.104 0 2.401 0 4.802 0 7.203 0 1.248 0 3.44 0.413 3.986-0.982-0.911 0.394-2.292 0.182-3.186 0.182z"></path>
<path fill="rgb(7, 155, 126)" d="M9.912 19.495c0.812 0.467 1.62 0.934 2.433 1.401-0.038 1.832 1.492 3.52 3.467 3.095 0.813-0.175 1.454-0.642 1.864-1.251-0.309 0.209-0.666 0.365-1.064 0.451-1.975 0.425-3.505-1.263-3.467-3.095-0.812-0.467-1.62-0.934-2.433-1.401-0.846 0.581-1.815 0.704-2.782 0.356-0.992 0.92-1.999 1.841-2.959 2.761 0 0.014 0 0.028 0 0.042 0.712-0.668 1.439-1.336 2.159-2.003 0.967 0.348 1.936 0.224 2.782-0.356z"></path>
<path fill="rgb(19, 74, 120)" d="M25.868 3.883c-1.23-0.067-2.47-0.015-3.7-0.015-2.506 0-5.012 0-7.518 0-2.211 0-4.421 0-6.632 0-0.482 0-0.963 0-1.445 0-1.293 0-2.34 0.913-2.549 2.184-0.195 1.187-0.013 2.516-0.013 3.711 0 2.495 0 4.991 0 7.486 0 0.757 0 1.514 0 2.272-0.028 0.192 0 0.402 0 0.602 0 0.553 0 1.106 0 1.659 0 0.722 0 1.444 0 2.166 0 0.505 0 1.010 0 1.515 0 1.235 0.769 2.2 1.95 2.526 0.417 0.115 0.908 0.039 1.338 0.039 0.815 0 1.63 0 2.445 0 2.484 0 4.967 0 7.451 0 2.254 0 4.508 0 6.762 0 1.66 0 3.354 0.157 4.098-1.732 0.095-0.241 0.117-0.493 0.117-0.748 0-3.72 0-7.44 0-11.159 0-0.25 0-0.5 0-0.75 0-0.66 0-1.319 0-1.979 0-1.278 0-2.557 0-3.835 0-0.458 0-0.916 0-1.374 0-1.273-0.985-2.494-2.303-2.566zM4.971 7.651c0-0.41 0-0.82 0-1.23 0-1.077 0.876-1.594 1.825-1.594 4.291 0 8.582 0 12.873 0 1.834 0 3.668 0 5.501 0 0.916 0 1.731 0.237 2.015 1.264 0.103 0.372 0.025 0.868 0.025 1.244 0 1.139 0 2.277 0 3.416-0.367-0.248-0.735-0.496-1.102-0.743 0.123-1.876-1.333-3.5-3.331-3.244-2.092 0.268-3.048 2.579-2.148 4.334-1.405 2.148-2.809 4.297-4.214 6.445-0.702-0.064-1.354 0.073-1.955 0.46-0.84-0.483-1.679-0.966-2.519-1.449 0.036-1.725-1.417-3.088-3.155-3.014-1.903 0.081-3.059 2.022-2.612 3.749-0.405 0.376-0.804 0.753-1.204 1.129 0-1.448 0-2.897 0-4.345 0.001-2.141 0.001-4.282 0.001-6.422zM27.211 12.736c-0.8-0.508-1.505-1.016-2.259-1.524-0.131-0.088-0.35-0.092-0.48 0-0.558 0.395-1.131 0.539-1.805 0.382-0.219-0.051-0.42 0.034-0.542 0.221-1.502 2.297-3.005 4.595-4.507 6.892-0.087 0.132-0.093 0.353 0 0.484 0.843 1.194 0.383 2.756-1.043 3.191-1.399 0.427-2.656-0.918-2.458-2.267 0.032-0.216-0.017-0.425-0.221-0.542-0.988-0.568-1.977-1.136-2.965-1.705-0.198-0.114-0.415-0.067-0.582 0.075-0.658 0.562-1.498 0.671-2.281 0.296-0.203-0.097-0.395-0.082-0.564 0.075-0.85 0.789-1.732 1.577-2.532 2.366 0-0.086 0-0.172 0-0.258 0-0.225 0-0.449 0-0.674 0-0.008-0.001-0.014 0.010-0.024 0.7-0.65 1.39-1.3 2.090-1.95 0.116-0.108 0.175-0.314 0.119-0.467-0.46-1.259 0.209-2.629 1.6-2.808 1.353-0.174 2.315 1.064 2.177 2.322-0.018 0.162 0.103 0.337 0.237 0.414 1.013 0.583 2.025 1.165 3.038 1.748 0.135 0.078 0.352 0.101 0.484 0 0.549-0.42 1.105-0.592 1.799-0.466 0.223 0.040 0.415-0.027 0.542-0.221 1.513-2.314 3.025-4.627 4.538-6.941 0.090-0.137 0.088-0.347 0-0.484-0.773-1.203-0.292-2.698 1.097-3.122 1.466-0.448 2.676 0.994 2.438 2.366-0.039 0.226 0.023 0.412 0.216 0.542 0.619 0.417 1.214 0.835 1.854 1.252-0 0.275-0 0.55-0 0.825zM23.124 27.067c-2.401 0-4.802 0-7.203 0-2.368 0-4.736 0-7.104 0-1.3 0-3.846 0.467-3.846-1.528 0-1.189 0-2.378 0-3.567 0.991-0.92 1.976-1.841 2.968-2.761 0.967 0.348 1.94 0.224 2.787-0.356 0.812 0.467 1.623 0.934 2.435 1.401-0.038 1.832 1.493 3.52 3.468 3.095 2.013-0.433 2.977-2.657 1.974-4.399 1.388-2.123 2.776-4.246 4.165-6.369 0.685 0.090 1.34-0.034 1.941-0.384 0.836 0.563 1.668 1.125 2.503 1.688 0 3.886 0 7.772 0 11.658-0.16 2.033-2.7 1.521-4.087 1.521z"></path>
</svg>
