<svg xmlns="http://www.w3.org/2000/svg" viewBox="0 0 32 32" width="100%" height="100%" preserveAspectRatio="none">
  <path fill="#E4E6E8" d="M6.95 25.084C4.44 22.55 3.207 19.58 3.184 16c.023-3.602 1.254-6.573 3.764-9.083.786-.786 1.658-1.473 2.59-2.04 1.497-.904 3.088-1.44 4.872-1.637.47-.06 1-.087 1.62-.087 3.6 0 6.57 1.23 9.085 3.766 2.532 2.51 3.763 5.48 3.763 9.08 0 3.57-1.23 6.55-3.766 9.08-2.51 2.53-5.48 3.76-9.08 3.76-3.58 0-6.55-1.23-9.082-3.77z"/>
  <path fill="#134A78" d="M6.12 25.857c1.893 1.895 4.09 3.15 6.53 3.73.002.002.005.002.01.003 1.01.224 2.13.35 3.327.373h.016c3.697-.024 6.903-1.295 9.528-3.78l.02-.012.31-.31c2.74-2.71 4.11-6.03 4.09-9.85.03-3.85-1.35-7.17-4.08-9.88-2.71-2.71-6.03-4.08-9.86-4.08-3.84 0-7.17 1.375-9.88 4.085-2.72 2.7-4.09 6.02-4.09 9.87 0 3.83 1.37 7.15 4.08 9.857zm.885-18.85C9.507 4.504 12.45 3.287 16 3.287c3.485 0 6.504 1.25 8.973 3.72 2.52 2.5 3.737 5.44 3.716 8.995.02 3.485-1.23 6.5-3.72 8.968l-.31.308c-2.39 2.254-5.3 3.408-8.66 3.432-1.11-.023-2.14-.138-3.07-.343-2.24-.535-4.18-1.647-5.93-3.397-2.46-2.467-3.71-5.486-3.71-8.97 0-3.552 1.21-6.494 3.71-8.994z"/>
  <path fill="#134A78" d="M8.674 19.337L15.6 11.92l6.843 6.91c.12.12.278.186.447.187s.328-.064.448-.183c.12-.12.188-.28.188-.45 0-.168-.065-.326-.183-.445l-7.313-7.39-.007-.01-.07-.06-.024-.02-.03-.02-.03-.014-.03-.01-.03-.01-.12-.036h-.03l-.04-.004-.064-.003-.118.013-.028.01-.033.01-.028.01-.056.02-.03.015-.1.075-.02.02-7.41 7.935c-.11.116-.17.27-.17.43 0 .173.07.34.2.46.255.234.656.22.895-.035zm7.038-8.704zm-.13-.02zm-.056.005zm-.144.053zm-.046.04z"/>
</svg>
