<?xml version="1.0" encoding="utf-8"?>
<!-- Generated by IcoMoon.io -->
<!DOCTYPE svg PUBLIC "-//W3C//DTD SVG 1.1//EN" "http://www.w3.org/Graphics/SVG/1.1/DTD/svg11.dtd">
<svg version="1.1" xmlns="http://www.w3.org/2000/svg" xmlns:xlink="http://www.w3.org/1999/xlink" width="100%" height="100%" viewBox="0 0 32 32">
<path fill="rgb(228, 230, 232)" d="M25.085 25.050c-2.533 2.511-5.504 3.743-9.084 3.766-3.602-0.023-6.573-1.254-9.083-3.764-0.786-0.786-1.473-1.658-2.041-2.59-0.903-1.497-1.438-3.088-1.636-4.872-0.059-0.469-0.087-0.999-0.087-1.62 0-3.6 1.231-6.571 3.766-9.085 2.51-2.532 5.481-3.763 9.081-3.763 3.578 0 6.549 1.231 9.084 3.766 2.532 2.51 3.763 5.481 3.763 9.081 0 3.579-1.231 6.55-3.763 9.081z"></path>
<path fill="rgb(19, 74, 120)" d="M25.857 25.881c1.895-1.894 3.15-4.091 3.731-6.53 0.001-0.003 0.001-0.006 0.002-0.010 0.224-1.011 0.35-2.13 0.373-3.328 0-0.006 0-0.011 0-0.016-0.024-3.697-1.295-6.903-3.78-9.528-0.004-0.004-0.008-0.008-0.012-0.012l-0.312-0.311c-2.711-2.735-6.029-4.109-9.856-4.086-3.849-0.023-7.175 1.352-9.884 4.084-2.71 2.71-4.084 6.027-4.084 9.857 0 3.845 1.374 7.17 4.084 9.88 2.709 2.71 6.033 4.084 9.88 4.084 3.832 0 7.149-1.374 9.857-4.083zM7.006 24.995c-2.501-2.502-3.717-5.444-3.717-8.994 0-3.486 1.251-6.505 3.719-8.974 2.499-2.521 5.44-3.737 8.996-3.716 3.485-0.021 6.501 1.229 8.968 3.718l0.308 0.307c2.254 2.384 3.408 5.297 3.432 8.66-0.023 1.11-0.138 2.142-0.343 3.069-0.534 2.239-1.645 4.179-3.397 5.929-2.465 2.466-5.484 3.717-8.972 3.717-3.552 0-6.494-1.216-8.994-3.717z"></path>
<path fill="rgb(19, 74, 120)" d="M19.337 23.326l-7.418-6.927 6.91-6.842c0.12-0.119 0.187-0.278 0.188-0.447s-0.064-0.328-0.183-0.448c-0.12-0.121-0.28-0.188-0.45-0.188-0.168 0-0.326 0.065-0.445 0.183l-7.386 7.314c-0.003 0.003-0.004 0.004-0.005 0.005l-0.057 0.069c-0.006 0.009-0.012 0.018-0.017 0.025l-0.016 0.027c-0.005 0.010-0.011 0.019-0.014 0.027l-0.013 0.028c-0.004 0.010-0.009 0.020-0.013 0.031l-0.033 0.117c-0.002 0.010-0.003 0.020-0.004 0.026-0.002 0.012-0.003 0.024-0.004 0.036l-0.002 0.063 0.013 0.118c0.002 0.010 0.004 0.020 0.006 0.026 0.003 0.010 0.005 0.021 0.009 0.033 0.003 0.010 0.007 0.020 0.010 0.028l0.023 0.056c0.004 0.010 0.009 0.019 0.015 0.029l0.071 0.104c0.008 0.009 0.016 0.018 0.019 0.022l7.933 7.41c0.117 0.11 0.271 0.17 0.432 0.17 0.175 0 0.343-0.073 0.463-0.201 0.238-0.255 0.224-0.656-0.031-0.895zM10.633 16.288c0 0 0 0 0 0v0 0zM10.613 16.419v0 0 0zM10.618 16.474v0 0 0zM10.671 16.618c0 0 0 0 0 0v0 0zM10.704 16.664v0 0 0z"></path>
</svg>
