<svg xmlns="http://www.w3.org/2000/svg" viewBox="0 0 32 32" width="100%" height="100%" preserveAspectRatio="none">
  <path fill="#E4E6E8" d="M6.915 6.95C9.448 4.44 12.42 3.207 16 3.184c3.6.023 6.572 1.254 9.082 3.764.786.786 1.473 1.658 2.04 2.59.904 1.497 1.44 3.088 1.637 4.872.05.47.08 1 .08 1.62 0 3.6-1.23 6.57-3.77 9.085-2.51 2.532-5.48 3.763-9.08 3.763-3.58 0-6.55-1.23-9.09-3.766-2.53-2.51-3.767-5.48-3.767-9.08 0-3.58 1.23-6.55 3.763-9.082z"/>
  <path fill="#134A78" d="M6.143 6.12c-1.895 1.893-3.15 4.09-3.73 6.53-.002.002-.002.005-.003.01-.224 1.01-.35 2.13-.373 3.327v.016c.024 3.697 1.295 6.903 3.78 9.528l.012.02.31.31c2.71 2.74 6.03 4.11 9.85 4.09 3.85.03 7.17-1.35 9.88-4.08 2.71-2.71 4.08-6.022 4.08-9.852 0-3.846-1.377-7.17-4.087-9.88-2.707-2.71-6.03-4.086-9.88-4.086-3.83 0-7.148 1.374-9.856 4.083zm18.85.885C27.495 9.507 28.71 12.45 28.71 16c0 3.484-1.25 6.503-3.717 8.972-2.5 2.52-5.44 3.737-8.996 3.716-3.485.02-6.5-1.23-8.968-3.72l-.31-.306c-2.26-2.384-3.41-5.297-3.43-8.66.02-1.11.13-2.142.34-3.07.53-2.238 1.64-4.178 3.4-5.928C9.49 4.54 12.51 3.29 16 3.29c3.552 0 6.494 1.215 8.994 3.716z"/>
  <path fill="#134A78" d="M12.663 8.674L20.08 15.6l-6.91 6.843c-.12.12-.186.278-.187.447s.064.328.183.448c.12.12.28.188.45.188.168 0 .326-.065.445-.183l7.39-7.314.01-.01.06-.07.02-.03.02-.03.014-.03.01-.03.01-.03.035-.12.003-.028v-.037l.006-.064-.015-.117-.005-.03-.01-.033-.01-.025-.02-.057-.017-.03-.073-.1-.02-.02-7.933-7.41c-.116-.11-.27-.17-.43-.17-.175 0-.343.07-.463.2-.237.254-.22.655.03.894zm8.704 7.038zm.02-.13zm-.005-.057zm-.053-.143zm-.04-.046z"/>
</svg>
