<?xml version="1.0" encoding="utf-8"?>
<!-- Generated by IcoMoon.io -->
<!DOCTYPE svg PUBLIC "-//W3C//DTD SVG 1.1//EN" "http://www.w3.org/Graphics/SVG/1.1/DTD/svg11.dtd">
<svg version="1.1" xmlns="http://www.w3.org/2000/svg" xmlns:xlink="http://www.w3.org/1999/xlink" width="100%" height="100%" viewBox="0 0 32 32">
<path fill="rgb(228, 230, 232)" d="M6.95 25.084c-2.511-2.533-3.743-5.504-3.766-9.084 0.023-3.602 1.254-6.573 3.764-9.083 0.786-0.786 1.658-1.473 2.59-2.041 1.497-0.903 3.088-1.438 4.872-1.636 0.469-0.059 0.999-0.087 1.62-0.087 3.6 0 6.571 1.231 9.085 3.766 2.532 2.51 3.763 5.481 3.763 9.081 0 3.578-1.231 6.549-3.766 9.084-2.51 2.532-5.481 3.763-9.081 3.763-3.579 0-6.55-1.231-9.081-3.763z"></path>
<path fill="rgb(19, 74, 120)" d="M6.119 25.857c1.894 1.895 4.091 3.15 6.53 3.731 0.003 0.001 0.006 0.001 0.010 0.002 1.011 0.224 2.13 0.35 3.328 0.373 0.006 0 0.011 0 0.016 0 3.697-0.024 6.903-1.295 9.528-3.78 0.004-0.004 0.008-0.008 0.012-0.012l0.311-0.312c2.735-2.711 4.109-6.029 4.086-9.856 0.023-3.849-1.352-7.175-4.084-9.884-2.71-2.71-6.027-4.084-9.857-4.084-3.845 0-7.17 1.374-9.88 4.084-2.71 2.709-4.084 6.033-4.084 9.88-0 3.832 1.374 7.149 4.083 9.857zM7.005 7.006c2.502-2.501 5.444-3.717 8.994-3.717 3.486 0 6.505 1.251 8.974 3.719 2.521 2.499 3.737 5.44 3.716 8.996 0.021 3.485-1.229 6.501-3.718 8.968l-0.307 0.308c-2.384 2.254-5.297 3.408-8.66 3.432-1.11-0.023-2.142-0.138-3.069-0.343-2.239-0.534-4.179-1.645-5.929-3.397-2.466-2.465-3.717-5.484-3.717-8.972 0-3.552 1.216-6.494 3.717-8.994z"></path>
<path fill="rgb(19, 74, 120)" d="M8.674 19.337l6.927-7.418 6.842 6.91c0.119 0.12 0.278 0.187 0.447 0.188s0.328-0.064 0.448-0.183c0.121-0.12 0.188-0.28 0.188-0.45 0-0.168-0.065-0.326-0.183-0.445l-7.314-7.386c-0.003-0.003-0.004-0.004-0.005-0.005l-0.069-0.057c-0.009-0.006-0.018-0.012-0.025-0.017l-0.027-0.016c-0.010-0.005-0.019-0.011-0.027-0.014l-0.028-0.013c-0.010-0.004-0.020-0.009-0.031-0.013l-0.117-0.033c-0.010-0.002-0.020-0.003-0.026-0.004-0.012-0.002-0.024-0.003-0.036-0.004l-0.063-0.002-0.118 0.013c-0.010 0.002-0.020 0.004-0.026 0.006-0.010 0.003-0.021 0.005-0.033 0.009-0.010 0.003-0.020 0.007-0.028 0.010l-0.056 0.023c-0.010 0.004-0.019 0.009-0.029 0.015l-0.104 0.071c-0.009 0.008-0.018 0.016-0.022 0.019l-7.41 7.933c-0.11 0.117-0.17 0.271-0.17 0.432 0 0.175 0.073 0.343 0.201 0.463 0.255 0.238 0.656 0.224 0.895-0.031zM15.712 10.633c0 0 0 0 0 0v0 0zM15.581 10.613v0 0 0zM15.526 10.618v0 0 0zM15.382 10.671c0 0 0 0 0 0v0 0zM15.336 10.704v0 0 0z"></path>
</svg>
