<svg xmlns="http://www.w3.org/2000/svg" viewBox="0 0 32 32" width="100%" height="100%" preserveAspectRatio="none">
  <path fill="#E4E6E8" d="M25.05 6.916C27.56 9.45 28.793 12.42 28.816 16c-.023 3.602-1.254 6.573-3.764 9.083-.786.786-1.658 1.473-2.59 2.04-1.497.904-3.088 1.44-4.872 1.637-.47.06-1 .087-1.62.087-3.6 0-6.57-1.23-9.085-3.766C4.353 22.57 3.122 19.6 3.122 16c0-3.578 1.23-6.55 3.766-9.084 2.51-2.532 5.48-3.763 9.08-3.763 3.58 0 6.55 1.23 9.082 3.763z"/>
  <path fill="#134A78" d="M25.88 6.143c-1.893-1.895-4.09-3.15-6.53-3.73-.002-.002-.005-.002-.01-.003-1.01-.224-2.13-.35-3.327-.373h-.016C12.3 2.06 9.094 3.332 6.47 5.817l-.013.012-.31.31c-2.737 2.71-4.11 6.03-4.087 9.85-.023 3.85 1.352 7.17 4.084 9.88 2.71 2.71 6.026 4.08 9.856 4.08 3.85 0 7.17-1.375 9.88-4.085 2.71-2.707 4.09-6.03 4.09-9.88 0-3.83-1.37-7.147-4.08-9.855zm-.885 18.85C22.493 27.495 19.55 28.71 16 28.71c-3.484 0-6.503-1.25-8.972-3.717-2.52-2.5-3.737-5.44-3.716-8.996-.02-3.485 1.23-6.5 3.72-8.968l.306-.31c2.384-2.26 5.297-3.41 8.66-3.43 1.11.02 2.142.13 3.07.34 2.238.53 4.178 1.64 5.928 3.4C27.46 9.49 28.71 12.51 28.71 16c0 3.552-1.215 6.494-3.716 8.994z"/>
  <path fill="#134A78" d="M23.326 12.663L16.4 20.08l-6.843-6.91c-.12-.12-.278-.186-.447-.187s-.328.064-.448.183c-.12.12-.188.28-.188.45 0 .168.065.326.183.445l7.314 7.39.01.01.07.06.03.02.03.017.03.014.03.01.03.01.118.035.027.004h.037l.064.005.118-.014.03-.005.033-.01.026-.01.057-.02.03-.016.1-.074.02-.02 7.41-7.933c.11-.116.17-.27.17-.43 0-.175-.072-.343-.2-.463-.255-.238-.656-.22-.895.03zm-7.038 8.704zm.13.02zm.056-.005zm.144-.053zm.046-.04z"/>
</svg>
