<?xml version="1.0" encoding="utf-8"?>
<!-- Generated by IcoMoon.io -->
<!DOCTYPE svg PUBLIC "-//W3C//DTD SVG 1.1//EN" "http://www.w3.org/Graphics/SVG/1.1/DTD/svg11.dtd">
<svg version="1.1" xmlns="http://www.w3.org/2000/svg" xmlns:xlink="http://www.w3.org/1999/xlink" width="100%" height="100%" viewBox="0 0 32 32">
<path fill="rgb(2, 185, 149)" d="M11.742 27.949c-1.208 0.013-2.215-0.503-2.334-1.706-0.002-0.007 0.137-7.778 0.137-7.778h1.992c0.148 0.013 1.588 0.247 2.765 0.44l-0.489 6.412c0.002 0.008 0.109 2.614-2.070 2.631z"></path>
<path fill="rgb(7, 155, 126)" d="M14.41 18.779c-1.176-0.193-2.777-0.563-2.925-0.563l-1.992 0.16c0 0 0.161 0.48 0.162 0.96h0.874c0.148 0 1.588 0.224 2.765 0.417l-0.489 6.401c0.001 0.005 0.039 0.922-0.388 1.674 1.427-0.517 1.346-2.486 1.344-2.493l0.649-6.556z"></path>
<path fill="rgb(228, 230, 232)" d="M7.653 9.263h3.148v8.406h-3.148v-8.406z"></path>
<path fill="rgb(201, 202, 203)" d="M8.427 9.256h-0.8v8.48h3.2v-1.12h-2.4c0 0 0-5.76 0-7.36z"></path>
<path fill="rgb(2, 185, 149)" d="M6.798 17.68c-1.712-0.284-3.040-2.494-3.066-4.156-0.028-1.807 1.060-3.859 3.066-4.277v8.433z"></path>
<path fill="rgb(7, 155, 126)" d="M4.445 12.906c-0.013-0.824 0.299-1.888 0.794-2.643-0.873 0.838-1.485 2.305-1.467 3.455 0.026 1.661 1.455 3.711 3.215 3.996l-0.16-1.023c-1.28-0.628-2.359-2.35-2.382-3.785z"></path>
<path fill="rgb(2, 185, 149)" d="M23.969 21.461c-3.132-1.871-3.913-2.075-7.182-2.886-2.020-0.501-4.211-0.742-5.104-0.846v-8.538c0.897-0.108 3.085-0.358 5.099-0.864 3.272-0.824 6.557-2.005 8.787-3.868l-0.16 17.801-1.44-0.8z"></path>
<path fill="rgb(228, 230, 232)" d="M26.25 16.012v-5.143c0.131 0.035 0.871 0.21 1.448 0.784 0.414 0.401 0.657 1.142 0.667 1.753-0.090 1.728-1.259 2.384-2.115 2.607z"></path>
<path fill="rgb(201, 202, 203)" d="M26.826 15.108v-4.272c-0.32-0.115-0.48-0.167-0.64-0.184v5.463c0.8-0.187 1.705-0.683 2.041-1.86-0.427 0.481-0.921 0.732-1.401 0.853z"></path>
<path fill="rgb(7, 155, 126)" d="M17.711 17.757c-2.020-0.501-4.165-0.742-5.125-0.846v-7.928c-0.32 0.050-0.64 0.089-0.96 0.118v8.698c0.96 0.104 3.107 0.345 5.127 0.846 3.269 0.811 4.055 1.015 7.188 2.886l1.606 0.96-0.16-1.645-0.489-0.202c-3.132-1.871-3.917-2.075-7.187-2.886z"></path>
<path fill="rgb(19, 74, 120)" d="M28.079 10.781c-0.508-0.492-1.136-0.8-1.806-0.894v-5.928c0-0.282-0.165-0.537-0.421-0.654s-0.557-0.072-0.769 0.114c-4.4 3.857-12.442 4.784-13.521 4.893-0.016-0.001-0.031-0.002-0.047-0.002l-3.898-0.001c-0.011 0-0.022 0-0.033 0.001-0.007 0-0.013 0-0.020 0l-0.021 0c-2.642 0.044-4.755 2.394-4.71 5.238 0.021 1.352 0.524 2.622 1.415 3.576 0.906 0.969 2.107 1.503 3.383 1.503 0.024 0 1.007-0.001 1.007-0.001l0.144 8.036c0.006 0.021-0.004-0.231 0.021 0.062 0.251 0.747 0.828 2.056 2.901 2.089 2.346 0 2.63-1.633 2.812-2.709-0.004-0.018 0.674-6.903 0.674-6.903 2.998 0.625 7.148 1.875 9.893 4.281 0.133 0.117 0.302 0.178 0.473 0.178 0.1 0 0.201-0.021 0.296-0.064 0.257-0.116 0.421-0.372 0.421-0.654v-5.95c1.663-0.231 2.939-1.771 2.91-3.609-0.015-0.99-0.418-1.938-1.104-2.602zM11.69 27.949c-1.208 0.013-1.895-0.503-2.014-1.706-0.002-0.007-0.023-7.778-0.023-7.778h1.832c0.148 0.013 1.588 0.247 2.765 0.44l-0.489 6.412c0.002 0.008 0.109 2.614-2.070 2.631zM7.649 9.263l3.148 0v8.406h-3.148c0 0 0-8.407 0-8.407zM6.694 17.52c-1.712-0.284-2.88-2.334-2.906-3.996-0.027-1.718 1.326-3.788 2.906-4.117v8.113zM24.038 21.47c-3.132-1.871-3.913-2.075-7.182-2.886-2.020-0.501-4.211-0.742-5.104-0.846v-8.538c0.897-0.108 3.085-0.358 5.099-0.864 3.272-0.824 6.397-1.845 8.467-3.708v17.641l-1.28-0.8zM26.273 16.012v-5.143c0.131 0.035 0.871 0.21 1.448 0.784 0.414 0.401 0.657 1.142 0.667 1.753-0.090 1.728-1.259 2.384-2.115 2.607z"></path>
</svg>
