<svg xmlns="http://www.w3.org/2000/svg" viewBox="0 0 32 32" width="100%" height="100%" preserveAspectRatio="none">
  <path fill="#02B995" d="M11.742 27.95c-1.208.012-2.215-.504-2.334-1.707-.002-.007.137-7.778.137-7.778h1.992c.148.013 1.588.247 2.765.44l-.49 6.412c.003.008.11 2.614-2.07 2.63z"/>
  <path fill="#079B7E" d="M14.41 18.78c-1.176-.194-2.777-.564-2.925-.564l-1.992.16s.16.48.162.96h.874c.14 0 1.58.224 2.76.417l-.49 6.4c0 .006.04.923-.39 1.675 1.42-.517 1.34-2.486 1.34-2.493l.65-6.556z"/>
  <path fill="#E4E6E8" d="M7.653 9.263H10.8v8.406H7.654V9.26z"/>
  <path fill="#C9CACB" d="M8.427 9.256h-.8v8.48h3.2v-1.12h-2.4v-7.36z"/>
  <path fill="#02B995" d="M6.798 17.68c-1.712-.284-3.04-2.494-3.066-4.156-.028-1.807 1.06-3.86 3.066-4.277v8.433z"/>
  <path fill="#079B7E" d="M4.445 12.906c-.013-.824.3-1.888.794-2.643-.88.838-1.49 2.305-1.47 3.455.02 1.66 1.45 3.71 3.21 3.996l-.16-1.023c-1.28-.62-2.36-2.35-2.38-3.78z"/>
  <path fill="#02B995" d="M23.97 21.46c-3.133-1.87-3.914-2.074-7.183-2.885-2.02-.5-4.21-.742-5.104-.846V9.19c.897-.107 3.085-.357 5.1-.863 3.27-.824 6.556-2.005 8.786-3.868l-.16 17.8-1.44-.8z"/>
  <path fill="#E4E6E8" d="M26.25 16.012V10.87c.13.034.87.21 1.448.783.414.4.657 1.142.667 1.753-.09 1.728-1.26 2.384-2.115 2.607z"/>
  <path fill="#C9CACB" d="M26.826 15.108v-4.272c-.32-.115-.48-.167-.64-.184v5.463c.8-.187 1.705-.683 2.04-1.86-.426.48-.92.732-1.4.853z"/>
  <path fill="#079B7E" d="M17.71 17.757c-2.02-.5-4.164-.742-5.124-.846V8.99c-.32.05-.64.09-.96.118v8.7c.96.103 3.107.344 5.127.845 3.27.81 4.055 1.015 7.188 2.886l1.61.96-.16-1.65-.49-.2c-3.13-1.87-3.91-2.08-7.18-2.89z"/>
  <path fill="#134A78" d="M28.08 10.78c-.51-.49-1.137-.8-1.807-.893V3.96c0-.283-.165-.538-.42-.655s-.558-.072-.77.114c-4.4 3.85-12.442 4.78-13.52 4.89H7.545c-2.645.04-4.757 2.39-4.71 5.23.02 1.35.522 2.62 1.413 3.57.906.97 2.107 1.502 3.383 1.502h1.01l.15 8.035c.01.02 0-.23.02.06.25.75.83 2.057 2.9 2.09 2.35 0 2.63-1.633 2.81-2.71 0-.017.68-6.9.68-6.9 3 .624 7.15 1.874 9.897 4.28.133.12.3.18.473.18.1 0 .2-.02.294-.066.258-.116.42-.37.42-.654v-5.95c1.665-.23 2.94-1.77 2.91-3.61-.013-.99-.416-1.936-1.102-2.6zM11.69 27.95c-1.208.012-1.895-.504-2.014-1.707-.002-.007-.023-7.778-.023-7.778h1.832c.148.013 1.588.247 2.765.44l-.49 6.412c.003.008.11 2.614-2.07 2.63zM7.65 9.262h3.147v8.406H7.65V9.26zm-.956 8.257c-1.712-.29-2.88-2.34-2.906-4C3.76 11.8 5.114 9.73 6.694 9.4v8.113zm17.344 3.95c-3.132-1.87-3.913-2.08-7.182-2.89-2.02-.5-4.21-.74-5.104-.85V9.2c.897-.108 3.085-.358 5.1-.864 3.27-.824 6.396-1.845 8.466-3.708v17.64l-1.28-.8zm2.235-5.46v-5.14c.13.03.87.21 1.448.78.42.4.66 1.14.67 1.75-.09 1.73-1.26 2.38-2.11 2.6z"/>
</svg>
