<?xml version="1.0" encoding="utf-8"?>
<!-- Generated by IcoMoon.io -->
<!DOCTYPE svg PUBLIC "-//W3C//DTD SVG 1.1//EN" "http://www.w3.org/Graphics/SVG/1.1/DTD/svg11.dtd">
<svg version="1.1" xmlns="http://www.w3.org/2000/svg" xmlns:xlink="http://www.w3.org/1999/xlink" width="100%" height="100%" viewBox="0 0 32 32">
<path fill="rgb(228, 230, 232)" d="M16.178 27.757c-1.669-0.157-2.693-1.362-2.982-2.38l5.828-0.004c-0.312 1.009-1.181 2.147-2.845 2.384z"></path>
<path fill="rgb(228, 230, 232)" d="M24.475 13.945l0.101 6.973c-0.007 0.195 0.054 0.525 0.217 0.659l2.982 2.992-23.108-0.163 2.866-2.834c0.146-0.129 0.359-0.302 0.366-0.497l0.059-7.133c0.030-4.316 3.935-8.15 8.307-8.178 4.384 0.006 8.24 3.864 8.209 8.18z"></path>
<path fill="rgb(201, 202, 203)" d="M9.708 21.849l0.057-6.935c0.029-4.196 3.515-7.613 7.766-7.64 1.021 0.001 2.635 0.042 3.525 0.401-0.787-0.995-3.422-1.724-5.077-1.726-4.251 0.028-8.056 3.924-8.086 8.12l-0.057 6.935c-0.007 0.189-0.144 0.401-0.285 0.527l-2.875 2.885 2.9 0.040 1.932-2.123c0.142-0.126 0.194-0.294 0.201-0.483z"></path>
<path fill="rgb(19, 74, 120)" d="M16.989 5.273l-0.013-1.079c0.014-0.379-0.294-0.717-0.694-0.686-0.379-0.014-0.705 0.327-0.686 0.694l-0.032 1.058c-4.688 0.371-8.42 4.249-8.481 8.98l-0.041 6.667-3.322 3.246c-0.447 0.422-0.141 1.172 0.493 1.169l8.092 0.054c0.307 1.796 1.873 3.141 3.743 3.144s3.476-1.357 3.815-3.123l8.147-0.003c0.379 0.014 0.717-0.294 0.719-0.706-0.005-0.222-0.109-0.409-0.268-0.539l-3.21-3.223 0.041-6.667c0.062-4.731-3.608-8.612-8.302-8.986zM16.105 27.597c-1.542 0.043-2.533-1.202-2.822-2.22l5.668-0.004c-0.312 1.009-1.254 2.227-2.845 2.224zM24.231 14.267l0.103 6.775c-0.007 0.189 0.212 0.515 0.371 0.645l2.757 2.767-22.685-0.002 2.8-2.768c0.142-0.126 0.354-0.454 0.36-0.523l0.057-6.775c0.030-4.316 3.992-8.355 8.242-8.383 4.689 0.006 8.434 4.317 7.995 8.265z"></path>
</svg>
