<?xml version="1.0" encoding="utf-8"?>
<!-- Generated by IcoMoon.io -->
<!DOCTYPE svg PUBLIC "-//W3C//DTD SVG 1.1//EN" "http://www.w3.org/Graphics/SVG/1.1/DTD/svg11.dtd">
<svg version="1.1" xmlns="http://www.w3.org/2000/svg" xmlns:xlink="http://www.w3.org/1999/xlink" width="100%" height="100%" viewBox="0 0 32 32">
<path fill="rgb(228, 230, 232)" d="M25.084 25.081c-2.533 2.511-5.504 3.743-9.084 3.766-3.602-0.023-6.573-1.254-9.083-3.764-0.786-0.786-1.473-1.658-2.041-2.59-0.903-1.497-1.438-3.088-1.636-4.872-0.059-0.469-0.087-0.999-0.087-1.62 0-3.6 1.231-6.571 3.766-9.085 2.51-2.532 5.481-3.763 9.081-3.763 3.578 0 6.549 1.231 9.084 3.766 2.532 2.51 3.763 5.481 3.763 9.081 0 3.579-1.231 6.55-3.763 9.081z"></path>
<path fill="rgb(19, 74, 120)" d="M25.979 6.021c-2.744-2.744-6.102-4.136-9.979-4.136-3.901 0-7.259 1.392-9.978 4.134-2.746 2.723-4.138 6.081-4.138 9.982 0 0.674 0.032 1.256 0.096 1.769 0.215 1.935 0.824 3.744 1.811 5.381 0.622 1.020 1.372 1.972 2.229 2.829 2.72 2.72 6.077 4.111 9.976 4.135 0.001 0 0.003 0 0.004 0s0.003 0 0.004 0c3.875-0.024 7.231-1.414 9.975-4.135 2.744-2.744 4.136-6.102 4.136-9.979 0-3.901-1.392-7.259-4.136-9.98zM25.084 25.081c-2.533 2.511-5.504 3.743-9.084 3.766-3.602-0.023-6.573-1.254-9.083-3.764-0.786-0.786-1.473-1.658-2.041-2.59-0.903-1.497-1.438-3.088-1.636-4.872-0.059-0.469-0.087-0.999-0.087-1.62 0-3.6 1.231-6.571 3.766-9.085 2.51-2.532 5.481-3.763 9.081-3.763 3.578 0 6.549 1.231 9.084 3.766 2.532 2.51 3.763 5.481 3.763 9.081 0 3.579-1.231 6.55-3.763 9.081z"></path>
<path fill="rgb(19, 74, 120)" d="M22.695 9.833c-0.248-0.247-0.65-0.247-0.897 0.002l-5.821 5.842-5.798-5.818c-0.247-0.248-0.649-0.249-0.897-0.002s-0.249 0.649-0.002 0.897l5.8 5.821-5.776 5.776c-0.248 0.248-0.248 0.649 0 0.897 0.124 0.124 0.286 0.186 0.448 0.186s0.324-0.062 0.448-0.186l5.775-5.775 5.799 5.798c0.124 0.124 0.286 0.186 0.448 0.186s0.325-0.062 0.448-0.186c0.248-0.248 0.248-0.649-0-0.897l-5.8-5.799 5.823-5.844c0.247-0.248 0.246-0.649-0.002-0.896z"></path>
</svg>
