<?xml version="1.0" encoding="utf-8"?>
<!-- Generated by IcoMoon.io -->
<!DOCTYPE svg PUBLIC "-//W3C//DTD SVG 1.1//EN" "http://www.w3.org/Graphics/SVG/1.1/DTD/svg11.dtd">
<svg version="1.1" xmlns="http://www.w3.org/2000/svg" xmlns:xlink="http://www.w3.org/1999/xlink" width="100%" height="100%" viewBox="0 0 32 32">
<path fill="rgb(228, 230, 232)" d="M28.289 25.99c0 1.083-0.442 1.524-1.524 1.524h-21.572c-1.082 0-1.524-0.442-1.524-1.524v-18.429c0-1.083 0.441-1.524 1.524-1.524h6.299v1.168c0 0.315 0.255 0.57 0.57 0.57s0.57-0.255 0.57-0.57v-1.168h7.299v1.168c0 0.315 0.255 0.57 0.57 0.57s0.57-0.255 0.57-0.57v-1.168h5.692c1.083 0 1.524 0.442 1.524 1.524v18.429z"></path>
<path fill="rgb(201, 202, 203)" d="M5.206 24.231v-18.392h-0.041c-1.1 0-1.559 0.473-1.559 1.571v18.698c0 1.098 0.459 1.491 1.559 1.491h21.917c1.1 0 1.484-0.392 1.484-1.491v-0.269h-21.776c-1.1 0-1.584-0.51-1.584-1.608z"></path>
<path fill="rgb(2, 185, 149)" d="M10.659 10.633h-2.262c-0.315 0-0.57 0.255-0.57 0.57v2.513c0 0.315 0.255 0.57 0.57 0.57h2.262c0.315 0 0.57-0.255 0.57-0.57v-2.513c0-0.315-0.255-0.571-0.57-0.571z"></path>
<path fill="rgb(2, 185, 149)" d="M17.131 10.633h-2.262c-0.315 0-0.57 0.255-0.57 0.57v2.513c0 0.315 0.255 0.57 0.57 0.57h2.262c0.315 0 0.57-0.255 0.57-0.57v-2.513c0-0.315-0.255-0.571-0.57-0.571z"></path>
<path fill="rgb(2, 185, 149)" d="M23.623 10.633h-2.262c-0.315 0-0.57 0.255-0.57 0.57v2.513c0 0.315 0.255 0.57 0.57 0.57h2.262c0.315 0 0.57-0.255 0.57-0.57v-2.513c0-0.315-0.255-0.571-0.57-0.571z"></path>
<path fill="rgb(2, 185, 149)" d="M10.639 16h-2.262c-0.315 0-0.57 0.255-0.57 0.57v2.513c0 0.315 0.255 0.57 0.57 0.57h2.262c0.315 0 0.57-0.255 0.57-0.57v-2.513c0-0.315-0.255-0.57-0.57-0.57z"></path>
<path fill="rgb(2, 185, 149)" d="M17.11 16h-2.262c-0.315 0-0.57 0.255-0.57 0.57v2.513c0 0.315 0.255 0.57 0.57 0.57h2.262c0.315 0 0.57-0.255 0.57-0.57v-2.513c0-0.315-0.255-0.57-0.57-0.57z"></path>
<path fill="rgb(2, 185, 149)" d="M23.623 16h-2.262c-0.315 0-0.57 0.255-0.57 0.57v2.513c0 0.315 0.255 0.57 0.57 0.57h2.262c0.315 0 0.57-0.255 0.57-0.57v-2.513c0-0.315-0.255-0.57-0.57-0.57z"></path>
<path fill="rgb(2, 185, 149)" d="M17.124 21.359h-2.262c-0.315 0-0.57 0.255-0.57 0.57v2.513c0 0.315 0.255 0.57 0.57 0.57h2.262c0.315 0 0.57-0.255 0.57-0.57v-2.513c0-0.315-0.255-0.57-0.57-0.57z"></path>
<path fill="rgb(2, 185, 149)" d="M23.623 21.18h-2.262c-0.315 0-0.57 0.255-0.57 0.57v2.513c0 0.315 0.255 0.57 0.57 0.57h2.262c0.315 0 0.57-0.255 0.57-0.57v-2.513c0-0.315-0.255-0.57-0.57-0.57z"></path>
<path fill="rgb(2, 185, 149)" d="M10.639 21.345h-2.262c-0.315 0-0.57 0.255-0.57 0.57v2.513c0 0.315 0.255 0.57 0.57 0.57h2.262c0.315 0 0.57-0.255 0.57-0.57v-2.513c0-0.315-0.255-0.57-0.57-0.57z"></path>
<path fill="rgb(19, 74, 120)" d="M10.886 10.639c-1.067 0-2.133 0-3.2 0-0.262 0-0.56 0.138-0.56 0.4 0 1.013 0 2.027 0 3.040 0 0.262 0.298 0.56 0.56 0.56 1.067 0 2.16 0 3.12 0 0.32 0 0.48-0.24 0.48-0.48 0-1.12 0-2.107 0-3.12 0-0.262-0.138-0.4-0.4-0.4zM10.326 13.679c-0.712 0-1.477 0-2.24 0 0-0.693 0-1.387 0-2.080 0.747 0 1.493 0 2.24 0 0 0.676 0 1.354 0 2.080z"></path>
<path fill="rgb(19, 74, 120)" d="M17.766 10.639c-1.067 0-2.133 0-3.2 0-0.262 0-0.56 0.138-0.56 0.4 0 1.013 0 2.027 0 3.040 0 0.262 0.298 0.56 0.56 0.56 1.067 0 2.16 0 3.12 0 0.32 0 0.48-0.24 0.48-0.48 0-1.12 0-2.107 0-3.12 0-0.262-0.138-0.4-0.4-0.4zM17.206 13.679c-0.64 0-1.44 0-2.24 0 0-0.693 0-1.387 0-2.080 0.8 0 1.44 0 2.24 0 0 0.676 0 1.354 0 2.080z"></path>
<path fill="rgb(19, 74, 120)" d="M24.172 10.639c-1.067 0-2.133 0-3.2 0-0.262 0-0.566 0.138-0.566 0.4 0 1.013 0 2.027 0 3.040 0 0.262 0.305 0.56 0.566 0.56 1.067 0 2.16 0 3.12 0 0.32 0 0.474-0.24 0.474-0.48 0-1.12 0-2.107 0-3.12 0-0.262-0.132-0.4-0.394-0.4zM23.606 13.679c-0.64 0-1.44 0-2.24 0 0-0.693 0-1.387 0-2.080 0.8 0 1.44 0 2.24 0 0 0.676 0 1.354 0 2.080z"></path>
<path fill="rgb(19, 74, 120)" d="M10.886 15.759c-1.067 0-2.133 0-3.2 0-0.262 0-0.56 0.206-0.56 0.468 0 1.013 0 2.027 0 3.040 0 0.262 0.298 0.492 0.56 0.492 1.067 0 2.16 0 3.12 0 0.32 0 0.48-0.172 0.48-0.412 0-1.12 0-2.107 0-3.12 0-0.262-0.138-0.468-0.4-0.468zM10.326 18.799c-0.712 0-1.477 0-2.24 0 0-0.64 0-1.28 0-2.080 0.747 0 1.493 0 2.24 0 0 0.8 0 1.44 0 2.080z"></path>
<path fill="rgb(19, 74, 120)" d="M17.766 15.759c-1.067 0-2.133 0-3.2 0-0.262 0-0.56 0.206-0.56 0.468 0 1.013 0 2.027 0 3.040 0 0.262 0.298 0.492 0.56 0.492 1.067 0 2.16 0 3.12 0 0.32 0 0.48-0.172 0.48-0.412 0-1.12 0-2.107 0-3.12 0-0.262-0.138-0.468-0.4-0.468zM17.206 18.799c-0.64 0-1.44 0-2.24 0 0-0.64 0-1.28 0-2.080 0.8 0 1.44 0 2.24 0 0 0.8 0 1.44 0 2.080z"></path>
<path fill="rgb(19, 74, 120)" d="M24.172 15.759c-1.067 0-2.133 0-3.2 0-0.262 0-0.566 0.206-0.566 0.468 0 1.013 0 2.027 0 3.040 0 0.262 0.305 0.492 0.566 0.492 1.067 0 2.16 0 3.12 0 0.32 0 0.474-0.172 0.474-0.412 0-1.12 0-2.107 0-3.12 0-0.262-0.132-0.468-0.394-0.468zM23.606 18.799c-0.64 0-1.44 0-2.24 0 0-0.64 0-1.28 0-2.080 0.8 0 1.44 0 2.24 0 0 0.8 0 1.44 0 2.080z"></path>
<path fill="rgb(19, 74, 120)" d="M10.886 21.039c-1.067 0-2.133 0-3.2 0-0.262 0-0.56 0.282-0.56 0.544 0 1.013 0 2.027 0 3.040 0 0.262 0.298 0.416 0.56 0.416 1.067 0 2.16 0 3.12 0 0.32 0 0.48-0.096 0.48-0.336 0-1.12 0-2.107 0-3.12 0-0.262-0.138-0.544-0.4-0.544zM10.326 24.079c-0.712 0-1.477 0-2.24 0 0-0.64 0-1.28 0-2.080 0.747 0 1.493 0 2.24 0 0 0.8 0 1.44 0 2.080z"></path>
<path fill="rgb(19, 74, 120)" d="M17.766 21.039c-1.067 0-2.133 0-3.2 0-0.262 0-0.56 0.282-0.56 0.544 0 1.013 0 2.027 0 3.040 0 0.262 0.298 0.416 0.56 0.416 1.067 0 2.16 0 3.12 0 0.32 0 0.48-0.096 0.48-0.336 0-1.12 0-2.107 0-3.12 0-0.262-0.138-0.544-0.4-0.544zM17.206 24.079c-0.64 0-1.44 0-2.24 0 0-0.64 0-1.28 0-2.080 0.8 0 1.44 0 2.24 0 0 0.8 0 1.44 0 2.080z"></path>
<path fill="rgb(19, 74, 120)" d="M24.172 21.039c-1.067 0-2.133 0-3.2 0-0.262 0-0.566 0.282-0.566 0.544 0 1.013 0 2.027 0 3.040 0 0.262 0.305 0.416 0.566 0.416 1.067 0 2.16 0 3.12 0 0.32 0 0.474-0.096 0.474-0.336 0-1.12 0-2.107 0-3.12 0-0.262-0.132-0.544-0.394-0.544zM23.606 24.079c-0.64 0-1.44 0-2.24 0 0-0.64 0-1.28 0-2.080 0.8 0 1.44 0 2.24 0 0 0.8 0 1.44 0 2.080z"></path>
<path fill="rgb(19, 74, 120)" d="M26.785 4.895h-5.692v-0.98c0-0.315-0.255-0.57-0.57-0.57s-0.57 0.255-0.57 0.57v0.98h-7.299v-0.98c0-0.315-0.255-0.57-0.57-0.57s-0.57 0.255-0.57 0.57v0.98h-6.299c-1.718 0-2.665 0.947-2.665 2.665v18.43c0 1.719 0.946 2.665 2.665 2.665h21.572c1.719 0 2.665-0.947 2.665-2.665v-18.43c0-1.719-0.947-2.665-2.665-2.665zM28.31 25.99c0 1.083-0.442 1.524-1.524 1.524h-21.572c-1.082 0-1.524-0.442-1.524-1.524v-18.429c0-1.083 0.441-1.524 1.524-1.524h6.299v1.168c0 0.315 0.255 0.57 0.57 0.57s0.57-0.255 0.57-0.57v-1.168h7.299v1.168c0 0.315 0.255 0.57 0.57 0.57s0.57-0.255 0.57-0.57v-1.168h5.692c1.083 0 1.524 0.442 1.524 1.524v18.429z"></path>
</svg>
