<svg xmlns="http://www.w3.org/2000/svg" viewBox="0 0 32 32" width="100%" height="100%" preserveAspectRatio="none">
  <path fill="#E4E6E8" d="M25.085 25.287c-2.533 2.51-5.504 3.743-9.084 3.766-3.6-.023-6.57-1.253-9.08-3.763-.782-.787-1.47-1.66-2.04-2.59-.9-1.498-1.44-3.09-1.633-4.873-.058-.47-.086-1-.086-1.62 0-3.6 1.23-6.57 3.766-9.085C9.43 4.59 12.4 3.36 16 3.36c3.58 0 6.55 1.23 9.085 3.765 2.532 2.51 3.763 5.48 3.763 9.08 0 3.58-1.23 6.55-3.763 9.082z"/>
  <path fill="#134A78" d="M16 29.79h-.004c-3.81-.023-7.088-1.382-9.746-4.04-2.68-2.68-4.04-5.96-4.04-9.75 0-3.81 1.36-7.092 4.042-9.75C8.908 3.57 12.19 2.21 16 2.21c3.788 0 7.068 1.36 9.75 4.04 2.68 2.66 4.04 5.94 4.04 9.75 0 3.79-1.36 7.07-4.04 9.75-2.682 2.658-5.96 4.017-9.746 4.04H16zm0-26.3c-1.734 0-3.354.308-4.815.913-1.462.606-2.817 1.53-4.027 2.752-1.224 1.214-2.15 2.57-2.756 4.032-.605 1.46-.912 3.08-.912 4.815 0 3.485 1.2 6.378 3.665 8.844C9.6 27.29 12.492 28.49 16 28.51c3.486-.02 6.38-1.22 8.845-3.666 2.464-2.464 3.663-5.357 3.663-8.842 0-1.734-.307-3.354-.912-4.815-.605-1.462-1.53-2.817-2.752-4.028-2.47-2.47-5.36-3.67-8.846-3.67z"/>
  <path fill="#134A78" d="M14.925 21.166c-.15 0-.298-.05-.42-.156l-4.502-3.898c-.267-.232-.296-.636-.065-.903s.636-.3.903-.07l4.02 3.48 7.69-8.816c.238-.268.64-.295.91-.063s.294.638.06.905l-8.11 9.296c-.126.146-.303.22-.482.22z"/>
</svg>
