<svg xmlns="http://www.w3.org/2000/svg" viewBox="0 0 32 32" width="100%" height="100%" preserveAspectRatio="none">
  <path fill="#E4E6E8" d="M28.29 25.99c0 1.083-.443 1.524-1.525 1.524H5.193c-1.082 0-1.524-.442-1.524-1.524V7.56c0-1.082.44-1.523 1.52-1.523h6.3v1.168c0 .315.252.57.57.57s.57-.255.57-.57V6.037h7.3v1.168c0 .315.252.57.57.57s.57-.255.57-.57V6.037h5.69c1.082 0 1.523.442 1.523 1.524v18.43z"/>
  <path fill="#C9CACB" d="M5.206 24.23V5.84h-.04c-1.1 0-1.56.472-1.56 1.57v18.698c0 1.098.46 1.49 1.56 1.49H27.08c1.1 0 1.484-.39 1.484-1.49v-.27H6.79c-1.1 0-1.584-.51-1.584-1.607z"/>
  <path fill="#02B995" d="M10.66 10.633H8.396c-.315 0-.57.255-.57.57v2.513c0 .315.255.57.57.57h2.262c.314 0 .57-.255.57-.57v-2.513c0-.315-.256-.57-.57-.57zm6.47 0h-2.26c-.316 0-.57.255-.57.57v2.513c0 .315.254.57.57.57h2.26c.316 0 .57-.255.57-.57v-2.513c0-.315-.254-.57-.57-.57zm6.493 0H21.36c-.314 0-.57.255-.57.57v2.513c0 .315.256.57.57.57h2.263c.315 0 .57-.255.57-.57v-2.513c0-.315-.255-.57-.57-.57zM10.64 16H8.376c-.315 0-.57.255-.57.57v2.513c0 .315.255.57.57.57h2.262c.314 0 .57-.255.57-.57V16.57c0-.315-.256-.57-.57-.57zm6.47 0h-2.262c-.315 0-.57.255-.57.57v2.513c0 .315.255.57.57.57h2.262c.315 0 .57-.255.57-.57V16.57c0-.315-.255-.57-.57-.57zm6.513 0H21.36c-.314 0-.57.255-.57.57v2.513c0 .315.256.57.57.57h2.263c.315 0 .57-.255.57-.57V16.57c0-.315-.255-.57-.57-.57zm-6.5 5.36h-2.26c-.316 0-.57.254-.57.57v2.512c0 .315.254.57.57.57h2.26c.316 0 .57-.255.57-.57V21.93c0-.316-.254-.57-.57-.57zm6.5-.18H21.36c-.314 0-.57.255-.57.57v2.513c0 .315.256.57.57.57h2.263c.315 0 .57-.255.57-.57V21.75c0-.315-.255-.57-.57-.57zm-12.983.165H8.376c-.315 0-.57.255-.57.57v2.513c0 .315.255.57.57.57h2.262c.314 0 .57-.255.57-.57v-2.513c0-.315-.256-.57-.57-.57z"/>
  <path fill="#134A78" d="M10.886 10.64h-3.2c-.262 0-.56.137-.56.4v3.04c0 .26.298.56.56.56h3.12c.32 0 .48-.24.48-.48v-3.12c0-.263-.138-.4-.4-.4zm-.56 3.04h-2.24V11.6h2.24v2.08zm7.44-3.04h-3.2c-.262 0-.56.137-.56.4v3.04c0 .26.298.56.56.56h3.12c.32 0 .48-.24.48-.48v-3.12c0-.263-.138-.4-.4-.4zm-.56 3.04h-2.24V11.6h2.24v2.08zm6.966-3.04h-3.2c-.262 0-.566.137-.566.4v3.04c0 .26.305.56.566.56h3.12c.32 0 .474-.24.474-.48v-3.12c0-.263-.132-.4-.394-.4zm-.566 3.04h-2.24V11.6h2.24v2.08zm-12.72 2.08h-3.2c-.262 0-.56.205-.56.467v3.04c0 .262.298.492.56.492h3.12c.32 0 .48-.178.48-.418v-3.12c0-.262-.138-.468-.4-.468zm-.56 3.04h-2.24v-2.08h2.24v2.08zm7.44-3.04h-3.2c-.262 0-.56.205-.56.467v3.04c0 .262.298.492.56.492h3.12c.32 0 .48-.178.48-.418v-3.12c0-.262-.138-.468-.4-.468zm-.56 3.04h-2.24v-2.08h2.24v2.08zm6.966-3.04h-3.2c-.262 0-.566.205-.566.467v3.04c0 .262.305.492.566.492h3.12c.32 0 .474-.178.474-.418v-3.12c0-.262-.132-.468-.394-.468zm-.566 3.04h-2.24v-2.08h2.24v2.08zm-12.72 2.24h-3.2c-.262 0-.56.28-.56.543v3.04c0 .262.298.416.56.416h3.12c.32 0 .48-.1.48-.34v-3.12c0-.26-.138-.546-.4-.546zm-.56 3.04h-2.24V22h2.24v2.08zm7.44-3.04h-3.2c-.262 0-.56.28-.56.543v3.04c0 .262.298.416.56.416h3.12c.32 0 .48-.1.48-.34v-3.12c0-.26-.138-.546-.4-.546zm-.56 3.04h-2.24V22h2.24v2.08zm6.966-3.04h-3.2c-.262 0-.566.28-.566.543v3.04c0 .262.305.416.566.416h3.12c.32 0 .474-.1.474-.34v-3.12c0-.26-.132-.546-.394-.546zm-.566 3.04h-2.24V22h2.24v2.08z"/>
  <path fill="#134A78" d="M26.785 4.895h-5.692v-.98c0-.315-.255-.57-.57-.57s-.57.255-.57.57v.98h-7.3v-.98c0-.315-.254-.57-.57-.57s-.57.255-.57.57v.98H5.216c-1.718 0-2.665.947-2.665 2.665v18.43c0 1.72.95 2.665 2.67 2.665h21.57c1.72 0 2.665-.947 2.665-2.665V7.56c0-1.72-.947-2.665-2.665-2.665zM28.31 25.99c0 1.083-.442 1.524-1.524 1.524H5.214c-1.082 0-1.524-.442-1.524-1.524V7.56c0-1.082.44-1.523 1.524-1.523h6.3v1.168c0 .315.254.57.57.57s.57-.255.57-.57V6.037h7.298v1.168c0 .315.255.57.57.57s.57-.255.57-.57V6.037h5.692c1.083 0 1.524.442 1.524 1.524v18.43z"/>
</svg>
