<?xml version="1.0" encoding="utf-8"?>
<!-- Generated by IcoMoon.io -->
<!DOCTYPE svg PUBLIC "-//W3C//DTD SVG 1.1//EN" "http://www.w3.org/Graphics/SVG/1.1/DTD/svg11.dtd">
<svg version="1.1" xmlns="http://www.w3.org/2000/svg" xmlns:xlink="http://www.w3.org/1999/xlink" width="100%" height="100%" viewBox="0 0 32 32">
<path fill="rgb(228, 230, 232)" d="M25.085 25.287c-2.533 2.511-5.504 3.743-9.084 3.766-3.602-0.023-6.573-1.254-9.083-3.764-0.786-0.786-1.473-1.658-2.041-2.59-0.903-1.497-1.438-3.088-1.636-4.872-0.059-0.469-0.087-0.999-0.087-1.62 0-3.6 1.231-6.571 3.766-9.085 2.51-2.532 5.481-3.763 9.081-3.763 3.578 0 6.549 1.231 9.084 3.766 2.532 2.51 3.763 5.481 3.763 9.081 0 3.579-1.231 6.55-3.763 9.081z"></path>
<path fill="rgb(19, 74, 120)" d="M16 29.79c-0.001 0-0.002 0-0.004 0-3.809-0.023-7.088-1.382-9.746-4.040-2.681-2.68-4.040-5.961-4.040-9.749 0-3.812 1.36-7.093 4.042-9.752 2.656-2.679 5.937-4.039 9.748-4.039 3.788 0 7.068 1.36 9.749 4.041 2.68 2.658 4.041 5.939 4.041 9.75 0 3.789-1.36 7.069-4.041 9.749-2.681 2.658-5.96 4.017-9.745 4.040-0.001 0-0.003 0-0.004 0zM16 3.491c-1.734 0-3.354 0.307-4.815 0.912-1.462 0.606-2.817 1.531-4.027 2.752-1.224 1.214-2.15 2.569-2.756 4.032-0.605 1.461-0.912 3.081-0.912 4.815 0 3.485 1.199 6.378 3.665 8.844 2.444 2.444 5.337 3.643 8.845 3.665 3.486-0.022 6.379-1.222 8.845-3.667 2.464-2.464 3.663-5.357 3.663-8.842 0-1.734-0.307-3.354-0.912-4.815-0.605-1.462-1.531-2.817-2.752-4.028-2.469-2.468-5.361-3.668-8.846-3.668z"></path>
<path fill="rgb(19, 74, 120)" d="M14.925 21.166c-0.149 0-0.298-0.051-0.419-0.156l-4.503-3.898c-0.267-0.232-0.296-0.636-0.065-0.903s0.636-0.296 0.903-0.065l4.020 3.481 7.69-8.816c0.232-0.267 0.637-0.294 0.904-0.062s0.294 0.637 0.062 0.904l-8.11 9.296c-0.127 0.145-0.304 0.22-0.483 0.22z"></path>
</svg>
