<svg xmlns="http://www.w3.org/2000/svg" viewBox="0 0 32 32" width="100%" height="100%" preserveAspectRatio="none">
  <path fill="#E4E6E8" d="M25.084 25.08C22.55 27.593 19.58 28.825 16 28.848c-3.602-.023-6.573-1.254-9.083-3.764-.786-.786-1.473-1.658-2.04-2.59-.904-1.497-1.44-3.088-1.637-4.872-.06-.468-.087-.998-.087-1.62 0-3.6 1.23-6.57 3.766-9.084C9.43 4.384 12.4 3.153 16 3.153c3.578 0 6.55 1.23 9.084 3.766 2.532 2.51 3.763 5.48 3.763 9.08 0 3.58-1.23 6.55-3.763 9.08z"/>
  <path fill="#134A78" d="M25.98 6.02C23.234 3.278 19.876 1.886 16 1.886c-3.9 0-7.26 1.392-9.978 4.134C3.276 8.74 1.884 12.1 1.884 16c0 .675.032 1.257.096 1.77.215 1.935.824 3.744 1.81 5.38.623 1.02 1.373 1.973 2.23 2.83 2.72 2.72 6.077 4.11 9.976 4.135h.008c3.875-.024 7.23-1.414 9.975-4.135 2.742-2.744 4.134-6.102 4.134-9.98 0-3.9-1.392-7.258-4.136-9.98zm-.896 19.06C22.55 27.593 19.58 28.825 16 28.848c-3.602-.023-6.573-1.254-9.083-3.764-.786-.786-1.473-1.658-2.04-2.59-.904-1.497-1.44-3.088-1.637-4.872-.06-.468-.087-.998-.087-1.62 0-3.6 1.23-6.57 3.766-9.084C9.43 4.384 12.4 3.153 16 3.153c3.578 0 6.55 1.23 9.084 3.766 2.532 2.51 3.763 5.48 3.763 9.08 0 3.58-1.23 6.55-3.763 9.08z"/>
  <path fill="#134A78" d="M22.695 9.833c-.248-.247-.65-.247-.897.002l-5.82 5.842-5.8-5.818c-.246-.25-.648-.25-.896-.004s-.25.65-.002.897l5.8 5.82-5.776 5.777c-.248.25-.248.65 0 .898.124.124.286.186.448.186s.324-.062.448-.186l5.775-5.775 5.8 5.798c.123.126.285.188.447.188s.325-.062.448-.186c.248-.247.248-.648 0-.896l-5.8-5.8 5.823-5.843c.247-.247.246-.648-.002-.895z"/>
</svg>
