<?xml version="1.0" encoding="utf-8"?>
<!-- Generated by IcoMoon.io -->
<!DOCTYPE svg PUBLIC "-//W3C//DTD SVG 1.1//EN" "http://www.w3.org/Graphics/SVG/1.1/DTD/svg11.dtd">
<svg version="1.1" xmlns="http://www.w3.org/2000/svg" xmlns:xlink="http://www.w3.org/1999/xlink" width="32" height="32" viewBox="0 0 32 32">
<path fill="rgb(59, 89, 152)" d="M17.972 8.135c-0.852 1.158-0.52 3.224-0.52 4.582 0 0.262 0.2 0.499 0.462 0.499 1.24 0 2.479 0 3.719 0-0.147 1.12-0.294 2.4-0.441 3.52-1.092 0-2.185 0.16-3.278 0.16-0.262 0-0.322 0.005-0.322 0.267-0 3.68-0.16 7.093-0.16 10.453-1.12 0-2.24 0-3.52 0 0-3.52 0-7.094 0-10.614 0-0.262-0.188-0.426-0.449-0.426-1.076 0-2.111 0-3.231 0 0-1.12 0-2.24 0-3.36 1.12 0 2.154 0 3.231 0 0.262 0 0.48-0.238 0.48-0.5 0-1.707-0.16-3.59 0.325-5.242 0.969-3.3 4.765-3.398 7.645-3.045 0 0.977 0 1.953 0 2.93-1.28-0.058-3.192-0.244-3.941 0.775z"></path>
<path fill="rgb(49, 76, 124)" d="M14.509 12.893c0-1.77-0.198-3.706 0.305-5.42 0.242-0.824 0.653-1.933 1.178-2.41-0.844 0.506-1.508 1.757-1.845 2.903-0.502 1.711-0.789 3.643-0.788 5.411 0.057 0 0.595 0 0.652 0 0.271 0 0.498-0.212 0.498-0.484z"></path>
<path fill="rgb(49, 76, 124)" d="M14.393 16.589c0-0.262-0.127-0.492-0.388-0.492-1.076 0-2.172 0-3.292 0 0-0.973 0-1.907 0-2.88-0.213 0-0.425 0-0.64 0 0 1.12 0 2.4 0 3.52 1.12 0 2.21 0 3.286 0 0.262 0 0.394 0.491 0.394 0.326 0 3.52 0 7.034 0 10.554 1.28 0 2.4 0 3.52 0 0-0.16 0-0.32 0-0.48-0.912 0-1.843 0-2.88 0 0-3.52 0-7.028 0-10.548z"></path>
<path fill="rgb(19, 74, 120)" d="M22.878 3.949c0.009-0.261-0.148-0.446-0.41-0.483-0.987-0.137-1.853-0.204-2.648-0.204-3.060 0-5.086 0.993-6.192 3.036-0.835 1.542-0.784 3.429-0.735 5.253 0.006 0.236 0.013 0.47 0.017 0.704h-3.142c-0.304 0-0.607 0.119-0.647 0.379-0.005 0.018-0.008 0.037-0.008 0.057v0c0 1.435 0 2.87 0 4.305v0c0 0 0 0 0 0 0 0.288 0.339 0.698 0.655 0.698v0c1.076 0 2.065 0 3.025 0 0 3.52 0 6.822 0 10.342 0 0 0 0 0 0s0 0 0 0c0 0.307 0.384 0.698 0.684 0.698 1.484 0 2.968 0 4.451 0v0c0.32 0 0.464-0.408 0.464-0.698v-10.342c1.074 0 2.209 0 3.23 0 0.33 0 0.519-0.31 0.559-0.618 0.094-0.716 0.189-1.425 0.283-2.134 0.095-0.712 0.19-1.425 0.284-2.144 0.016-0.122-0.022-0.239-0.109-0.339-0.109-0.124-0.285-0.204-0.45-0.204h-3.712c-0.005-0.169-0.011-0.336-0.017-0.501-0.033-0.894-0.065-1.738 0.117-2.52 0.135-0.581 0.818-0.851 2.147-0.851 0.348 0 0.69 0.018 0.991 0.033 0.237 0.012 0.442 0.023 0.607 0.023 0.297 0 0.549-0.27 0.549-0.591l0.002-3.856c0.002-0.014 0.005-0.033 0.003-0.044zM13.753 16.999c0 0 0 0 0 0v0c0 0 0 0 0 0zM17.279 16.947c-0.004 0.016-0.007 0.034-0.007 0.052v0c0 3.467 0 7.144 0 10.617h-3.36v-10.618c0-0.3-0.126-0.422-0.436-0.422h-3.244v-3.2c1.075 0 2.219 0 3.244 0 0.32 0 0.56-0.328 0.56-0.622 0-0.389-0.011-0.797-0.022-1.192-0.037-1.369-0.075-2.784 0.296-4.049 0.612-2.086 2.453-3.144 5.472-3.144 0.602 0 1.264 0.043 1.969 0.127 0 0.925 0 1.85 0 2.776-0.075-0.004-0.151-0.008-0.23-0.012-0.328-0.017-0.701-0.036-1.068-0.036-0.837 0-2.015 0.089-2.581 0.859-0.685 0.932-0.608 2.474-0.545 3.712 0.017 0.344 0.034 0.669 0.034 0.96 0 0.287 0.247 0.621 0.565 0.621 0 0 0 0 0 0v0c1.209 0 2.418 0 3.627 0l-0.42 3.2h-3.208c-0.376 0-0.616 0.141-0.649 0.37zM9.768 12.417c0 0 0 0 0 0v0 0z"></path>
</svg>
