<svg xmlns="http://www.w3.org/2000/svg" viewBox="0 0 32 32" width="100%" height="100%" preserveAspectRatio="none">
  <path fill="#3B5998" d="M17.972 8.135c-.852 1.158-.52 3.224-.52 4.582 0 .262.2.5.462.5h3.72c-.148 1.12-.295 2.4-.442 3.52-1.092 0-2.185.16-3.278.16-.262 0-.322.004-.322.266 0 3.68-.16 7.093-.16 10.453h-3.52V17.002c0-.262-.188-.426-.45-.426h-3.23v-3.36h3.23c.263 0 .48-.238.48-.5 0-1.707-.16-3.59.326-5.242.97-3.3 4.765-3.398 7.645-3.045v2.93c-1.28-.06-3.192-.25-3.94.77z"/>
  <path fill="#314C7C" d="M14.51 12.893c0-1.77-.2-3.706.304-5.42.242-.824.653-1.933 1.178-2.41-.844.506-1.508 1.757-1.845 2.903-.502 1.71-.79 3.643-.788 5.41h.65c.27 0 .5-.21.5-.483zm-.117 3.697c0-.263-.127-.493-.388-.493h-3.292v-2.88h-.64v3.52h3.286c.26 0 .39.49.39.326v10.554h3.52v-.48h-2.88V16.59z"/>
  <path fill="#134A78" d="M22.878 3.95c.01-.262-.148-.447-.41-.484-.987-.137-1.853-.204-2.648-.204-3.06 0-5.086.993-6.192 3.036-.835 1.542-.784 3.43-.735 5.253.006.24.013.47.017.71H9.768c-.304 0-.607.12-.647.38V17c0 .287.34.697.66.697h3.02V28.04c0 .306.387.697.687.697h4.45c.32 0 .465-.408.465-.698V17.69h3.23c.33 0 .52-.31.56-.618.093-.716.188-1.425.28-2.134.096-.71.19-1.424.285-2.143.015-.122-.023-.24-.11-.34-.11-.123-.285-.203-.45-.203h-3.71l-.02-.5c-.032-.895-.064-1.74.118-2.52.14-.582.82-.852 2.15-.852.35 0 .69.018.99.033.24.012.447.023.61.023.3 0 .55-.27.55-.594v-3.85c.005-.014.008-.033.006-.044zM13.753 17zm3.526-.053c-.01.016-.01.034-.01.052v10.61h-3.36V16.99c0-.3-.13-.422-.44-.422h-3.24v-3.2h3.24c.32 0 .56-.327.56-.62 0-.39-.01-.797-.02-1.19-.04-1.37-.08-2.785.29-4.05.61-2.086 2.45-3.144 5.47-3.144.6 0 1.26.04 1.97.12v2.78l-.23-.01c-.33-.02-.7-.038-1.07-.038-.84 0-2.017.09-2.58.86-.688.93-.61 2.47-.548 3.71.015.343.032.67.032.96 0 .286.246.62.564.62h3.627l-.42 3.2h-3.21c-.375 0-.615.14-.65.37zm-7.52-4.53z"/>
</svg>
