<?xml version="1.0" encoding="utf-8"?>
<!-- Generated by IcoMoon.io -->
<!DOCTYPE svg PUBLIC "-//W3C//DTD SVG 1.1//EN" "http://www.w3.org/Graphics/SVG/1.1/DTD/svg11.dtd">
<svg version="1.1" xmlns="http://www.w3.org/2000/svg" xmlns:xlink="http://www.w3.org/1999/xlink" width="32" height="32" viewBox="0 0 32 32">
<path fill="rgb(2, 185, 149)" d="M16.219 8.359c-0.852 1.158-0.52 3.224-0.52 4.582 0 0.262 0.2 0.499 0.462 0.499 1.24 0 2.479 0 3.719 0-0.147 1.12-0.294 2.24-0.441 3.36-1.092 0-2.185 0-3.278 0-0.262 0-0.482 0.165-0.482 0.427-0 3.52-0 7.093-0 10.613-1.12 0-2.24 0-3.52 0 0-3.52 0-7.094 0-10.614 0-0.262-0.188-0.426-0.449-0.426-1.076 0-2.111 0-3.231 0 0-1.12 0-2.24 0-3.36 1.12 0 2.154 0 3.231 0 0.262 0 0.48-0.238 0.48-0.5 0-1.707-0.16-3.59 0.325-5.242 0.969-3.3 4.765-3.398 7.645-3.045 0 0.977 0 1.953 0 2.93-1.28-0.058-3.192-0.244-3.941 0.775z"></path>
<path fill="rgb(19, 74, 120)" d="M21.085 4.17c0.006-0.19-0.11-0.366-0.361-0.401-3.182-0.442-7.029-0.46-8.768 2.752-0.943 1.741-0.752 3.879-0.717 5.959-1.075 0-2.149 0-3.224 0-0.262 0-0.495 0.175-0.495 0.436 0 1.435 0 2.87 0 4.305 0 0.262 0.233 0.538 0.495 0.538 1.076 0 2.225 0 3.185 0 0 3.52 0 6.982 0 10.502 0 0.262 0.263 0.538 0.524 0.538 1.484 0 2.968 0 4.451 0 0.262 0 0.465-0.277 0.465-0.538 0-3.52 0-6.982 0-10.502 1.12 0 2.158 0 3.23 0 0.288 0 0.446-0.249 0.48-0.509 0.189-1.435 0.378-2.863 0.567-4.298 0.034-0.26-0.244-0.473-0.48-0.473-1.263 0-2.527 0-3.79 0-0.030-1.12-0.124-2.12 0.1-3.080 0.289-1.242 2.889-0.837 3.864-0.837 0.262 0 0.509-0.229 0.509-0.491 0-1.28 0-2.56 0-3.84 0-0.022-0.033-0.042-0.035-0.062zM16.226 8.354c-0.852 1.158-0.516 3.226-0.516 4.584 0 0.262 0.204 0.501 0.466 0.501 1.24 0 2.479 0 3.719 0-0.147 1.12-0.294 2.24-0.441 3.36-1.092 0-2.185 0-3.278 0-0.262 0-0.495 0.161-0.495 0.423-0 3.52-0 7.097-0 10.617-1.12 0-2.24 0-3.52 0 0-3.52 0-7.098 0-10.618 0-0.262-0.174-0.422-0.436-0.422-1.076 0-2.124 0-3.244 0 0-1.12 0-2.24 0-3.36 1.12 0 2.168 0 3.244 0 0.262 0 0.48-0.24 0.48-0.502 0-1.707-0.167-3.591 0.318-5.243 0.969-3.3 4.758-3.399 7.638-3.046 0 0.977 0 1.953 0 2.93-1.28-0.058-3.185-0.244-3.934 0.775z"></path>
<path fill="rgb(7, 155, 126)" d="M12.757 12.796c0-1.77-0.198-3.706 0.305-5.42 0.242-0.824 0.653-1.453 1.178-1.93-0.844 0.506-1.508 1.277-1.845 2.423-0.502 1.711-0.309 3.643-0.308 5.411 0.057 0 0.115 0 0.172 0 0.271 0 0.498-0.212 0.498-0.484z"></path>
<path fill="rgb(7, 155, 126)" d="M12.8 16.812c0-0.262-0.127-0.492-0.388-0.492-1.076 0-2.172 0-3.292 0 0-0.96 0-1.92 0-2.88-0.213 0-0.425 0-0.64 0 0 1.12 0 2.24 0 3.36 1.12 0 2.21 0 3.286 0 0.262 0 0.394 0.225 0.394 0.486 0 3.52 0 7.034 0 10.554 1.28 0 2.4 0 3.52 0 0-0.16 0-0.32 0-0.48-0.912 0-1.843 0-2.88 0 0-3.52 0-7.028 0-10.548z"></path>
</svg>
