<?xml version="1.0" encoding="utf-8"?>
<!-- Generated by IcoMoon.io -->
<!DOCTYPE svg PUBLIC "-//W3C//DTD SVG 1.1//EN" "http://www.w3.org/Graphics/SVG/1.1/DTD/svg11.dtd">
<svg version="1.1" xmlns="http://www.w3.org/2000/svg" xmlns:xlink="http://www.w3.org/1999/xlink" width="32" height="32" viewBox="0 0 32 32">
<path fill="rgb(2, 185, 149)" d="M27.2 17.499c0 0.684 0 1.381 0 2.021-0.48 0-1.12 0-1.6 0 0-0.64 0-1.337 0-2.021 0-0.262-0.166-0.539-0.428-0.539-0.684 0-1.492 0-2.132 0 0-0.48 0-0.96 0-1.44 0.64 0 1.448 0 2.132 0 0.262 0 0.428-0.292 0.428-0.554 0-0.684 0-1.366 0-2.006 0.48 0 1.12 0 1.6 0 0 0.64 0 1.321 0 2.006 0 0.262 0.244 0.554 0.505 0.554 0.684 0 1.255 0 2.055 0 0 0.48 0 0.96 0 1.44-0.8 0-1.371 0-2.055 0-0.262 0-0.505 0.277-0.505 0.539z"></path>
<path fill="rgb(2, 185, 149)" d="M19.28 15.59l-0.009-0.070h-7.751v0.16c0 0.64 0 1.28 0 2.080 1.44 0 3.234 0 4.75 0 0.139 0 0.248 0.043 0.316 0.124 0.065 0.077 0.089 0.188 0.068 0.313-0.342 1.986-2.083 3.573-4.332 3.949-0.328 0.055-0.662 0.083-0.992 0.083-2.399 0-4.562-1.435-5.511-3.655-1.053-2.463-0.241-5.529 1.889-7.131 1.017-0.765 2.28-1.187 3.555-1.187s2.466 0.404 3.444 1.167l0.055 0.043 1.832-1.762-0.069-0.057c-0.478-0.397-0.952-0.711-1.448-0.962-1.15-0.581-2.459-0.888-3.788-0.888-2.763 0-5.324 1.276-6.852 3.414-2.303 3.222-2.168 7.64 0.319 10.506 1.671 1.925 4.184 3.075 6.72 3.075 1.204 0 2.351-0.254 3.408-0.754 3.090-1.462 4.857-4.856 4.397-8.446z"></path>
<path fill="rgb(7, 155, 126)" d="M5.257 21.358c-2.537-2.923-2.518-7.307-0.314-10.391 0.632-0.885 1.433-1.603 2.332-2.147-1.102 0.567-2.080 1.38-2.827 2.424-2.204 3.084-2.223 7.474 0.314 10.397 2.427 2.796 6.615 3.898 10.034 2.281 0.314-0.149 0.612-0.317 0.895-0.502-0.131 0.072-0.264 0.142-0.4 0.206-3.419 1.617-7.607 0.527-10.034-2.269z"></path>
<path fill="rgb(7, 155, 126)" d="M17.175 17.875c0.052-0.303-0.128-0.595-0.463-0.595-1.516 0-3.112 0-4.552 0 0-0.667 0-1.223 0-1.76-0.16 0-0.319 0-0.48 0 0 0.64 0 1.28 0 2.080 1.44 0 3.022 0 4.538 0 0.335 0 0.515 0.267 0.463 0.57-0.241 1.401-1.109 2.523-2.258 3.243 1.39-0.696 2.477-1.943 2.752-3.539z"></path>
<path fill="rgb(7, 155, 126)" d="M14.507 9.069c0.516 0.26 0.99 0.587 1.433 0.955-0.448 0.431-0.895 0.861-1.342 1.292 0.040 0.029 0.080 0.058 0.119 0.089 0.572-0.552 1.145-1.103 1.717-1.654-0.443-0.368-0.918-0.696-1.433-0.956-2.597-1.312-5.769-1.126-8.205 0.346 2.36-1.215 5.287-1.297 7.711-0.072z"></path>
<path fill="rgb(7, 155, 126)" d="M26.080 17.047c0-0.262-0.172-0.407-0.434-0.407-0.684 0-1.486 0-2.126 0 0-0.373 0-0.747 0-1.12-0.166 0-0.327 0-0.48 0 0 0.48 0 0.96 0 1.44 0.64 0 1.427 0.16 2.112 0.16 0.262 0 0.288 0.066 0.288 0.327 0 0.684 0.16 1.433 0.16 2.073 0.48 0 1.12 0 1.6 0 0-0.104 0-0.211 0-0.32-0.38 0-0.788 0-1.12 0 0-0.64 0-1.469 0-2.153z"></path>
<path fill="rgb(19, 74, 120)" d="M20.024 14.875c-0.034-0.208-0.266-0.315-0.463-0.315-2.79 0-5.58 0-8.371 0-0.121 0-0.232 0.010-0.317 0.086-0.007 0.006-0.014-0.008-0.021-0.002-0.001 0.001-0.001-0.008-0.002-0.007-0.076 0.070-0.122 0.165-0.132 0.293-0.001 0.013 0.001 0.021 0.001 0.034 0 0.001 0 0.001 0 0.002 0 1.013 0 2.026 0 3.039 0 0.262 0.209 0.555 0.47 0.555 1.469 0 2.939 0 4.408 0-0.452 1.28-1.574 2.25-2.925 2.642-2.315 0.672-4.713-0.436-5.881-2.492-1.177-2.073-0.608-4.71 1.079-6.304 1.771-1.673 4.731-1.718 6.513-0.061 0.194 0.181 0.485 0.184 0.679-0.002 0.802-0.773 1.604-1.546 2.406-2.319 0.182-0.175 0.191-0.506 0-0.679-2.829-2.576-6.848-3.134-10.313-1.545-3.185 1.46-5.179 4.757-5.308 8.206-0.131 3.505 1.89 6.799 4.93 8.467 2.961 1.624 6.87 1.472 9.674-0.402 2.98-1.991 4.137-5.772 3.572-9.197zM14.797 23.924c-3.419 1.617-7.607 0.515-10.034-2.281-2.537-2.923-2.518-7.313-0.314-10.397 2.345-3.281 6.982-4.292 10.538-2.496 0.516 0.26 0.99 0.587 1.433 0.955-0.572 0.552-1.145 1.102-1.717 1.653-2.057-1.607-5.001-1.556-7.096 0.019-2.184 1.643-2.986 4.718-1.914 7.227 1.103 2.581 3.812 4.084 6.59 3.62 2.12-0.354 4.020-1.866 4.398-4.054 0.052-0.303-0.128-0.57-0.463-0.57-1.516-0-3.098-0-4.538-0 0-0.8 0-1.44 0-2.080 2.56 0 4.976 0 7.469 0 0.431 3.36-1.143 6.885-4.352 8.404z"></path>
<path fill="rgb(19, 74, 120)" d="M30.564 14.64c-0.004-0.005-0.022-0.009-0.026-0.013s-0.015 0.028-0.020 0.024c-0.077-0.077-0.191-0.092-0.332-0.092-0.684 0-1.386 0-2.026 0 0-0.8 0-1.443 0-2.128 0-0.262-0.245-0.432-0.507-0.432-0.844 0-1.688 0-2.533 0-0.262 0-0.481 0.171-0.481 0.432 0 0.684 0 1.328 0 2.128-0.64 0-1.368 0-2.052 0-0.262 0-0.508 0.144-0.508 0.406 0 0.844 0 1.688 0 2.533 0 0.262 0.246 0.421 0.508 0.421 0.684 0 1.412 0 2.052 0 0 0.8 0 1.427 0 2.112 0 0.262 0.219 0.448 0.481 0.448 0.844 0 1.688 0 2.533 0 0.262 0 0.507-0.187 0.507-0.448 0-0.684 0-1.312 0-2.112 0.64 0 1.342 0 2.026 0 0.262 0 0.534-0.16 0.534-0.421 0-0.844 0-1.688 0-2.533 0-0.141-0.078-0.249-0.156-0.326zM27.2 17.499c0 0.684 0 1.381 0 2.021-0.48 0-1.12 0-1.6 0 0-0.64 0-1.337 0-2.021 0-0.262-0.218-0.539-0.479-0.539-0.684 0-1.441 0-2.081 0 0-0.48 0-0.96 0-1.44 0.64 0 1.396 0 2.081 0 0.262 0 0.479-0.292 0.479-0.554 0-0.684 0-1.366 0-2.006 0.48 0 1.12 0 1.6 0 0 0.64 0 1.321 0 2.006 0 0.262 0.192 0.554 0.453 0.554 0.684 0 1.307 0 2.107 0 0 0.48 0 0.96 0 1.44-0.8 0-1.422 0-2.107 0-0.262 0-0.453 0.277-0.453 0.539z"></path>
</svg>
