<svg xmlns="http://www.w3.org/2000/svg" viewBox="0 0 32 32" width="100%" height="100%" preserveAspectRatio="none">
  <path fill="#02B995" d="M27.2 17.5v2.02h-1.6V17.5c0-.263-.166-.54-.428-.54H23.04v-1.44h2.132c.262 0 .428-.292.428-.554V12.96h1.6v2.006c0 .262.244.554.505.554h2.055v1.44h-2.055c-.262 0-.505.277-.505.54zm-7.92-1.91l-.01-.07h-7.75v2.24h4.75c.14 0 .248.043.316.124.065.077.09.188.068.313-.342 1.986-2.083 3.573-4.332 3.95-.328.054-.662.082-.992.082-2.4 0-4.562-1.44-5.51-3.66-1.054-2.47-.242-5.53 1.888-7.13 1.017-.77 2.28-1.19 3.555-1.19s2.466.4 3.444 1.16l.055.04 1.832-1.76-.07-.06c-.477-.4-.95-.71-1.447-.96-1.15-.58-2.46-.89-3.788-.89-2.77 0-5.33 1.27-6.86 3.41-2.31 3.22-2.17 7.64.32 10.5 1.67 1.925 4.18 3.075 6.72 3.075 1.2 0 2.35-.254 3.4-.754 3.09-1.46 4.85-4.855 4.39-8.445z"/>
  <path fill="#079B7E" d="M5.257 21.358c-2.537-2.923-2.518-7.307-.314-10.39.632-.886 1.433-1.604 2.332-2.148-1.102.567-2.08 1.38-2.827 2.424-2.204 3.084-2.223 7.474.314 10.397 2.427 2.8 6.615 3.9 10.034 2.29.314-.15.612-.31.895-.5-.13.08-.26.15-.4.21-3.41 1.62-7.6.53-10.03-2.27z"/>
  <path fill="#079B7E" d="M17.175 17.875c.052-.303-.128-.595-.463-.595H12.16v-1.76h-.48v2.08h4.538c.335 0 .515.267.463.57-.24 1.4-1.1 2.523-2.25 3.243 1.39-.696 2.48-1.943 2.75-3.54zM14.507 9.07c.516.26.99.586 1.433.954-.448.43-.895.86-1.342 1.292.04.03.08.058.12.09.57-.553 1.144-1.104 1.716-1.655-.443-.36-.918-.69-1.433-.95-2.59-1.31-5.76-1.12-8.2.35 2.36-1.21 5.29-1.29 7.71-.07zm11.573 7.977c0-.262-.172-.407-.434-.407H23.52v-1.12h-.48v1.44c.64 0 1.427.16 2.112.16.262 0 .288.066.288.327 0 .684.16 1.433.16 2.073h1.6v-.32h-1.12v-2.153z"/>
  <path fill="#134A78" d="M20.024 14.875c-.034-.208-.266-.315-.463-.315h-8.37c-.12 0-.23.01-.31.086 0 .006-.01-.008-.02-.002v-.007c-.07.07-.12.165-.13.293v3.076c0 .26.21.554.47.554h4.41c-.45 1.28-1.57 2.25-2.92 2.642-2.31.672-4.71-.436-5.88-2.492-1.18-2.073-.61-4.71 1.08-6.304 1.77-1.673 4.73-1.718 6.52-.06.2.18.49.183.68-.003l2.41-2.32c.18-.174.19-.505 0-.678C14.64 6.77 10.62 6.21 7.16 7.8c-3.188 1.46-5.18 4.757-5.31 8.206-.13 3.505 1.89 6.8 4.93 8.467 2.96 1.624 6.87 1.472 9.673-.402 2.98-1.99 4.14-5.77 3.58-9.19zm-5.227 9.05c-3.42 1.616-7.607.514-10.034-2.282-2.537-2.923-2.518-7.313-.314-10.397 2.34-3.28 6.98-4.292 10.53-2.496.51.26.99.587 1.43.955l-1.71 1.653c-2.06-1.607-5-1.556-7.1.02-2.19 1.642-2.99 4.717-1.92 7.226 1.1 2.58 3.81 4.084 6.59 3.62 2.12-.354 4.02-1.866 4.39-4.054.05-.303-.13-.57-.46-.57h-4.53v-2.08h7.47c.43 3.36-1.15 6.885-4.36 8.404zm15.767-9.285c-.004-.005-.022-.01-.026-.013s-.015.028-.02.024c-.077-.07-.19-.09-.332-.09H28.16v-2.13c0-.26-.245-.43-.507-.43H25.12c-.262 0-.48.17-.48.43v2.13h-2.053c-.262 0-.508.15-.508.41v2.53c0 .26.24.42.5.42h2.05v2.12c0 .27.22.45.48.45h2.53c.26 0 .5-.19.5-.45v-2.11h2.02c.26 0 .53-.16.53-.42v-2.54c0-.14-.078-.25-.156-.32zM27.2 17.5v2.02h-1.6V17.5c0-.263-.218-.54-.48-.54h-2.08v-1.44h2.08c.263 0 .48-.292.48-.554V12.96h1.6v2.006c0 .262.192.554.453.554h2.107v1.44h-2.107c-.262 0-.453.277-.453.54z"/>
</svg>
