<svg xmlns="http://www.w3.org/2000/svg" viewBox="0 0 32 32"  width="100%" height="100%" preserveAspectRatio="none">
  <path fill="#E4E6E8" d="M11.734 21.095c1.196 1.003 2.704 1.553 4.266 1.553s3.07-.55 4.266-1.553l3.774 3.774c-2.204 2-5.052 3.1-8.04 3.1s-6.156-1.1-8.36-3.1l4.094-3.78zm8.532-10.19C19.07 9.902 17.562 9.352 16 9.352s-3.07.55-4.266 1.553L7.8 7.13c2.204-2 5.212-3.1 8.2-3.1s5.836 1.1 8.04 3.1l-3.774 3.775z"/>
  <path fill="#02B995" d="M22.727 16c0-1.562-.71-3.07-1.713-4.266L24.788 7.8c2.002 2.204 3.262 5.212 3.262 8.2s-1.1 5.836-3.102 8.04l-3.774-3.774c1.003-1.196 1.553-2.704 1.553-4.266z"/>
  <path fill="#079B7E" d="M23.97 15.843c0-1.562-.55-3.07-1.554-4.266l3.187-2.867c-.16-.2-.483-.716-.656-.906l-4.094 3.934c1.003 1.196 1.713 2.864 1.713 4.426s-.71 2.91-1.713 4.106l3.934 3.934c.276-.304.533-.62.774-.948l-3.14-3.146c1.006-1.196 1.556-2.704 1.556-4.266z"/>
  <path fill="#02B995" d="M9.365 15.867c0 1.562.71 3.23 1.713 4.426l-3.934 3.934c-2.002-2.204-3.102-5.372-3.102-8.36s1.1-5.836 3.102-8.04l4.094 3.774c-1.003 1.2-1.873 2.71-1.873 4.27z"/>
  <path fill="#079B7E" d="M7.82 8.49l-.824-.823C4.994 9.87 3.894 13.2 3.894 16.187s1.1 5.836 3.102 8.04l1.04-1.04c-1.772-2.14-2.74-4.818-2.74-7.62 0-2.503 1.095-5.067 2.523-7.077z"/>
  <path fill="#C9CACB" d="M23.472 7.83l.7-.7c-2.205-2-5.053-3.1-8.04-3.1s-6.157 1.1-8.36 3.1l.858.86c2.092-1.63 4.82-2.677 7.5-2.677s5.25.89 7.342 2.518zM8.79 23.87l-1.018 1.018c2.204 2.002 5.372 3.102 8.36 3.102s5.836-1.1 8.04-3.102l-.7-.86c-2.09 1.63-4.658 2.68-7.34 2.68s-5.25-1.21-7.34-2.84z"/>
  <path fill="#FFF" d="M15.972 21.476c-3.02 0-5.476-2.456-5.476-5.476s2.456-5.476 5.476-5.476S21.448 12.98 21.448 16s-2.456 5.476-5.476 5.476z"/>
  <path fill="#134A78" d="M29.424 15.414h-.293c-.14-3.287-1.5-6.374-3.83-8.708s-5.42-3.692-8.71-3.836v-.293c0-.323-.26-.586-.583-.586s-.585.27-.585.59v.297c-3.29.143-6.374 1.5-8.71 3.836s-3.692 5.42-3.836 8.708H2.58c-.323 0-.586.264-.586.587s.263.587.586.587h.293c.145 3.288 1.503 6.375 3.837 8.71s5.42 3.69 8.708 3.835v.293c0 .322.263.585.586.585s.587-.264.587-.587v-.292c3.29-.144 6.38-1.502 8.71-3.836s3.69-5.42 3.84-8.71h.295c.323 0 .586-.26.586-.584s-.263-.586-.587-.586zM9.35 16c0 1.562.55 3.07 1.554 4.266L7.13 24.04C5.128 21.836 4.028 18.988 4.028 16s1.1-5.836 3.102-8.04l3.774 3.774C9.9 12.93 9.35 14.438 9.35 16zm10.916-5.095C19.07 9.902 17.562 9.352 16 9.352s-3.07.55-4.266 1.553L7.96 7.13c2.204-2 5.052-3.1 8.04-3.1s5.836 1.1 8.04 3.1l-3.774 3.775zM16 21.475c-3.02 0-5.476-2.455-5.476-5.475S12.98 10.524 16 10.524 21.476 12.98 21.476 16 19.02 21.476 16 21.476zm-4.266-.38c1.196 1.003 2.704 1.553 4.266 1.553s3.07-.55 4.266-1.553l3.774 3.774c-2.204 2-5.052 3.1-8.04 3.1s-5.836-1.1-8.04-3.1l3.774-3.78zM22.65 16c0-1.562-.55-3.07-1.554-4.266L24.87 7.96c2.002 2.204 3.102 5.052 3.102 8.04s-1.1 5.836-3.102 8.04l-3.774-3.774C22.1 19.07 22.65 17.562 22.65 16z"/>
</svg>
