<?xml version="1.0" encoding="utf-8"?>
<!-- Generated by IcoMoon.io -->
<!DOCTYPE svg PUBLIC "-//W3C//DTD SVG 1.1//EN" "http://www.w3.org/Graphics/SVG/1.1/DTD/svg11.dtd">
<svg version="1.1" xmlns="http://www.w3.org/2000/svg" xmlns:xlink="http://www.w3.org/1999/xlink" width="100%" height="100%" viewBox="0 0 32 32">
<path fill="rgb(228, 230, 232)" d="M11.734 21.095c1.196 1.003 2.704 1.553 4.266 1.553s3.070-0.55 4.266-1.553l3.774 3.774c-2.204 2.002-5.052 3.102-8.040 3.102s-6.156-1.1-8.36-3.102l4.094-3.774z"></path>
<path fill="rgb(228, 230, 232)" d="M20.266 10.905c-1.196-1.003-2.704-1.553-4.266-1.553s-3.070 0.55-4.266 1.553l-3.934-3.774c2.204-2.002 5.212-3.102 8.2-3.102s5.836 1.1 8.040 3.102l-3.774 3.774z"></path>
<path fill="rgb(2, 185, 149)" d="M22.727 16c0-1.562-0.71-3.070-1.713-4.266l3.774-3.934c2.002 2.204 3.262 5.212 3.262 8.2s-1.1 5.836-3.102 8.040l-3.774-3.774c1.003-1.196 1.553-2.704 1.553-4.266z"></path>
<path fill="rgb(7, 155, 126)" d="M23.969 15.843c0-1.562-0.55-3.070-1.553-4.266l3.187-2.867c-0.159-0.2-0.483-0.716-0.656-0.906l-4.094 3.934c1.003 1.196 1.713 2.864 1.713 4.426s-0.71 2.91-1.713 4.106l3.934 3.934c0.276-0.304 0.533-0.621 0.774-0.948l-3.146-3.146c1.003-1.196 1.553-2.704 1.553-4.266z"></path>
<path fill="rgb(2, 185, 149)" d="M9.365 15.867c0 1.562 0.71 3.23 1.713 4.426l-3.934 3.934c-2.002-2.204-3.102-5.372-3.102-8.36s1.1-5.836 3.102-8.040l4.094 3.774c-1.003 1.196-1.873 2.704-1.873 4.266z"></path>
<path fill="rgb(7, 155, 126)" d="M7.819 8.49l-0.823-0.823c-2.002 2.204-3.102 5.532-3.102 8.52s1.1 5.836 3.102 8.040l1.039-1.039c-1.771-2.14-2.739-4.819-2.739-7.621 0-2.503 1.095-5.067 2.523-7.077z"></path>
<path fill="rgb(201, 202, 203)" d="M23.472 7.83l0.699-0.699c-2.204-2.002-5.052-3.102-8.040-3.102s-6.156 1.1-8.36 3.102l0.859 0.859c2.092-1.629 4.819-2.677 7.501-2.677s5.249 0.889 7.341 2.518z"></path>
<path fill="rgb(201, 202, 203)" d="M8.791 23.869l-1.019 1.019c2.204 2.002 5.372 3.102 8.36 3.102s5.836-1.1 8.040-3.102l-0.699-0.859c-2.092 1.629-4.659 2.678-7.341 2.678s-5.249-1.209-7.34-2.838z"></path>
<path fill="rgb(255, 255, 255)" d="M15.972 21.476c-3.020 0-5.476-2.456-5.476-5.476s2.456-5.476 5.476-5.476c3.019 0 5.476 2.456 5.476 5.476s-2.456 5.476-5.476 5.476z"></path>
<path fill="rgb(19, 74, 120)" d="M29.424 15.414h-0.293c-0.144-3.287-1.502-6.374-3.836-8.708s-5.421-3.692-8.708-3.836v-0.293c0-0.323-0.263-0.586-0.586-0.586s-0.586 0.263-0.586 0.586v0.293c-3.287 0.144-6.373 1.502-8.708 3.836s-3.692 5.421-3.836 8.708h-0.293c-0.323 0-0.586 0.263-0.586 0.586s0.263 0.586 0.586 0.586h0.293c0.144 3.287 1.502 6.374 3.836 8.708s5.42 3.692 8.708 3.836v0.293c0 0.323 0.263 0.586 0.586 0.586s0.586-0.263 0.586-0.586v-0.293c3.287-0.144 6.373-1.502 8.708-3.836s3.692-5.42 3.836-8.708h0.293c0.323 0 0.586-0.263 0.586-0.586s-0.263-0.586-0.587-0.586zM9.351 16c0 1.562 0.55 3.070 1.553 4.266l-3.774 3.774c-2.002-2.204-3.102-5.052-3.102-8.040s1.1-5.836 3.102-8.040l3.774 3.774c-1.003 1.196-1.553 2.704-1.553 4.266zM20.266 10.905c-1.196-1.003-2.704-1.553-4.266-1.553s-3.070 0.55-4.266 1.553l-3.774-3.774c2.204-2.002 5.052-3.102 8.040-3.102s5.836 1.1 8.040 3.102l-3.774 3.774zM16 21.476c-3.020 0-5.476-2.456-5.476-5.476s2.456-5.476 5.476-5.476c3.019 0 5.476 2.456 5.476 5.476s-2.456 5.476-5.476 5.476zM11.734 21.095c1.196 1.003 2.704 1.553 4.266 1.553s3.070-0.55 4.266-1.553l3.774 3.774c-2.204 2.002-5.052 3.102-8.040 3.102s-5.836-1.1-8.040-3.102l3.774-3.774zM22.649 16c0-1.562-0.55-3.070-1.553-4.266l3.774-3.774c2.002 2.204 3.102 5.052 3.102 8.040s-1.1 5.836-3.102 8.040l-3.774-3.774c1.003-1.196 1.553-2.704 1.553-4.266z"></path>
</svg>
