<?xml version="1.0" encoding="utf-8"?>
<!-- Generated by IcoMoon.io -->
<!DOCTYPE svg PUBLIC "-//W3C//DTD SVG 1.1//EN" "http://www.w3.org/Graphics/SVG/1.1/DTD/svg11.dtd">
<svg version="1.1" xmlns="http://www.w3.org/2000/svg" xmlns:xlink="http://www.w3.org/1999/xlink" width="32" height="32" viewBox="0 0 32 32">
<path fill="rgb(81, 127, 164)" d="M27.24 19.13c0 1.763 0 3.526 0 5.29 0 1.465-0.979 2.648-2.505 2.703-0.37 0.013-0.769-0.004-1.139-0.004-4.615 0-9.231 0-13.846 0-0.653 0-1.306 0-1.959 0-1.465 0-2.693-0.948-2.749-2.474-0.048-1.307-0.042-2.622-0.042-3.93 0-4.328-0.16-8.655-0.16-12.983 0-1.465 1.154-2.804 2.68-2.86 0.37-0.013 0.784 0.167 1.154 0.167 2.195 0 4.389 0 6.584 0 2.421 0 4.841 0 7.262 0 0.653 0 1.306 0 1.959 0 1.465 0 2.601 0.938 2.761 2.464 0 3.876 0 7.751 0 11.627z"></path>
<path fill="rgb(65, 104, 130)" d="M24.564 26.159c-4.615 0-9.231 0-13.846 0-0.653 0-1.306 0-1.959 0-1.465 0-2.697-0.975-2.753-2.501-0.048-1.308-0.046-2.649-0.046-3.957 0-4.328 0-8.655 0-12.983 0-0.5 0.119-1.121 0.332-1.517-0.812 0.457-1.292 1.503-1.292 2.531 0 4.328 0 8.655 0 12.983 0 1.308-0.029 2.623 0.019 3.93 0.056 1.526 1.261 2.474 2.726 2.474 0.653 0 1.306 0 1.959 0 4.615 0 9.231 0 13.846 0 0.37 0 0.792 0.017 1.162 0.004 0.996-0.036 1.767-0.555 2.184-1.318-0.344 0.195-0.746 0.315-1.197 0.331-0.37 0.013-0.766 0.023-1.135 0.023z"></path>
<path fill="rgb(19, 74, 120)" d="M24.971 4.051c-0.415-0.046-0.884 0.029-1.3 0.029-2.169 0-4.339 0-6.508 0-2.436 0-4.873 0-7.309 0-1.68 0-3.427-0.272-4.765 0.974-1.29 1.202-1.050 3.098-1.050 4.689 0 2.436 0 4.872 0 7.308 0 2.169 0 4.338 0 6.507 0 0.423 0.031 0.846 0.047 1.269 0.066 1.822 1.714 3.162 3.448 3.225 3.865 0.14 7.779 0.027 11.647 0.027 1.763 0 3.527 0 5.29 0 2.197 0 3.729-1.652 3.729-3.808 0-5.609 0-11.219 0-16.828-0.16-1.836-1.411-3.188-3.229-3.392zM27.24 19.069c0 1.763 0 3.526 0 5.29 0 1.465-0.983 2.678-2.509 2.734-0.37 0.013-0.773 0.027-1.143 0.027-4.615 0-9.231 0-13.846 0-0.653 0-1.306 0-1.959 0-1.465 0-2.69-0.979-2.745-2.504-0.048-1.308-0.038-2.652-0.038-3.961 0-4.328 0-8.655 0-12.983 0-1.465 0.991-2.614 2.516-2.67 0.37-0.013 0.78 0.037 1.15 0.037 2.195 0 4.389 0 6.584 0 2.421 0 4.841 0 7.262 0 0.653 0 1.306 0 1.959 0 1.465 0 2.609 0.877 2.769 2.403 0 3.876 0 7.751 0 11.627z"></path>
<path fill="rgb(228, 230, 232)" d="M23.095 24.239c-0.962 0-1.924 0-2.886 0-2.559 0-5.118 0-7.677 0-1.464 0-2.927 0-4.391 0-0.679 0-0.261-1.46-0.261-1.776 0-1.207 0-2.413 0-3.62 0-1.409 0-2.924 0-4.204 0.358 0 0.465 0 0.843 0-0.911 4.32 2.445 8.554 6.965 8.903 4.932 0.381 8.801-4.423 7.835-9.063 0.312 0 0.838 0.16 1.158 0.16 0 3.040 0 6.144 0 9.227 0 0.635-1.219 0.373-1.585 0.373z"></path>
<path fill="rgb(228, 230, 232)" d="M22.948 11.279c-0.509 0-1.179 0-1.688 0-0.925 0-0.728-2.749-0.728-3.335 0-0.92 3.541-0.707 4.116-0.707 0.926 0 0.248 3.079 0.248 3.66-0.068 0.754-1.437 0.382-1.948 0.382z"></path>
<path fill="rgb(201, 202, 203)" d="M23.559 10.319c-0.509 0-1.019 0-1.528 0-0.815 0-0.635-1.946-0.58-2.81-0.398 0.085-0.681 0.249-0.681 0.553 0 0.586-0.357 3.056 0.568 3.056 0.509 0 1.019 0 1.528 0 0.511 0 1.72 0.34 1.788-0.414 0-0.061 0.004-0.303 0.010-0.4-0.327 0.048-0.858 0.014-1.105 0.014z"></path>
<path fill="rgb(201, 202, 203)" d="M23.629 23.599c-0.962 0-1.924 0-2.886 0-1.088 0-2.176 0-3.264 0-0.611 0.113-1.246 0.153-1.898 0.103-0.267-0.021-0.529-0.056-0.788-0.103-0.576 0-1.152 0-1.728 0-1.464 0-2.927 0-4.391 0-0.679 0-0.314-1.461-0.314-1.776 0-1.207 0-2.413 0-3.62 0-1.125 0-2.477 0-3.564-0.218 0-0.406 0-0.64 0 0 1.28 0 2.902 0 4.31 0 1.207 0 2.413 0 3.62 0 0.316-0.364 1.83 0.315 1.83 1.464 0 2.927 0 4.391 0 2.559 0 5.118 0 7.677 0 0.962 0 1.924 0 2.886 0 0.366 0 1.532 0.208 1.532-0.427 0-0.108 0-0.214 0-0.322-0.335 0.012-0.711-0.052-0.892-0.052z"></path>
<path fill="rgb(228, 230, 232)" d="M19.886 18.012c-1.313 1.922-3.813 2.5-5.835 1.347-2.019-1.151-2.474-3.734-1.302-5.641 1.217-1.982 3.884-2.458 5.835-1.347 2.019 1.15 2.474 3.736 1.302 5.641z"></path>
<path fill="rgb(201, 202, 203)" d="M14.608 18.385c-1.837-1.048-2.379-3.281-1.579-5.112-0.137 0.159-0.263 0.33-0.376 0.515-1.172 1.907-0.716 4.49 1.302 5.641 2.022 1.153 4.522 0.575 5.835-1.347 0.121-0.196 0.223-0.4 0.309-0.608-1.373 1.565-3.633 1.971-5.492 0.911z"></path>
<path fill="rgb(19, 74, 120)" d="M25.48 23.853c0-3.203 0-6.406 0-9.609 0-0.262-0.172-0.405-0.434-0.405-0.676 0-1.351 0-2.027 0-0.308 0-0.551 0.269-0.463 0.57 1.288 4.4-2.258 8.354-6.67 8.288-4.247-0.064-7.331-4.227-6.143-8.278 0.088-0.3-0.155-0.579-0.463-0.579-0.705 0-1.411 0-2.116 0-0.262 0-0.404 0.143-0.404 0.405 0 1.832 0 3.665 0 5.497 0 1.119 0 2.239 0 3.358 0 0.832-0.090 1.511 0.652 2.083 0.364 0.28 1.076 0.177 1.513 0.177 0.905 0 1.811 0 2.716 0 2.551 0 5.101 0 7.652 0 1.305 0 2.609 0 3.914 0 1.030 0 2.059-0.025 2.291-1.229 0.017-0.049 0.005-0.1 0.005-0.16 0.005-0.043-0.023-0.080-0.023-0.117zM23.042 24.399c-0.962 0-1.924 0-2.886 0-2.559 0-5.118 0-7.677 0-1.464 0-2.927 0-4.391 0-0.679 0-0.368-1.514-0.368-1.829 0-1.207 0-2.413 0-3.62 0-1.409 0-2.87 0-4.15 0.32 0 0.608 0 0.949 0-0.911 4.32 2.445 8.554 6.965 8.903 4.932 0.381 8.961-4.263 7.995-8.903 0.312 0 0.571 0 0.891 0 0 3.040 0 6.091 0 9.173 0 0.635-1.112 0.427-1.478 0.427z"></path>
<path fill="rgb(19, 74, 120)" d="M24.010 6.571c-0.731-0.068-1.499 0-2.233 0-1.008 0-1.794 0.42-1.895 1.517-0.066 0.72 0 1.476 0 2.2 0 0.983 0.484 1.701 1.516 1.794 0.732 0.066 1.498 0 2.233 0 0.972 0 1.731-0.383 1.878-1.388 0.010-0.040 0.017-0.082 0.017-0.128 0-1.413 0.475-3.81-1.516-3.994zM22.938 11.119c-0.509 0-1.019 0-1.528 0-0.925 0-0.568-2.447-0.568-3.033 0-0.92 2.581-0.556 3.156-0.556 0.926 0 0.568 2.453 0.568 3.033-0.068 0.754-1.117 0.556-1.628 0.556z"></path>
<path fill="rgb(19, 74, 120)" d="M19.762 19.485c1.962-1.991 1.961-5.039 0-7.030-1.974-2.005-5.229-1.839-7.225 0-2.057 1.896-1.892 5.111 0 7.030 1.975 2.003 5.228 1.84 7.225 0 0.456-0.42-0.224-1.097-0.679-0.679-1.678 1.546-4.191 1.547-5.867 0-1.674-1.544-1.539-4.11 0-5.673 1.599-1.624 4.25-1.49 5.867 0 1.674 1.543 1.539 4.112 0 5.673-0.435 0.441 0.244 1.12 0.679 0.679z"></path>
</svg>
