<svg xmlns="http://www.w3.org/2000/svg" viewBox="0 0 32 32" width="100%" height="100%" preserveAspectRatio="none">
  <path fill="#02B995" d="M27.4 19.132v5.29c0 1.465-1.04 2.647-2.565 2.702-.37.013-.83-.005-1.2-.005H7.83c-1.464 0-2.632-.95-2.688-2.48-.048-1.31.018-2.62.018-3.93V7.73c0-1.462.934-2.803 2.46-2.86.37-.01.724.168 1.094.168H24.52c1.464 0 2.72.94 2.88 2.466V19.13z"/>
  <path fill="#079B7E" d="M24.564 26.16H8.758c-1.464 0-2.696-.976-2.752-2.502-.048-1.308-.046-2.65-.046-3.957V6.72c0-.5.12-1.12.332-1.517C5.48 5.66 5 6.705 5 7.733v12.983c0 1.308-.03 2.623.02 3.93.055 1.526 1.26 2.474 2.725 2.474H23.55c.37 0 .792.016 1.162.003.996-.036 1.767-.555 2.184-1.318-.344.195-.746.315-1.197.33-.37.014-.77.024-1.14.024z"/>
  <path fill="#E4E6E8" d="M23.095 24.24H8.14c-.68 0-.262-1.46-.262-1.777V14.64h.843c-.91 4.32 2.45 8.552 6.97 8.9 4.93.38 8.64-4.262 7.68-8.902h1.32v9.226c0 .635-1.22.373-1.58.373zm-.147-12.8c-.51 0-1.34-.16-1.848-.16-.925 0-.408-2.91-.408-3.496 0-.92 2.9-.547 3.476-.547.926 0 .728 2.76.728 3.34-.068.754-1.437.862-1.948.862z"/>
  <path fill="#C9CACB" d="M23.56 10.32h-1.53c-.814 0-.634-1.947-.58-2.81-.397.084-.68.248-.68.552 0 .586-.357 3.056.568 3.056h1.528c.51 0 1.72.34 1.788-.414 0-.06.164-.303.17-.4-.327.048-1.018.014-1.265.014zm.07 13.12h-6.15c-.613.112-1.248.152-1.9.102-.267-.02-.53-.056-.788-.103H8.675c-.68 0-.315-1.47-.315-1.78v-7.03h-.64v7.77c0 .31-.364 1.99.315 1.99H22.99c.365 0 1.69.2 1.69-.43 0-.11.16-.38.16-.48-.334.01-1.03-.06-1.21-.06z"/>
  <path fill="#E4E6E8" d="M19.848 18.064c-1.326 1.94-3.85 2.524-5.89 1.36-2.04-1.163-2.5-3.77-1.316-5.696 1.23-2 3.922-2.48 5.89-1.36 2.04 1.16 2.5 3.772 1.316 5.696z"/>
  <path fill="#C9CACB" d="M14.52 18.44c-1.856-1.058-2.403-3.313-1.595-5.16-.138.16-.266.332-.38.52-1.183 1.924-.724 4.532 1.315 5.695 2.042 1.164 4.565.58 5.89-1.36.123-.198.226-.404.313-.614-1.387 1.58-3.668 1.99-5.544.92z"/>
  <path fill="#134A78" d="M24.01 6.57c-.73-.067-1.5 0-2.233 0-1.008 0-1.794.42-1.895 1.518-.066.72 0 1.476 0 2.2 0 .983.484 1.7 1.516 1.794.732.066 1.498 0 2.233 0 .98 0 1.74-.383 1.88-1.388.01-.04.02-.082.02-.128 0-1.413.48-3.81-1.51-3.994zm-1.072 4.55H21.41c-.925 0-.568-2.448-.568-3.034 0-.92 2.58-.556 3.156-.556.926 0 .568 2.453.568 3.033-.068.754-1.117.556-1.628.556z"/>
  <path fill="#134A78" d="M24.97 4.05c-.414-.045-.883.03-1.3.03H9.854c-1.68 0-3.426-.272-4.764.974-1.29 1.202-1.05 3.098-1.05 4.69v13.814c0 .423.03.846.046 1.27.066 1.82 1.714 3.16 3.448 3.224 3.865.14 7.78.027 11.647.027h5.29c2.2 0 3.73-1.66 3.73-3.81V7.44c-.16-1.836-1.41-3.188-3.23-3.392zm2.27 15.02v5.29c0 1.464-.983 2.677-2.51 2.733-.37.013-.772.027-1.142.027H7.782c-1.464 0-2.69-.98-2.744-2.504C4.99 23.308 5 21.964 5 20.656V7.67C5 6.205 5.99 5.056 7.516 5c.37-.013.78.037 1.15.037h15.806c1.464 0 2.608.876 2.768 2.402v11.63z"/>
  <path fill="#134A78" d="M25.48 23.853v-9.61c0-.26-.172-.404-.434-.404H23.02c-.31 0-.552.26-.464.57 1.288 4.4-2.258 8.35-6.67 8.28-4.247-.07-7.33-4.23-6.143-8.28.088-.3-.155-.58-.463-.58H7.164c-.262 0-.404.14-.404.4v8.86c0 .83-.09 1.51.652 2.08.364.28 1.076.175 1.513.175h14.283c1.03 0 2.06-.026 2.29-1.23.018-.05.006-.1.006-.16.005-.043-.023-.08-.023-.117zm-2.438.546H8.087c-.68 0-.368-1.52-.368-1.83V14.8h.95c-.92 4.32 2.44 8.553 6.96 8.902 4.93.38 8.96-4.263 7.99-8.903h.89v9.17c0 .63-1.11.42-1.48.42z"/>
  <path fill="#134A78" d="M19.762 19.485c1.962-1.99 1.96-5.04 0-7.03-1.974-2.005-5.23-1.84-7.225 0-2.057 1.896-1.892 5.11 0 7.03 1.975 2.003 5.228 1.84 7.225 0 .456-.42-.224-1.097-.68-.68-1.677 1.547-4.19 1.548-5.866 0-1.674-1.543-1.54-4.11 0-5.672 1.6-1.624 4.25-1.49 5.867 0 1.674 1.543 1.54 4.112 0 5.673-.435.44.244 1.12.68.68z"/>
</svg>
