<svg xmlns="http://www.w3.org/2000/svg" viewBox="0 0 32 32" width="100%" height="100%" preserveAspectRatio="none">
  <path fill="#517FA4" d="M27.24 19.13v5.29c0 1.465-.98 2.648-2.505 2.703-.37.013-.77-.004-1.14-.004H7.79c-1.464 0-2.692-.95-2.748-2.48C4.994 23.33 5 22.02 5 20.71c0-4.326-.16-8.653-.16-12.98 0-1.465 1.154-2.804 2.68-2.86.37-.013.784.167 1.154.167H24.48c1.464 0 2.6.936 2.76 2.462v11.63z"/>
  <path fill="#416882" d="M24.564 26.16H8.758c-1.464 0-2.696-.976-2.752-2.502-.048-1.308-.046-2.65-.046-3.957V6.72c0-.5.12-1.12.332-1.517C5.48 5.66 5 6.705 5 7.733v12.983c0 1.308-.03 2.623.02 3.93.055 1.526 1.26 2.474 2.725 2.474H23.55c.37 0 .792.016 1.162.003.996-.036 1.767-.555 2.184-1.318-.344.195-.746.315-1.197.33-.37.014-.77.024-1.14.024z"/>
  <path fill="#134A78" d="M24.97 4.05c-.414-.045-.883.03-1.3.03H9.854c-1.68 0-3.426-.272-4.764.974-1.29 1.202-1.05 3.098-1.05 4.69v13.814c0 .423.03.846.046 1.27.066 1.82 1.714 3.16 3.448 3.224 3.865.14 7.78.027 11.647.027h5.29c2.2 0 3.73-1.66 3.73-3.81V7.44c-.16-1.836-1.41-3.188-3.23-3.392zm2.27 15.02v5.29c0 1.464-.983 2.677-2.51 2.733-.37.013-.772.027-1.142.027H7.782c-1.464 0-2.69-.98-2.744-2.504C4.99 23.308 5 21.964 5 20.656V7.67C5 6.205 5.99 5.056 7.516 5c.37-.013.78.037 1.15.037h15.806c1.464 0 2.608.876 2.768 2.402v11.63z"/>
  <path fill="#E4E6E8" d="M23.095 24.24H8.14c-.68 0-.262-1.46-.262-1.777V14.64h.843c-.91 4.32 2.45 8.552 6.97 8.9 4.93.38 8.8-4.422 7.84-9.062.32 0 .84.16 1.16.16v9.226c0 .635-1.22.373-1.58.373zm-.147-12.96H21.26c-.925 0-.728-2.75-.728-3.336 0-.92 3.54-.707 4.116-.707.926 0 .248 3.08.248 3.66-.068.754-1.437.382-1.948.382z"/>
  <path fill="#C9CACB" d="M23.56 10.32h-1.53c-.814 0-.634-1.947-.58-2.81-.397.084-.68.248-.68.552 0 .586-.357 3.056.568 3.056h1.528c.51 0 1.72.34 1.788-.414 0-.06.004-.303.01-.4-.327.048-.858.014-1.105.014zm.07 13.28h-6.15c-.613.112-1.248.152-1.9.102-.267-.02-.53-.056-.788-.103H8.675c-.68 0-.315-1.47-.315-1.78v-7.19h-.64v7.93c0 .31-.364 1.83.315 1.83H22.99c.365 0 1.53.2 1.53-.43v-.33c-.334.01-.71-.05-.89-.05z"/>
  <path fill="#E4E6E8" d="M19.886 18.012c-1.313 1.922-3.813 2.5-5.835 1.347-2.01-1.16-2.47-3.74-1.3-5.65 1.22-1.98 3.89-2.46 5.84-1.35 2.02 1.15 2.48 3.73 1.3 5.64z"/>
  <path fill="#C9CACB" d="M14.608 18.385c-1.837-1.048-2.38-3.28-1.58-5.112-.136.16-.262.33-.375.515-1.172 1.907-.716 4.49 1.302 5.64 2.022 1.154 4.522.576 5.835-1.346.12-.196.223-.4.31-.608-1.374 1.565-3.634 1.97-5.493.91z"/>
  <path fill="#134A78" d="M25.48 23.853v-9.61c0-.26-.172-.404-.434-.404H23.02c-.31 0-.552.26-.464.57 1.288 4.4-2.258 8.35-6.67 8.28-4.247-.07-7.33-4.23-6.143-8.28.088-.3-.155-.58-.463-.58H7.164c-.262 0-.404.14-.404.4v8.86c0 .83-.09 1.51.652 2.08.364.28 1.076.172 1.513.172h14.283c1.03 0 2.06-.026 2.29-1.23.018-.05.006-.1.006-.16.005-.043-.023-.08-.023-.117zm-2.438.546H8.087c-.68 0-.368-1.52-.368-1.83V14.8h.95c-.92 4.32 2.44 8.553 6.96 8.902 4.93.38 8.96-4.263 7.99-8.903h.89v9.17c0 .63-1.11.42-1.48.42zm.968-17.83c-.73-.07-1.5 0-2.233 0-1.008 0-1.794.42-1.895 1.51-.066.72 0 1.47 0 2.2 0 .98.484 1.7 1.516 1.79.732.06 1.498 0 2.233 0 .98 0 1.74-.39 1.88-1.39.01-.04.02-.088.02-.13 0-1.41.48-3.81-1.51-3.998zm-1.072 4.55H21.41c-.925 0-.568-2.45-.568-3.04 0-.92 2.58-.56 3.156-.56.926 0 .568 2.45.568 3.03-.068.75-1.117.55-1.628.55z"/>
  <path fill="#134A78" d="M19.762 19.485c1.962-1.99 1.96-5.04 0-7.03-1.974-2.005-5.23-1.84-7.225 0-2.057 1.896-1.892 5.11 0 7.03 1.975 2.003 5.228 1.84 7.225 0 .456-.42-.224-1.097-.68-.68-1.677 1.547-4.19 1.548-5.866 0-1.674-1.543-1.54-4.11 0-5.672 1.6-1.624 4.25-1.49 5.867 0 1.674 1.543 1.54 4.112 0 5.673-.435.44.244 1.12.68.68z"/>
</svg>
