<?xml version="1.0" encoding="utf-8"?>
<!-- Generated by IcoMoon.io -->
<!DOCTYPE svg PUBLIC "-//W3C//DTD SVG 1.1//EN" "http://www.w3.org/Graphics/SVG/1.1/DTD/svg11.dtd">
<svg version="1.1" xmlns="http://www.w3.org/2000/svg" xmlns:xlink="http://www.w3.org/1999/xlink" width="32" height="32" viewBox="0 0 32 32">
<path fill="rgb(2, 185, 149)" d="M23.87 12.896c-1.085-0.508-2.476-0.641-3.59-0.34-1.036 0.281-1.883 0.924-2.589 1.968l-0.010 0.021c-0.048 0.155-0.197 0.32-0.381 0.32h-0.028c-0.147 0-0.002-0.274-0.097-0.432-0.041-0.069-0.26 0.117-0.193-0.007l0.17-0.018-0.32-1.623h-3.851l0.001 0.081c0.066 3.583 0.040 7.184 0.014 10.667-0.007 0.876-0.013 1.747-0.018 2.611l-0 0.080h0.080c1.254 0 2.334 0 3.614 0h0.16l-0-5.922c-0.001-0.551-0.001-1.121 0.011-1.68 0.037-1.625 1.098-3.356 2.994-3.288 2.782 0.099 2.768 2.84 2.756 5.043-0 0.047-0 0.092-0 0.139-0 0.091-0.001 0.181-0.001 0.27 0 0 0 0 0 0v0c0 1.766 0 3.679 0 5.439 1.28 0 2.56 0 3.84 0h0.16v-7.819c0-1.932-0.472-4.457-2.722-5.51zM17.301 15.026c-0 0-0 0 0 0s-0 0 0 0-0 0 0 0zM26.433 18.406c0-0.061-0.001-0.122-0.001-0.183 0.001 0.062 0.001 0.123 0.001 0.183v0z"></path>
<path fill="rgb(19, 74, 120)" d="M10.333 12.038c-0.004-0.005 0.006-0.009 0.002-0.013s-0.001-0.037-0.006-0.041c-0.077-0.077-0.177-0.157-0.318-0.157-1.58 0-3.16 0-4.74 0-0.262 0-0.438 0.276-0.438 0.538 0 4.745 0 9.49 0 14.234 0 0.262 0.176 0.428 0.438 0.428 1.58 0 3.16 0 4.74 0 0.262 0 0.422-0.166 0.422-0.428 0-4.745 0-9.49 0-14.234-0-0.141-0.023-0.249-0.1-0.326zM9.473 12.786c0 4.48 0 8.96 0 13.28-1.28 0-2.4 0-3.68 0 0-4.32 0-8.8 0-13.28 1.28 0 2.4 0 3.68 0z"></path>
<path fill="rgb(7, 155, 126)" d="M13.705 12.786c-0.226 0-0.455 0-0.68 0 0.083 4.48 0.020 8.96-0.004 13.28 1.254 0 2.532 0 3.812 0 0-0.211 0-0.427 0-0.64-1.057 0-2.097 0-3.141 0 0.024-4.114 0.080-8.374 0.014-12.64z"></path>
<path fill="rgb(7, 155, 126)" d="M23.393 20.218c0-2.257 0.164-5.424-2.876-5.532-1.077-0.038-1.904 0.502-2.424 1.289 0.473-0.375 1.067-0.596 1.769-0.571 3.039 0.108 2.891 3.274 2.891 5.532 0 1.766 0 3.529 0 5.289 1.28 0 2.56 0 3.84 0 0-0.214 0-0.427 0-0.64-1.067 0-2.133 0-3.2 0 0-1.76 0-3.601 0-5.367z"></path>
<path fill="rgb(2, 185, 149)" d="M5.429 8.058c-0.059-1.339 1.138-2.059 2.328-2.099 1.278-0.042 2.233 0.835 2.298 2.099-0.075 2.777-4.504 2.792-4.627 0z"></path>
<path fill="rgb(2, 185, 149)" d="M9.473 12.786c0 4.48 0 8.96 0 13.28-1.28 0-2.4 0-3.68 0 0-4.32 0-8.8 0-13.28 1.28 0 2.4 0 3.68 0z"></path>
<path fill="rgb(7, 155, 126)" d="M5.943 7.403c-0.018-0.404 0.082-0.75 0.261-1.038-0.527 0.345-0.885 0.893-0.852 1.632 0.102 2.323 3.244 2.672 4.258 1.073-1.307 0.854-3.58 0.304-3.666-1.667z"></path>
<path fill="rgb(19, 74, 120)" d="M10.792 7.968c0.001-0.044-0.004-0.084-0.012-0.121-0.143-1.708-1.408-2.758-3.112-2.814-1.739-0.058-3.084 1.228-3.152 2.936-0.069 1.754 1.489 2.936 3.124 2.936 1.691 0 3.035-1.125 3.143-2.813 0.007-0.038 0.012-0.079 0.009-0.124zM5.477 7.968c-0.055-1.261 1.071-1.938 2.192-1.976 1.204-0.040 2.103 0.786 2.164 1.976-0.070 2.615-4.24 2.628-4.355 0z"></path>
<path fill="rgb(7, 155, 126)" d="M6.593 12.786c-0.262 0-0.527 0-0.8 0 0 4.48 0 8.96 0 13.28 1.28 0 2.4 0 3.68 0 0-0.319 0-0.64 0-0.96-0.964 0-1.873 0-2.88 0 0-4.011 0-8.161 0-12.32z"></path>
<path fill="rgb(19, 74, 120)" d="M24.068 12.020c-1.329-0.548-2.856-0.604-4.24-0.229-0.785 0.213-1.396 0.667-2.036 1.236 0-0.221 0-0.443 0-0.664 0-0.262-0.182-0.538-0.444-0.538-1.575 0-3.151 0-4.726 0-0.257 0-0.486 0.247-0.48 0.509 0.1 4.742 0.024 9.48 0.001 14.223-0.001 0.262 0.219 0.468 0.48 0.468 1.575 0 3.151 0 4.726 0 0.262 0 0.443-0.166 0.443-0.428 0-1.613 0-3.226 0-4.839 0-0.906 0-1.812 0-2.718 0-1.382 0.485-2.728 2.094-2.792 2.447-0.098 1.906 3.68 1.906 5.296 0 1.685 0 3.369 0 5.054 0 0.262 0.281 0.428 0.542 0.428 1.575 0 3.151 0 4.726 0 0.262 0 0.492-0.166 0.492-0.428 0-2.72 0-5.439 0-8.159 0-2.596-0.882-5.344-3.485-6.418zM19.905 15.288c-1.895-0.067-3.030 1.654-3.069 3.366-0.016 0.686-0.003 1.374-0.003 2.059 0 1.801 0 3.592 0 5.352-1.28 0-2.472 0-3.726 0 0.025-4.32 0.087-8.8 0.004-13.28 1.253 0 2.441 0 3.721 0 0 0.48 0 1.003 0 1.476 0.024 0.333 0.164 0.604 0.488 0.604 0.009 0 0.019 0 0.028 0 0.214 0 0.397-0.124 0.457-0.32 0.632-0.934 1.431-1.606 2.544-1.907 1.139-0.309 2.49-0.147 3.551 0.349 2.098 0.981 2.692 3.338 2.692 5.452 0 2.56 0 5.067 0 7.627-1.28 0-2.56 0-3.84 0 0-1.76 0-3.48 0-5.246 0-2.257 0.192-5.424-2.848-5.532z"></path>
</svg>
