<svg xmlns="http://www.w3.org/2000/svg" viewBox="0 0 32 32" width="100%" height="100%" preserveAspectRatio="none">
  <path fill="#02B995" d="M23.87 12.896c-1.085-.508-2.476-.64-3.59-.34-1.036.28-1.883.924-2.59 1.968l-.01.02c-.047.156-.196.32-.38.32h-.028c-.147 0-.002-.273-.097-.43-.04-.07-.26.116-.193-.008l.17-.018-.32-1.623h-3.85v.08c.066 3.584.04 7.185.014 10.668l-.018 2.61v.08h3.854v-5.92c0-.552 0-1.122.01-1.68.038-1.626 1.1-3.357 2.995-3.29 2.782.1 2.768 2.84 2.756 5.044v5.848h4v-7.82c0-1.93-.473-4.456-2.723-5.51zm-6.57 2.13zm9.133 3.38v-.183.183z"/>
  <path fill="#134A78" d="M10.333 12.038c-.004-.005.006-.01.002-.013s0-.037-.006-.04c-.08-.078-.18-.158-.32-.158H5.27c-.26 0-.437.276-.437.538V26.6c0 .26.176.427.438.427h4.74c.27 0 .43-.166.43-.428V12.36c0-.14-.02-.25-.1-.326zm-.86.748v13.28h-3.68v-13.28h3.68z"/>
  <path fill="#079B7E" d="M13.705 12.786h-.68c.083 4.48.02 8.96-.004 13.28h3.82v-.64H13.7c.022-4.114.08-8.374.012-12.64zm9.688 7.432c0-2.257.164-5.424-2.876-5.532-1.077-.038-1.904.502-2.424 1.29.473-.376 1.067-.597 1.77-.572 3.038.108 2.89 3.274 2.89 5.532v5.29h3.84v-.64h-3.2v-5.368z"/>
  <path fill="#02B995" d="M5.43 8.058c-.06-1.34 1.137-2.06 2.327-2.1 1.278-.04 2.233.836 2.298 2.1-.075 2.777-4.504 2.792-4.627 0zm4.043 4.728v13.28h-3.68v-13.28h3.68z"/>
  <path fill="#079B7E" d="M5.943 7.403c-.018-.404.082-.75.26-1.038-.526.345-.884.893-.85 1.632.1 2.323 3.243 2.672 4.257 1.073-1.307.854-3.58.304-3.666-1.667z"/>
  <path fill="#134A78" d="M10.792 7.968c0-.044-.004-.084-.012-.12-.143-1.71-1.408-2.76-3.112-2.815-1.74-.058-3.084 1.228-3.152 2.936-.07 1.75 1.49 2.93 3.124 2.93 1.69 0 3.035-1.13 3.143-2.82.007-.04.012-.08.01-.127zm-5.315 0c-.055-1.26 1.07-1.938 2.192-1.976 1.2-.04 2.1.786 2.16 1.976-.07 2.615-4.24 2.628-4.36 0z"/>
  <path fill="#079B7E" d="M6.593 12.786h-.8v13.28h3.68v-.96h-2.88v-12.32z"/>
  <path fill="#134A78" d="M24.068 12.02c-1.33-.548-2.856-.604-4.24-.23-.785.214-1.396.668-2.036 1.237v-.664c0-.262-.182-.538-.444-.538h-4.726c-.257 0-.486.247-.48.51.1 4.74.024 9.48 0 14.222 0 .262.22.468.48.468h4.727c.26 0 .44-.166.44-.428V19.04c0-1.382.48-2.728 2.09-2.792 2.44-.098 1.9 3.68 1.9 5.296v5.054c0 .262.28.428.54.428h4.724c.26 0 .49-.166.49-.428v-8.16c0-2.595-.88-5.343-3.485-6.417zm-4.163 3.268c-1.895-.067-3.03 1.654-3.07 3.366-.015.686-.002 1.374-.002 2.06v5.35h-3.726c.025-4.32.087-8.8.004-13.28h3.73v1.477c.03.34.17.61.49.61h.03c.218 0 .4-.12.46-.32.63-.93 1.43-1.6 2.545-1.9 1.138-.31 2.49-.144 3.55.35 2.098.98 2.69 3.34 2.69 5.45v7.63h-3.84v-5.25c0-2.255.19-5.422-2.85-5.53z"/>
</svg>
