<svg xmlns="http://www.w3.org/2000/svg" viewBox="0 0 32 32" width="100%" height="100%" preserveAspectRatio="none">
  <path fill="#02B995" d="M24.514 12.297c0-2.383-.813-4.355-2.486-6.027C20.36 4.62 18.33 3.784 16 3.784c-2.336 0-4.356.836-6.006 2.486-.496.49-.914 1.006-1.26 1.55-1.566 6.16 4.924 13.217 8.537 17.77l6.09-8.954c.77-1.29 1.16-2.75 1.16-4.34z"/>
  <path fill="#079B7E" d="M8.734 7.82c-.836 1.313-1.24 2.79-1.226 4.472 0 1.568.36 2.954 1.1 4.243l.028.038c.038.055.09.13.144.22l7.062 10.9 1.43-2.103c-3.615-4.552-10.105-11.61-8.54-17.77z"/>
  <path fill="#134A78" d="M15.83 29.51h-.008c-.217 0-.418-.112-.536-.294l-7.598-11.73-.012-.018c-.033-.056-.07-.107-.103-.156l-.052-.076-.02-.034c-.85-1.475-1.28-3.125-1.28-4.904-.02-2.704.94-5.043 2.87-6.945 1.9-1.898 4.23-2.862 6.92-2.862 2.68 0 5.02.97 6.94 2.87 1.91 1.91 2.87 4.24 2.87 6.95 0 1.84-.45 3.52-1.35 5.02l-.02.03-8.07 11.88c-.12.18-.32.29-.53.29zM8.78 16.793l7.062 10.902 7.51-11.057c.772-1.29 1.162-2.75 1.162-4.34 0-2.382-.813-4.353-2.486-6.026C20.36 4.622 18.33 3.786 16 3.786c-2.336 0-4.356.836-6.006 2.486C8.3 7.945 7.488 9.914 7.508 12.294c0 1.568.36 2.954 1.1 4.243l.028.038c.038.055.09.13.144.22z"/>
  <path fill="#134A78" d="M16 17.18c-1.385 0-2.584-.496-3.56-1.473l-.007-.006c-.974-.99-1.468-2.2-1.468-3.57 0-1.38.495-2.58 1.47-3.56.98-1 2.18-1.5 3.565-1.47 1.374-.02 2.583.48 3.583 1.48.978.98 1.474 2.178 1.474 3.56 0 1.378-.494 2.58-1.468 3.58l-.02.014c-1 .974-2.2 1.468-3.58 1.468zm-2.643-2.385c.736.734 1.6 1.09 2.643 1.09 1.038 0 1.91-.357 2.667-1.093.737-.758 1.095-1.63 1.095-2.668 0-1.044-.358-1.91-1.095-2.646-.756-.756-1.625-1.114-2.656-1.095h-.02c-1.03-.018-1.89.337-2.63 1.09v.005c-.73.737-1.09 1.602-1.09 2.646 0 1.04.36 1.912 1.1 2.67z"/>
  <path fill="#E4E6E8" d="M12.26 12.124v.006c0-.524.09-1.003.27-1.444-.18.44-.27.917-.27 1.44z"/>
  <path fill="#C9CACB" d="M13.36 9.473c.163-.167.333-.313.51-.442.01-.01.017-.02.028-.04-.18.13-.352.28-.52.45l-.005.01c-.378.38-.657.79-.842 1.24.19-.44.46-.84.83-1.2h.01z"/>
  <path fill="#E4E6E8" d="M17.72 10.322c-.747-.747-1.626-1.11-2.687-1.11-.707 0-1.336.168-1.907.5-.58.698-.866 1.49-.866 2.413 0 1.044.358 1.918 1.095 2.655.756.756 1.625 1.103 2.656 1.103h.03c.81 0 1.51-.208 2.12-.656.46-.632.69-1.354.69-2.184 0-1.056-.36-1.95-1.11-2.72z"/>
  <path fill="#C9CACB" d="M16.022 8.363c-1.038 0-1.91.358-2.667 1.094-.08.084-.156.17-.23.256.572-.333 1.202-.5 1.908-.5 1.06 0 1.94.362 2.688 1.11.76.77 1.12 1.66 1.12 2.715 0 .83-.23 1.548-.68 2.18.18-.128.35-.275.51-.442l.01-.006c.37-.368.64-.77.83-1.207.18-.44.27-.92.27-1.444 0-1.04-.36-1.91-1.095-2.67-.735-.74-1.6-1.09-2.642-1.09z"/>
</svg>
