<?xml version="1.0" encoding="utf-8"?>
<!-- Generated by IcoMoon.io -->
<!DOCTYPE svg PUBLIC "-//W3C//DTD SVG 1.1//EN" "http://www.w3.org/Graphics/SVG/1.1/DTD/svg11.dtd">
<svg version="1.1" xmlns="http://www.w3.org/2000/svg" xmlns:xlink="http://www.w3.org/1999/xlink" width="100%" height="100%" viewBox="0 0 32 32">
<path fill="rgb(2, 185, 149)" d="M24.514 12.297c0-2.383-0.813-4.355-2.486-6.027-1.668-1.649-3.697-2.486-6.028-2.486-2.336 0-4.356 0.836-6.006 2.486-0.496 0.49-0.914 1.006-1.26 1.55-1.566 6.159 4.924 13.217 8.537 17.77l6.082-8.954c0.771-1.291 1.161-2.75 1.161-4.339z"></path>
<path fill="rgb(7, 155, 126)" d="M8.734 7.82c-0.836 1.313-1.24 2.789-1.226 4.472 0 1.568 0.36 2.954 1.101 4.243 0.008 0.012 0.017 0.025 0.027 0.038 0.038 0.055 0.091 0.13 0.144 0.219l7.062 10.902 1.429-2.104c-3.613-4.552-10.103-11.611-8.537-17.77z"></path>
<path fill="rgb(19, 74, 120)" d="M15.829 29.511c-0.002 0-0.005 0-0.007 0-0.217-0.002-0.418-0.113-0.536-0.295l-7.598-11.729c-0.004-0.006-0.008-0.013-0.012-0.019-0.033-0.056-0.069-0.107-0.103-0.156-0.019-0.028-0.037-0.053-0.052-0.076-0.008-0.011-0.015-0.023-0.021-0.034-0.853-1.475-1.286-3.125-1.286-4.904-0.023-2.704 0.942-5.043 2.868-6.945 1.898-1.898 4.227-2.862 6.919-2.862 2.683 0 5.018 0.963 6.94 2.862 1.904 1.904 2.868 4.24 2.868 6.945 0 1.833-0.456 3.522-1.355 5.020-0.006 0.010-0.013 0.021-0.020 0.031l-8.069 11.879c-0.12 0.177-0.321 0.284-0.535 0.284zM8.78 16.792l7.062 10.902 7.511-11.057c0.771-1.291 1.161-2.75 1.161-4.339 0-2.383-0.813-4.354-2.486-6.027-1.668-1.649-3.697-2.486-6.028-2.486-2.336 0-4.356 0.836-6.006 2.486-1.694 1.673-2.506 3.642-2.486 6.022 0 1.568 0.36 2.954 1.101 4.243 0.008 0.012 0.017 0.025 0.027 0.038 0.038 0.055 0.091 0.13 0.144 0.219z"></path>
<path fill="rgb(19, 74, 120)" d="M16 17.18c-1.385 0-2.584-0.496-3.561-1.473-0.002-0.002-0.004-0.004-0.006-0.006-0.974-0.999-1.468-2.202-1.468-3.577 0-1.383 0.495-2.58 1.471-3.558 0.978-1.002 2.179-1.499 3.564-1.477 1.374-0.022 2.583 0.474 3.583 1.474 0.978 0.978 1.474 2.176 1.474 3.561 0 1.375-0.494 2.578-1.468 3.577-0.004 0.004-0.008 0.008-0.011 0.011-0.998 0.974-2.202 1.468-3.577 1.468zM13.357 14.795c0.736 0.734 1.6 1.091 2.643 1.091 1.038 0 1.91-0.358 2.667-1.094 0.737-0.758 1.095-1.63 1.095-2.668 0-1.044-0.358-1.909-1.095-2.646-0.756-0.756-1.625-1.114-2.656-1.095-0.008 0-0.015 0-0.023 0-1.035-0.018-1.895 0.337-2.629 1.089-0.002 0.002-0.004 0.004-0.005 0.006-0.737 0.737-1.095 1.602-1.095 2.646-0 1.039 0.359 1.912 1.097 2.671z"></path>
<path fill="rgb(228, 230, 232)" d="M12.26 12.124c0 0.002 0 0.004 0 0.006 0.001-0.524 0.090-1.003 0.271-1.444-0.182 0.439-0.271 0.917-0.271 1.439z"></path>
<path fill="rgb(201, 202, 203)" d="M13.36 9.473c0.163-0.167 0.333-0.313 0.509-0.442 0.010-0.014 0.018-0.028 0.029-0.042-0.18 0.131-0.352 0.28-0.519 0.45-0.002 0.002-0.004 0.004-0.006 0.006-0.378 0.378-0.657 0.79-0.842 1.241 0.182-0.439 0.455-0.839 0.823-1.207 0.002-0.002 0.004-0.004 0.006-0.006z"></path>
<path fill="rgb(228, 230, 232)" d="M17.721 10.322c-0.748-0.747-1.627-1.11-2.688-1.11-0.707 0-1.336 0.168-1.907 0.501-0.581 0.697-0.866 1.489-0.866 2.412 0 1.044 0.358 1.918 1.095 2.655 0.756 0.756 1.625 1.103 2.656 1.103 0.008 0 0.015 0 0.023 0 0.805 0 1.504-0.208 2.12-0.656 0.456-0.632 0.684-1.354 0.684-2.184 0-1.056-0.365-1.949-1.116-2.72z"></path>
<path fill="rgb(201, 202, 203)" d="M16.022 8.363c-1.038 0-1.91 0.358-2.667 1.094-0.081 0.084-0.156 0.169-0.229 0.256 0.571-0.333 1.201-0.501 1.907-0.501 1.061 0 1.94 0.363 2.688 1.11 0.751 0.771 1.116 1.66 1.116 2.716 0 0.83-0.228 1.548-0.684 2.18 0.176-0.128 0.346-0.275 0.509-0.442 0.002-0.002 0.004-0.004 0.005-0.006 0.368-0.368 0.642-0.769 0.823-1.207 0.181-0.441 0.27-0.921 0.271-1.444-0.001-1.036-0.36-1.908-1.097-2.665-0.736-0.735-1.6-1.092-2.643-1.092z"></path>
</svg>
