<svg xmlns="http://www.w3.org/2000/svg" viewBox="0 0 32 32" width="100%" height="100%" preserveAspectRatio="none">
  <path fill="#02B995" d="M9.646 27.31l-4.91-4.914L20.408 6.724l4.915 4.91z"/>
  <path fill="#E4E6E8" d="M4.69 27.584v-3.99l3.995 3.996z"/>
  <path fill="#C9CACB" d="M7.655 27.705H8.73L4.574 23.55l.002 4.15h.612v-2.623z"/>
  <path fill="#E4E6E8" d="M26.01 11.442l-5.075-5.388L22 5.31l5.07 4.912z"/>
  <path fill="#C9CACB" d="M25.937 9.51l-.718.715.86.865.742-.74z"/>
  <path fill="#079B7E" d="M24.538 10.88L9.645 25.77l-4.127-4.288-.945 1.105 5.23 4.914 15.68-15.67z"/>
  <path fill="#02B995" d="M27.4 9.664l-4.867-4.87c1.325-1.02 3.362-.897 4.566.3 1.24 1.244 1.34 3.208.3 4.57z"/>
  <path fill="#079B7E" d="M27.222 4.917c-.88-.875-2.206-1.174-3.373-.873.772.078 1.53.4 2.1.967.994 1 1.096 2.62.627 3.86l.942.94c1.042-1.36.94-3.644-.303-4.89z"/>
  <path fill="#134A78" d="M21.564 4.45l-1.388 1.388h-.004c-.002.003 0 .004-.002.005L3.85 22.163c-.086.082-.134.196-.134.322v5.557c0 .253.208.46.46.46l5.557.003c.127 0 .24-.052.324-.134l17.718-17.71c1.71-1.71 1.71-4.5 0-6.21-1.66-1.66-4.555-1.653-6.21.005zM4.634 27.583l-.003-3.99 4 3.997-3.99-.006zM9.73 27.4l-4.91-4.915L20.494 6.813l4.916 4.91L9.733 27.397zm16.326-16.326l-4.914-4.908.745-.744 4.91 4.91-.743.742zm1.368-1.41l-4.868-4.87c1.325-1.02 3.362-.897 4.566.3 1.24 1.244 1.344 3.208.302 4.57z"/>
</svg>
