<svg xmlns="http://www.w3.org/2000/svg" viewBox="0 0 32 32" width="100%" height="100%" preserveAspectRatio="none">
  <path fill="#E4E6E8" d="M25.085 25.038c-2.533 2.51-5.504 3.743-9.084 3.766-3.6-.023-6.57-1.254-9.08-3.764-.786-.786-1.473-1.658-2.04-2.59-.904-1.497-1.44-3.088-1.637-4.872-.058-.47-.086-1-.086-1.62 0-3.6 1.23-6.57 3.766-9.085C9.43 4.34 12.4 3.11 16 3.11c3.58 0 6.55 1.23 9.085 3.766 2.532 2.51 3.763 5.48 3.763 9.08 0 3.58-1.23 6.55-3.763 9.082z"/>
  <path fill="#134A78" d="M25.942 6.057c-2.735-2.734-6.08-4.12-9.942-4.12-3.886 0-7.23 1.386-9.94 4.118C3.323 8.767 1.936 12.113 1.936 16c0 .67.032 1.25.096 1.763.214 1.927.82 3.73 1.805 5.363.62 1.015 1.366 1.962 2.22 2.817 2.71 2.71 6.054 4.097 9.94 4.12h.008c3.86-.023 7.204-1.41 9.938-4.12 2.734-2.734 4.12-6.08 4.12-9.942 0-3.884-1.387-7.23-4.12-9.94zm-.92 18.96c-2.516 2.494-5.466 3.717-9.02 3.74-3.578-.022-6.528-1.245-9.02-3.738-.78-.784-1.464-1.65-2.027-2.57-.897-1.49-1.428-3.07-1.625-4.84-.058-.468-.087-.994-.087-1.61 0-3.576 1.222-6.526 3.74-9.02C9.476 4.464 12.426 3.242 16 3.242c3.552 0 6.503 1.223 9.02 3.74 2.514 2.493 3.736 5.442 3.736 9.017 0 3.556-1.223 6.506-3.736 9.02z"/>
  <path fill="#134A78" d="M23.15 15.713h-6.36V9.398c0-.36-.292-.653-.653-.653s-.653.292-.653.653v6.315h-6.27c-.36 0-.652.292-.652.653s.292.653.653.653h6.27v6.312c0 .36.29.653.652.653s.653-.292.653-.653V17.02h6.36c.362 0 .654-.293.654-.654s-.292-.653-.653-.653z"/>
</svg>
