<?xml version="1.0" encoding="utf-8"?>
<!-- Generated by IcoMoon.io -->
<!DOCTYPE svg PUBLIC "-//W3C//DTD SVG 1.1//EN" "http://www.w3.org/Graphics/SVG/1.1/DTD/svg11.dtd">
<svg version="1.1" xmlns="http://www.w3.org/2000/svg" xmlns:xlink="http://www.w3.org/1999/xlink" width="100%" height="100%" viewBox="0 0 32 32">
<path fill="rgb(2, 185, 149)" d="M9.646 27.31l-4.911-4.914 15.674-15.672 4.916 4.909z"></path>
<path fill="rgb(228, 230, 232)" d="M4.691 27.584l-0.002-3.99 3.996 3.996z"></path>
<path fill="rgb(201, 202, 203)" d="M7.655 27.705l1.075 0.001-4.156-4.156 0.002 4.15 0.612 0.001-0.001-2.624z"></path>
<path fill="rgb(228, 230, 232)" d="M26.009 11.442l-5.074-5.388 1.065-0.744 5.071 4.912z"></path>
<path fill="rgb(201, 202, 203)" d="M25.937 9.509l-0.718 0.716 0.866 0.865 0.743-0.741z"></path>
<path fill="rgb(7, 155, 126)" d="M24.538 10.879l-14.893 14.891-4.127-4.288-0.945 1.105 5.231 4.914 15.679-15.676z"></path>
<path fill="rgb(2, 185, 149)" d="M27.401 9.664l-4.868-4.87c1.325-1.021 3.362-0.897 4.566 0.299 1.241 1.245 1.344 3.209 0.302 4.57z"></path>
<path fill="rgb(7, 155, 126)" d="M27.222 4.917c-0.881-0.875-2.206-1.174-3.373-0.873 0.779 0.078 1.536 0.401 2.107 0.967 0.994 0.997 1.096 2.614 0.627 3.854l0.942 0.942c1.043-1.362 0.94-3.646-0.302-4.891z"></path>
<path fill="rgb(19, 74, 120)" d="M21.564 4.449l-1.388 1.389c-0.002 0.001-0.002 0-0.004 0.001-0.002 0.002 0 0.003-0.002 0.004l-16.321 16.319c-0.085 0.083-0.133 0.197-0.133 0.323v5.557c0 0.253 0.208 0.459 0.459 0.459l5.558 0.004c0.127 0 0.24-0.052 0.324-0.134l17.718-17.713c1.709-1.713 1.709-4.499 0-6.213-1.661-1.658-4.555-1.655-6.21 0.003zM4.633 27.584l-0.002-3.99 3.996 3.996-3.993-0.005zM9.732 27.399l-4.911-4.914 15.674-15.672 4.916 4.909-15.679 15.676zM26.058 11.074l-4.914-4.908 0.745-0.744 4.911 4.911-0.743 0.741zM27.426 9.664l-4.868-4.87c1.325-1.021 3.362-0.897 4.566 0.299 1.241 1.245 1.344 3.209 0.302 4.57z"></path>
</svg>
