<?xml version="1.0" encoding="utf-8"?>
<!-- Generated by IcoMoon.io -->
<!DOCTYPE svg PUBLIC "-//W3C//DTD SVG 1.1//EN" "http://www.w3.org/Graphics/SVG/1.1/DTD/svg11.dtd">
<svg version="1.1" xmlns="http://www.w3.org/2000/svg" xmlns:xlink="http://www.w3.org/1999/xlink" width="100%" height="100%" viewBox="0 0 32 32">
<path fill="rgb(228, 230, 232)" d="M25.085 25.038c-2.533 2.511-5.504 3.743-9.084 3.766-3.602-0.023-6.573-1.254-9.083-3.764-0.786-0.786-1.473-1.658-2.041-2.59-0.903-1.497-1.438-3.088-1.636-4.872-0.059-0.469-0.087-0.999-0.087-1.62 0-3.6 1.231-6.571 3.766-9.085 2.51-2.532 5.481-3.763 9.081-3.763 3.578 0 6.549 1.231 9.084 3.766 2.532 2.51 3.763 5.481 3.763 9.081 0 3.579-1.231 6.55-3.763 9.081z"></path>
<path fill="rgb(19, 74, 120)" d="M25.942 6.057c-2.735-2.734-6.080-4.121-9.942-4.121-3.886 0-7.231 1.387-9.941 4.119-2.735 2.712-4.122 6.058-4.122 9.945 0 0.671 0.032 1.251 0.096 1.763 0.214 1.927 0.821 3.731 1.805 5.363 0.619 1.015 1.366 1.962 2.22 2.817 2.71 2.71 6.054 4.097 9.939 4.121 0.001 0 0.003 0 0.004 0s0.003 0 0.004 0c3.861-0.024 7.204-1.41 9.938-4.121 2.734-2.734 4.12-6.079 4.12-9.942 0-3.887-1.387-7.233-4.12-9.943zM25.021 25.017c-2.515 2.494-5.465 3.717-9.020 3.741-3.577-0.023-6.527-1.246-9.019-3.739-0.781-0.781-1.464-1.647-2.027-2.57-0.897-1.487-1.428-3.067-1.625-4.838-0.058-0.467-0.087-0.993-0.087-1.61 0-3.575 1.222-6.525 3.74-9.021 2.493-2.514 5.443-3.736 9.017-3.736 3.552 0 6.503 1.223 9.020 3.74 2.514 2.493 3.736 5.442 3.736 9.017 0 3.554-1.223 6.504-3.736 9.017z"></path>
<path fill="rgb(19, 74, 120)" d="M23.151 15.713h-6.361v-6.315c0-0.361-0.292-0.653-0.653-0.653s-0.653 0.292-0.653 0.653v6.315h-6.269c-0.361 0-0.653 0.292-0.653 0.653s0.292 0.653 0.653 0.653h6.269v6.315c0 0.361 0.292 0.653 0.653 0.653s0.653-0.292 0.653-0.653v-6.315h6.361c0.361 0 0.653-0.292 0.653-0.653s-0.292-0.653-0.653-0.653z"></path>
</svg>
