<svg xmlns="http://www.w3.org/2000/svg" viewBox="0 0 32 32" width="100%" height="100%" preserveAspectRatio="none">
  <path fill="#E4E6E8" d="M25.084 25.05C22.55 27.56 19.58 28.793 16 28.816c-3.602-.023-6.573-1.254-9.083-3.764-.786-.786-1.473-1.658-2.04-2.59-.904-1.497-1.44-3.088-1.637-4.872-.06-.47-.087-1-.087-1.62 0-3.6 1.23-6.57 3.766-9.085C9.43 4.353 12.4 3.122 16 3.122c3.578 0 6.55 1.23 9.084 3.766 2.532 2.51 3.763 5.48 3.763 9.08 0 3.58-1.23 6.55-3.763 9.082z"/>
  <path fill="#134A78" d="M25.857 25.88c1.895-1.893 3.15-4.09 3.73-6.53.002-.002.002-.005.003-.01.224-1.01.35-2.13.373-3.327v-.016c-.024-3.697-1.295-6.903-3.78-9.528l-.012-.02-.31-.31c-2.71-2.736-6.03-4.11-9.85-4.087-3.85-.024-7.175 1.35-9.884 4.083C3.41 8.853 2.036 12.17 2.036 16c0 3.846 1.374 7.17 4.084 9.88 2.706 2.71 6.03 4.085 9.88 4.085 3.83 0 7.145-1.374 9.854-4.083zm-18.85-.885C4.504 22.493 3.287 19.55 3.287 16c0-3.485 1.25-6.504 3.72-8.973 2.5-2.52 5.44-3.737 8.995-3.716 3.485-.02 6.5 1.23 8.968 3.72l.308.31c2.254 2.387 3.408 5.3 3.432 8.66-.023 1.11-.138 2.14-.343 3.07-.535 2.24-1.647 4.18-3.397 5.93-2.466 2.467-5.485 3.717-8.97 3.717-3.555 0-6.497-1.214-8.997-3.715z"/>
  <path fill="#134A78" d="M21.933 9.43l-.012-.01c-.65-.642-1.45-.968-2.36-.968-.902 0-1.71.332-2.4.99l-6.89 6.623c-1.09 1.09-1.64 2.256-1.64 3.462 0 1.223.434 2.276 1.29 3.135.877.86 1.938 1.298 3.154 1.298.918 0 1.748-.253 2.474-.757.048-.034.193-.138.996-.92.026-.03.05-.06.073-.09l4.62-4.747c.11-.112.168-.26.166-.417s-.066-.31-.18-.42c-.222-.218-.61-.213-.83.01l-4.68 4.815c-.02.02-.04.043-.056.067-.646.63-.786.737-.786.737-.52.36-1.123.54-1.796.54-.91 0-1.673-.313-2.33-.958-.626-.628-.944-1.402-.944-2.302 0-.88.436-1.766 1.294-2.625l6.88-6.612c.468-.446.988-.663 1.59-.663.6 0 1.11.206 1.54.63.43.43.64.932.64 1.53-.01.575-.2 1.05-.57 1.456l-7.276 7.415c-.273.26-.593.397-.97.407-.395-.01-.7-.14-.963-.4-.273-.273-.4-.58-.4-.97 0-.32.086-.58.264-.8.016-.02.032-.044.046-.067l.04-.055 5.45-5.483c.23-.23.227-.6-.002-.827-.222-.22-.608-.22-.83 0l-5.446 5.487c-.075.074-.136.15-.193.24-.33.425-.5.93-.5 1.507 0 .7.25 1.284.744 1.78.48.473 1.074.72 1.774.72h.028c.69 0 1.29-.246 1.79-.73l7.3-7.426c.577-.62.877-1.373.893-2.25 0-.918-.332-1.713-.98-2.36z"/>
</svg>
