<svg xmlns="http://www.w3.org/2000/svg" viewBox="0 0 32 32" width="100%" height="100%" preserveAspectRatio="none">
  <path fill="#02B995" d="M27.65 29.614H4.293V21.42h6.945l4.416 4.415c.084.085.2.132.32.132.117-.028.242-.05.327-.14l4.2-4.407h7.16v8.19z"/>
  <path fill="#079B7E" d="M5.92 21.44H4.48v8.32h23.68v-1.44H5.92z"/>
  <path fill="#C9CACB" d="M9.236 6.485l14.575.132 3.86 14.35-6.94-.082c-.12 0-.24-.27-.32-.18l-4.33 4.372-4.22-4.38c-.08-.084-.36.028-.48.028l-6.81.16 4.678-14.4z"/>
  <path fill="#E4E6E8" d="M20.63 20.847l3.267-.016-2.276-7.65-9.81-.11-2.61 7.76 2.4.015c.12 0 .403.247.487.33l1.268 1.29c.03.016.377.345.4.37l2.034 2.732 4.4-4.35c.086-.09.333-.355.457-.353z"/>
  <path fill="#D8D8D8" d="M23.57 6.88H8.84l2.967 6.18 9.815.118 1.958-6.27z"/>
  <path fill="#134A78" d="M13.354 15.997c-.173-.172-.45-.172-.623 0s-.17.45 0 .623l2.96 2.958c.09.084.2.13.32.13s.23-.046.31-.13l2.96-2.958c.175-.173.175-.45 0-.623s-.45-.172-.62 0l-2.203 2.207V1.94c0-.243-.197-.44-.44-.44s-.442.197-.442.44v16.264l-2.205-2.207z"/>
  <path fill="#134A78" d="M28.248 21.124c-.004-.023.014-.043.006-.067L23.816 6.68c-.056-.183-.227-.31-.42-.31l-4.435-.005c-.24 0-.44.197-.44.44 0 .244.2.44.44.44l4.11.007 4.17 13.496h-7.01c-.12 0-.23.05-.32.137L16 24.993l-4.116-4.116c-.083-.082-.194-.128-.31-.128h-6.8l4.16-13.5 4.114-.01c.242 0 .44-.2.44-.44 0-.25-.197-.44-.44-.44h-4.44c-.19 0-.36.124-.418.31L3.748 21.06c-.007.023.01.043.006.067-.003.022-.026.038-.026.062v8.87c0 .24.197.44.44.44h23.666c.243 0 .44-.2.44-.44v-8.87c0-.03-.02-.04-.025-.07zm-.856 8.496H4.608v-7.992h6.774l4.307 4.307c.08.083.19.13.31.13.13 0 .23-.053.32-.14l4.09-4.297h6.98v7.992z"/>
</svg>
