<?xml version="1.0" encoding="utf-8"?>
<!-- Generated by IcoMoon.io -->
<!DOCTYPE svg PUBLIC "-//W3C//DTD SVG 1.1//EN" "http://www.w3.org/Graphics/SVG/1.1/DTD/svg11.dtd">
<svg version="1.1" xmlns="http://www.w3.org/2000/svg" xmlns:xlink="http://www.w3.org/1999/xlink" width="100%" height="100%" viewBox="0 0 32 32">
<path fill="rgb(2, 185, 149)" d="M27.651 29.614h-23.359v-8.195h6.945l4.416 4.416c0.084 0.085 0.199 0.132 0.32 0.132 0.117-0.028 0.242-0.051 0.327-0.141l4.195-4.407h7.158v8.195z"></path>
<path fill="rgb(7, 155, 126)" d="M5.919 21.439h-1.44v8.32h23.68v-1.44h-22.24z"></path>
<path fill="rgb(201, 202, 203)" d="M9.236 6.485l14.575 0.132 3.859 14.351-6.939-0.083c-0.124 0-0.242-0.269-0.328-0.179l-4.328 4.371-4.221-4.38c-0.084-0.084-0.359 0.028-0.479 0.028l-6.812 0.16 4.673-14.4z"></path>
<path fill="rgb(228, 230, 232)" d="M20.631 20.847l3.266-0.016-2.276-7.653-9.815-0.117-2.615 7.756 2.395 0.014c0.12 0.001 0.403 0.247 0.487 0.332l1.268 1.289c0.028 0.015 0.375 0.344 0.398 0.368l2.034 2.734 4.399-4.352c0.087-0.090 0.334-0.356 0.458-0.354z"></path>
<path fill="rgb(216, 216, 216)" d="M23.571 6.879h-14.73l2.966 6.182 9.815 0.117 1.958-6.27z"></path>
<path fill="rgb(19, 74, 120)" d="M13.354 15.997c-0.173-0.172-0.451-0.172-0.623 0s-0.172 0.451 0 0.623l2.959 2.958c0.082 0.084 0.195 0.13 0.312 0.13s0.228-0.046 0.312-0.13l2.956-2.958c0.172-0.173 0.172-0.451 0-0.623s-0.451-0.172-0.623 0l-2.204 2.207v-16.265c0-0.242-0.197-0.44-0.441-0.44s-0.441 0.198-0.441 0.44v16.265l-2.207-2.207z"></path>
<path fill="rgb(19, 74, 120)" d="M28.248 21.124c-0.004-0.023 0.014-0.043 0.006-0.067l-4.438-14.377c-0.056-0.183-0.227-0.309-0.419-0.309l-4.436-0.006c-0.001 0-0.001 0-0.001 0-0.243 0-0.44 0.197-0.44 0.441 0 0.243 0.197 0.44 0.439 0.44l4.112 0.006 4.166 13.496h-7.014c-0.121 0-0.236 0.049-0.32 0.137l-3.909 4.108-4.117-4.116c-0.083-0.082-0.194-0.128-0.311-0.128h-6.8l4.164-13.496 4.113-0.006c0.242 0 0.44-0.197 0.44-0.44 0-0.244-0.197-0.441-0.44-0.441 0 0 0 0-0.001 0l-4.438 0.006c-0.192 0-0.362 0.126-0.419 0.312l-4.437 14.376c-0.007 0.023 0.010 0.043 0.006 0.067-0.003 0.022-0.026 0.038-0.026 0.062v8.874c0 0.242 0.197 0.44 0.44 0.44h23.666c0.243 0 0.441-0.198 0.441-0.44v-8.874c0-0.024-0.022-0.040-0.026-0.064zM27.392 29.62h-22.784v-7.992h6.774l4.307 4.307c0.083 0.083 0.194 0.129 0.311 0.129 0.13 0.001 0.237-0.052 0.32-0.138l4.091-4.298h6.982v7.992z"></path>
</svg>
