<?xml version="1.0" encoding="utf-8"?>
<!-- Generated by IcoMoon.io -->
<!DOCTYPE svg PUBLIC "-//W3C//DTD SVG 1.1//EN" "http://www.w3.org/Graphics/SVG/1.1/DTD/svg11.dtd">
<svg version="1.1" xmlns="http://www.w3.org/2000/svg" xmlns:xlink="http://www.w3.org/1999/xlink" width="100%" height="100%" viewBox="0 0 32 32">
<path fill="rgb(2, 185, 149)" d="M15.946 19.83c1.219 0 2.211-0.99 2.211-2.208v-2.664h10.359v11.826h-24.977v-11.826l10.359-0.16v2.824c-0 1.217 0.831 2.208 2.048 2.208z"></path>
<path fill="rgb(228, 230, 232)" d="M14.817 14.366c0-0.62 0.505-1.124 1.126-1.124 0.622 0 1.128 0.504 1.128 1.124v3.506c0 0.619-0.506 1.123-1.128 1.123-0.621 0-1.126-0.504-1.126-1.123v-3.506z"></path>
<path fill="rgb(7, 155, 126)" d="M12.507 18.739c0 1.217 0.966 2.208 2.184 2.208 0.868 0 1.606-0.503 1.968-1.232-0.22 0.074-0.437 0.115-0.681 0.115-1.218 0-2.19-0.99-2.19-2.208v-2.769h-10.24v1.28h8.96v2.605z"></path>
<path fill="rgb(7, 155, 126)" d="M28.347 14.853h-10.24v1.28h8.96v10.72h1.44z"></path>
<path fill="rgb(201, 202, 203)" d="M15.387 16.582v-3.112c-0.32 0.18-0.48 0.517-0.48 0.904v3.247c0 0.574 0.464 1.040 1.039 1.040 0.576 0 1.041-0.467 1.041-1.040v-0.137c-0.16 0.087-0.349 0.138-0.537 0.138-0.575-0-1.063-0.467-1.063-1.040z"></path>
<path fill="rgb(2, 185, 149)" d="M17.645 12.948c-0.053-0.065-0.108-0.132-0.175-0.194-0.141-0.129-0.301-0.221-0.44-0.297-0.024-0.013-0.048-0.028-0.071-0.042-0.049-0.030-0.1-0.062-0.16-0.086-0.276-0.109-0.54-0.162-0.805-0.162s-0.535 0.054-0.806 0.162c-0.059 0.024-0.107 0.053-0.153 0.082-0.024 0.015-0.047 0.029-0.072 0.043-0.129 0.069-0.296 0.166-0.445 0.3-0.063 0.058-0.114 0.121-0.163 0.182l-0.031 0.038c-0.117 0.138-0.208 0.272-0.277 0.41-0.051 0.099-0.090 0.194-0.121 0.288-0.007 0.022-0.019 0.046-0.031 0.071-0.007 0.015-0.015 0.031-0.023 0.047h-10.286v-5.329h24.817v5.329h-10.286c-0.008-0.018-0.017-0.036-0.025-0.052-0.012-0.024-0.024-0.047-0.030-0.065-0.032-0.099-0.070-0.193-0.117-0.289-0.074-0.142-0.162-0.272-0.278-0.408l-0.023-0.028z"></path>
<path fill="rgb(19, 74, 120)" d="M28.993 7.293h-5.914v-2.661c0-0.322-0.262-0.584-0.584-0.584h-12.989c-0.322 0-0.584 0.262-0.584 0.584v2.661h-5.914c-0.322 0-0.584 0.262-0.584 0.584v19.492c0 0.321 0.262 0.583 0.584 0.583h25.986c0.322 0 0.584-0.261 0.584-0.583v-19.492c0-0.322-0.262-0.584-0.584-0.584zM10.087 7.293v-2.078h11.824v2.078h-11.824zM15.999 19.83c1.219 0 2.211-0.99 2.211-2.208v-2.664h10.199v11.826h-24.817v-11.826h10.199v2.664c0 1.217 0.991 2.208 2.209 2.208zM14.956 14.375c0-0.574 0.468-1.042 1.043-1.042 0.576 0 1.045 0.467 1.045 1.042v3.247c0 0.574-0.469 1.040-1.045 1.040-0.575 0-1.043-0.467-1.043-1.040v-3.247zM17.65 12.948c-0.053-0.065-0.108-0.132-0.175-0.194-0.141-0.129-0.301-0.221-0.44-0.297-0.024-0.013-0.048-0.028-0.071-0.042-0.049-0.030-0.1-0.062-0.16-0.086-0.276-0.109-0.54-0.162-0.805-0.162s-0.535 0.054-0.806 0.162c-0.059 0.024-0.107 0.053-0.153 0.082-0.024 0.015-0.047 0.029-0.072 0.043-0.129 0.069-0.296 0.166-0.445 0.3-0.063 0.058-0.114 0.121-0.163 0.182l-0.031 0.038c-0.117 0.138-0.208 0.272-0.277 0.41-0.051 0.099-0.090 0.194-0.121 0.288-0.007 0.022-0.019 0.046-0.031 0.071-0.007 0.015-0.015 0.031-0.023 0.047h-10.286v-5.329h24.817v5.329h-10.286c-0.008-0.018-0.017-0.036-0.025-0.052-0.012-0.024-0.024-0.047-0.030-0.065-0.032-0.099-0.070-0.193-0.117-0.289-0.074-0.142-0.162-0.272-0.278-0.408l-0.023-0.028z"></path>
</svg>
