<svg xmlns="http://www.w3.org/2000/svg" viewBox="0 0 32 32" width="100%" height="100%" preserveAspectRatio="none">
  <path fill="#02B995" d="M15.946 19.83c1.22 0 2.21-.99 2.21-2.208v-2.664h10.36v11.826H3.54V14.958l10.358-.16v2.824c0 1.217.83 2.208 2.048 2.208z"/>
  <path fill="#E4E6E8" d="M14.817 14.366c0-.62.505-1.124 1.126-1.124.622 0 1.128.504 1.128 1.124v3.506c0 .62-.5 1.123-1.12 1.123-.62 0-1.12-.504-1.12-1.123v-3.506z"/>
  <path fill="#079B7E" d="M12.507 18.74c0 1.216.966 2.207 2.184 2.207.87 0 1.61-.503 1.97-1.232-.22.074-.43.115-.68.115-1.22 0-2.19-.99-2.19-2.208v-2.77H3.55v1.28h8.96v2.606zm15.84-3.887h-10.24v1.28h8.96v10.72h1.44z"/>
  <path fill="#C9CACB" d="M15.387 16.582V13.47c-.32.18-.48.517-.48.904v3.247c0 .58.464 1.04 1.04 1.04.575 0 1.04-.46 1.04-1.04v-.13c-.16.09-.35.14-.537.14-.575 0-1.063-.462-1.063-1.04z"/>
  <path fill="#02B995" d="M17.645 12.948c-.053-.065-.108-.132-.175-.194-.14-.13-.3-.22-.44-.297-.024-.013-.048-.028-.07-.042-.05-.03-.1-.062-.16-.086-.277-.11-.54-.17-.806-.17s-.535.05-.806.16c-.06.02-.107.05-.153.08-.024.012-.047.03-.072.04-.13.07-.296.166-.445.3-.063.06-.114.12-.163.182l-.03.037c-.118.14-.21.274-.278.41-.05.1-.09.196-.12.29-.008.02-.02.046-.032.07l-.023.05H3.586V8.46h24.817v5.33H18.117l-.025-.052c-.012-.024-.024-.047-.03-.065-.032-.1-.07-.193-.117-.29-.074-.14-.162-.27-.278-.407l-.023-.028z"/>
  <path fill="#134A78" d="M28.993 7.293H23.08v-2.66c0-.323-.263-.585-.585-.585H9.505c-.32 0-.583.262-.583.584v2.66H3.008c-.322 0-.584.263-.584.585V27.37c0 .32.262.582.584.582h25.986c.322 0 .584-.26.584-.583V7.87c0-.322-.262-.584-.584-.584zm-18.906 0V5.215H21.91v2.078H10.088zM16 19.83c1.218 0 2.21-.99 2.21-2.208v-2.664h10.2v11.826H3.59V14.958h10.2v2.664c0 1.217.99 2.208 2.208 2.208zm-1.044-5.455c0-.574.468-1.042 1.043-1.042s1.04.467 1.04 1.042v3.247c0 .574-.47 1.04-1.05 1.04-.58 0-1.048-.467-1.048-1.04v-3.247zm2.694-1.427c-.053-.065-.108-.132-.175-.194-.14-.13-.3-.22-.44-.297-.024-.013-.048-.028-.07-.042-.05-.03-.1-.062-.16-.086-.277-.11-.54-.17-.806-.17s-.54.05-.81.16c-.06.02-.11.05-.16.08l-.076.04c-.13.07-.296.166-.445.3-.064.06-.115.12-.164.182l-.03.037c-.12.14-.21.274-.28.41-.05.1-.09.196-.12.29-.007.02-.02.046-.03.07l-.024.05H3.59V8.46h24.82v5.33H18.122l-.025-.052c-.012-.024-.024-.047-.03-.065-.032-.1-.07-.193-.117-.29-.074-.14-.162-.27-.278-.407l-.023-.028z"/>
</svg>
