<svg xmlns="http://www.w3.org/2000/svg" viewBox="0 0 32 32" width="100%" height="100%" preserveAspectRatio="none">
  <path fill="#E4E6E8" d="M18.255 5.064H8.022v18.593l11.67 2.28c.003-.052.01-.426.01-.482V6.34c0-.962-.414-1.275-1.447-1.275z"/>
  <path fill="#C9CACB" d="M8.183 5.064H6.4c-.96 0-1.257.386-1.257 1.344v19.04c0 .958.298 1.376 1.256 1.376h11.77c.9 0 1.11-.354 1.15-1.193L8.18 23.66V5.067z"/>
  <path fill="#134A78" d="M19.647 19.858c-.303 0-.548.245-.548.548v5.05c0 .954-.38 1.325-1.33 1.325H6.55c-.95 0-1.322-.37-1.322-1.32V6.54c0-.952.37-1.323 1.323-1.323h11.23c.96 0 1.33.37 1.33 1.32v5.445c0 .303.25.548.55.548s.55-.245.55-.548v-5.44c0-1.56-.86-2.42-2.42-2.42H6.55c-1.56 0-2.418.86-2.418 2.42v18.915c0 1.56.86 2.42 2.42 2.42h11.224c1.56 0 2.42-.86 2.42-2.42v-5.05c0-.304-.246-.55-.55-.55z"/>
  <path fill="#134A78" d="M27.318 15.368H11.81l3.396-3.366c.215-.213.216-.56.003-.775s-.56-.216-.78-.003l-4.34 4.303-.01.01-.01.005-.01.012-.02.014-.01.01c-.01.005-.01.012-.02.02l-.01.013-.01.02-.01.02-.01.02-.007.01-.01.02c0 .01-.006.01-.008.02l-.007.01-.01.02c0 .01 0 .01-.004.02v.01l-.01.03-.006.016v.01c0 .01 0 .018-.002.026l-.002.016v.12c0 .01.005.016.006.024v.03c0 .003 0 .01.005.02l.004.02v.01l.007.02.01.02s.004.004.005.01l.01.02.01.02.004.01.01.02.01.013.004.008.017.02.015.02.003.01.02.02h.004l.01.01.01.01.004.01 4.66 4.36c.102.093.24.14.37.14.15 0 .294-.06.4-.173.21-.22.197-.567-.024-.774l-3.646-3.41H27.3c.304 0 .55-.244.55-.55s-.246-.55-.55-.55z"/>
</svg>
