<svg xmlns="http://www.w3.org/2000/svg" viewBox="0 0 32 32" width="100%" height="100%" preserveAspectRatio="none">
  <path fill="#C9CACB" d="M9.086 6.776l14.575.132L28 20.778l-7.42.078c-.123 0-.24.05-.327.14l-4.008 4.212-4.22-4.22c-.085-.084-.2-.132-.32-.132H4.733l4.353-14.08z"/>
  <path fill="#D8D8D8" d="M23.41 7.04H8.876l2.932 6.18 9.815.118 1.516-6.3z"/>
  <path fill="#02B995" d="M27.65 29.774H4.293V21.58h7.265l4.096 3.935c.084.085.2.452.32.452.117-.028.242-.21.327-.3l4.04-4.408 7.32.32v8.19z"/>
  <path fill="#079B7E" d="M5.92 21.6l-1.628-.02.027 8.34h23.84v-1.44H5.92z"/>
  <path fill="#E4E6E8" d="M20.63 21.007l3.267-.016-2.276-7.65-9.81-.11-2.45 7.597 2.396.014c.12 0 .243.088.327.173l1.588 1.61c.03.014.057.023.08.047l2.673 2.73 3.76-4.033c.086-.09.333-.356.457-.354z"/>
  <path fill="#134A78" d="M28.247 21.124c-.004-.023.014-.043.006-.067L23.815 6.68c-.056-.183-.227-.31-.42-.31l-4.435-.005c-.244 0-.44.197-.44.44 0 .244.196.44.438.44l4.112.007 4.166 13.496h-7.014c-.12 0-.236.05-.32.137l-3.91 4.108-4.116-4.116c-.083-.082-.194-.128-.31-.128h-6.8l4.162-13.5 4.112-.01c.242 0 .44-.2.44-.44 0-.247-.197-.44-.44-.44l-4.44.01c-.19 0-.36.122-.418.31L3.747 21.06c-.007.023.01.043.006.067-.003.022-.026.038-.026.062v8.87c0 .24.197.44.44.44h23.666c.243 0 .44-.2.44-.44v-8.87c0-.03-.02-.04-.025-.07zm-.855 8.496H4.608v-7.992h6.774l4.307 4.307c.08.083.19.13.31.13.13 0 .23-.053.32-.14l4.09-4.297h6.98v7.992z"/>
  <path fill="#134A78" d="M18.647 5.21c.173.17.45.17.623 0s.172-.452 0-.624l-2.96-2.958c-.08-.084-.194-.13-.31-.13s-.23.046-.313.13L12.73 4.586c-.17.173-.17.45 0 .623s.452.17.624 0L15.558 3v16.265c0 .242.197.44.44.44s.442-.198.442-.44V3.002l2.207 2.207z"/>
</svg>
