<?xml version="1.0" encoding="utf-8"?>
<!-- Generated by IcoMoon.io -->
<!DOCTYPE svg PUBLIC "-//W3C//DTD SVG 1.1//EN" "http://www.w3.org/Graphics/SVG/1.1/DTD/svg11.dtd">
<svg version="1.1" xmlns="http://www.w3.org/2000/svg" xmlns:xlink="http://www.w3.org/1999/xlink" width="100%" height="100%" viewBox="0 0 32 32">
<path fill="rgb(228, 230, 232)" d="M18.255 5.064h-10.233v18.593l11.67 2.28c0.003-0.052 0.010-0.426 0.010-0.482v-19.115c0-0.962-0.414-1.275-1.447-1.275z"></path>
<path fill="rgb(201, 202, 203)" d="M8.183 5.064h-1.784c-0.958 0-1.256 0.386-1.256 1.344v19.039c0 0.959 0.298 1.377 1.256 1.377h11.779c0.903 0 1.116-0.354 1.158-1.193l-11.152-1.974v-18.593z"></path>
<path fill="rgb(19, 74, 120)" d="M19.647 19.858c-0.303 0-0.548 0.245-0.548 0.548v5.051c0 0.953-0.371 1.324-1.323 1.324h-11.225c-0.952 0-1.323-0.371-1.323-1.324v-18.915c0-0.952 0.371-1.323 1.323-1.323h11.225c0.952 0 1.323 0.371 1.323 1.323v5.445c0 0.303 0.245 0.548 0.548 0.548s0.548-0.245 0.548-0.548v-5.445c0-1.56-0.859-2.419-2.419-2.419h-11.225c-1.56 0-2.419 0.859-2.419 2.419v18.915c0 1.56 0.859 2.42 2.419 2.42h11.225c1.56 0 2.419-0.859 2.419-2.42v-5.051c0-0.303-0.245-0.548-0.548-0.548z"></path>
<path fill="rgb(19, 74, 120)" d="M27.318 15.368h-15.508l3.396-3.366c0.215-0.213 0.216-0.56 0.003-0.775s-0.56-0.216-0.775-0.003l-4.341 4.303c-0 0-0 0.001-0.001 0.001-0.003 0.003-0.005 0.005-0.007 0.008s-0.004 0.004-0.006 0.006-0.007 0.008-0.010 0.012c-0.004 0.005-0.009 0.009-0.013 0.014-0.003 0.003-0.005 0.006-0.007 0.009-0.005 0.006-0.010 0.013-0.015 0.020-0.003 0.005-0.007 0.009-0.010 0.014-0.002 0.004-0.005 0.008-0.007 0.011-0.004 0.007-0.008 0.014-0.012 0.020-0.003 0.005-0.006 0.009-0.008 0.014s-0.004 0.008-0.006 0.012-0.007 0.014-0.010 0.021c-0.002 0.005-0.005 0.010-0.007 0.015-0.002 0.004-0.003 0.008-0.005 0.012-0.003 0.007-0.005 0.015-0.008 0.022-0.002 0.005-0.004 0.011-0.006 0.016-0.001 0.004-0.002 0.008-0.003 0.012-0.002 0.008-0.004 0.016-0.006 0.023-0.001 0.006-0.003 0.011-0.004 0.017-0.001 0.004-0.001 0.008-0.002 0.011-0.001 0.008-0.003 0.017-0.004 0.025-0.001 0.005-0.002 0.011-0.002 0.016-0 0.004-0 0.007-0.001 0.011-0.001 0.009-0.001 0.017-0.001 0.026-0 0.006-0.001 0.012-0.001 0.018 0 0 0 0.001 0 0.001 0 0.003 0 0.006 0 0.009 0 0.008 0.001 0.016 0.001 0.024 0 0.007 0 0.013 0.001 0.020 0 0.004 0.001 0.007 0.001 0.011 0.001 0.007 0.002 0.014 0.003 0.022s0.002 0.014 0.003 0.020c0.001 0.004 0.002 0.008 0.002 0.011 0.001 0.007 0.003 0.013 0.005 0.020s0.003 0.014 0.005 0.021c0.001 0.004 0.002 0.007 0.003 0.011 0.002 0.006 0.005 0.013 0.007 0.019s0.005 0.014 0.008 0.021c0.001 0.003 0.003 0.006 0.004 0.010 0.003 0.006 0.006 0.013 0.009 0.019s0.006 0.013 0.010 0.020c0.001 0.003 0.003 0.006 0.004 0.008 0.004 0.007 0.008 0.013 0.012 0.020s0.007 0.012 0.011 0.018c0.002 0.003 0.004 0.005 0.005 0.008 0.005 0.007 0.010 0.013 0.015 0.020 0.004 0.005 0.008 0.011 0.012 0.016 0.002 0.003 0.004 0.005 0.006 0.008 0.005 0.006 0.011 0.012 0.017 0.019 0 0.001 0.001 0.001 0.002 0.002 0.004 0.004 0.007 0.008 0.010 0.012 0 0 0.001 0 0.001 0.001 0.003 0.003 0.005 0.005 0.008 0.007s0.004 0.004 0.006 0.006l4.659 4.359c0.106 0.099 0.24 0.148 0.374 0.148 0.146 0 0.292-0.058 0.4-0.174 0.207-0.221 0.195-0.568-0.026-0.775l-3.645-3.411h15.451c0.303 0 0.548-0.245 0.548-0.548s-0.245-0.548-0.548-0.548z"></path>
</svg>
