<?xml version="1.0" encoding="utf-8"?>
<!-- Generated by IcoMoon.io -->
<!DOCTYPE svg PUBLIC "-//W3C//DTD SVG 1.1//EN" "http://www.w3.org/Graphics/SVG/1.1/DTD/svg11.dtd">
<svg version="1.1" xmlns="http://www.w3.org/2000/svg" xmlns:xlink="http://www.w3.org/1999/xlink" width="32" height="32" viewBox="0 0 32 32">
<path fill="rgb(2, 185, 149)" d="M26.328 9.452c-0.446 0.112-0.903 0.198-1.359 0.254-0.24 0.030-0.33-0.163-0.352-0.242-0.048-0.165-0.007-0.398 0.163-0.505 0.513-0.323 0.946-0.721 1.286-1.182l0.17-0.23-0.265 0.108c-0.184 0.076-0.35 0.137-0.508 0.19-0.085 0.028-0.181 0.064-0.285 0.103-0.326 0.122-0.732 0.274-1.051 0.274-0.072 0-0.138-0.008-0.195-0.024-0.138-0.038-0.25-0.159-0.358-0.276-0.054-0.058-0.11-0.119-0.169-0.169-0.326-0.277-0.593-0.46-0.865-0.595-0.599-0.296-1.197-0.452-1.78-0.464-1.427-0.029-2.747 0.556-3.617 1.601-0.859 1.033-1.205 2.421-0.948 3.809 0.026 0.138-0.012 0.288-0.097 0.391-0.047 0.056-0.13 0.123-0.259 0.123l-0.023-0.001c-3.777-0.227-7.245-1.87-9.764-4.627l-0.088-0.097-0.046 0.123c-0.723 1.951-0.065 4.064 1.639 5.256 0.175 0.123 0.215 0.351 0.164 0.514-0.050 0.16-0.18 0.246-0.355 0.235-0.57-0.037-1.098-0.144-1.615-0.329l-0.128-0.046 0.023 0.135c0.305 1.818 1.651 3.21 3.512 3.633 0.207 0.047 0.282 0.234 0.282 0.38 0.001 0.149-0.073 0.34-0.283 0.389-0.501 0.118-1.006 0.169-1.535 0.158l-0.137-0.003 0.064 0.12c0.756 1.416 2.186 2.303 3.824 2.374 0.185 0.008 0.319 0.102 0.368 0.258 0.055 0.174-0.014 0.372-0.171 0.492-1.564 1.196-3.425 1.912-5.38 2.072l-0.316 0.026 0.29 0.127c1.781 0.781 3.764 1.194 5.736 1.194 3.109 0 5.993-1.021 8.119-2.875 2.213-1.929 3.799-4.408 4.466-6.98 0.060-0.23 0.129-0.466 0.197-0.694 0.18-0.61 0.366-1.24 0.402-1.876 0.011-0.191-0-0.398-0.012-0.617-0.019-0.356-0.039-0.724 0.041-1.016 0.072-0.263 0.41-0.498 0.707-0.706 0.161-0.113 0.314-0.219 0.424-0.327 0.072-0.070 0.090-0.144 0.105-0.203 0.012-0.049 0.021-0.087 0.058-0.126l0.189-0.2-0.266 0.067z"></path>
<path fill="rgb(7, 155, 126)" d="M10.129 16.438c-1.374-0.312-2.476-1.181-3.059-2.358-0.492-0.049-0.96-0.15-1.414-0.312 0.299 1.78 1.638 3.157 3.451 3.569 0.107 0.024 0.188 0.082 0.245 0.157 0.257-0.026 0.515-0.069 0.777-0.13 0.457-0.108 0.462-0.821 0-0.926z"></path>
<path fill="rgb(7, 155, 126)" d="M8.557 12.308c-1.204-0.843-1.697-2.312-1.726-3.672-0.256-0.242-0.667-0.65-0.906-0.912-0.666 1.796-0.126 4.129 1.416 5.335 0.315 0.072 0.638 0.122 0.973 0.143 0.516 0.033 0.601-0.643 0.242-0.894z"></path>
<path fill="rgb(7, 155, 126)" d="M17.389 12.151c-0.263-1.422-0.158-3.151 1.561-5.063-2.847 1.122-3.346 3.812-3.14 5.609 0.202 0.020 0.912 0.049 1.116 0.061 0.334 0.020 0.516-0.32 0.463-0.608z"></path>
<path fill="rgb(7, 155, 126)" d="M12.491 19.856c-1.305-0.056-2.467-0.636-3.256-1.587-0.514 0.118-1.175 0.165-1.683 0.154 0.741 1.388 2.299 2.262 3.917 2.332 0.346 0.015 0.343 0.451 0.294 0.715 0.276-0.173 0.707-0.519 0.971-0.72 0.369-0.282 0.268-0.872-0.242-0.894z"></path>
<path fill="rgb(7, 155, 126)" d="M8.365 23.302c-0.724 0.226-1.473 0.372-2.236 0.435 4.428 1.942 10.205 1.74 13.93-1.508 0.2-0.175 0.395-0.516 0.587-0.702-3.372 2.642-8.254 3.105-12.281 1.775z"></path>
<path fill="rgb(19, 74, 120)" d="M28.175 8.27c-0.091-0.169-0.271-0.272-0.507-0.174-0.323 0.133-0.648 0.254-0.977 0.358 0.389-0.489 0.692-1.047 0.911-1.678 0.143-0.411-0.358-0.741-0.705-0.542-0.848 0.487-1.731 0.833-2.676 1.055-1.633-1.514-3.916-1.881-5.974-0.967-2.118 0.941-3.112 3.181-2.945 5.369-3.554-0.358-6.771-2.095-9.057-4.859-0.197-0.238-0.614-0.156-0.754 0.097-1.072 1.941-0.87 4.188 0.37 5.854-0.134-0.056-0.267-0.118-0.4-0.188-0.318-0.168-0.722 0.038-0.722 0.414 0 1.825 0.896 3.443 2.314 4.42-0.006-0.001-0.013-0.001-0.019-0.002-0.328-0.044-0.725 0.204-0.59 0.59 0.612 1.764 1.974 3.025 3.692 3.497-1.774 1.036-3.768 1.455-5.872 1.242-0.504-0.051-0.615 0.659-0.242 0.894 4.425 2.794 10.086 2.942 14.691 0.464 4.494-2.419 7.321-7.792 7.153-12.838 0.905-0.712 1.68-1.527 2.346-2.476 0.142-0.202 0.094-0.398-0.035-0.531zM24.914 10.925c-0.133 0.483-0.004 1.147-0.032 1.65-0.049 0.865-0.219 1.717-0.436 2.554-0.703 2.709-2.346 5.114-4.441 6.94-3.726 3.248-9.342 3.609-13.77 1.668 1.959-0.16 3.821-0.864 5.423-2.088 0.369-0.282 0.268-0.872-0.242-0.894-1.618-0.070-3.016-0.944-3.757-2.332 0.518 0.011 1.029-0.037 1.555-0.161 0.457-0.108 0.462-0.821 0-0.926-1.812-0.412-3.152-1.789-3.451-3.569 0.523 0.187 1.062 0.297 1.636 0.334 0.516 0.033 0.601-0.643 0.242-0.894-1.692-1.184-2.303-3.292-1.61-5.163 2.539 2.779 6.044 4.427 9.819 4.653 0.334 0.020 0.516-0.32 0.463-0.608-0.532-2.872 1.553-5.379 4.484-5.315 0.609 0.013 1.204 0.188 1.746 0.456 0.309 0.153 0.587 0.362 0.849 0.584 0.176 0.149 0.324 0.396 0.558 0.461 0.447 0.123 1.157-0.215 1.578-0.355 0.173-0.057 0.344-0.122 0.513-0.192-0.336 0.454-0.755 0.84-1.265 1.161-0.368 0.232-0.263 0.957 0.242 0.894 0.467-0.058 0.922-0.144 1.369-0.256-0.104 0.11-0.211 0.22-0.32 0.327-0.318 0.31-1.033 0.633-1.153 1.069z"></path>
</svg>
