<?xml version="1.0" encoding="utf-8"?>
<!-- Generated by IcoMoon.io -->
<!DOCTYPE svg PUBLIC "-//W3C//DTD SVG 1.1//EN" "http://www.w3.org/Graphics/SVG/1.1/DTD/svg11.dtd">
<svg version="1.1" xmlns="http://www.w3.org/2000/svg" xmlns:xlink="http://www.w3.org/1999/xlink" width="100%" height="100%" viewBox="0 0 32 32">
<path fill="rgb(0, 0, 0)" d="M12.675 23.818c0.046 0.041 0.092 0.080 0.139 0.118l-0.139-0.118z"></path>
<path fill="rgb(228, 230, 232)" d="M24.152 29.032h-16.304c-0.685 0-0.917-0.226-0.917-0.894v-21.603h18.137v21.595c-0.016 0.674-0.248 0.902-0.916 0.902z"></path>
<path fill="rgb(201, 202, 203)" d="M8.404 26.872v-20.542h-1.6v21.998c0 0.681 0.201 0.882 0.895 0.882h16.511c0.676 0 0.834-0.202 0.834-0.889v-0.551h-15.724c-0.694 0-0.916-0.216-0.916-0.898z"></path>
<path fill="rgb(19, 74, 120)" d="M20.44 10.468c-0.347 0-0.628 0.281-0.628 0.628v13.375c0 0.347 0.281 0.628 0.628 0.628s0.628-0.281 0.628-0.628v-13.375c-0-0.347-0.281-0.628-0.628-0.628z"></path>
<path fill="rgb(19, 74, 120)" d="M16.244 10.468c-0.347 0-0.628 0.281-0.628 0.628v13.375c0 0.347 0.281 0.628 0.628 0.628s0.628-0.281 0.628-0.628v-13.375c0-0.347-0.281-0.628-0.628-0.628z"></path>
<path fill="rgb(19, 74, 120)" d="M12.047 10.468c-0.347 0-0.628 0.281-0.628 0.628v13.375c0 0.347 0.281 0.628 0.628 0.628s0.628-0.281 0.628-0.628v-13.375c0-0.347-0.281-0.628-0.628-0.628z"></path>
<path fill="rgb(19, 74, 120)" d="M26.839 5.363h-4.814v-0.801c0-1.126-0.354-1.944-1.053-2.43-0.006-0.004-0.012-0.008-0.018-0.012-0.506-0.327-1.133-0.492-1.863-0.492h-5.396c-0.004 0-0.008 0-0.011 0.001s-0.008-0.001-0.011-0.001h-0.762c-1.892 0-2.934 1.042-2.934 2.934v0.801h-4.814c-0.347 0-0.628 0.281-0.628 0.628s0.281 0.628 0.628 0.628h0.456v21.603c0 1.367 0.792 2.15 2.173 2.15h16.304c1.35 0 2.142-0.779 2.173-2.136 0-0.005 0-0.009 0-0.014v-21.603h0.571c0.347 0 0.628-0.281 0.628-0.628s-0.281-0.628-0.628-0.628zM11.231 4.562c0-1.192 0.486-1.678 1.678-1.678h0.762c0.004 0 0.008-0 0.011-0.001s0.008 0.001 0.011 0.001h5.396c0.48 0 0.874 0.096 1.172 0.285 0.34 0.243 0.506 0.698 0.506 1.393v0.801h-9.537v-0.801zM24.094 29.116h-16.304c-0.685 0-0.917-0.226-0.917-0.894v-21.603h18.137v21.595c-0.017 0.674-0.248 0.902-0.916 0.902z"></path>
<path fill="rgb(228, 230, 232)" d="M11.231 4.595c0-1.192 0.486-1.678 1.678-1.678h0.762c0.004 0 0.008-0 0.011-0.001s0.008 0.001 0.011 0.001h5.396c0.48 0 0.874 0.096 1.172 0.285 0.34 0.243 0.506 0.698 0.506 1.393v0.801h-9.537v-0.801z"></path>
</svg>
