<svg xmlns="http://www.w3.org/2000/svg" viewBox="0 0 32 32" width="100%" height="100%" preserveAspectRatio="none">
  <path fill="#02B995" d="M27.75 19.894c-.057-.128-.21-.23-.326-.292l-2.528-1.47c-.233-.136-.36-.406-.313-.672.086-.495.127-.99.127-1.51v-.272c-.024-.376-.045-.73-.087-1.088-.03-.26.097-.51.324-.64l2.476-1.408c.39-.24.43-.405.2-.8L25.57 8.176c-.137-.24-.27-.363-.4-.363-.056 0-.18.02-.397.15L22.335 9.38c-.23.133-.538.106-.743-.065-.81-.68-1.665-1.177-2.534-1.48-.26-.092-.437-.338-.437-.614V4.24c0-.457-.12-.555-.57-.555h-3.99c-.45 0-.55.1-.55.556v3.01c0 .27-.18.52-.43.61-.57.21-1.13.49-1.65.83-.26.18-.53.38-.79.57-.2.16-.49.17-.71.05l-2.6-1.5c-.19-.11-.32-.13-.39-.13-.12 0-.25.11-.38.34l.07.04-.08-.02-2.07 3.54c-.11.22-.15.37-.12.46l.02.06c.02.06.11.17.32.298l2.5 1.43c.24.13.38.4.34.67-.08.49-.11.98-.11 1.5v.25c0 .37.03.72.09 1.063.05.27-.09.54-.32.677l-2.5 1.44c-.08.05-.29.184-.34.32-.03.097.01.233.06.34.04.055.07.114.1.193l2.02 3.5c.13.225.26.335.395.335.073 0 .203-.02.41-.14l2.44-1.39c.23-.13.534-.105.736.065.78.65 1.627 1.14 2.56 1.485.253.092.437.34.437.61v2.96c0 .456.09.606.55.606h3.99c.45 0 .57-.15.57-.61v-3c0-.27.17-.52.43-.61.53-.2 1.08-.47 1.64-.8l.79-.6c.2-.16.49-.17.71-.05l2.57 1.48c.2.12.33.14.4.14.13 0 .26-.12.4-.35l2.05-3.56c.044-.07.06-.11.064-.12l.01-.05c.06-.184.05-.28.05-.3l-.007-.02z"/>
  <path fill="#079B7E" d="M14.32 26.72c-.41 0-.5-.05-.5-.464v-2.963c0-.305-.19-.577-.475-.684-.925-.35-1.75-.83-2.52-1.48-.135-.11-.302-.17-.47-.17-.123 0-.247.03-.36.09l-2.44 1.39H7.55c-.19.11-.31.13-.36.13-.1 0-.21-.1-.32-.3l-1.68-3.23-.5.13c-.16.09-.593.52-.62.6-.02.05.32.47.37.59.04.07.073-.03.097.03l2.02 3.5c.115.2.224.3.324.3.05 0 .17-.02.37-.13.01 0 .01-.01.01-.01l2.44-1.39c.11-.06.24-.09.36-.09.17 0 .33.06.47.17.77.64 1.6 1.12 2.52 1.47.29.1.48.38.48.68v2.96c0 .41.09.44.5.44H18c.415 0 .79-.03.79-.44l.16-1.14s-.24-.03-.31-.03h-4.31zm10.96-3.973c-.05 0-.162-.017-.36-.132l-2.576-1.482c-.253-.146-.57-.126-.802.05l-.788.59c-.552.33-1.115.595-1.64.79-.287.107-.493.38-.493.685v1.343c.16-.03.28-.38.34-.4.53-.19 1.24-.46 1.8-.79.27-.19.53-.23.8-.43.24-.17.55-.03.81.11l2.26 1.16c.2.12.32.13.37.13.12 0 .73-.16.82-.3l2.047-3.54.007-.01c.04-.07-.43-.09-.426-.1 0-.01.49-.03.49-.05.05-.14-.11-.71-.114-.74-.038-.08-.46-.33-.61-.41-.01 0-.017.63-.02.63l-.02-.01-1.518 2.63c-.09.14-.218.31-.338.31z"/>
  <path fill="#E4E6E8" d="M18.612 18.966c-.742.742-1.595 1.103-2.608 1.103-1.014 0-1.868-.37-2.61-1.11-.725-.73-1.078-1.58-1.078-2.61 0-1.05.353-1.91 1.078-2.63s1.58-1.08 2.61-1.08c1.03 0 1.882.35 2.608 1.08.74.74 1.102 1.6 1.102 2.63 0 1.01-.36 1.87-1.102 2.61z"/>
  <path fill="#C9CACB" d="M12.673 15.083c.732-.732 1.575-1.09 2.575-1.09 1 0 1.844.357 2.577 1.09.716.716 1.064 1.56 1.064 2.575 0 .42-.07.808-.18 1.17.67-.7.99-1.527.99-2.523 0-1.016-.35-1.86-1.07-2.575-.73-.732-1.58-1.09-2.58-1.09s-1.85.357-2.58 1.09c-.45.443-.75.927-.92 1.46l.1-.107z"/>
  <path fill="#134A78" d="M28.988 19.466c-.11-.3-.365-.723-.967-1.048l-2.07-1.204c.05-.406.08-.814.08-1.236v-.347c-.01-.22-.02-.45-.04-.68l2.08-1.18.02-.01c1.05-.64 1.3-1.61.69-2.67l-2.06-3.56c-.49-.88-1.14-1.06-1.59-1.06-.35 0-.72.12-1.09.34l-2 1.16c-.66-.5-1.36-.91-2.07-1.21V4.27c0-1.23-.73-1.96-1.96-1.96h-4c-1.22 0-1.96.73-1.96 1.96v2.51c-.49.214-.97.47-1.44.768l-.01.008c-.16.106-.31.216-.47.328L7.95 6.642c-.367-.213-.73-.32-1.078-.32-.873 0-1.367.65-1.587 1.047l-2.07 3.54c-.004.01-.01.01-.013.02-.115.21-.46.87-.21 1.57.128.42.442.78.935 1.08l.012.01 2.07 1.19c-.05.4-.08.81-.08 1.23v.34c.01.23.02.47.05.71l-2.06 1.2c-1 .58-1.3 1.49-.81 2.49l.04.07c.01.03.03.07.05.11l2.05 3.55c.49.85 1.13 1.02 1.59 1.02.36 0 .72-.11 1.1-.33l2.01-1.147c.64.49 1.34.894 2.07 1.21v2.47c0 1.23.73 1.96 1.96 1.96h3.99c1.22 0 1.96-.73 1.96-1.96V25.2c.47-.2.94-.446 1.42-.733.02-.01.04-.027.06-.04l.43-.32L24 25.35c.37.22.74.33 1.09.33.44 0 1.07-.177 1.58-1.01l.01-.02 2.05-3.55c.073-.13.155-.28.204-.46.14-.43.15-.825.035-1.17l-.01-.02zm-1.422.747l-.015.05c0 .007-.01.035-.05.104v.01l-2.04 3.546c-.09.142-.21.307-.33.307-.05 0-.16-.017-.36-.132l-2.57-1.482c-.25-.146-.57-.126-.8.05l-.79.59c-.55.33-1.09.595-1.62.79-.28.107-.47.38-.47.685v3.01c0 .41-.09.5-.5.5h-4c-.41 0-.5-.09-.5-.5v-2.96c0-.3-.19-.57-.47-.68-.92-.34-1.75-.82-2.52-1.47-.13-.11-.3-.17-.47-.17-.12 0-.25.03-.36.1l-2.44 1.39v.01c-.2.12-.312.13-.364.13-.1 0-.21-.1-.323-.29l-2.02-3.5c-.027-.06-.06-.13-.1-.19-.05-.11-.07-.21-.05-.27.03-.08.15-.18.31-.28l2.48-1.43c.27-.15.41-.45.36-.76-.06-.34-.08-.68-.11-1.05v-.25c0-.51.04-1 .13-1.49.054-.3-.09-.6-.355-.76l-2.5-1.43c-.21-.12-.274-.22-.28-.24l-.02-.063c-.024-.06.02-.205.116-.39L6.55 8.1l.01-.017c.075-.137.19-.3.313-.3.05 0 .16.016.348.125L9.8 9.385c.252.147.567.127.8-.05.26-.19.525-.39.783-.564.52-.33 1.07-.6 1.632-.81.286-.1.476-.38.476-.68V4.27c0-.413.09-.5.51-.5h3.99c.41 0 .5.09.5.5v2.98c0 .31.2.586.49.69.86.3 1.71.793 2.51 1.466.24.197.57.226.84.072l2.44-1.414.02-.01c.2-.117.31-.13.35-.13.13 0 .26.202.33.323 0 .002 0 .004.01.006l2.05 3.558c.21.36.18.48-.17.7l-2.48 1.41c-.25.15-.4.43-.36.72.04.36.068.71.09 1.09V16c0 .516-.04 1.005-.12 1.497-.05.3.09.6.35.755l2.51 1.46c.01.002.016.01.024.01.15.09.25.18.29.26.004.03 0 .116-.047.26z"/>
  <path fill="#134A78" d="M16.04 11.188c-1.38 0-2.575.494-3.55 1.468-.972.974-1.466 2.176-1.466 3.57 0 1.38.494 2.573 1.467 3.547.99.99 2.19 1.49 3.55 1.49 1.37 0 2.56-.5 3.55-1.49.99-.987 1.49-2.18 1.49-3.546 0-1.38-.5-2.582-1.49-3.57-.97-.974-2.17-1.468-3.54-1.468zm2.515 7.553c-.716.72-1.538 1.07-2.515 1.07s-1.8-.35-2.517-1.06c-.7-.7-1.04-1.52-1.04-2.51 0-1.01.34-1.84 1.04-2.54s1.523-1.04 2.517-1.04c.992 0 1.815.34 2.515 1.04.715.72 1.062 1.55 1.062 2.54 0 .98-.347 1.8-1.062 2.52z"/>
</svg>
