<?xml version="1.0" encoding="utf-8"?>
<!-- Generated by IcoMoon.io -->
<!DOCTYPE svg PUBLIC "-//W3C//DTD SVG 1.1//EN" "http://www.w3.org/Graphics/SVG/1.1/DTD/svg11.dtd">
<svg version="1.1" xmlns="http://www.w3.org/2000/svg" xmlns:xlink="http://www.w3.org/1999/xlink" width="100%" height="100%" viewBox="0 0 32 32">
<path fill="rgb(2, 185, 149)" d="M27.75 19.894c-0.057-0.128-0.209-0.23-0.326-0.292l-2.528-1.47c-0.233-0.136-0.36-0.406-0.313-0.672 0.086-0.495 0.127-0.989 0.127-1.509l-0.001-0.273c-0.023-0.376-0.044-0.731-0.086-1.088-0.030-0.26 0.097-0.511 0.324-0.64l2.476-1.408c0.389-0.241 0.431-0.405 0.201-0.801l-2.055-3.564c-0.136-0.241-0.27-0.363-0.398-0.363-0.057 0-0.182 0.019-0.398 0.151l-2.438 1.414c-0.231 0.134-0.538 0.107-0.743-0.064-0.811-0.679-1.665-1.177-2.534-1.481-0.26-0.091-0.437-0.337-0.437-0.613v-2.986c0-0.457-0.121-0.555-0.578-0.555h-3.99c-0.456 0-0.552 0.099-0.552 0.555v3.008c0 0.27-0.185 0.515-0.438 0.609-0.568 0.211-1.129 0.488-1.656 0.824-0.26 0.174-0.531 0.374-0.789 0.568-0.204 0.153-0.495 0.171-0.716 0.043l-2.576-1.482c-0.194-0.112-0.319-0.136-0.389-0.136-0.129 0-0.258 0.115-0.383 0.342l0.070 0.039-0.078-0.024-2.068 3.546c-0.113 0.216-0.153 0.368-0.121 0.454 0.008 0.020 0.014 0.040 0.020 0.060 0.016 0.057 0.108 0.168 0.319 0.295l2.501 1.433c0.236 0.136 0.381 0.407 0.335 0.675-0.086 0.494-0.11 0.986-0.11 1.506v0.257c0 0.37 0.026 0.72 0.087 1.066 0.048 0.268-0.088 0.54-0.323 0.676l-2.49 1.437c-0.086 0.051-0.295 0.184-0.342 0.321-0.033 0.096 0.009 0.232 0.056 0.34 0.034 0.054 0.064 0.113 0.096 0.192l2.020 3.502c0.132 0.228 0.261 0.338 0.393 0.338 0.073 0 0.203-0.025 0.409-0.144l2.439-1.39c0.23-0.131 0.536-0.104 0.738 0.066 0.779 0.652 1.626 1.138 2.559 1.485 0.253 0.094 0.437 0.339 0.437 0.609v2.963c0 0.456 0.096 0.606 0.552 0.606h3.99c0.457 0 0.578-0.15 0.578-0.606v-3.008c0-0.27 0.172-0.515 0.426-0.609 0.53-0.197 1.082-0.464 1.646-0.801 0.263-0.197 0.526-0.394 0.789-0.592 0.204-0.153 0.493-0.171 0.715-0.044l2.576 1.482c0.203 0.118 0.331 0.143 0.401 0.143 0.128 0 0.26-0.113 0.405-0.347l2.051-3.555c0.045-0.076 0.059-0.107 0.065-0.125 0.004-0.015 0.008-0.030 0.013-0.044 0.061-0.182 0.053-0.275 0.050-0.299l-0.006-0.020z"></path>
<path fill="rgb(7, 155, 126)" d="M14.321 26.72c-0.412 0-0.501-0.051-0.501-0.464v-2.963c0-0.305-0.189-0.577-0.475-0.684-0.925-0.344-1.75-0.826-2.521-1.471-0.134-0.112-0.301-0.17-0.468-0.17-0.124 0-0.248 0.032-0.361 0.096l-2.439 1.39c-0.002 0.001-0.004 0.002-0.005 0.003-0.196 0.114-0.312 0.131-0.364 0.131-0.1 0-0.21-0.101-0.324-0.298l-1.68-3.232-0.502 0.13c-0.163 0.095-0.598 0.52-0.625 0.598-0.019 0.056 0.319 0.473 0.369 0.591 0.043 0.067 0.074-0.025 0.098 0.035l2.020 3.501c0.115 0.197 0.224 0.298 0.324 0.298 0.052 0 0.168-0.017 0.364-0.131 0.002-0.001 0.004-0.002 0.005-0.003l2.439-1.39c0.113-0.064 0.237-0.096 0.361-0.096 0.168 0 0.334 0.058 0.468 0.17 0.772 0.646 1.596 1.127 2.521 1.471 0.286 0.106 0.475 0.379 0.475 0.684v2.963c0 0.412 0.089 0.44 0.501 0.44h3.989c0.413 0 0.789-0.027 0.789-0.44l0.16-1.133c0 0.006-0.238-0.027-0.309-0.027h-4.309z"></path>
<path fill="rgb(7, 155, 126)" d="M25.281 22.747c-0.050 0-0.163-0.017-0.361-0.132l-2.576-1.482c-0.253-0.146-0.569-0.126-0.802 0.049-0.263 0.198-0.526 0.395-0.788 0.592-0.552 0.329-1.115 0.594-1.641 0.79-0.286 0.106-0.492 0.379-0.492 0.684v1.343c0.16-0.033 0.276-0.382 0.332-0.403 0.526-0.195 1.241-0.461 1.793-0.79 0.263-0.197 0.53-0.234 0.793-0.432 0.234-0.176 0.551-0.035 0.804 0.111l2.257 1.162c0.198 0.115 0.312 0.132 0.362 0.132 0.12 0 0.728-0.165 0.816-0.307l2.046-3.547c0.002-0.003 0.004-0.006 0.005-0.009 0.041-0.069-0.426-0.097-0.423-0.105 0.004-0.017 0.489-0.033 0.495-0.049 0.049-0.147-0.109-0.713-0.114-0.741-0.037-0.084-0.46-0.334-0.611-0.414-0.008-0.004-0.015 0.632-0.023 0.627l-0.020-0.012-1.515 2.626c-0.088 0.142-0.216 0.307-0.336 0.307z"></path>
<path fill="rgb(228, 230, 232)" d="M18.612 18.966c-0.742 0.742-1.595 1.103-2.608 1.103-1.014 0-1.868-0.361-2.61-1.103-0.725-0.726-1.078-1.579-1.078-2.608 0-1.045 0.353-1.906 1.078-2.632s1.58-1.079 2.61-1.079c1.029 0 1.882 0.353 2.608 1.079 0.741 0.741 1.102 1.602 1.102 2.632 0 1.015-0.36 1.868-1.102 2.608z"></path>
<path fill="rgb(201, 202, 203)" d="M12.673 15.083c0.732-0.732 1.575-1.089 2.575-1.089 1.001 0 1.844 0.356 2.577 1.089 0.716 0.716 1.064 1.559 1.064 2.575 0 0.42-0.061 0.808-0.177 1.171 0.668-0.701 0.996-1.528 0.996-2.524 0-1.016-0.348-1.859-1.064-2.575-0.732-0.732-1.575-1.089-2.577-1.089s-1.843 0.356-2.575 1.089c-0.443 0.443-0.746 0.927-0.918 1.461 0.033-0.036 0.064-0.072 0.099-0.108z"></path>
<path fill="rgb(19, 74, 120)" d="M28.988 19.466c-0.109-0.299-0.365-0.723-0.967-1.048l-2.070-1.204c0.049-0.406 0.073-0.814 0.073-1.236v-0.273c0-0.015-0-0.029-0.001-0.044l-0.002-0.039c-0.013-0.223-0.027-0.45-0.046-0.679l2.073-1.179c0.007-0.004 0.014-0.008 0.021-0.012 1.048-0.642 1.297-1.617 0.684-2.673l-2.049-3.554c-0.496-0.878-1.143-1.062-1.598-1.062-0.356 0-0.725 0.115-1.096 0.341l-2 1.16c-0.667-0.508-1.361-0.915-2.071-1.215v-2.485c0-1.228-0.733-1.961-1.961-1.961h-3.989c-1.228 0-1.96 0.733-1.96 1.961v2.516c-0.495 0.214-0.978 0.471-1.441 0.768-0.004 0.003-0.008 0.005-0.012 0.008-0.158 0.106-0.314 0.216-0.467 0.328l-2.159-1.242c-0.367-0.213-0.73-0.321-1.078-0.321-0.873 0-1.367 0.652-1.587 1.048l-2.069 3.549c-0.005 0.008-0.010 0.017-0.014 0.026-0.115 0.216-0.46 0.868-0.209 1.572 0.127 0.422 0.441 0.786 0.934 1.082 0.004 0.002 0.008 0.005 0.012 0.007l2.076 1.19c-0.049 0.403-0.073 0.81-0.073 1.232v0.274c0 0.015 0 0.029 0.001 0.044l0.001 0.019c0.014 0.233 0.028 0.47 0.053 0.712l-2.066 1.194c-1 0.586-1.296 1.496-0.812 2.496 0.013 0.026 0.027 0.051 0.042 0.076 0.014 0.038 0.031 0.074 0.051 0.109l2.052 3.557c0.493 0.848 1.135 1.026 1.587 1.026 0.352 0 0.72-0.11 1.095-0.327l2.008-1.144c0.645 0.488 1.339 0.893 2.073 1.21v2.47c0 1.228 0.733 1.96 1.96 1.96h3.989c1.228 0 1.961-0.733 1.961-1.96v-2.515c0.469-0.202 0.946-0.448 1.423-0.735 0.021-0.013 0.042-0.027 0.062-0.042 0.145-0.109 0.291-0.218 0.436-0.327l2.157 1.241c0.375 0.217 0.742 0.327 1.091 0.327 0.44 0 1.072-0.175 1.584-1.011 0.003-0.006 0.007-0.011 0.010-0.017l2.048-3.551c0.076-0.127 0.158-0.28 0.207-0.458 0.14-0.432 0.153-0.825 0.037-1.169-0.002-0.006-0.004-0.012-0.006-0.018zM27.566 20.213c-0.005 0.016-0.010 0.033-0.015 0.049-0.003 0.008-0.016 0.036-0.057 0.105-0.002 0.003-0.004 0.006-0.005 0.009l-2.046 3.547c-0.088 0.142-0.216 0.307-0.336 0.307-0.050 0-0.163-0.017-0.361-0.132l-2.576-1.482c-0.253-0.146-0.569-0.126-0.802 0.049-0.263 0.198-0.526 0.395-0.788 0.592-0.552 0.329-1.098 0.594-1.624 0.79-0.286 0.106-0.476 0.379-0.476 0.684v3.008c0 0.412-0.089 0.501-0.502 0.501h-3.989c-0.412 0-0.501-0.089-0.501-0.501v-2.963c0-0.305-0.189-0.577-0.475-0.684-0.925-0.344-1.75-0.826-2.521-1.471-0.134-0.112-0.301-0.17-0.468-0.17-0.124 0-0.248 0.032-0.361 0.096l-2.439 1.39c-0.002 0.001-0.004 0.002-0.005 0.003-0.196 0.114-0.312 0.131-0.364 0.131-0.1 0-0.21-0.101-0.324-0.298l-2.020-3.501c-0.024-0.060-0.055-0.128-0.098-0.195-0.051-0.118-0.069-0.215-0.049-0.271 0.027-0.078 0.142-0.183 0.305-0.278l2.485-1.436c0.266-0.154 0.407-0.457 0.353-0.759-0.060-0.339-0.081-0.688-0.104-1.057v-0.252c0-0.515 0.041-1.003 0.127-1.492 0.053-0.302-0.090-0.606-0.356-0.758l-2.501-1.433c-0.209-0.126-0.275-0.223-0.281-0.247-0.006-0.023-0.014-0.046-0.022-0.068-0.023-0.060 0.021-0.204 0.117-0.388l2.066-3.543c0.003-0.005 0.006-0.011 0.009-0.016 0.075-0.137 0.191-0.3 0.313-0.3 0.050 0 0.16 0.016 0.348 0.125l2.576 1.482c0.253 0.146 0.568 0.126 0.802-0.049 0.258-0.193 0.524-0.393 0.782-0.566 0.521-0.333 1.070-0.607 1.632-0.816 0.286-0.106 0.476-0.379 0.476-0.684v-3.008c0-0.413 0.089-0.502 0.501-0.502h3.989c0.413 0 0.502 0.089 0.502 0.502v2.986c0 0.31 0.196 0.586 0.489 0.689 0.86 0.3 1.704 0.794 2.508 1.467 0.235 0.197 0.569 0.226 0.834 0.072l2.438-1.414c0.005-0.003 0.010-0.006 0.015-0.009 0.193-0.118 0.304-0.131 0.343-0.131 0.128 0 0.261 0.202 0.329 0.323 0.001 0.002 0.002 0.004 0.004 0.006l2.052 3.558c0.207 0.356 0.178 0.475-0.174 0.693l-2.473 1.407c-0.255 0.145-0.398 0.428-0.364 0.719 0.041 0.355 0.063 0.709 0.085 1.083l0.001 0.268c0 0.514-0.041 1.003-0.126 1.495-0.052 0.3 0.089 0.601 0.352 0.755l2.507 1.458c0.008 0.004 0.015 0.009 0.023 0.013 0.151 0.081 0.254 0.171 0.291 0.254 0.005 0.028 0.003 0.114-0.046 0.261z"></path>
<path fill="rgb(19, 74, 120)" d="M16.040 11.188c-1.381 0-2.575 0.494-3.549 1.468-0.973 0.974-1.467 2.176-1.467 3.57 0 1.38 0.494 2.573 1.467 3.547 0.989 0.989 2.183 1.491 3.549 1.491 1.364 0 2.558-0.502 3.547-1.49 0.989-0.988 1.49-2.181 1.49-3.547 0-1.381-0.501-2.582-1.49-3.57-0.974-0.974-2.168-1.468-3.547-1.468zM18.555 18.741c-0.716 0.716-1.538 1.063-2.515 1.063s-1.801-0.348-2.517-1.063c-0.7-0.7-1.040-1.522-1.040-2.515 0-1.008 0.34-1.838 1.040-2.539s1.523-1.041 2.517-1.041c0.992 0 1.815 0.34 2.515 1.041 0.715 0.715 1.062 1.545 1.062 2.539 0 0.978-0.347 1.801-1.062 2.515z"></path>
</svg>
