<?xml version="1.0" encoding="utf-8"?>
<!-- Generated by IcoMoon.io -->
<!DOCTYPE svg PUBLIC "-//W3C//DTD SVG 1.1//EN" "http://www.w3.org/Graphics/SVG/1.1/DTD/svg11.dtd">
<svg version="1.1" xmlns="http://www.w3.org/2000/svg" xmlns:xlink="http://www.w3.org/1999/xlink" width="100%" height="100%" viewBox="0 0 32 32">
<path fill="rgb(2, 185, 149)" d="M28.203 27.632c-0.016 0.687-0.284 0.949-0.987 0.965h-22.412c-0.727-0.016-0.991-0.269-1.007-0.965v-2.307c0-0.765 0.336-0.877 0.479-0.925 0.009-0.003 0.018-0.006 0.027-0.010 2.421-0.94 4.76-2.168 6.964-3.655 0.946 2.004 2.459 3.515 4.503 4.494 0.080 0.038 0.166 0.057 0.252 0.057s0.173-0.019 0.253-0.058c1.211-0.583 2.246-1.359 3.076-2.304 0.575-0.653 1.042-1.37 1.422-2.181 0.45 0.305 0.864 0.573 1.264 0.817 1.29 0.785 2.363 1.372 3.374 1.849 0.002 0.001 0.004 0.002 0.006 0.003 0.81 0.371 1.563 0.69 2.301 0.977 0.009 0.004 0.018 0.007 0.027 0.010 0.149 0.050 0.458 0.153 0.458 0.925v2.306z"></path>
<path fill="rgb(228, 230, 232)" d="M12.243 20.006c0.402-0.296 0.782-0.576 1.17-0.875 0.008-0.006 0.016-0.012 0.023-0.019 0.331-0.284 0.512-0.613 0.538-0.98 0.029-0.398-0.132-0.801-0.479-1.196-0.017-0.019-0.035-0.037-0.054-0.054-0.964-0.846-1.577-1.881-1.873-3.162-0.047-0.204-0.2-0.367-0.4-0.427-0.106-0.032-0.206-0.098-0.288-0.191-0.013-0.015-0.027-0.029-0.042-0.043-0.147-0.136-0.21-0.288-0.199-0.48 0.001-0.022 0.001-0.044 0-0.066-0.012-0.216 0.053-0.378 0.215-0.54 0.232-0.231 0.363-0.497 0.403-0.812 0.007-0.052 0.006-0.105-0.002-0.156-0.125-0.856-0.186-1.74-0.186-2.7 0-0.003 0-0.006 0-0.008-0.020-1.359 0.442-2.481 1.41-3.43 0.001-0.001 0.003-0.003 0.004-0.004 0.856-0.856 1.857-1.319 3.061-1.416 0.012-0.001 0.023-0.002 0.035-0.004 0.11-0.016 0.209-0.016 0.347-0.016h0.128c0.133 0 0.259 0 0.368 0.016 0.012 0.002 0.023 0.003 0.035 0.004 1.191 0.098 2.186 0.561 3.041 1.416 0.001 0.001 0.003 0.003 0.004 0.004 0.963 0.944 1.432 2.069 1.432 3.439 0 0.916-0.061 1.823-0.188 2.772-0.007 0.053-0.007 0.107 0.001 0.159 0.041 0.29 0.173 0.533 0.402 0.74 0.147 0.167 0.213 0.344 0.213 0.57 0 0.212-0.070 0.386-0.213 0.529-0.113 0.112-0.225 0.186-0.335 0.219-0.2 0.060-0.353 0.223-0.4 0.427-0.3 1.298-0.905 2.333-1.851 3.162-0.025 0.022-0.048 0.045-0.068 0.071-0.537 0.662-0.537 1.422 0 2.084 0.029 0.036 0.062 0.068 0.099 0.096 0.188 0.143 0.382 0.288 0.57 0.428 0.18 0.134 0.367 0.273 0.544 0.408 0.005 0.004 0.010 0.007 0.015 0.011 0.024 0.017 0.047 0.033 0.070 0.050-0.348 0.786-0.782 1.471-1.326 2.089-0.668 0.761-1.493 1.399-2.454 1.897-1.749-0.9-2.989-2.211-3.783-3.998 0.005-0.003 0.010-0.007 0.015-0.011z"></path>
<path fill="rgb(7, 155, 126)" d="M11.456 20.265c1.28 2.133 3.040 3.2 5.12 4.48v0.107c-1.6 1.28-7.040-1.6-8-3.093 0.853-0.533 2.347-0.96 2.88-1.493z"></path>
<path fill="rgb(19, 74, 120)" d="M16.105 24.255c-0.823-0.76-1.931-1.126-2.592-2.054-0.574-0.806-0.839-1.787-1.423-2.591-0.18-0.248-0.597-0.008-0.414 0.242 0.635 0.872 0.947 1.921 1.573 2.8 0.628 0.881 1.739 1.221 2.518 1.941 0.227 0.21 0.567-0.129 0.339-0.339v0z"></path>
<path fill="rgb(19, 74, 120)" d="M11.544 20.009c0.381 1.6 1.794 2.439 2.584 3.791 0.156 0.267 0.571 0.026 0.414-0.242-0.763-1.305-2.17-2.138-2.536-3.676-0.072-0.301-0.534-0.173-0.463 0.128v0z"></path>
<path fill="rgb(19, 74, 120)" d="M16.057 24.218c-1.706-0.925-2.972-2.2-3.967-3.861-0.159-0.265-0.574-0.024-0.414 0.242 1.035 1.727 2.364 3.071 4.139 4.033 0.272 0.148 0.514-0.267 0.242-0.414v0z"></path>
<path fill="rgb(201, 202, 203)" d="M15.616 3.572l-0.253-0.099c-1.123 0.127-2.067 0.581-2.879 1.392-0.001 0.001 0.030 0 0.029 0.002-0.969 0.949-1.537 2.068-1.377 3.428 0 0.003 0 0.006 0 0.008 0 0.96 0.028 1.844 0.153 2.7 0.008 0.052-0.008 0.104-0.015 0.156-0.039 0.315-0.179 0.581-0.411 0.812-0.162 0.162-0.231 0.324-0.219 0.54 0.001 0.022-0.001 0.044-0.002 0.066-0.011 0.192 0.051 0.345 0.198 0.48 0.015 0.014 0.028 0.028 0.041 0.043 0.082 0.093 0.181 0.159 0.287 0.191 0.2 0.060 0.353 0.224 0.4 0.427 0.296 1.282 0.908 2.316 1.872 3.162 0.019 0.017 0.037 0.035 0.054 0.054 0.346 0.396 0.507 0.798 0.479 1.196-0.026 0.367-0.207 0.697-0.538 0.98-0.008 0.006-0.015 0.013-0.023 0.019-0.388 0.3-0.768 0.579-1.17 0.875-0.005 0.004-0.010 0.007-0.015 0.011 0.794 1.786 2.035 3.098 3.783 3.998 0.234-0.122 0.46-0.252 0.678-0.389-1.812-2.21-2.706-6.794-2.994-9.388-0.32-3.52-0.32-7.787 1.92-10.667z"></path>
<path fill="rgb(19, 74, 120)" d="M28.129 23.269c-0.712-0.277-1.44-0.586-2.223-0.945-0.973-0.459-2.009-1.028-3.261-1.789-0.661-0.404-1.369-0.879-2.228-1.492-0.181-0.138-0.368-0.277-0.549-0.411-0.164-0.122-0.334-0.248-0.497-0.372-0.143-0.196-0.139-0.331 0.012-0.53 1.026-0.914 1.732-2.073 2.104-3.45 0.174-0.094 0.339-0.218 0.495-0.374 0.364-0.364 0.556-0.832 0.556-1.355 0-0.528-0.182-0.992-0.54-1.381-0.015-0.017-0.032-0.032-0.049-0.047-0.008-0.007-0.015-0.013-0.020-0.018 0.122-0.953 0.181-1.869 0.181-2.795 0-1.675-0.599-3.111-1.78-4.27-1.040-1.039-2.302-1.628-3.752-1.75-0.184-0.025-0.359-0.025-0.514-0.025h-0.128c-0.159 0-0.309 0-0.492 0.025-1.463 0.121-2.732 0.71-3.773 1.75-1.19 1.167-1.781 2.605-1.758 4.274 0 0.978 0.060 1.884 0.184 2.764-0.009 0.021-0.025 0.044-0.057 0.076-0.391 0.391-0.578 0.861-0.556 1.397-0.021 0.521 0.169 0.987 0.552 1.351 0.14 0.154 0.302 0.281 0.479 0.378 0.371 1.367 1.088 2.529 2.135 3.458 0.131 0.156 0.174 0.268 0.17 0.318-0.003 0.040-0.049 0.103-0.124 0.169-0.373 0.288-0.743 0.56-1.135 0.849-0.090 0.066-0.181 0.133-0.272 0.201-2.324 1.646-4.812 2.989-7.396 3.994-1.098 0.375-1.262 1.429-1.262 2.027v2.313c0 0.004 0 0.008 0 0.012 0.014 0.66 0.21 1.18 0.581 1.545 0.371 0.364 0.9 0.555 1.574 0.568 0.004 0 0.008 0 0.012 0h22.425c0.004 0 0.008 0 0.012-0 0.665-0.014 1.189-0.206 1.558-0.57s0.563-0.884 0.577-1.543c0-0.004 0-0.008 0-0.012v-2.313c0-1.321-0.671-1.832-1.241-2.026zM12.252 20.014c0.402-0.296 0.782-0.576 1.17-0.875 0.008-0.006 0.016-0.012 0.023-0.019 0.331-0.284 0.512-0.613 0.538-0.98 0.029-0.398-0.132-0.801-0.479-1.196-0.017-0.019-0.035-0.037-0.054-0.054-0.964-0.846-1.577-1.881-1.873-3.162-0.047-0.204-0.2-0.367-0.4-0.427-0.106-0.032-0.206-0.098-0.288-0.191-0.013-0.015-0.027-0.029-0.042-0.043-0.147-0.136-0.21-0.288-0.199-0.48 0.001-0.022 0.001-0.044 0-0.066-0.012-0.216 0.053-0.378 0.215-0.54 0.232-0.231 0.363-0.497 0.403-0.812 0.007-0.052 0.006-0.105-0.002-0.156-0.125-0.856-0.186-1.74-0.186-2.7 0-0.003 0-0.006 0-0.008-0.020-1.359 0.442-2.481 1.41-3.43 0.001-0.001 0.003-0.003 0.004-0.004 0.856-0.856 1.857-1.319 3.061-1.416 0.012-0.001 0.023-0.002 0.035-0.004 0.11-0.016 0.209-0.016 0.347-0.016h0.128c0.133 0 0.259 0 0.368 0.016 0.012 0.002 0.023 0.003 0.035 0.004 1.191 0.098 2.186 0.561 3.041 1.416 0.001 0.001 0.003 0.003 0.004 0.004 0.963 0.944 1.432 2.069 1.432 3.439 0 0.916-0.061 1.823-0.188 2.772-0.007 0.053-0.007 0.107 0.001 0.159 0.041 0.29 0.173 0.533 0.402 0.74 0.147 0.167 0.213 0.344 0.213 0.57 0 0.212-0.070 0.386-0.213 0.529-0.113 0.112-0.225 0.186-0.335 0.219-0.2 0.060-0.353 0.223-0.4 0.427-0.3 1.298-0.905 2.333-1.851 3.162-0.025 0.022-0.048 0.045-0.068 0.071-0.537 0.662-0.537 1.422 0 2.084 0.029 0.036 0.062 0.068 0.099 0.096 0.188 0.143 0.382 0.288 0.57 0.428 0.18 0.134 0.367 0.273 0.544 0.408 0.005 0.004 0.010 0.007 0.015 0.011 0.024 0.017 0.047 0.033 0.070 0.050-0.348 0.786-0.782 1.471-1.326 2.089-0.668 0.761-1.493 1.399-2.454 1.897-1.749-0.9-2.989-2.211-3.783-3.998 0.005-0.003 0.010-0.007 0.015-0.011zM28.203 27.602c-0.016 0.687-0.284 0.949-0.987 0.965h-22.412c-0.727-0.016-0.991-0.269-1.007-0.965v-2.307c0-0.765 0.336-0.877 0.479-0.925 0.009-0.003 0.018-0.006 0.027-0.010 2.421-0.94 4.76-2.168 6.964-3.655 0.946 2.004 2.459 3.515 4.503 4.494 0.080 0.038 0.166 0.057 0.252 0.057s0.173-0.019 0.253-0.058c1.211-0.583 2.246-1.359 3.076-2.304 0.575-0.653 1.042-1.37 1.422-2.181 0.45 0.305 0.864 0.573 1.264 0.817 1.29 0.785 2.363 1.372 3.374 1.849 0.002 0.001 0.004 0.002 0.006 0.003 0.81 0.371 1.563 0.69 2.301 0.977 0.009 0.004 0.018 0.007 0.027 0.010 0.149 0.050 0.458 0.153 0.458 0.925v2.307z"></path>
</svg>
