<?xml version="1.0" encoding="utf-8"?>
<!-- Generated by IcoMoon.io -->
<!DOCTYPE svg PUBLIC "-//W3C//DTD SVG 1.1//EN" "http://www.w3.org/Graphics/SVG/1.1/DTD/svg11.dtd">
<svg version="1.1" xmlns="http://www.w3.org/2000/svg" xmlns:xlink="http://www.w3.org/1999/xlink" width="32" height="32" viewBox="0 0 32 32">
<path fill="rgb(2, 185, 149)" d="M28.536 18.076c-0.013 1.251-0.073 2.502-0.266 3.739-0.18 1.154-0.532 2.135-1.574 2.766-0.943 0.57-2.357 0.468-3.421 0.537-1.331 0.087-2.665 0.12-3.999 0.139-2.565 0.037-5.135 0.035-7.7-0.016-1.231-0.024-2.461-0.078-3.689-0.165-1.205-0.085-2.447-0.071-3.389-0.926-0.848-0.77-0.968-2.020-1.097-3.087-0.155-1.285-0.162-2.586-0.166-3.878-0.004-1.189-0.003-2.378 0.051-3.565 0.057-1.239 0.102-2.684 0.652-3.819 0.465-0.958 1.406-1.438 2.423-1.548 1.325-0.143 2.657-0.217 3.988-0.267 3.279-0.122 6.575-0.099 9.855-0.034 1.641 0.032 3.28 0.115 4.914 0.27 1.469 0.139 2.592 0.796 2.988 2.293 0.54 2.471 0.457 5.046 0.431 7.561z"></path>
<path fill="rgb(228, 230, 232)" d="M20.112 16.734c-2.277 1.181-5.072 2.362-7.312 3.542 0-2.369 0-4.898 0-7.267 2.24 1.188 5.035 2.536 7.312 3.724z"></path>
<path fill="rgb(7, 155, 126)" d="M20.432 23.977c-2.565 0.037-5.135 0.035-7.7-0.016-1.231-0.024-2.461-0.078-3.689-0.165-1.205-0.085-2.447-0.071-3.389-0.926-0.848-0.77-0.968-2.020-1.097-3.087-0.155-1.285-0.162-2.586-0.166-3.878-0.004-1.189-0.003-2.378 0.052-3.565 0.056-1.211 0.101-2.619 0.617-3.741-0.495 0.256-0.91 0.644-1.173 1.186-0.55 1.135-0.595 2.58-0.652 3.819-0.055 1.188-0.055 2.377-0.051 3.565 0.004 1.292 0.011 2.594 0.166 3.878 0.129 1.068 0.248 2.318 1.097 3.087 0.942 0.855 2.184 0.84 3.389 0.926 1.228 0.087 2.458 0.141 3.689 0.165 2.565 0.051 5.135 0.052 7.7 0.016 1.333-0.019 2.668-0.052 3.999-0.139 1.064-0.070 2.639 0.033 3.581-0.537 0.533-0.322 0.884-0.737 1.126-1.219-0.941 0.518-2.465 0.424-3.499 0.492-1.331 0.087-2.666 0.12-3.999 0.139z"></path>
<path fill="rgb(201, 202, 203)" d="M13.76 19.073c0-1.802 0-3.764 0-5.566-0.267-0.14-0.535-0.281-0.8-0.421 0 2.369 0 4.898 0 7.267 2.24-1.181 4.875-2.362 7.152-3.542-0.278-0.145-0.717-0.45-0.996-0.595-1.742 0.899-3.651 1.958-5.356 2.857z"></path>
<path fill="rgb(19, 74, 120)" d="M21.105 16.322c-2.784-1.452-5.583-2.905-8.367-4.357-0.318-0.166-0.738 0.037-0.738 0.414 0 2.869 0 5.738 0 8.607 0 0.041 0.012 0.083 0.020 0.124 0.017 0.218 0.166 0.351 0.336 0.399 0.115 0.044 0.254 0.044 0.394-0.028 2.784-1.444 5.57-2.887 8.353-4.33 0.313-0.163 0.314-0.666 0.002-0.829zM19.792 16.735c-2.277 1.181-4.592 2.362-6.832 3.542 0-2.369 0-4.738 0-7.107 2.24 1.188 4.555 2.376 6.832 3.564z"></path>
<path fill="rgb(19, 74, 120)" d="M29.045 10.248c-0.467-1.765-1.839-2.776-3.608-2.967-2.55-0.276-5.121-0.318-7.684-0.329-2.566-0.011-5.134-0.022-7.699 0.074-1.977 0.074-4.429-0.117-6.060 1.183-1.596 1.272-1.585 3.855-1.669 5.698-0.113 2.458-0.131 4.994 0.164 7.439 0.215 1.777 0.757 3.611 2.614 4.283 0.972 0.352 2.082 0.344 3.103 0.417 1.331 0.094 2.665 0.132 3.998 0.155 2.872 0.049 5.752 0.049 8.624-0.026 1.435-0.037 2.868-0.12 4.297-0.255 1.029-0.098 1.865-0.305 2.685-0.959 0.812-0.647 1.154-1.632 1.347-2.612 0.257-1.309 0.319-2.655 0.347-3.985 0.057-2.694 0.118-5.469-0.46-8.116zM28.549 18.064c-0.013 1.251-0.073 2.502-0.266 3.739-0.18 1.154-0.532 2.135-1.574 2.766-0.943 0.57-2.357 0.468-3.421 0.537-1.331 0.087-2.665 0.12-3.999 0.139-2.565 0.037-5.135 0.035-7.7-0.016-1.231-0.024-2.461-0.078-3.689-0.165-1.205-0.085-2.447-0.071-3.389-0.926-0.848-0.77-0.968-2.020-1.097-3.087-0.155-1.285-0.162-2.586-0.166-3.878-0.004-1.189-0.003-2.378 0.051-3.565 0.057-1.239 0.102-2.684 0.652-3.819 0.465-0.958 1.406-1.438 2.423-1.548 1.325-0.143 2.657-0.217 3.988-0.267 3.279-0.122 6.575-0.099 9.855-0.034 1.641 0.032 3.28 0.115 4.914 0.27 1.469 0.139 2.592 0.796 2.988 2.293 0.54 2.471 0.457 5.046 0.431 7.561z"></path>
</svg>
