<svg xmlns="http://www.w3.org/2000/svg" viewBox="0 0 32 32" width="100%" height="100%" preserveAspectRatio="none">
  <path fill="#B00" d="M28.275 9.914c-.37-1.404-1.4-2.195-3.058-2.352-1.55-.147-3.16-.235-4.92-.27-1.826-.036-3.343-.053-4.774-.053-1.84 0-3.505.02-5.086.08-1.608.06-2.84.14-3.994.26-1.166.12-2.05.69-2.486 1.59-.536 1.1-.598 2.48-.653 3.7l-.007.15c-.054 1.18-.055 2.36-.052 3.57s.008 2.57.167 3.88l.015.12c.126 1.05.27 2.25 1.108 3.01.865.78 1.983.85 3.064.92l.37.02c1.2.08 2.44.14 3.69.16 1.37.025 2.8.04 4.23.04 1.13 0 2.29-.01 3.46-.026 1.18-.015 2.58-.045 4-.14.22-.01.46-.02.7-.026.93-.027 1.99-.058 2.75-.52 1.14-.69 1.45-1.81 1.61-2.82.17-1.086.25-2.24.265-3.75l.01-.627c.03-2.3.055-4.68-.44-6.956z"/>
  <path fill="#E4E6E8" d="M20.204 16.155c-2.277 1.18-5.072 2.362-7.312 3.542V12.27c2.24 1.188 5.035 2.696 7.312 3.884z"/>
  <path fill="#9B0505" d="M20.524 23.398c-2.565.037-5.135.035-7.7-.016-1.23-.024-2.46-.078-3.69-.165-1.204-.085-2.446-.07-3.388-.926-.848-.77-.968-2.02-1.097-3.08-.16-1.28-.17-2.58-.17-3.88-.01-1.19-.01-2.38.05-3.56.05-1.21.1-2.62.61-3.74-.5.26-.91.65-1.18 1.19-.55 1.14-.6 2.58-.66 3.82-.06 1.19-.06 2.38-.05 3.57 0 1.29.01 2.6.16 3.88.13 1.07.244 2.32 1.093 3.09.94.86 2.184.84 3.39.93 1.23.09 2.46.15 3.69.17 2.564.05 5.134.05 7.7.02 1.33-.02 2.667-.052 4-.14 1.06-.07 2.48.034 3.42-.536.53-.327.88-.74 1.125-1.22-.94.52-2.304.42-3.34.49-1.33.084-2.664.12-4 .14z"/>
  <path fill="#C9CACB" d="M13.852 18.494v-5.566l-.8-.42v7.266c2.24-1.18 4.715-2.362 6.992-3.542-.278-.145-.717-.45-.996-.595-1.742.9-3.49 1.958-5.196 2.857z"/>
  <path fill="#134A78" d="M21.197 15.743c-2.784-1.452-5.583-2.905-8.367-4.357-.318-.166-.738.037-.738.414v8.607c0 .04.012.083.02.124.017.22.166.36.336.4.115.05.254.05.394-.02l8.353-4.33c.313-.16.314-.66.002-.83zm-1.313.413c-2.277 1.18-4.592 2.362-6.832 3.542V12.59c2.303 1.223 4.61 2.406 6.832 3.565z"/>
  <path fill="#134A78" d="M29.137 9.668c-.467-1.765-1.84-2.776-3.608-2.967-2.55-.27-5.13-.31-7.69-.32-2.57-.01-5.14-.02-7.7.08-1.98.08-4.43-.11-6.06 1.19-1.59 1.25-1.58 3.84-1.67 5.68-.12 2.46-.13 5 .16 7.44.21 1.78.76 3.61 2.61 4.28.97.35 2.08.34 3.1.42 1.33.1 2.67.13 4 .16 2.87.05 5.75.05 8.63-.03 1.433-.03 2.87-.12 4.3-.25 1.03-.1 1.86-.3 2.68-.96.81-.64 1.153-1.63 1.346-2.61.25-1.31.313-2.65.34-3.98.055-2.693.116-5.47-.46-8.115zm-.496 7.817c-.01 1.25-.07 2.502-.26 3.74-.18 1.153-.53 2.134-1.57 2.765-.94.57-2.35.468-3.42.537-1.33.087-2.66.12-4 .14-2.56.036-5.13.034-7.7-.017-1.23-.024-2.46-.078-3.69-.165-1.2-.085-2.44-.07-3.39-.926-.84-.77-.96-2.02-1.09-3.09-.15-1.29-.16-2.59-.16-3.88 0-1.19 0-2.38.05-3.57.06-1.24.11-2.69.66-3.82.46-.96 1.4-1.44 2.42-1.55 1.33-.15 2.66-.22 3.99-.27 3.28-.13 6.58-.1 9.86-.04 1.64.03 3.28.11 4.92.27 1.47.14 2.59.79 2.988 2.29.54 2.47.46 5.04.434 7.56z"/>
</svg>
