<svg xmlns="http://www.w3.org/2000/svg" viewBox="0 0 32 32" width="100%" height="100%" preserveAspectRatio="none">
  <path fill="#02B995" d="M28.536 18.076c-.013 1.25-.073 2.502-.266 3.74-.18 1.153-.532 2.134-1.574 2.765-.943.57-2.357.47-3.42.54-1.332.09-2.666.12-4 .14-2.565.04-5.135.04-7.7-.01-1.23-.02-2.46-.07-3.69-.16-1.204-.08-2.446-.07-3.388-.92-.848-.77-.968-2.02-1.097-3.084-.15-1.285-.16-2.586-.16-3.88 0-1.19 0-2.38.05-3.564.06-1.24.11-2.684.66-3.82.46-.96 1.4-1.44 2.42-1.55 1.33-.146 2.66-.22 3.99-.27 3.28-.122 6.58-.1 9.86-.034 1.64.03 3.28.115 4.916.27 1.47.14 2.593.796 2.99 2.293.54 2.47.456 5.05.43 7.56z"/>
  <path fill="#E4E6E8" d="M20.112 16.734c-2.277 1.18-5.072 2.362-7.312 3.542V13.01c2.24 1.187 5.035 2.535 7.312 3.723z"/>
  <path fill="#079B7E" d="M20.432 23.977c-2.565.037-5.135.035-7.7-.016-1.23-.02-2.46-.07-3.69-.16-1.204-.08-2.446-.07-3.388-.92-.848-.77-.968-2.02-1.097-3.08-.155-1.28-.162-2.58-.166-3.88 0-1.19 0-2.38.06-3.56.06-1.21.1-2.62.62-3.74-.49.258-.91.646-1.17 1.188-.55 1.136-.59 2.58-.65 3.82C3.2 14.81 3.2 16 3.2 17.188c0 1.29.01 2.592.168 3.876.13 1.07.25 2.32 1.098 3.09.944.855 2.186.84 3.39.926 1.23.088 2.46.14 3.69.166 2.565.05 5.135.05 7.7.017 1.333-.015 2.668-.05 4-.135 1.063-.07 2.638.033 3.58-.537.533-.32.884-.73 1.126-1.22-.94.52-2.464.43-3.5.5-1.33.087-2.665.12-4 .14z"/>
  <path fill="#C9CACB" d="M13.76 19.073v-5.566l-.8-.42v7.266c2.24-1.18 4.875-2.362 7.152-3.542-.278-.14-.717-.45-.996-.59-1.742.9-3.65 1.96-5.356 2.86z"/>
  <path fill="#134A78" d="M21.105 16.322c-2.784-1.452-5.583-2.905-8.367-4.357-.318-.166-.738.037-.738.414v8.6c0 .04.012.08.02.12.017.21.166.35.336.4.115.04.254.04.394-.03l8.353-4.33c.313-.17.314-.67.002-.83zm-1.313.413c-2.277 1.18-4.592 2.362-6.832 3.542V13.17c2.24 1.188 4.555 2.376 6.832 3.564z"/>
  <path fill="#134A78" d="M29.045 10.248c-.467-1.765-1.84-2.776-3.608-2.967-2.55-.27-5.12-.31-7.684-.32-2.566-.01-5.134-.02-7.7.08-1.976.08-4.428-.11-6.06 1.19C2.4 9.48 2.41 12.07 2.326 13.91c-.113 2.46-.13 4.993.164 7.44.214 1.775.756 3.61 2.613 4.28.972.35 2.082.34 3.103.41 1.33.095 2.665.133 3.998.156 2.872.05 5.752.05 8.624-.028 1.435-.038 2.868-.12 4.297-.256 1.03-.1 1.865-.306 2.685-.96.812-.647 1.154-1.63 1.347-2.61.257-1.31.32-2.657.347-3.987.057-2.692.118-5.47-.46-8.114zm-.496 7.816c-.02 1.25-.08 2.502-.27 3.74-.18 1.153-.53 2.134-1.58 2.765-.95.57-2.36.46-3.42.53-1.33.08-2.67.12-4 .14-2.57.03-5.14.03-7.7-.02-1.23-.03-2.46-.08-3.69-.17-1.21-.09-2.45-.07-3.39-.93-.85-.77-.97-2.02-1.1-3.09-.16-1.287-.16-2.588-.17-3.88-.007-1.19 0-2.38.05-3.567.06-1.24.1-2.684.65-3.82.47-.956 1.41-1.436 2.426-1.546 1.33-.14 2.66-.215 3.99-.265 3.28-.126 6.576-.1 9.856-.038 1.64.03 3.28.114 4.913.27 1.47.14 2.593.795 2.99 2.292.54 2.47.456 5.05.43 7.56z"/>
</svg>
