<svg xmlns="http://www.w3.org/2000/svg" xmlns:xlink="http://www.w3.org/1999/xlink" width="513.482" height="81.617" viewBox="0 0 513.482 81.617"><path fill="#3C4042" d="M121.205-438.134h-8.176v8.506h-5.45v-28.903c4.54 0 9.084-.042 13.625-.042 14.12 0 14.162 20.438 0 20.438m-8.176-4.996h8.175c6.978 0 6.937-10.24 0-10.24h-8.176v10.24zM163.898-443.915c-.082 7.475-4.665 14.945-14.822 14.945-10.158 0-14.865-7.307-14.865-14.904s4.874-15.236 14.866-15.236c9.95 0 14.905 7.64 14.822 15.195m-24.318.124c.123 4.747 2.684 9.825 9.496 9.825 6.813 0 9.373-5.12 9.455-9.868.083-4.872-2.64-10.322-9.454-10.322-6.813 0-9.62 5.49-9.496 10.364M197.84-429.628h-4.624l-3.593-9.084-3.054-9.125-3.016 9.208-3.51 9.002h-4.625l-10.612-28.904h6.11l6.814 20.852 7.02-20.852h3.55l7.226 20.852 6.606-20.852h6.11M233.144-429.628h-21.638v-28.904h21.638v5.285h-16.228v6.647h15.65v5.08h-15.65v6.523h16.228M262.996-429.628h-6.482l-8.422-9.662h-5.244v9.662h-5.45v-28.944c4.583 0 9.167.04 13.75.04 6.812.042 10.406 4.584 10.406 9.58 0 3.964-1.818 7.97-7.31 9.084l8.753 9.868v.372zm-20.15-23.825v9.25h8.3c3.47 0 4.956-2.313 4.956-4.626s-1.527-4.623-4.956-4.623h-8.3zM265.886-458.532h2.19v28.902h-2.19zM275.425-458.532l19.448 23.907v-23.907h2.187v28.903h-.867l-19.488-23.865v23.866h-2.23v-28.902M305.732-444.782h16.64v2.106h-16.64v13.088h-2.23v-28.944h19.447v2.23H305.73M330.093-458.532v26.798h16.27v2.105h-18.498v-28.902M371.013-458.532v17.96c0 15.113-22.133 15.155-22.133 0v-17.96h2.19v17.96c0 12.43 17.753 12.39 17.753 0v-17.96h2.19zM379.27-445.195h16.93v2.023h-16.93v11.396h18.25v2.147h-20.437v-28.902h19.944v2.106H379.27M404.292-458.532l19.448 23.907v-23.907h2.19v28.903h-.868l-19.49-23.865v23.866h-2.23v-28.902M456.238-433.633c-2.89 2.89-6.73 4.335-10.53 4.335-9.745 0-14.823-6.813-14.864-14.616-.082-7.722 4.955-14.947 14.865-14.947 3.798 0 7.638 1.444 10.528 4.333l-1.53 1.322c-2.476-2.477-5.737-3.675-9-3.675-8.423 0-12.76 5.946-12.718 12.883.084 6.77 4.377 12.636 12.72 12.636 3.26 0 6.563-1.24 9.04-3.677l1.488 1.404zM463.626-445.195h16.93v2.023h-16.93v11.396h18.25v2.147H461.44v-28.902h19.942v2.106h-17.756M509.873-429.628h-2.932l-9.99-10.942h-7.888v10.942h-2.23v-28.903h12.72c6.274 0 9.454 4.5 9.495 9 .04 4.708-3.055 8.837-9.373 8.837l10.2 11.065zm-20.81-13.048h10.24c5.036 0 7.267-2.85 7.308-6.896.042-3.385-2.27-6.895-7.06-6.895h-10.488v13.79z"/><path fill="#166354" d="M51.48-441.12c0-14.77 5.754-27.556 14.135-33.77-1.73-1.283-3.572-2.285-5.5-2.967-11.263 3.982-19.636 18.914-19.636 36.737s8.372 32.754 19.635 36.737c1.928-.68 3.77-1.684 5.5-2.966-8.38-6.21-14.136-18.996-14.136-33.77"/><g><defs><path id="a" d="M60.115-477.857c1.928.683 3.77 1.685 5.5 2.968 8.382 6.214 16.526 16.52 16.136 33.772-.398 17.577-7.753 27.557-16.136 33.77-1.73 1.285-3.57 2.286-5.5 2.967 1.927.682 3.935 1.052 6 1.052 1.89 0 3.73-.31 5.5-.88 11.516-3.713 20.137-18.823 20.137-36.91 0-18.086-8.62-33.194-20.135-36.906-1.772-.57-3.61-.882-5.5-.882-2.067-.002-4.074.37-6 1.05"/></defs><clipPath id="b"><use xlink:href="#a" overflow="visible"/></clipPath><linearGradient id="c" gradientUnits="userSpaceOnUse" x1="-129.81" y1="-72.545" x2="-128.81" y2="-72.545" gradientTransform="scale(62.5057) rotate(-45 -160.088 -124.7)"><stop offset="0" stop-color="#128A76"/><stop offset=".22" stop-color="#148D77"/><stop offset=".403" stop-color="#19987A"/><stop offset=".572" stop-color="#21A97F"/><stop offset=".734" stop-color="#2DC186"/><stop offset=".888" stop-color="#3CE08F"/><stop offset="1" stop-color="#4AFC97"/></linearGradient><path clip-path="url(#b)" fill="url(#c)" d="M22.326-441.12l53.607-53.605 53.607 53.606-53.607 53.608"/></g><g><path fill="#177261" d="M68.945-408.904c-.107-.024-.216-.063-.324-.092-1.023-.673-10.06-6.016-13.525-8.294l-8.96-5.88c-.205-.134-.41-.27-.615-.402l-1.246-.818c-2.065-1.355-4.13-2.708-6.194-4.067-.407-.27-.78-.556-1.127-.856-1.896-1.657-2.85-3.792-2.942-6.323-.015-.396-.01-.8.017-1.216.18-2.78.368-5.558.558-8.336.178-2.59.355-5.177.53-7.767.1-1.466.2-2.932.303-4.396.255-3.67.51-7.337.732-11.007.003-.06.01-.113.014-.17.252-3.47 1.76-6.026 4.724-7.69-.126 0-.252.01-.378.017-3.008 1.43-6.013 2.86-9.022 4.28-1.04.492-1.922 1.08-2.66 1.76-1.765 1.624-2.687 3.788-2.85 6.503l-.014.21c-.096 1.562-.203 3.126-.308 4.69-.165 2.457-.33 4.916-.5 7.374-.07 1.043-.144 2.086-.215 3.13-.135 2.03-.275 4.06-.414 6.09-.23 3.338-.456 6.674-.672 10.012-.064.99-.006 1.927.17 2.807.328 1.64 1.078 3.08 2.285 4.29.284.286.595.56.932.82.213.164.433.325.666.478 2.765 1.82 5.533 3.635 8.3 5.45 2.855 1.87 5.702 3.75 8.555 5.62.21.14.42.278.63.416 3.016 1.98 6.032 3.96 9.04 5.95.336.222.673.44 1.008.664 1.82 1.203 3.67 1.728 5.55 1.637.155-.006.31-.02.463-.036l1.533-.728c2.04-.97 4.078-1.938 6.118-2.905l.446-.21c.12-.06.232-.12.35-.18.023-.01.045-.02.068-.032.378-.193.74-.395 1.084-.607.115-.072.227-.146.34-.22l-.47.22c-.664.012-1.323-.04-1.977-.184"/></g><g><defs><path id="d" d="M72.03-409.512c-.167.166-.336.326-.502.474.268-.127.54-.406.818-.726-.105.084-.21.17-.316.252m1.777-1.848s.002 0 .002-.003l-.003.003m-33.534-64.73c-.125.004-.252.013-.378.02-2.99 1.467-5.976 2.935-8.968 4.394-1.034.504-1.908 1.102-2.637 1.79 2.462-.564 4.88.02 7.02 1.335.112.07.223.14.335.208 2.76 1.7 5.504 3.42 8.242 5.153 4.424 2.8 8.83 5.626 13.232 8.463 1.793 1.156 3.588 2.312 5.382 3.47 3.498 2.25 5.257 5.312 4.934 9.714-.726 9.912-1.277 19.843-1.663 29.774-.008.198-.023.387-.04.577-.014.195-.033.386-.055.574-.013.115-.027.228-.043.34-.288 2.002-1 3.663-2.13 5.042l-2.244 1.094c.155-.01.308-.023.463-.042.316-.036.633-.08.95-.15.77-.174 1.546-.447 2.324-.824 1.635-.792 3.172-1.78 4.805-2.577.258-.126.425-.438.682-.565l.1-.048c.28-.14.606-.388.944-.688-.09.042-.177.067-.264.07.115-.072.225-.148.335-.225.15-.102.29-.21.43-.32.71-.703 1.4-1.52 1.77-1.962-.005.018.017.097.01.112 1.384-1.703 2.178-3.776 2.28-6.445.39-9.932.95-19.838 1.677-29.75.28-3.813-.994-6.595-3.614-8.74-.404-.333-.84-.65-1.308-.952-3.276-2.11-6.55-4.22-9.83-6.326-4.147-2.665-8.305-5.312-12.484-7.928-1.622-1.016-3.246-2.033-4.877-3.037-1.59-.98-3.334-1.552-5.137-1.552-.08 0-.162 0-.243.002"/></defs><clipPath id="e"><use xlink:href="#d" overflow="visible"/></clipPath><linearGradient id="f" gradientUnits="userSpaceOnUse" x1="-132.753" y1="-73.849" x2="-131.754" y2="-73.849" gradientTransform="scale(163.1713) rotate(33.54 61.193 255.07)"><stop offset="0" stop-color="#4AFC97"/><stop offset=".321" stop-color="#49FA96"/><stop offset=".495" stop-color="#45F294"/><stop offset=".633" stop-color="#3EE490"/><stop offset=".753" stop-color="#35D18A"/><stop offset=".861" stop-color="#28B883"/><stop offset=".959" stop-color="#19997A"/><stop offset="1" stop-color="#128A76"/></linearGradient><path clip-path="url(#e)" fill="url(#f)" d="M43.48-499.006l67.7 44.877-48.323 72.9-67.7-44.877"/></g><g><path fill="#1F8975" d="M69.263-411.106c-.11.022-.224.03-.333.05-1.21-.19-11.647-1.324-15.745-1.967-3.53-.554-7.06-1.104-10.588-1.656l-.727-.112-1.473-.23c-2.44-.38-4.88-.76-7.32-1.146-.482-.076-.94-.184-1.38-.314-2.413-.727-4.16-2.278-5.292-4.544-.177-.354-.34-.726-.487-1.113-.984-2.605-1.96-5.213-2.935-7.822-.908-2.43-1.814-4.862-2.724-7.292-.517-1.376-1.028-2.753-1.54-4.13-1.283-3.446-2.565-6.892-3.88-10.326-.02-.054-.036-.106-.056-.16-1.203-3.264-.886-6.215 1.125-8.954-.113.053-.227.11-.34.17-2.146 2.543-4.293 5.088-6.447 7.625-.745.878-1.305 1.777-1.695 2.7-.938 2.21-.884 4.56.09 7.102.022.066.047.13.072.195.56 1.465 1.106 2.933 1.657 4.4.865 2.307 1.73 4.61 2.59 6.92.366.98.73 1.96 1.097 2.94.714 1.905 1.425 3.813 2.136 5.72 1.17 3.133 2.34 6.266 3.523 9.395.35.93.79 1.758 1.313 2.486.976 1.358 2.254 2.36 3.853 2.963.377.145.773.265 1.187.362.26.062.528.118.804.162 3.272.517 6.542 1.025 9.813 1.536 3.37.526 6.74 1.06 10.11 1.588l.746.118c3.563.558 7.128 1.115 10.688 1.686.397.063.795.124 1.192.188 2.152.345 4.056.058 5.73-.802.137-.07.27-.146.405-.225l1.096-1.295c1.458-1.726 2.915-3.45 4.373-5.173l.32-.377c.085-.102.163-.204.245-.306.016-.02.03-.04.048-.06.264-.33.512-.664.735-1 .077-.114.147-.23.22-.342l-.336.395c-.594.286-1.216.51-1.87.65"/></g><g><defs><path id="g" d="M71.377-412.717c-.084.22-.172.436-.263.638.19-.226.325-.592.445-.996-.06.12-.12.24-.183.36m.854-2.418c.002 0 .002-.002.002-.004v.004m-57.27-45.108c-.113.056-.226.114-.336.176-2.117 2.57-4.23 5.142-6.355 7.704-.73.885-1.282 1.792-1.66 2.72 2.01-1.53 4.454-1.997 6.945-1.683l.39.052c3.216.407 6.427.843 9.636 1.29 5.186.72 10.366 1.477 15.547 2.242 2.11.31 4.223.624 6.336.937 4.113.606 6.98 2.668 8.504 6.81 3.432 9.327 7.03 18.6 10.78 27.805.073.182.137.36.2.54.068.184.13.365.188.546.035.11.07.22.102.328.563 1.94.6 3.748.143 5.47-.53.643-1.062 1.283-1.593 1.923.137-.07.27-.15.402-.23.272-.163.543-.332.803-.528.632-.477 1.224-1.047 1.775-1.71 1.163-1.397 2.154-2.934 3.313-4.332.185-.22.207-.572.388-.797.023-.026.046-.056.07-.084.197-.245.394-.605.577-1.02-.063.077-.134.137-.212.176.075-.114.144-.23.213-.344.095-.155.18-.312.262-.47.355-.933.646-1.962.8-2.518.002.02.054.08.055.098.56-2.122.424-4.338-.583-6.81-3.75-9.207-7.328-18.46-10.76-27.79-1.318-3.587-3.627-5.595-6.9-6.468-.506-.135-1.03-.244-1.583-.325-3.854-.57-7.71-1.14-11.564-1.705-4.878-.714-9.758-1.41-14.644-2.064-1.9-.255-3.8-.512-5.7-.75-.484-.063-.97-.095-1.446-.095-1.43 0-2.82.283-4.09.903"/></defs><clipPath id="h"><use xlink:href="#g" overflow="visible"/></clipPath><linearGradient id="i" gradientUnits="userSpaceOnUse" x1="-132.27" y1="-73.634" x2="-131.269" y2="-73.634" gradientTransform="scale(163.1712) rotate(9.15 411 858.53)"><stop offset="0" stop-color="#4AFC97"/><stop offset=".321" stop-color="#49FA96"/><stop offset=".495" stop-color="#45F294"/><stop offset=".633" stop-color="#3EE490"/><stop offset=".753" stop-color="#35D18A"/><stop offset=".861" stop-color="#28B883"/><stop offset=".959" stop-color="#19997A"/><stop offset="1" stop-color="#128A76"/></linearGradient><path clip-path="url(#h)" fill="url(#i)" d="M8.283-471.536l73.577 11.852-10.743 66.693-73.577-11.852"/></g><g><path fill="#166354" d="M49.98 40.357c0-14.772 5.754-27.557 14.135-33.77-1.73-1.284-3.572-2.286-5.5-2.968C47.352 7.602 38.98 22.533 38.98 40.356S47.35 73.11 58.614 77.094c1.928-.68 3.77-1.684 5.5-2.966-8.38-6.213-14.136-18.998-14.136-33.77"/><g fill="#FFF"><path d="M119.705 43.342h-8.176v8.506h-5.45V22.944c4.54 0 9.084-.04 13.625-.04 14.12 0 14.162 20.438 0 20.438m-8.176-4.996h8.175c6.978 0 6.937-10.24 0-10.24h-8.176v10.24zM162.398 37.562c-.082 7.475-4.665 14.945-14.822 14.945-10.158 0-14.865-7.307-14.865-14.904s4.874-15.236 14.866-15.236c9.95 0 14.905 7.638 14.822 15.195m-24.318.124c.123 4.748 2.684 9.826 9.496 9.826 6.813 0 9.373-5.12 9.455-9.868.083-4.872-2.64-10.322-9.454-10.322-6.813 0-9.62 5.49-9.496 10.364M196.34 51.848h-4.624l-3.593-9.084-3.054-9.125-3.016 9.207-3.51 9h-4.625l-10.612-28.903h6.11l6.814 20.852 7.02-20.852h3.55l7.226 20.852 6.606-20.852h6.11M231.644 51.848h-21.638V22.944h21.638v5.285h-16.228v6.646h15.65v5.08h-15.65v6.523h16.228M261.496 51.848h-6.482l-8.422-9.662h-5.244v9.662h-5.45V22.903c4.583 0 9.167.04 13.75.04 6.812.042 10.406 4.584 10.406 9.58 0 3.964-1.818 7.97-7.31 9.084l8.753 9.868v.373zm-20.15-23.825v9.25h8.3c3.47 0 4.956-2.313 4.956-4.626s-1.527-4.624-4.956-4.624h-8.3zM264.386 22.944h2.19v28.902h-2.19zM273.925 22.944l19.448 23.908V22.944h2.187v28.903h-.867L275.205 27.98v23.867h-2.23V22.944M304.232 36.694h16.64V38.8h-16.64v13.088h-2.23V22.944h19.447v2.23H304.23M328.593 22.944v26.798h16.27v2.105h-18.498V22.944M369.513 22.944v17.96c0 15.113-22.133 15.155-22.133 0v-17.96h2.19v17.96c0 12.43 17.753 12.39 17.753 0v-17.96h2.19zM377.77 36.28h16.93v2.024h-16.93V49.7h18.25v2.147h-20.437V22.944h19.944v2.106H377.77M402.792 22.944l19.448 23.908V22.944h2.19v28.903h-.868l-19.49-23.866v23.867h-2.23V22.944M454.738 47.843c-2.89 2.89-6.73 4.335-10.53 4.335-9.745 0-14.823-6.813-14.864-14.616-.082-7.722 4.955-14.947 14.865-14.947 3.798 0 7.638 1.445 10.528 4.334l-1.53 1.32c-2.476-2.476-5.737-3.674-9-3.674-8.423 0-12.76 5.946-12.718 12.883.084 6.77 4.377 12.635 12.72 12.635 3.26 0 6.563-1.24 9.04-3.676l1.488 1.403zM462.126 36.28h16.93v2.024h-16.93V49.7h18.25v2.147H459.94V22.944h19.942v2.106h-17.756M508.373 51.848h-2.932l-9.99-10.942h-7.888v10.942h-2.23V22.944h12.72c6.274 0 9.454 4.502 9.495 9.002.04 4.707-3.055 8.836-9.373 8.836l10.2 11.066zM487.563 38.8h10.24c5.036 0 7.267-2.85 7.308-6.896.042-3.385-2.27-6.895-7.06-6.895h-10.488V38.8z"/></g><defs><path id="j" d="M58.615 3.62c1.928.682 3.77 1.684 5.5 2.967C72.496 12.8 80.64 23.105 80.25 40.357c-.4 17.577-7.754 27.557-16.137 33.77-1.73 1.285-3.57 2.286-5.5 2.967 1.927.683 3.935 1.053 6 1.053 1.89 0 3.73-.31 5.5-.88C81.63 73.553 90.25 58.442 90.25 40.356c0-18.087-8.62-33.195-20.136-36.907-1.772-.57-3.61-.882-5.5-.882-2.066 0-4.073.37-6 1.05"/></defs><clipPath id="k"><use xlink:href="#j" overflow="visible"/></clipPath><linearGradient id="l" gradientUnits="userSpaceOnUse" x1="-135.274" y1="-77.975" x2="-134.274" y2="-77.975" gradientTransform="scale(62.5057) rotate(-45 -160.088 -124.7)"><stop offset="0" stop-color="#128A76"/><stop offset=".22" stop-color="#148D77"/><stop offset=".403" stop-color="#19987A"/><stop offset=".572" stop-color="#21A97F"/><stop offset=".734" stop-color="#2DC186"/><stop offset=".888" stop-color="#3CE08F"/><stop offset="1" stop-color="#4AFC97"/></linearGradient><path clip-path="url(#k)" fill="url(#l)" d="M20.826 40.357L74.433-13.25l53.607 53.607-53.607 53.607"/><path fill="#177261" d="M67.445 72.572c-.107-.024-.216-.063-.324-.092-1.023-.673-10.06-6.016-13.525-8.294l-8.96-5.88c-.205-.134-.41-.27-.615-.402l-1.246-.818c-2.065-1.355-4.13-2.708-6.194-4.067-.407-.27-.78-.557-1.127-.857-1.896-1.657-2.85-3.792-2.942-6.323-.015-.396-.01-.8.017-1.216.18-2.78.368-5.558.558-8.336.178-2.59.355-5.177.53-7.767.1-1.465.2-2.93.303-4.395.255-3.668.51-7.336.732-11.006.003-.06.01-.114.014-.17.252-3.47 1.76-6.027 4.724-7.692-.126.002-.252.01-.378.018-3.01 1.427-6.015 2.858-9.025 4.28-1.04.49-1.922 1.078-2.66 1.758-1.765 1.625-2.687 3.79-2.85 6.504l-.014.21c-.095 1.562-.202 3.126-.307 4.69-.165 2.457-.33 4.916-.5 7.374-.07 1.043-.144 2.086-.215 3.13-.136 2.03-.276 4.06-.415 6.09-.23 3.338-.456 6.674-.672 10.012-.063.992-.005 1.928.17 2.808.33 1.64 1.08 3.08 2.286 4.29.285.286.596.56.933.82.212.164.432.325.665.478 2.765 1.82 5.533 3.635 8.3 5.45 2.855 1.87 5.702 3.75 8.555 5.62.21.14.42.278.63.416 3.016 1.98 6.032 3.96 9.04 5.95.336.22.673.44 1.008.663 1.818 1.202 3.67 1.727 5.55 1.636.154-.007.31-.02.462-.037l1.533-.73c2.04-.968 4.078-1.937 6.118-2.904.15-.07.3-.142.447-.212.12-.058.232-.118.35-.178.023-.01.045-.022.068-.033.378-.193.74-.395 1.084-.607.114-.073.226-.147.338-.222l-.468.222c-.662.013-1.32-.04-1.975-.184"/><g><defs><path id="m" d="M70.53 71.964c-.167.166-.336.326-.502.474.268-.127.54-.406.818-.726-.105.084-.21.17-.316.252m1.777-1.848s.002 0 .002-.003l-.003.003M38.773 5.386c-.125.004-.252.013-.378.02-2.99 1.467-5.976 2.935-8.968 4.394-1.034.504-1.908 1.102-2.637 1.79 2.462-.564 4.88.02 7.02 1.335l.335.21c2.76 1.698 5.504 3.42 8.242 5.152 4.424 2.798 8.83 5.625 13.232 8.462 1.793 1.155 3.588 2.31 5.382 3.468 3.498 2.252 5.257 5.313 4.934 9.715-.726 9.912-1.277 19.843-1.663 29.774-.008.197-.023.386-.04.576-.014.195-.033.386-.055.574-.013.114-.027.227-.043.34-.288 2-1 3.662-2.13 5.04-.747.366-1.496.73-2.244 1.095.155-.01.308-.023.463-.042.316-.036.633-.08.95-.15.77-.174 1.546-.447 2.324-.824 1.635-.792 3.172-1.78 4.805-2.577.258-.127.425-.44.682-.566l.1-.048c.28-.14.606-.388.944-.688-.09.042-.177.067-.264.07.115-.072.225-.148.335-.225.15-.102.29-.21.43-.32.71-.703 1.4-1.52 1.77-1.962-.005.02.017.098.01.113 1.384-1.703 2.178-3.776 2.28-6.445.39-9.932.95-19.838 1.677-29.75.28-3.813-.994-6.595-3.614-8.74-.404-.333-.84-.65-1.308-.952-3.276-2.11-6.55-4.22-9.83-6.326-4.147-2.665-8.305-5.312-12.484-7.928-1.622-1.016-3.246-2.033-4.877-3.037-1.59-.98-3.334-1.55-5.137-1.55h-.243"/></defs><clipPath id="n"><use xlink:href="#m" overflow="visible"/></clipPath><linearGradient id="o" gradientUnits="userSpaceOnUse" x1="-131.131" y1="-76.313" x2="-130.131" y2="-76.313" gradientTransform="scale(163.1713) rotate(33.54 61.193 255.07)"><stop offset="0" stop-color="#4AFC97"/><stop offset=".321" stop-color="#49FA96"/><stop offset=".495" stop-color="#45F294"/><stop offset=".633" stop-color="#3EE490"/><stop offset=".753" stop-color="#35D18A"/><stop offset=".861" stop-color="#28B883"/><stop offset=".959" stop-color="#19997A"/><stop offset="1" stop-color="#128A76"/></linearGradient><path clip-path="url(#n)" fill="url(#o)" d="M41.98-17.53l67.7 44.877-48.323 72.898-67.7-44.876"/></g><g><path fill="#1F8975" d="M67.763 70.37c-.11.022-.224.03-.333.05-1.21-.19-11.647-1.324-15.745-1.967-3.53-.554-7.06-1.104-10.588-1.656l-.727-.113-1.473-.23c-2.44-.38-4.88-.76-7.32-1.146-.482-.076-.94-.184-1.38-.314-2.413-.727-4.16-2.278-5.292-4.544-.177-.354-.34-.726-.487-1.113-.984-2.606-1.96-5.214-2.935-7.823-.908-2.43-1.814-4.862-2.724-7.292-.517-1.376-1.028-2.753-1.54-4.13-1.283-3.446-2.565-6.892-3.88-10.326-.02-.054-.036-.106-.056-.16-1.203-3.264-.886-6.215 1.125-8.954-.113.053-.227.11-.34.17-2.146 2.543-4.293 5.088-6.447 7.625-.745.877-1.305 1.776-1.695 2.7-.938 2.208-.884 4.56.09 7.1.022.067.047.132.072.196.56 1.465 1.106 2.933 1.657 4.4.865 2.307 1.73 4.61 2.59 6.92.366.98.73 1.96 1.097 2.94.714 1.905 1.425 3.813 2.136 5.72 1.17 3.133 2.34 6.266 3.523 9.395.35.93.79 1.758 1.313 2.486.976 1.358 2.254 2.36 3.853 2.963.377.144.773.264 1.187.36.26.063.528.12.804.163 3.272.517 6.542 1.025 9.813 1.536 3.37.526 6.74 1.06 10.11 1.588l.746.118c3.563.558 7.128 1.115 10.688 1.686.397.063.795.124 1.192.188 2.152.345 4.056.058 5.73-.802.137-.07.27-.146.405-.225l1.096-1.296c1.458-1.726 2.915-3.45 4.373-5.173.107-.124.213-.25.32-.376.085-.102.163-.204.245-.306.016-.02.03-.04.048-.06.264-.33.512-.664.735-1 .077-.114.147-.23.22-.342l-.336.395c-.594.287-1.216.51-1.87.65"/></g><g><defs><path id="p" d="M69.877 68.76c-.084.22-.172.435-.263.637.19-.227.325-.593.445-.997-.06.12-.12.24-.183.36m.854-2.418c.002 0 .002-.002.002-.004v.004M13.46 21.234c-.113.056-.226.114-.336.176-2.117 2.57-4.23 5.142-6.355 7.704-.73.885-1.282 1.792-1.66 2.72 2.01-1.53 4.454-1.997 6.945-1.683.13.02.26.036.39.053 3.216.407 6.427.843 9.636 1.29 5.186.72 10.366 1.477 15.547 2.242l6.336.938c4.113.606 6.98 2.668 8.504 6.81 3.432 9.327 7.03 18.6 10.78 27.805.073.182.137.36.2.54.068.184.13.365.188.546.035.11.07.22.102.328.563 1.94.6 3.748.143 5.47-.53.643-1.062 1.283-1.593 1.923.137-.07.27-.148.402-.228.272-.164.543-.333.803-.53.632-.476 1.224-1.046 1.775-1.71 1.163-1.396 2.154-2.933 3.313-4.33.185-.222.207-.573.388-.798l.07-.085c.197-.244.394-.604.577-1.018-.063.076-.134.136-.212.175.075-.114.144-.23.213-.344.095-.155.18-.312.262-.47.355-.933.646-1.962.8-2.518.002.02.054.08.055.098.56-2.122.424-4.338-.583-6.81-3.75-9.207-7.328-18.46-10.76-27.79-1.318-3.587-3.627-5.595-6.9-6.468-.506-.135-1.03-.244-1.583-.325-3.854-.57-7.71-1.14-11.564-1.704-4.878-.713-9.758-1.408-14.644-2.063-1.9-.256-3.8-.513-5.7-.752-.485-.062-.97-.094-1.447-.094-1.43 0-2.82.284-4.09.904"/></defs><clipPath id="q"><use xlink:href="#p" overflow="visible"/></clipPath><linearGradient id="r" gradientUnits="userSpaceOnUse" x1="-131.81" y1="-76.548" x2="-130.81" y2="-76.548" gradientTransform="scale(163.1712) rotate(9.15 411 858.53)"><stop offset="0" stop-color="#4AFC97"/><stop offset=".321" stop-color="#49FA96"/><stop offset=".495" stop-color="#45F294"/><stop offset=".633" stop-color="#3EE490"/><stop offset=".753" stop-color="#35D18A"/><stop offset=".861" stop-color="#28B883"/><stop offset=".959" stop-color="#19997A"/><stop offset="1" stop-color="#128A76"/></linearGradient><path clip-path="url(#q)" fill="url(#r)" d="M6.783 9.94L80.36 21.792 69.617 88.485-3.96 76.635"/></g></g><g><g fill="#FFF"><path d="M74.017-216.06H65.84v8.506h-5.448v-28.903c4.54 0 9.084-.04 13.625-.04 14.12 0 14.162 20.437 0 20.437m-8.176-4.996h8.177c6.978 0 6.937-10.24 0-10.24H65.84v10.24zM116.71-221.84c-.082 7.475-4.665 14.945-14.822 14.945-10.158 0-14.865-7.307-14.865-14.904s4.873-15.235 14.865-15.235c9.95 0 14.905 7.64 14.822 15.195m-24.318.124c.123 4.748 2.684 9.826 9.496 9.826 6.813 0 9.373-5.12 9.455-9.868.082-4.872-2.642-10.322-9.455-10.322-6.813 0-9.62 5.49-9.496 10.364M150.65-207.554h-4.622l-3.593-9.084-3.054-9.125-3.014 9.208-3.51 9h-4.625l-10.61-28.902h6.11l6.814 20.852 7.02-20.852h3.55l7.226 20.852 6.606-20.852h6.11M185.956-207.554h-21.638v-28.903h21.638v5.285h-16.228v6.647h15.65v5.08h-15.65v6.523h16.228M215.808-207.554h-6.482l-8.422-9.662h-5.244v9.662h-5.45v-28.944c4.583 0 9.167.04 13.75.04 6.81.042 10.405 4.584 10.405 9.58 0 3.964-1.817 7.97-7.31 9.084l8.753 9.868v.372zm-20.15-23.824v9.25h8.3c3.47 0 4.955-2.313 4.955-4.626s-1.527-4.624-4.955-4.624h-8.3z"/><g><path d="M218.698-236.457h2.19v28.902h-2.19zM228.237-236.457l19.448 23.907v-23.907h2.187v28.902h-.867l-19.488-23.865v23.865h-2.23v-28.902M258.544-222.707h16.64v2.105h-16.64v13.088h-2.23v-28.943h19.447v2.228h-17.216M282.906-236.457v26.798h16.27v2.105h-18.5v-28.902M323.826-236.457v17.96c0 15.113-22.133 15.155-22.133 0v-17.96h2.19v17.96c0 12.43 17.753 12.39 17.753 0v-17.96h2.19zM332.083-223.12h16.93v2.022h-16.93v11.397h18.25v2.145h-20.44v-28.902h19.946v2.105h-17.757M357.105-236.457l19.447 23.907v-23.907h2.19v28.902h-.867l-19.49-23.865v23.865h-2.23v-28.902M409.05-211.56c-2.89 2.892-6.73 4.336-10.53 4.336-9.745 0-14.823-6.813-14.864-14.616-.082-7.722 4.955-14.947 14.865-14.947 3.8 0 7.64 1.445 10.53 4.334l-1.53 1.322c-2.476-2.478-5.737-3.676-9-3.676-8.423 0-12.76 5.946-12.718 12.883.084 6.77 4.377 12.636 12.72 12.636 3.26 0 6.563-1.24 9.04-3.676l1.488 1.404zM416.44-223.12h16.93v2.022h-16.93v11.397h18.25v2.145h-20.44v-28.902h19.945v2.105H416.44M462.685-207.554h-2.932l-9.992-10.942h-7.886v10.942h-2.23v-28.903h12.72c6.274 0 9.454 4.502 9.495 9.002.04 4.707-3.056 8.836-9.374 8.836l10.2 11.066zm-20.81-13.048h10.24c5.037 0 7.268-2.85 7.31-6.896.04-3.385-2.272-6.895-7.062-6.895h-10.488v13.79z"/></g></g><path fill="#166354" d="M263.838-299.044c0-14.772 5.755-27.557 14.136-33.77-1.73-1.284-3.572-2.286-5.5-2.968-11.263 3.982-19.636 18.914-19.636 36.737s8.373 32.754 19.636 36.737c1.928-.68 3.77-1.684 5.5-2.966-8.38-6.212-14.136-18.997-14.136-33.77"/><defs><path id="s" d="M272.474-335.782c1.928.683 3.77 1.685 5.498 2.968 8.383 6.213 16.527 16.52 16.137 33.77-.4 17.578-7.755 27.558-16.138 33.772-1.73 1.284-3.57 2.285-5.498 2.966 1.926.683 3.934 1.053 6 1.053 1.89 0 3.727-.31 5.5-.88 11.514-3.713 20.135-18.823 20.135-36.91 0-18.086-8.622-33.194-20.136-36.906-1.773-.57-3.61-.88-5.5-.88-2.066-.003-4.074.368-6 1.048"/></defs><clipPath id="t"><use xlink:href="#s" overflow="visible"/></clipPath><linearGradient id="u" gradientUnits="userSpaceOnUse" x1="-129.015" y1="-76.555" x2="-128.015" y2="-76.555" gradientTransform="scale(62.5057) rotate(-45 -160.088 -124.7)"><stop offset="0" stop-color="#128A76"/><stop offset=".22" stop-color="#148D77"/><stop offset=".403" stop-color="#19987A"/><stop offset=".572" stop-color="#21A97F"/><stop offset=".734" stop-color="#2DC186"/><stop offset=".888" stop-color="#3CE08F"/><stop offset="1" stop-color="#4AFC97"/></linearGradient><path clip-path="url(#t)" fill="url(#u)" d="M234.685-299.044l53.607-53.606 53.606 53.606-53.606 53.606"/><path fill="#177261" d="M281.304-266.83c-.107-.023-.217-.062-.324-.09-1.025-.674-10.06-6.017-13.527-8.295l-8.96-5.88c-.205-.134-.41-.27-.615-.402l-1.246-.818c-2.065-1.355-4.13-2.708-6.194-4.067-.407-.27-.78-.556-1.127-.856-1.895-1.657-2.848-3.792-2.94-6.323-.017-.397-.012-.802.015-1.217.18-2.78.368-5.558.558-8.336.178-2.59.355-5.177.53-7.767.1-1.466.2-2.932.303-4.396.255-3.668.51-7.336.732-11.006.003-.06.01-.113.014-.17.252-3.47 1.76-6.026 4.724-7.69-.126 0-.252.01-.378.017-3.008 1.43-6.013 2.86-9.022 4.28-1.04.492-1.922 1.08-2.66 1.76-1.765 1.624-2.687 3.788-2.85 6.503l-.014.21c-.096 1.562-.203 3.126-.308 4.69-.165 2.457-.33 4.916-.5 7.374-.07 1.043-.144 2.086-.215 3.13-.137 2.03-.277 4.06-.416 6.09-.23 3.338-.456 6.674-.672 10.012-.064.992-.006 1.928.17 2.808.328 1.64 1.078 3.08 2.285 4.29.285.286.596.56.933.82.213.164.433.325.666.478 2.765 1.82 5.533 3.635 8.3 5.45 2.855 1.87 5.702 3.75 8.555 5.62l.632.416c3.015 1.98 6.03 3.96 9.04 5.95.335.22.672.44 1.007.663 1.817 1.202 3.668 1.727 5.55 1.636.153-.007.308-.02.46-.037.512-.244 1.023-.486 1.533-.73 2.04-.968 4.078-1.937 6.12-2.904l.444-.212c.12-.058.232-.118.35-.178.023-.01.045-.022.068-.033.38-.193.74-.395 1.084-.607.114-.073.226-.147.34-.222l-.47.222c-.663.01-1.322-.04-1.976-.185"/><g><defs><path id="v" d="M284.388-267.438c-.166.166-.336.326-.502.474.268-.127.54-.406.818-.726-.105.085-.208.17-.316.252m1.778-1.847c.002 0 .002 0 .002-.003 0 0 0 .002-.002.003m-33.534-64.73c-.125.003-.252.012-.378.02-2.99 1.466-5.976 2.934-8.968 4.393-1.034.504-1.908 1.102-2.637 1.79 2.46-.564 4.88.02 7.02 1.335l.334.21c2.76 1.698 5.504 3.42 8.242 5.152 4.424 2.798 8.83 5.625 13.232 8.462 1.795 1.156 3.59 2.312 5.383 3.47 3.5 2.25 5.26 5.312 4.935 9.714-.725 9.913-1.277 19.844-1.662 29.775-.008.197-.023.386-.04.576-.015.196-.034.387-.056.575-.012.114-.027.227-.043.34-.287 2-1 3.662-2.13 5.04-.747.366-1.495.73-2.243 1.095.155-.01.308-.023.462-.042.316-.036.633-.08.95-.15.772-.174 1.546-.447 2.325-.824 1.635-.792 3.172-1.78 4.805-2.577.258-.126.424-.438.682-.565l.098-.048c.28-.14.607-.388.945-.688-.088.042-.176.067-.264.07.115-.072.225-.148.336-.225.15-.1.29-.21.43-.318.71-.704 1.4-1.52 1.77-1.963-.006.017.016.096.008.11 1.385-1.702 2.178-3.775 2.28-6.444.39-9.932.95-19.838 1.677-29.75.28-3.813-.994-6.595-3.613-8.74-.404-.333-.84-.65-1.31-.952-3.274-2.11-6.55-4.22-9.83-6.326-4.145-2.665-8.303-5.312-12.483-7.928-1.624-1.016-3.248-2.033-4.88-3.037-1.59-.98-3.333-1.55-5.136-1.55h-.242"/></defs><clipPath id="w"><use xlink:href="#v" overflow="visible"/></clipPath><linearGradient id="x" gradientUnits="userSpaceOnUse" x1="-131.188" y1="-73.856" x2="-130.189" y2="-73.856" gradientTransform="scale(163.1713) rotate(33.54 61.193 255.07)"><stop offset="0" stop-color="#4AFC97"/><stop offset=".321" stop-color="#49FA96"/><stop offset=".495" stop-color="#45F294"/><stop offset=".633" stop-color="#3EE490"/><stop offset=".753" stop-color="#35D18A"/><stop offset=".861" stop-color="#28B883"/><stop offset=".959" stop-color="#19997A"/><stop offset="1" stop-color="#128A76"/></linearGradient><path clip-path="url(#w)" fill="url(#x)" d="M255.838-356.932l67.7 44.877-48.322 72.9-67.7-44.877"/></g><g><path fill="#1F8975" d="M281.623-269.03c-.11.02-.225.03-.334.05-1.212-.19-11.647-1.325-15.746-1.968-3.53-.554-7.06-1.104-10.588-1.656l-.727-.113-1.474-.23c-2.44-.38-4.88-.76-7.32-1.146-.482-.076-.94-.184-1.38-.314-2.413-.727-4.16-2.278-5.292-4.544-.177-.355-.34-.727-.487-1.114-.984-2.606-1.96-5.214-2.935-7.823-.908-2.43-1.814-4.862-2.724-7.292-.516-1.375-1.027-2.752-1.54-4.13-1.282-3.445-2.564-6.89-3.878-10.325l-.057-.16c-1.203-3.264-.886-6.215 1.125-8.954-.112.054-.226.112-.338.17-2.147 2.544-4.294 5.09-6.448 7.626-.745.877-1.305 1.776-1.695 2.7-.938 2.208-.884 4.56.09 7.1.022.067.047.132.072.196.56 1.465 1.105 2.933 1.656 4.4.865 2.307 1.73 4.61 2.59 6.92.366.98.73 1.96 1.097 2.94.714 1.905 1.425 3.813 2.136 5.72 1.17 3.133 2.34 6.266 3.522 9.395.35.93.79 1.758 1.313 2.486.976 1.358 2.254 2.36 3.853 2.963.378.144.774.264 1.188.36.26.063.528.12.804.163 3.27.516 6.54 1.024 9.812 1.535 3.37.526 6.74 1.06 10.11 1.588l.746.118c3.564.56 7.13 1.116 10.69 1.687.397.063.794.124 1.192.188 2.152.345 4.055.058 5.73-.802.137-.07.27-.146.404-.225l1.096-1.295c1.457-1.726 2.914-3.45 4.373-5.173.107-.125.213-.25.318-.377.087-.102.165-.204.247-.306.016-.02.03-.04.05-.06.263-.33.51-.664.733-1 .076-.114.146-.23.22-.342-.114.132-.226.263-.337.395-.595.285-1.216.51-1.87.65"/></g><g><defs><path id="y" d="M283.736-270.643c-.084.22-.172.436-.262.638.19-.227.324-.593.445-.997-.06.12-.122.24-.184.36m.853-2.418v-.004.004m-57.268-45.107c-.114.056-.227.114-.337.176-2.117 2.568-4.23 5.14-6.355 7.703-.732.885-1.283 1.792-1.662 2.72 2.01-1.53 4.455-1.997 6.946-1.683l.39.052c3.216.407 6.427.843 9.636 1.29 5.185.72 10.365 1.477 15.546 2.242l6.336.938c4.113.606 6.98 2.668 8.504 6.81 3.432 9.327 7.03 18.6 10.78 27.805.074.182.137.36.2.54.07.184.13.365.19.546.034.11.07.22.1.328.563 1.94.6 3.75.144 5.47-.53.644-1.062 1.284-1.594 1.924.137-.07.27-.148.402-.228.273-.164.545-.333.805-.53.63-.476 1.223-1.046 1.775-1.71 1.162-1.396 2.154-2.933 3.312-4.33.184-.222.207-.573.387-.798.023-.026.047-.056.07-.084.197-.244.395-.604.578-1.018-.064.076-.135.136-.213.175.076-.113.145-.228.213-.343.096-.155.18-.312.262-.47.355-.933.646-1.962.8-2.518.003.018.054.08.056.097.56-2.122.424-4.338-.584-6.81-3.75-9.207-7.33-18.46-10.76-27.79-1.32-3.587-3.628-5.595-6.9-6.468-.507-.136-1.032-.245-1.584-.326-3.854-.57-7.71-1.14-11.564-1.704-4.878-.714-9.758-1.41-14.644-2.064-1.898-.256-3.798-.513-5.698-.752-.485-.062-.97-.094-1.447-.094-1.432 0-2.82.283-4.09.903"/></defs><clipPath id="z"><use xlink:href="#y" overflow="visible"/></clipPath><linearGradient id="A" gradientUnits="userSpaceOnUse" x1="-130.847" y1="-74.286" x2="-129.846" y2="-74.286" gradientTransform="scale(163.1712) rotate(9.15 411 858.53)"><stop offset="0" stop-color="#4AFC97"/><stop offset=".321" stop-color="#49FA96"/><stop offset=".495" stop-color="#45F294"/><stop offset=".633" stop-color="#3EE490"/><stop offset=".753" stop-color="#35D18A"/><stop offset=".861" stop-color="#28B883"/><stop offset=".959" stop-color="#19997A"/><stop offset="1" stop-color="#128A76"/></linearGradient><path clip-path="url(#z)" fill="url(#A)" d="M220.642-329.46l73.576 11.85-10.742 66.694-73.578-11.852"/></g></g><g><path fill="#166354" d="M265.914-82.444c0-14.772 5.756-27.557 14.137-33.77-1.73-1.284-3.57-2.286-5.5-2.968-11.262 3.982-19.635 18.914-19.635 36.737s8.373 32.754 19.636 36.737c1.93-.68 3.77-1.684 5.5-2.966-8.38-6.213-14.136-18.998-14.136-33.77"/><defs><path id="B" d="M274.55-119.183c1.926-.68 3.934-1.05 6-1.05 1.89 0 3.727.31 5.5.88 11.514 3.713 20.135 18.82 20.135 36.908 0 18.086-8.62 33.196-20.135 36.908-1.773.57-3.61.88-5.5.88-2.066 0-4.074-.37-6-1.052 1.928-.68 3.77-1.68 5.498-2.965 8.383-6.214 15.738-16.193 16.137-33.77.39-17.253-7.754-27.56-16.137-33.772-1.728-1.28-3.57-2.283-5.498-2.966"/></defs><clipPath id="C"><use xlink:href="#B" overflow="visible"/></clipPath><linearGradient id="D" gradientUnits="userSpaceOnUse" x1="-131.442" y1="-79.028" x2="-130.442" y2="-79.028" gradientTransform="scale(62.5057) rotate(-45 -160.088 -124.7)"><stop offset="0" stop-color="#128A76"/><stop offset=".22" stop-color="#148D77"/><stop offset=".403" stop-color="#19987A"/><stop offset=".572" stop-color="#21A97F"/><stop offset=".734" stop-color="#2DC186"/><stop offset=".888" stop-color="#3CE08F"/><stop offset="1" stop-color="#4AFC97"/></linearGradient><path clip-path="url(#C)" fill="url(#D)" d="M236.76-82.444l53.61-53.607 53.604 53.606-53.605 53.606"/><path fill="#177261" d="M283.38-50.23c-.107-.023-.217-.062-.324-.09-1.025-.674-10.06-6.017-13.527-8.295l-8.96-5.88c-.205-.134-.41-.27-.615-.402l-1.246-.818c-2.066-1.355-4.132-2.708-6.195-4.067-.407-.27-.78-.556-1.127-.856-1.896-1.657-2.85-3.792-2.942-6.323-.016-.397-.01-.802.016-1.217.18-2.78.368-5.558.558-8.336.178-2.59.355-5.177.53-7.767.1-1.466.2-2.932.303-4.396.255-3.668.51-7.336.732-11.006.003-.06.01-.113.014-.17.25-3.47 1.76-6.026 4.723-7.69-.126 0-.252.01-.378.017-3.008 1.43-6.013 2.86-9.022 4.28-1.04.492-1.922 1.08-2.66 1.76-1.765 1.624-2.687 3.788-2.85 6.503l-.014.21c-.097 1.562-.204 3.126-.31 4.69-.164 2.457-.328 4.916-.498 7.374-.072 1.043-.145 2.086-.216 3.13-.136 2.03-.276 4.06-.415 6.09-.228 3.338-.455 6.674-.67 10.012-.065.992-.007 1.928.17 2.808.327 1.64 1.077 3.08 2.284 4.29.285.286.596.56.933.82.213.164.433.325.666.478 2.765 1.82 5.533 3.635 8.3 5.45 2.855 1.87 5.702 3.75 8.555 5.62.21.14.42.278.63.416 3.016 1.98 6.032 3.96 9.04 5.95.336.22.674.44 1.008.663 1.818 1.202 3.67 1.727 5.55 1.636.155-.007.31-.02.462-.037.512-.244 1.023-.486 1.533-.73l6.12-2.904.445-.212c.12-.058.232-.118.35-.178.023-.01.045-.022.068-.033.38-.193.74-.395 1.084-.607.115-.073.227-.147.34-.222l-.47.222c-.664.01-1.322-.04-1.977-.185"/><g><defs><path id="E" d="M286.464-50.838c-.166.166-.336.326-.502.474.268-.127.54-.406.818-.726-.105.084-.208.17-.316.252m1.778-1.848c.002 0 .002 0 .002-.003 0 .002 0 .003-.002.004m-33.534-64.73c-.125.004-.252.013-.378.02-2.99 1.467-5.976 2.935-8.968 4.394-1.034.504-1.908 1.102-2.637 1.79 2.462-.564 4.88.02 7.02 1.335l.335.21c2.76 1.698 5.504 3.42 8.242 5.152 4.424 2.798 8.832 5.625 13.232 8.462 1.795 1.156 3.59 2.312 5.383 3.47 3.498 2.25 5.258 5.312 4.934 9.714-.724 9.913-1.276 19.844-1.66 29.775-.01.197-.024.386-.04.576-.016.196-.035.387-.057.575-.012.114-.027.227-.043.34-.287 2-1 3.662-2.13 5.04-.747.366-1.495.73-2.243 1.095.154-.01.307-.023.46-.042.317-.036.634-.08.952-.15.77-.174 1.544-.447 2.323-.824 1.635-.792 3.172-1.78 4.805-2.577.258-.126.424-.438.682-.565l.098-.048c.28-.14.607-.388.945-.688-.088.042-.176.067-.264.07.114-.072.224-.148.335-.225.15-.1.29-.21.43-.318.71-.704 1.402-1.52 1.77-1.963-.005.017.017.096.01.11 1.384-1.702 2.177-3.775 2.28-6.444.39-9.932.95-19.838 1.676-29.75.28-3.813-.993-6.595-3.612-8.74-.404-.333-.84-.65-1.31-.952-3.274-2.11-6.55-4.22-9.83-6.326-4.145-2.665-8.304-5.312-12.483-7.928-1.623-1.016-3.247-2.033-4.878-3.037-1.59-.98-3.334-1.55-5.137-1.55h-.242"/></defs><clipPath id="F"><use xlink:href="#E" overflow="visible"/></clipPath><linearGradient id="G" gradientUnits="userSpaceOnUse" x1="-130.443" y1="-74.955" x2="-129.444" y2="-74.955" gradientTransform="scale(163.1713) rotate(33.54 61.193 255.07)"><stop offset="0" stop-color="#4AFC97"/><stop offset=".321" stop-color="#49FA96"/><stop offset=".495" stop-color="#45F294"/><stop offset=".633" stop-color="#3EE490"/><stop offset=".753" stop-color="#35D18A"/><stop offset=".861" stop-color="#28B883"/><stop offset=".959" stop-color="#19997A"/><stop offset="1" stop-color="#128A76"/></linearGradient><path clip-path="url(#F)" fill="url(#G)" d="M257.914-140.332l67.7 44.877-48.322 72.898-67.7-44.876"/></g><g><path fill="#1F8975" d="M283.7-52.432c-.11.022-.226.03-.335.05-1.21-.19-11.646-1.324-15.744-1.967-3.53-.553-7.058-1.103-10.587-1.655l-.727-.113-1.473-.23c-2.44-.38-4.88-.76-7.32-1.146-.482-.076-.94-.184-1.38-.314-2.413-.727-4.16-2.278-5.292-4.544-.176-.354-.34-.726-.486-1.113-.984-2.606-1.96-5.214-2.935-7.823-.91-2.43-1.815-4.862-2.725-7.292-.516-1.376-1.027-2.753-1.54-4.13-1.282-3.446-2.564-6.892-3.878-10.326l-.057-.16c-1.203-3.264-.886-6.215 1.125-8.954-.112.053-.226.11-.338.17-2.147 2.543-4.294 5.088-6.448 7.625-.746.877-1.306 1.776-1.696 2.7-.938 2.208-.884 4.56.09 7.1.022.067.047.132.072.196.56 1.466 1.106 2.934 1.657 4.4.865 2.308 1.73 4.612 2.59 6.922.366.98.73 1.96 1.097 2.94.714 1.904 1.425 3.812 2.136 5.718 1.17 3.134 2.34 6.267 3.523 9.396.35.93.79 1.758 1.312 2.486.976 1.358 2.254 2.36 3.853 2.963.378.144.774.264 1.188.36.26.063.528.12.804.163 3.27.517 6.54 1.025 9.812 1.536 3.37.526 6.74 1.06 10.11 1.588.25.04.498.08.745.118 3.564.558 7.128 1.115 10.69 1.686.397.063.794.124 1.192.188 2.152.345 4.055.058 5.73-.802.137-.07.27-.146.404-.225l1.097-1.295c1.457-1.726 2.914-3.45 4.373-5.173l.318-.378c.086-.102.164-.204.246-.306.016-.02.03-.04.05-.06.263-.33.51-.664.733-1 .076-.114.146-.23.22-.342-.114.132-.226.263-.337.395-.596.285-1.217.51-1.87.648"/></g><g><defs><path id="H" d="M285.812-54.043c-.084.22-.172.436-.262.638.19-.227.324-.593.445-.997-.06.12-.12.24-.183.36m.854-2.418c.002 0 .002-.002.002-.004 0 .002 0 .003-.002.004m-57.268-45.107c-.114.056-.227.114-.337.176-2.116 2.568-4.23 5.14-6.354 7.703-.732.885-1.283 1.792-1.662 2.72 2.01-1.53 4.455-1.997 6.946-1.683l.39.052c3.216.407 6.427.843 9.636 1.29 5.185.72 10.365 1.477 15.546 2.242l6.336.938c4.113.606 6.98 2.668 8.504 6.81 3.432 9.327 7.03 18.6 10.78 27.805.073.182.136.36.2.54.068.184.13.365.188.546.035.11.07.22.102.328.562 1.94.6 3.75.143 5.47-.53.644-1.062 1.284-1.594 1.924.138-.07.27-.148.403-.228.273-.164.545-.333.805-.53.63-.476 1.223-1.046 1.775-1.71 1.162-1.396 2.154-2.933 3.312-4.33.184-.222.207-.573.387-.798.023-.026.047-.056.07-.084.197-.244.395-.604.578-1.018-.064.076-.135.136-.213.175.076-.113.145-.228.213-.343.096-.155.18-.312.262-.47.355-.933.646-1.962.8-2.518.003.018.054.08.056.097.56-2.122.424-4.338-.584-6.81-3.748-9.207-7.328-18.46-10.758-27.79-1.32-3.587-3.63-5.595-6.902-6.468-.506-.136-1.03-.245-1.582-.326-3.855-.57-7.71-1.14-11.565-1.704-4.878-.714-9.758-1.41-14.644-2.064-1.898-.256-3.798-.513-5.698-.752-.485-.062-.97-.094-1.447-.094-1.43 0-2.82.282-4.09.903"/></defs><clipPath id="I"><use xlink:href="#H" overflow="visible"/></clipPath><linearGradient id="J" gradientUnits="userSpaceOnUse" x1="-130.624" y1="-75.595" x2="-129.623" y2="-75.595" gradientTransform="scale(163.1712) rotate(9.15 411 858.53)"><stop offset="0" stop-color="#4AFC97"/><stop offset=".321" stop-color="#49FA96"/><stop offset=".495" stop-color="#45F294"/><stop offset=".633" stop-color="#3EE490"/><stop offset=".753" stop-color="#35D18A"/><stop offset=".861" stop-color="#28B883"/><stop offset=".959" stop-color="#19997A"/><stop offset="1" stop-color="#128A76"/></linearGradient><path clip-path="url(#I)" fill="url(#J)" d="M222.718-112.86l73.576 11.85-10.742 66.694-73.577-11.852"/></g></g></svg>