<svg xmlns="http://www.w3.org/2000/svg" viewBox="0 0 32 32" width="100%" height="100%" preserveAspectRatio="none">
  <path fill="#E4E6E8" d="M25.085 25.05c-2.533 2.51-5.504 3.743-9.084 3.766-3.6-.023-6.57-1.254-9.08-3.764-.78-.786-1.47-1.658-2.04-2.59-.9-1.497-1.44-3.088-1.63-4.872-.06-.47-.08-1-.08-1.62 0-3.6 1.23-6.57 3.77-9.085C9.43 4.353 12.4 3.122 16 3.122c3.58 0 6.55 1.23 9.085 3.766 2.532 2.51 3.763 5.48 3.763 9.08 0 3.58-1.23 6.55-3.763 9.082z"/>
  <path fill="#134A78" d="M25.857 25.88c1.895-1.893 3.15-4.09 3.73-6.53.002-.002.002-.005.003-.01.224-1.01.35-2.13.373-3.327v-.016c-.024-3.697-1.295-6.903-3.78-9.528l-.012-.02-.31-.31c-2.71-2.74-6.03-4.11-9.85-4.09-3.85-.03-7.17 1.35-9.88 4.08C3.41 8.85 2.04 12.17 2.04 16c0 3.846 1.37 7.17 4.08 9.88 2.703 2.71 6.03 4.085 9.88 4.085 3.83 0 7.143-1.374 9.85-4.083zm-18.85-.885C4.504 22.493 3.287 19.55 3.287 16c0-3.485 1.25-6.504 3.72-8.973 2.5-2.52 5.44-3.737 8.995-3.716 3.485-.02 6.5 1.23 8.968 3.72l.308.31c2.254 2.39 3.408 5.3 3.432 8.66-.023 1.11-.138 2.14-.343 3.07-.535 2.24-1.647 4.18-3.397 5.93-2.466 2.47-5.485 3.72-8.97 3.72-3.555 0-6.497-1.21-8.997-3.71z"/>
  <path fill="#134A78" d="M19.337 23.326L11.92 16.4l6.91-6.843c.12-.12.186-.278.187-.447s-.064-.328-.183-.448c-.12-.12-.28-.188-.45-.188-.168 0-.326.065-.445.183l-7.39 7.313-.01.007-.06.07-.02.024-.02.03-.015.03-.01.03-.01.03-.036.12v.03l-.005.04-.003.065.013.118.01.028.01.034.01.028.02.056.015.03.075.1.02.02 7.935 7.41c.116.11.27.17.43.17.173 0 .34-.07.46-.2.234-.255.22-.656-.035-.895zm-8.704-7.038zm-.02.13zm.005.056zm.053.144zm.04.046z"/>
</svg>
