<svg xmlns="http://www.w3.org/2000/svg" viewBox="0 0 32 32" width="100%" height="100%" preserveAspectRatio="none">
  <path fill="#E4E6E8" d="M27.21 12.736c-.8-.508-1.513-1.016-2.267-1.524-.13-.088-.355-.092-.485 0-.558.395-1.133.54-1.808.382-.22-.05-.42.034-.543.22L17.6 18.708c-.088.132-.094.353 0 .484.842 1.195.38 2.757-1.044 3.192-1.4.427-2.656-.918-2.458-2.267.032-.216-.017-.425-.22-.542l-2.966-1.705c-.198-.114-.415-.067-.582.075-.658.562-1.498.67-2.28.296-.204-.09-.387-.08-.556.08-.85.79-1.724 1.58-2.524 2.37v-.93c0-.01-.01-.01 0-.02.7-.65 1.387-1.3 2.086-1.95.116-.11.173-.31.117-.46-.46-1.26.208-2.63 1.6-2.81 1.352-.17 2.313 1.07 2.176 2.32-.02.17.1.34.23.42L14.22 19c.13.077.35.1.48 0 .55-.42 1.1-.593 1.8-.467.22.04.41-.03.54-.22l4.54-6.944c.09-.14.08-.35 0-.49-.78-1.2-.3-2.7 1.09-3.12 1.463-.45 2.673.99 2.44 2.36-.04.22.03.41.22.54.62.42 1.224.83 1.864 1.25v.822z"/>
  <path fill="#02B995" d="M23.106 27.067H8.8c-1.3 0-3.83.467-3.83-1.528v-3.57c.96-.92 1.968-1.84 2.96-2.76.967.34 1.936.22 2.782-.36.812.46 1.62.93 2.433 1.4-.038 1.83 1.492 3.52 3.467 3.09 2.013-.44 2.977-2.66 1.973-4.4l4.164-6.37c.68.09 1.34-.03 1.95-.38.83.56 1.71 1.12 2.51 1.68v11.66c-.16 2.03-2.72 1.52-4.11 1.52z"/>
  <path fill="#02B995" d="M4.97 7.65V6.42c0-1.076.86-1.593 1.808-1.593h18.375c.916 0 1.74.237 2.024 1.264.103.38.034.87.034 1.25v3.42c-.32-.24-.74-.49-1.11-.74.13-1.87-1.34-3.5-3.33-3.24-2.09.27-3.05 2.58-2.15 4.34l-4.22 6.44c-.7-.06-1.35.08-1.95.46l-2.52-1.45c.04-1.72-1.41-3.08-3.15-3.01-1.9.08-3.05 2.02-2.6 3.75-.4.38-.87.75-1.19 1.13V7.65z"/>
  <path fill="#079B7E" d="M5.93 7.17V5.94c0-.458.157-.814.41-1.072-.76.138-1.37.646-1.37 1.553v12c.26-.3.62-.61.96-.91V7.18z"/>
  <path fill="#C9CACB" d="M13.878 19.093l-2.965-1.705c-.198-.114-.415-.067-.582.075-.65.562-1.49.67-2.28.296-.2-.1-.38-.09-.55.07-.85.79-1.72 1.57-2.52 2.36v.48c.8-.79 1.68-1.58 2.53-2.37.17-.16.35-.17.56-.08.79.37 1.63.26 2.28-.3.17-.14.39-.19.59-.08l2.96 1.71c.11.06.17.15.21.25 0-.07.01-.13.02-.19.03-.22-.015-.43-.22-.54zm2.68 2.81c-1.217.37-2.325-.597-2.464-1.74-.163 1.332 1.08 2.64 2.463 2.22 1.033-.316 1.556-1.223 1.446-2.153-.09.747-.593 1.412-1.446 1.672zm7.9-11.17c-.558.394-1.133.54-1.808.38-.22-.05-.42.035-.543.22L17.6 18.23c-.087.132-.094.35-.002.483v-.002l4.51-6.89c.12-.18.323-.27.542-.22.675.16 1.25.01 1.808-.38.13-.09.354-.09.485 0 .754.51 1.468 1.02 2.268 1.53v-.48c-.8-.5-1.51-1.01-2.26-1.52-.13-.09-.35-.09-.48 0z"/>
  <path fill="#C9CACB" d="M17.6 19.67c.23.33.36.687.403 1.04.06-.5-.065-1.04-.404-1.52h-.01c-.09.132-.09.35 0 .48z"/>
  <path fill="#079B7E" d="M19.385 18.153c1.21-1.848 2.417-3.697 3.626-5.545-.08-.004-.17-.012-.26-.024l-4.16 6.37c.6 1.037.5 2.247-.11 3.146 1.26-.845 1.72-2.55.91-3.947zm4.52 8.114H9.6c-1.3 0-3.83.467-3.83-1.528v-3.53c-.268.25-.536.5-.8.75v3.57c0 1.99 2.53 1.52 3.83 1.52h14.305c1.248 0 3.44.41 3.986-.98-.91.39-2.29.18-3.18.18z"/>
  <path fill="#079B7E" d="M9.912 19.495c.812.467 1.62.934 2.433 1.4-.038 1.833 1.492 3.52 3.467 3.096.813-.17 1.454-.64 1.864-1.25-.31.21-.666.37-1.064.45-1.975.43-3.505-1.26-3.467-3.09-.812-.46-1.62-.93-2.433-1.4-.846.58-1.815.71-2.782.36-.992.92-2 1.84-2.96 2.76v.04c.713-.67 1.44-1.33 2.16-2 .967.35 1.936.23 2.782-.35z"/>
  <path fill="#134A78" d="M25.868 3.883c-1.23-.067-2.47-.015-3.7-.015H6.573c-1.293 0-2.34.913-2.55 2.184-.194 1.187-.012 2.516-.012 3.71v9.757c-.02.19 0 .4 0 .6v5.34c0 1.23.77 2.2 1.95 2.52.42.11.91.04 1.34.04h16.66c1.66 0 3.36.15 4.1-1.73.1-.24.12-.5.12-.75V6.45c0-1.272-.98-2.493-2.3-2.565zM4.97 7.65V6.42c0-1.076.877-1.593 1.826-1.593H25.17c.916 0 1.73.237 2.015 1.264.103.38.025.87.025 1.25v3.42l-1.102-.74c.123-1.87-1.333-3.5-3.33-3.24-2.093.27-3.05 2.58-2.15 4.34l-4.213 6.45c-.702-.06-1.354.07-1.955.46l-2.52-1.45c.037-1.72-1.416-3.09-3.154-3.01-1.903.08-3.06 2.02-2.612 3.75-.405.38-.804.75-1.204 1.13V7.65zm22.24 5.086c-.8-.508-1.504-1.016-2.258-1.524-.13-.088-.35-.092-.48 0-.558.395-1.13.54-1.805.382-.22-.05-.42.034-.542.22l-4.507 6.893c-.087.132-.093.353 0 .484.843 1.2.383 2.76-1.043 3.2-1.4.43-2.656-.92-2.458-2.26.032-.21-.017-.42-.22-.54l-2.967-1.71c-.196-.11-.413-.06-.58.08-.66.56-1.5.67-2.28.3-.204-.09-.396-.08-.565.08-.85.79-1.732 1.58-2.532 2.37v-.93c0-.01 0-.012.01-.022.7-.65 1.39-1.3 2.09-1.95.116-.11.175-.314.12-.467-.46-1.26.208-2.63 1.6-2.806 1.352-.18 2.314 1.06 2.176 2.32-.02.16.1.33.23.41L14.24 19c.13.08.35.1.48 0 .55-.42 1.1-.59 1.8-.47.22.04.41-.03.54-.22l4.54-6.94c.09-.14.08-.35 0-.488-.78-1.204-.3-2.7 1.09-3.12 1.46-.45 2.67.99 2.44 2.363-.04.224.02.41.21.54.62.417 1.213.835 1.853 1.252v.82zm-4.086 14.33H8.818c-1.3 0-3.846.468-3.846-1.527v-3.57c.992-.92 1.977-1.84 2.97-2.76.966.34 1.94.22 2.786-.36l2.435 1.4c-.037 1.83 1.494 3.52 3.47 3.09 2.012-.44 2.976-2.66 1.973-4.4l4.165-6.37c.69.09 1.34-.03 1.94-.38.84.56 1.67 1.12 2.51 1.68v11.66c-.16 2.03-2.7 1.52-4.08 1.52z"/>
</svg>
