<svg xmlns="http://www.w3.org/2000/svg" viewBox="0 0 32 32" width="100%" height="100%" preserveAspectRatio="none">
  <path fill="#02B995" d="M16.22 8.36c-.853 1.157-.52 3.223-.52 4.58 0 .263.2.5.46.5h3.72l-.44 3.36h-3.28c-.26 0-.48.165-.48.427V27.84h-3.52V17.226c0-.262-.19-.426-.45-.426H8.48v-3.36h3.23c.262 0 .48-.238.48-.5 0-1.707-.16-3.59.325-5.242.97-3.3 4.765-3.398 7.645-3.045v2.93c-1.28-.058-3.192-.244-3.94.775z"/>
  <path fill="#134A78" d="M21.085 4.17c.006-.19-.11-.366-.36-.4-3.183-.443-7.03-.46-8.77 2.75-.942 1.742-.75 3.88-.716 5.96H8.01c-.262 0-.495.175-.495.436v4.305c0 .27.232.54.494.54h3.19v10.5c0 .27.26.54.52.54h4.45c.262 0 .465-.27.465-.54v-10.5h3.23c.287 0 .445-.25.48-.51l.566-4.29c.035-.26-.243-.473-.48-.473h-3.79c-.03-1.12-.123-2.12.1-3.08.29-1.242 2.89-.837 3.865-.837.266 0 .51-.23.51-.49V4.23c0-.023-.03-.043-.032-.063zm-4.86 4.184c-.85 1.158-.515 3.226-.515 4.584 0 .262.204.5.466.5h3.72l-.442 3.36h-3.278c-.262 0-.495.162-.495.424V27.84h-3.52V17.22c0-.26-.17-.42-.43-.42H8.48v-3.36h3.245c.262 0 .48-.24.48-.503 0-1.707-.167-3.59.318-5.243.97-3.3 4.758-3.4 7.638-3.046v2.93c-1.28-.058-3.18-.244-3.93.775z"/>
  <path fill="#079B7E" d="M12.757 12.796c0-1.77-.198-3.706.305-5.42.242-.824.653-1.453 1.178-1.93-.844.506-1.508 1.277-1.845 2.423-.502 1.71-.31 3.64-.308 5.41h.172c.27 0 .49-.22.49-.49zm.043 4.016c0-.262-.127-.492-.388-.492H9.12v-2.88h-.64v3.36h3.286c.262 0 .394.225.394.486V27.84h3.52v-.48H12.8V16.812z"/>
</svg>
