<svg xmlns="http://www.w3.org/2000/svg" viewBox="0 0 32 32" width="100%" height="100%" preserveAspectRatio="none">
  <path fill="#DD4B39" d="M26.98 17.345v2.02h-1.6v-2.02c0-.262-.165-.54-.427-.54H22.82v-1.44c.64 0 1.29-.16 1.973-.16.262 0 .428-.29.428-.553 0-.684.16-1.206.16-1.846h1.6v2.006c0 .262.25.554.51.554h2.06v1.44h-2.06c-.26 0-.5.277-.5.54zm-7.918-1.91l-.01-.07h-7.75v2.24h4.75c.14 0 .248.044.316.125.065.077.09.188.068.313-.342 1.986-2.083 3.573-4.332 3.95-.328.054-.662.082-.992.082-2.4 0-4.562-1.435-5.51-3.655-1.054-2.463-.242-5.53 1.888-7.13 1.017-.766 2.28-1.188 3.555-1.188s2.466.404 3.444 1.167l.05.04 1.83-1.76-.07-.06c-.48-.4-.95-.71-1.45-.96-1.15-.58-2.46-.89-3.79-.89-2.76 0-5.33 1.27-6.85 3.41-2.31 3.22-2.17 7.64.32 10.5 1.67 1.92 4.18 3.07 6.72 3.07 1.2 0 2.35-.257 3.41-.757 3.09-1.46 4.85-4.856 4.39-8.446z"/>
  <path fill="#C44137" d="M5.04 21.204c-2.538-2.923-2.52-7.307-.315-10.39.632-.886 1.433-1.604 2.332-2.148-1.102.567-2.08 1.38-2.827 2.424-2.204 3.084-2.223 7.474.314 10.397 2.427 2.796 6.615 3.898 10.034 2.28.314-.148.612-.316.895-.5-.13.07-.264.14-.4.205-3.42 1.617-7.607.527-10.034-2.27z"/>
  <path fill="#C44137" d="M16.956 17.72c.052-.303-.128-.595-.463-.595H11.94v-1.76h-.48v2.08H16c.334 0 .514.267.462.57-.24 1.4-1.11 2.523-2.258 3.243 1.39-.696 2.477-1.943 2.752-3.54zm-2.668-8.805c.516.26.99.587 1.433.955l-1.34 1.292c.04.03.08.058.12.09.57-.553 1.15-1.104 1.72-1.655-.44-.368-.92-.696-1.43-.956-2.59-1.31-5.77-1.28-8.2.19 2.36-1.21 5.29-1.13 7.71.09zm11.572 7.978c0-.262-.17-.407-.433-.407H23.3v-1.12h-.48v1.44c.64 0 1.268.16 1.953.16.262 0 .448.066.448.327 0 .684.16 1.433.16 2.073h1.6v-.32h-1.12v-2.153z"/>
  <path fill="#134A78" d="M30.346 14.486c-.004-.005-.022-.01-.026-.013s-.015.028-.02.024c-.077-.077-.19-.092-.332-.092h-2.026v-2.128c0-.262-.245-.432-.507-.432h-2.533c-.262 0-.48.17-.48.432v2.128H22.37c-.264 0-.51.144-.51.406v2.54c0 .26.246.42.51.42h2.05v2.12c0 .26.22.45.48.45h2.534c.262 0 .507-.18.507-.44v-2.12h2.03c.26 0 .54-.16.54-.42v-2.54c0-.14-.07-.246-.15-.323zm-3.365 2.86v2.02h-1.6v-2.02c0-.263-.21-.54-.47-.54h-2.08v-1.44h2.08c.26 0 .48-.292.48-.554v-2.006h1.6v2.006c0 .262.19.554.45.554h2.11v1.44h-2.11c-.26 0-.45.277-.45.54zm-7.17-2.626c-.03-.208-.26-.315-.46-.315h-8.37c-.12 0-.23.01-.32.086 0 .01-.01 0-.02 0 0 0 0-.01 0 0-.07.07-.12.17-.13.3v3.08c0 .265.21.558.47.558h4.41c-.45 1.28-1.57 2.25-2.92 2.64-2.31.67-4.71-.436-5.88-2.49-1.17-2.075-.61-4.71 1.08-6.306 1.77-1.67 4.73-1.72 6.52-.06.193.18.484.183.68 0l2.404-2.32c.18-.177.19-.51 0-.68-2.837-2.58-6.857-3.14-10.32-1.55-3.184 1.46-5.18 4.756-5.307 8.205-.13 3.506 1.89 6.8 4.93 8.468 2.96 1.625 6.87 1.473 9.673-.4 2.98-1.99 4.134-5.77 3.57-9.196zm-5.22 9.05c-3.42 1.616-7.6.514-10.03-2.282-2.53-2.923-2.52-7.313-.31-10.397C6.58 7.81 11.22 6.8 14.77 8.6c.517.26.99.59 1.434.957-.57.553-1.143 1.103-1.715 1.654-2.06-1.61-5-1.56-7.1.02-2.184 1.64-2.986 4.71-1.914 7.22 1.1 2.58 3.81 4.08 6.59 3.62 2.12-.36 4.02-1.87 4.396-4.06.052-.302-.128-.57-.463-.57h-4.54v-2.08h7.47c.43 3.36-1.14 6.88-4.35 8.4z"/>
</svg>
