<svg xmlns="http://www.w3.org/2000/svg" viewBox="0 0 32 32" width="100%" height="100%" preserveAspectRatio="none">
  <path d="M12.675 23.818c.046.04.092.08.14.118l-.14-.118z"/>
  <path fill="#E4E6E8" d="M24.152 29.032H7.848c-.685 0-.917-.226-.917-.894V6.535h18.14V28.13c-.015.674-.247.902-.915.902z"/>
  <path fill="#C9CACB" d="M8.404 26.872V6.33h-1.6v21.998c0 .68.2.882.895.882h16.51c.674 0 .832-.202.832-.89v-.55H9.32c-.694 0-.916-.216-.916-.898z"/>
  <path fill="#134A78" d="M20.44 10.468c-.347 0-.628.28-.628.628V24.47c0 .348.28.63.628.63s.628-.282.628-.63V11.097c0-.347-.28-.628-.628-.628zm-4.196 0c-.347 0-.628.28-.628.628V24.47c0 .348.28.63.628.63s.628-.282.628-.63V11.097c0-.347-.28-.628-.628-.628zm-4.197 0c-.347 0-.628.28-.628.628V24.47c0 .348.28.63.625.63s.628-.282.628-.63V11.097c0-.347-.28-.628-.628-.628z"/>
  <path fill="#134A78" d="M26.84 5.363h-4.815v-.8c0-1.127-.354-1.945-1.053-2.43-.006-.005-.012-.01-.018-.013-.506-.327-1.133-.492-1.863-.492h-6.177c-1.89 0-2.933 1.042-2.933 2.934v.8H5.162c-.347 0-.628.282-.628.63s.28.627.628.627h.456v21.6c0 1.366.79 2.15 2.17 2.15h16.305c1.35 0 2.142-.78 2.173-2.137V6.62h.57c.347 0 .628-.282.628-.63s-.28-.627-.628-.627zm-15.61-.8c0-1.193.487-1.68 1.68-1.68h6.18c.48 0 .872.097 1.17.286.34.24.506.695.506 1.39v.8H11.23v-.8zm12.864 24.553H7.79c-.685 0-.917-.226-.917-.894V6.62H25.01v21.594c-.017.674-.248.902-.916.902z"/>
  <path fill="#E4E6E8" d="M11.23 4.595c0-1.192.487-1.678 1.68-1.678h6.18c.48 0 .872.096 1.17.285.34.243.506.698.506 1.393v.8H11.23v-.8z"/>
</svg>
