<svg xmlns="http://www.w3.org/2000/svg" viewBox="0 0 32 32" width="100%" height="100%" preserveAspectRatio="none">
  <path fill="#5ECBF4" d="M26.346 9.45c-.447.11-.904.197-1.36.253-.24.03-.33-.163-.35-.242-.05-.16-.008-.39.162-.5.513-.32.946-.72 1.286-1.18l.17-.23-.265.11c-.19.08-.35.14-.51.19-.09.03-.18.07-.29.1-.33.12-.73.28-1.05.28-.08 0-.14 0-.2-.02-.14-.04-.25-.16-.36-.27-.06-.05-.11-.12-.17-.17-.33-.27-.59-.46-.87-.59-.6-.29-1.2-.45-1.78-.46-1.43-.03-2.75.56-3.62 1.6-.86 1.04-1.21 2.43-.95 3.81.02.14-.01.29-.1.39-.05.06-.13.13-.26.13h-.02c-3.77-.24-7.23-1.88-9.75-4.64l-.09-.1-.05.126c-.72 1.95-.06 4.063 1.64 5.255.18.12.22.35.17.51-.05.16-.18.24-.36.23-.57-.04-1.1-.146-1.616-.33l-.13-.047.025.136C5.96 15.606 7.3 17 9.16 17.42c.21.048.28.235.28.38 0 .15-.07.34-.28.39-.5.118-1.003.17-1.533.158H7.5l.064.12c.75 1.41 2.18 2.3 3.82 2.37.18.01.32.1.37.26.05.17-.02.37-.18.49-1.565 1.194-3.426 1.91-5.38 2.07l-.317.026.29.13c1.786.78 3.77 1.19 5.74 1.19 3.11 0 5.994-1.02 8.12-2.87 2.213-1.93 3.8-4.41 4.466-6.98.255-.99.394-1.804.437-2.57.01-.19 0-.397-.01-.617-.02-.357-.04-.725.04-1.017.07-.263.41-.5.706-.706.16-.112.314-.22.424-.326s.22-.22.323-.33l.19-.2-.265.07z"/>
  <path fill="#54B3D1" d="M10.13 16.438c-1.375-.312-2.477-1.18-3.06-2.358-.492-.05-.96-.15-1.414-.312.3 1.78 1.638 3.157 3.45 3.57.108.023.19.08.246.156.257-.026.515-.07.777-.13.45-.108.46-.82 0-.926zm-1.573-4.13C7.353 11.465 6.86 9.996 6.83 8.636c-.255-.242-.506-.49-.745-.752C5.42 9.68 5.8 11.854 7.34 13.06c.316.07.64.12.974.142.516.033.6-.643.242-.894zm8.833-.158c-.264-1.42-.16-3.15 1.56-5.062-2.847 1.122-3.346 3.812-3.14 5.61.202.02.912.048 1.116.06.334.02.516-.32.463-.608zm-5.06 7.706c-1.304-.056-2.466-.636-3.255-1.587-.514.11-1.015.16-1.523.15.74 1.39 2.14 2.26 3.757 2.33.34.01.5.29.45.55.27-.18.54-.36.81-.56.37-.29.27-.88-.24-.9zm-3.965 3.446c-.724.226-1.473.372-2.236.435 4.34 2.293 10.7 1.472 13.77-1.668.18-.19.55-.36.74-.55-3.29 2.73-8.26 3.1-12.28 1.77z"/>
  <path fill="#134A78" d="M28.175 8.27c-.09-.17-.27-.272-.507-.174-.323.133-.648.254-.977.358.39-.49.7-1.047.92-1.678.15-.41-.36-.74-.7-.542-.85.487-1.73.833-2.67 1.055-1.63-1.52-3.91-1.89-5.97-.97-2.12.94-3.11 3.18-2.94 5.37-3.55-.36-6.77-2.1-9.05-4.86-.196-.24-.613-.16-.753.09-1.07 1.94-.87 4.18.37 5.85-.134-.06-.267-.12-.4-.19-.32-.17-.72.03-.72.41 0 1.82.894 3.44 2.31 4.42l-.02-.01c-.325-.05-.722.2-.59.59.615 1.76 1.977 3.02 3.695 3.5-1.775 1.04-3.77 1.45-5.873 1.24-.505-.05-.616.66-.243.89 4.427 2.79 10.088 2.94 14.69.46 4.497-2.42 7.32-7.79 7.156-12.836.906-.71 1.68-1.523 2.347-2.47.14-.2.094-.4-.035-.53zm-3.26 2.655c-.134.483-.005 1.147-.033 1.65-.05.865-.22 1.717-.436 2.554-.703 2.7-2.346 5.11-4.44 6.94-3.727 3.24-9.343 3.6-13.77 1.66 1.958-.16 3.82-.87 5.422-2.09.37-.29.268-.88-.242-.9-1.618-.07-3.016-.95-3.757-2.33.51.01 1.02-.04 1.55-.16.45-.11.46-.82 0-.93-1.81-.42-3.15-1.79-3.45-3.57.52.18 1.06.29 1.63.33.51.03.6-.65.24-.9C5.94 12 5.33 9.89 6.02 8.02c2.54 2.78 6.04 4.426 9.82 4.65.33.02.51-.32.46-.61-.53-2.87 1.55-5.38 4.48-5.313.61.01 1.2.19 1.74.453.31.154.59.363.85.585.177.15.325.395.56.46.446.123 1.156-.215 1.577-.355.173-.058.344-.123.513-.193-.33.455-.75.84-1.26 1.16-.37.234-.264.96.24.896.468-.06.923-.146 1.37-.258-.104.11-.21.22-.32.325-.32.31-1.033.632-1.153 1.07z"/>
</svg>
