<svg xmlns="http://www.w3.org/2000/svg" viewBox="0 0 32 32" width="100%" height="100%" preserveAspectRatio="none">
  <path fill="#02B995" d="M26.328 9.452c-.446.112-.903.198-1.36.254-.24.03-.33-.163-.35-.242-.05-.165-.008-.398.162-.505.513-.33.946-.73 1.286-1.19l.17-.23-.265.11c-.18.07-.35.13-.5.19l-.28.1c-.32.12-.73.27-1.05.27-.07 0-.14-.01-.19-.03-.14-.04-.25-.16-.36-.28-.05-.06-.11-.12-.17-.17-.32-.28-.59-.46-.86-.59-.6-.3-1.19-.46-1.78-.47-1.42-.03-2.74.55-3.61 1.6-.86 1.03-1.2 2.42-.95 3.81.03.14-.01.29-.09.39-.05.05-.13.12-.26.12h-.023c-3.783-.228-7.25-1.868-9.77-4.628l-.09-.1-.045.12c-.72 1.95-.063 4.065 1.64 5.257.176.12.216.35.16.51-.05.16-.18.245-.35.234-.57-.034-1.1-.14-1.614-.326l-.13-.046.024.13c.3 1.82 1.65 3.21 3.51 3.636.204.05.28.236.28.38 0 .15-.07.34-.28.39-.5.12-1.007.17-1.536.16H7.5l.065.12c.754 1.415 2.184 2.302 3.82 2.373.185.01.32.105.368.26.057.176-.012.374-.17.494-1.563 1.196-3.424 1.91-5.38 2.07l-.315.028.29.13c1.776.786 3.76 1.2 5.73 1.2 3.11 0 5.995-1.02 8.12-2.876 2.214-1.93 3.8-4.41 4.467-6.98.06-.23.13-.467.197-.695.18-.61.365-1.24.4-1.872.01-.19 0-.4-.012-.618-.02-.36-.04-.73.04-1.02.073-.27.41-.5.708-.71.16-.12.315-.22.425-.33.073-.07.09-.15.106-.21.01-.05.02-.088.05-.127l.19-.2-.27.07z"/>
  <path fill="#079B7E" d="M10.13 16.438c-1.375-.312-2.477-1.18-3.06-2.358-.492-.05-.96-.15-1.414-.312.3 1.78 1.638 3.157 3.45 3.57.108.023.19.08.246.156.257-.026.515-.07.777-.13.45-.108.46-.82 0-.926zm-1.573-4.13C7.353 11.465 6.86 9.996 6.83 8.636c-.255-.242-.666-.65-.905-.912C5.26 9.52 5.8 11.854 7.34 13.06c.316.07.64.12.974.142.516.033.6-.643.242-.894zm8.833-.158c-.264-1.42-.16-3.15 1.56-5.062-2.847 1.122-3.346 3.812-3.14 5.61.202.02.912.048 1.116.06.334.02.516-.32.463-.608zm-4.9 7.706c-1.304-.056-2.466-.636-3.255-1.587-.514.11-1.175.16-1.683.15.74 1.39 2.3 2.26 3.917 2.33.34.01.34.45.29.71.27-.18.7-.52.97-.72.37-.29.27-.88-.24-.9zm-4.125 3.446c-.724.226-1.473.372-2.236.435 4.42 1.942 10.2 1.74 13.93-1.508.2-.18.39-.52.58-.71-3.37 2.64-8.26 3.1-12.28 1.77z"/>
  <path fill="#134A78" d="M28.175 8.27c-.09-.17-.27-.272-.507-.174-.323.133-.648.254-.977.358.39-.49.7-1.047.92-1.678.15-.41-.36-.74-.7-.542-.85.487-1.73.833-2.67 1.055-1.63-1.52-3.91-1.89-5.97-.97-2.12.94-3.11 3.18-2.94 5.37-3.55-.36-6.77-2.1-9.05-4.86-.196-.24-.613-.16-.753.09-1.07 1.94-.87 4.18.37 5.85-.134-.06-.267-.12-.4-.19-.32-.17-.72.03-.72.41 0 1.82.894 3.44 2.31 4.42l-.02-.01c-.325-.05-.722.2-.59.59.615 1.76 1.977 3.02 3.695 3.5-1.775 1.04-3.77 1.45-5.873 1.24-.505-.05-.616.66-.243.89 4.427 2.79 10.088 2.94 14.69.46 4.497-2.42 7.32-7.79 7.156-12.836.906-.71 1.68-1.523 2.347-2.47.14-.2.094-.4-.035-.53zm-3.26 2.655c-.134.483-.005 1.147-.033 1.65-.05.865-.22 1.717-.436 2.554-.703 2.7-2.346 5.11-4.44 6.94-3.727 3.24-9.343 3.6-13.77 1.66 1.958-.16 3.82-.87 5.422-2.09.37-.29.268-.88-.242-.9-1.618-.07-3.016-.95-3.757-2.33.51.01 1.02-.04 1.55-.16.45-.11.46-.82 0-.93-1.81-.42-3.15-1.79-3.45-3.57.52.18 1.06.29 1.63.33.51.03.6-.65.24-.9C5.94 12 5.33 9.89 6.02 8.02c2.54 2.78 6.04 4.426 9.82 4.65.33.02.51-.32.46-.61-.53-2.87 1.55-5.38 4.48-5.313.61.01 1.2.19 1.74.453.31.154.59.363.85.585.177.15.325.395.56.46.446.123 1.156-.215 1.577-.355.173-.058.344-.123.513-.193-.33.455-.75.84-1.26 1.16-.37.234-.264.96.24.896.468-.06.923-.146 1.37-.258-.104.11-.21.22-.32.325-.32.31-1.033.633-1.153 1.07z"/>
</svg>
