<svg xmlns="http://www.w3.org/2000/svg" viewBox="0 0 32 32" width="100%" height="100%" preserveAspectRatio="none">
  <path fill="#02B995" d="M28.203 27.632c-.016.687-.284.95-.987.965H4.804c-.727-.016-.99-.27-1.007-.965v-2.307c0-.765.336-.877.48-.925l.026-.01c2.42-.94 4.76-2.168 6.964-3.655.946 2.004 2.46 3.515 4.503 4.494.08.03.166.05.252.05s.173-.02.253-.06c1.21-.59 2.246-1.36 3.076-2.31.58-.66 1.05-1.37 1.43-2.18.45.3.87.57 1.27.81 1.29.78 2.37 1.37 3.38 1.85h.01c.81.37 1.57.69 2.3.98l.03.01c.15.05.46.15.46.92v2.3z"/>
  <path fill="#E4E6E8" d="M12.243 20.006c.402-.296.782-.576 1.17-.875.008 0 .016-.01.023-.01.33-.28.512-.61.538-.98.03-.4-.132-.8-.48-1.19-.016-.02-.034-.03-.053-.05-.96-.84-1.57-1.88-1.87-3.16-.04-.2-.2-.36-.4-.42-.1-.03-.2-.09-.29-.19-.01-.01-.02-.03-.04-.04-.14-.13-.21-.29-.2-.48v-.06c-.01-.21.06-.38.22-.54.23-.23.37-.49.41-.81.01-.05.01-.1 0-.15-.12-.85-.18-1.74-.18-2.7V8.3c-.02-1.36.44-2.48 1.41-3.43l.01-.003c.86-.856 1.86-1.32 3.06-1.416h.04c.11-.01.21-.01.35-.01h.13c.13 0 .26 0 .37.02l.04.01c1.19.1 2.19.56 3.04 1.42l.01.01c.97.95 1.44 2.07 1.44 3.44 0 .92-.06 1.83-.19 2.77v.16c.04.29.18.54.41.74.15.17.218.35.218.57 0 .22-.07.39-.21.53-.113.11-.225.19-.335.22-.2.06-.35.22-.4.43-.3 1.3-.905 2.34-1.85 3.17-.026.02-.05.05-.07.07-.536.66-.536 1.42 0 2.09.03.04.063.07.1.1l.57.43c.18.13.37.27.544.41l.015.01.07.05c-.35.79-.78 1.47-1.326 2.09-.67.76-1.497 1.4-2.46 1.9-1.75-.9-2.99-2.21-3.78-4l.02-.01z"/>
  <path fill="#079B7E" d="M11.456 20.265c1.28 2.133 3.04 3.2 5.12 4.48v.107c-1.6 1.28-7.04-1.6-8-3.093.853-.54 2.347-.96 2.88-1.5z"/>
  <path fill="#134A78" d="M16.105 24.255c-.823-.76-1.93-1.126-2.592-2.054-.574-.8-.84-1.78-1.423-2.59-.18-.24-.597 0-.414.25.635.87.947 1.92 1.573 2.8.62.88 1.73 1.22 2.51 1.94.22.21.56-.13.34-.34z"/>
  <path fill="#134A78" d="M11.544 20.01c.38 1.6 1.794 2.438 2.584 3.79.156.267.57.026.414-.242-.763-1.305-2.17-2.138-2.536-3.676-.072-.3-.534-.173-.463.128z"/>
  <path fill="#134A78" d="M16.057 24.218c-1.706-.925-2.972-2.2-3.967-3.86-.16-.266-.574-.025-.414.24 1.035 1.728 2.364 3.072 4.14 4.034.27.148.513-.267.24-.414z"/>
  <path fill="#C9CACB" d="M15.616 3.572l-.253-.1c-1.123.128-2.067.582-2.88 1.393 0 0 .03 0 .03.002-.97.95-1.537 2.068-1.377 3.428v.008c0 .96.028 1.844.153 2.7 0 .052-.01.104-.02.156-.04.31-.18.58-.41.81-.17.16-.23.32-.22.54v.06c-.01.19.05.34.2.48l.04.04c.08.09.18.16.28.19.2.06.35.22.4.42.29 1.28.91 2.31 1.87 3.16.02.01.03.03.05.05.34.39.5.79.48 1.19-.03.37-.21.7-.54.98l-.03.02c-.39.3-.77.58-1.17.87l-.02.01c.79 1.78 2.03 3.1 3.78 4 .23-.13.46-.26.67-.39-1.82-2.21-2.71-6.8-3-9.39-.32-3.52-.32-7.79 1.92-10.67z"/>
  <path fill="#134A78" d="M28.13 23.27c-.713-.278-1.44-.587-2.224-.946-.973-.46-2.01-1.028-3.26-1.79-.662-.403-1.37-.878-2.23-1.49-.18-.14-.367-.278-.548-.412-.164-.122-.334-.248-.497-.372-.14-.196-.13-.33.02-.53 1.03-.914 1.73-2.073 2.11-3.45.18-.094.34-.218.5-.374.37-.364.56-.832.56-1.355s-.18-.99-.54-1.38l-.05-.04-.02-.02c.13-.95.18-1.87.18-2.79 0-1.67-.6-3.11-1.78-4.27-1.04-1.04-2.3-1.62-3.75-1.75-.18-.02-.36-.02-.51-.02h-.13c-.16 0-.31 0-.49.03-1.46.12-2.73.71-3.77 1.75-1.19 1.17-1.78 2.61-1.75 4.28 0 .98.06 1.88.19 2.76-.01.02-.03.05-.06.08-.39.39-.58.86-.56 1.4-.02.53.17.99.55 1.36.14.15.3.28.48.38.37 1.37 1.09 2.53 2.14 3.46.13.16.18.27.17.32 0 .04-.05.11-.12.17-.37.29-.74.56-1.13.85l-.27.2C9 20.96 6.52 22.31 3.93 23.31c-1.1.374-1.26 1.43-1.26 2.026v2.327c.014.66.21 1.18.58 1.55.37.36.9.555 1.57.57h22.45c.66-.02 1.19-.21 1.557-.57s.56-.89.577-1.545V25.3c0-1.32-.67-1.83-1.24-2.025zm-15.88-3.257c.402-.296.782-.576 1.17-.875l.023-.02c.33-.284.512-.613.538-.98.03-.398-.13-.8-.48-1.196-.01-.02-.03-.037-.05-.054-.96-.846-1.57-1.88-1.87-3.162-.04-.204-.2-.367-.4-.427-.1-.03-.2-.1-.29-.19-.01-.02-.03-.03-.04-.05-.14-.14-.21-.29-.2-.48v-.07c-.01-.22.06-.38.22-.54.24-.23.37-.5.41-.81.01-.06.01-.11 0-.16-.12-.86-.18-1.74-.18-2.7-.02-1.36.44-2.48 1.41-3.43l.01-.01c.86-.86 1.86-1.32 3.06-1.42.02 0 .03 0 .04-.01.11-.02.21-.02.35-.02h.13c.14 0 .26 0 .37.01h.04c1.19.1 2.19.56 3.04 1.41.97.94 1.44 2.07 1.44 3.44 0 .91-.06 1.82-.19 2.77-.01.05-.01.1 0 .16.04.29.18.53.4.74.15.16.22.34.22.57 0 .21-.07.38-.21.53-.11.11-.22.18-.33.21-.2.06-.35.22-.4.43-.3 1.29-.9 2.33-1.85 3.16-.03.02-.05.04-.07.07-.54.66-.54 1.42 0 2.08.03.04.06.07.1.1.19.14.38.29.57.43.18.13.37.27.54.41l.02.01.07.05c-.35.78-.78 1.47-1.322 2.09-.67.76-1.49 1.4-2.45 1.89-1.75-.9-2.99-2.21-3.78-3.99l.01-.01zM28.2 27.6c-.015.688-.283.95-.986.966H4.804c-.727-.016-.99-.27-1.007-.965v-2.3c0-.76.336-.87.48-.92l.026-.01c2.42-.94 4.76-2.17 6.964-3.65.946 2.01 2.46 3.52 4.503 4.5.08.04.166.06.252.06s.173-.02.253-.05c1.21-.58 2.246-1.36 3.076-2.3.58-.65 1.05-1.37 1.43-2.18.45.31.87.57 1.27.82 1.29.79 2.37 1.37 3.38 1.85h.01c.81.37 1.57.69 2.3.98l.03.01c.15.05.46.16.46.93v2.31z"/>
</svg>
