<svg xmlns="http://www.w3.org/2000/svg" viewBox="0 0 32 32" width="100%" height="100%" preserveAspectRatio="none">
<g>
<polygon id="Fondo" fill="#E4E6E8" points="30.354,29.369 1.433,29.369 14.998,3.409 	"/>
<g id="Trazo">
<path fill="#134A78" d="M30.471,29.671c-0.005,0.001-0.013,0-0.02,0H1.531c-0.242,0-0.466-0.126-0.591-0.334c-0.125-0.206-0.133-0.464-0.022-0.678l13.565-25.96c0.116-0.222,0.344-0.364,0.594-0.37c0.256-0.013,0.486,0.123,0.613,0.339l15.283,25.838c0.116,0.123,0.188,0.291,0.188,0.474C31.162,29.361,30.853,29.671,30.471,29.671z M2.671,28.288H29.24L15.133,4.441L2.671,28.288z"/>
</g>
<g id="exclamacion">
<path fill="#00497B" d="M15.515,22.613c0.672,0,1.085-0.468,1.109-1.044l0.349-8.534c0.025-0.576-0.424-1.043-1.001-1.043h-0.958c-0.576,0-1.014,0.466-0.975,1.042l0.399,8.536C14.435,22.203,15.097,22.613,15.515,22.613z"/>
<circle fill="#00497B" cx="15.503" cy="25.194" r="1.246"/>
</g>
</g>
</svg>
